G04 #@! TF.GenerationSoftware,KiCad,Pcbnew,(2018-02-05 revision d1a45d147)-makepkg*
G04 #@! TF.CreationDate,2019-11-12T11:54:18-08:00*
G04 #@! TF.ProjectId,lichen-badge,6C696368656E2D62616467652E6B6963,rev?*
G04 #@! TF.SameCoordinates,Original*
G04 #@! TF.FileFunction,Paste,Top*
G04 #@! TF.FilePolarity,Positive*
%FSLAX46Y46*%
G04 Gerber Fmt 4.6, Leading zero omitted, Abs format (unit mm)*
G04 Created by KiCad (PCBNEW (2018-02-05 revision d1a45d147)-makepkg) date 11/12/19 11:54:18*
%MOMM*%
%LPD*%
G01*
G04 APERTURE LIST*
%ADD10C,0.100000*%
%ADD11C,0.975000*%
%ADD12R,1.400000X0.800000*%
%ADD13R,0.400000X0.500000*%
%ADD14R,0.300000X0.500000*%
%ADD15C,0.590000*%
%ADD16R,0.900000X0.800000*%
%ADD17R,0.700000X1.450000*%
%ADD18C,1.300000*%
%ADD19C,1.000000*%
%ADD20C,0.800000*%
%ADD21C,0.700000*%
%ADD22C,2.100000*%
%ADD23C,0.875000*%
%ADD24R,1.200000X3.700000*%
%ADD25R,0.450000X1.450000*%
%ADD26C,1.500000*%
%ADD27R,1.060000X0.650000*%
%ADD28R,0.299720X0.487680*%
%ADD29R,0.299720X0.518160*%
%ADD30R,1.175000X1.900000*%
%ADD31R,2.375000X1.900000*%
%ADD32R,1.475000X2.100000*%
%ADD33R,0.450000X1.380000*%
%ADD34C,0.600000*%
%ADD35R,0.305000X0.813000*%
%ADD36R,0.813000X0.305000*%
G04 APERTURE END LIST*
D10*
G36*
X94968142Y-118387974D02*
X94991803Y-118391484D01*
X95015007Y-118397296D01*
X95037529Y-118405354D01*
X95059153Y-118415582D01*
X95079670Y-118427879D01*
X95098883Y-118442129D01*
X95116607Y-118458193D01*
X95132671Y-118475917D01*
X95146921Y-118495130D01*
X95159218Y-118515647D01*
X95169446Y-118537271D01*
X95177504Y-118559793D01*
X95183316Y-118582997D01*
X95186826Y-118606658D01*
X95188000Y-118630550D01*
X95188000Y-119118050D01*
X95186826Y-119141942D01*
X95183316Y-119165603D01*
X95177504Y-119188807D01*
X95169446Y-119211329D01*
X95159218Y-119232953D01*
X95146921Y-119253470D01*
X95132671Y-119272683D01*
X95116607Y-119290407D01*
X95098883Y-119306471D01*
X95079670Y-119320721D01*
X95059153Y-119333018D01*
X95037529Y-119343246D01*
X95015007Y-119351304D01*
X94991803Y-119357116D01*
X94968142Y-119360626D01*
X94944250Y-119361800D01*
X94031750Y-119361800D01*
X94007858Y-119360626D01*
X93984197Y-119357116D01*
X93960993Y-119351304D01*
X93938471Y-119343246D01*
X93916847Y-119333018D01*
X93896330Y-119320721D01*
X93877117Y-119306471D01*
X93859393Y-119290407D01*
X93843329Y-119272683D01*
X93829079Y-119253470D01*
X93816782Y-119232953D01*
X93806554Y-119211329D01*
X93798496Y-119188807D01*
X93792684Y-119165603D01*
X93789174Y-119141942D01*
X93788000Y-119118050D01*
X93788000Y-118630550D01*
X93789174Y-118606658D01*
X93792684Y-118582997D01*
X93798496Y-118559793D01*
X93806554Y-118537271D01*
X93816782Y-118515647D01*
X93829079Y-118495130D01*
X93843329Y-118475917D01*
X93859393Y-118458193D01*
X93877117Y-118442129D01*
X93896330Y-118427879D01*
X93916847Y-118415582D01*
X93938471Y-118405354D01*
X93960993Y-118397296D01*
X93984197Y-118391484D01*
X94007858Y-118387974D01*
X94031750Y-118386800D01*
X94944250Y-118386800D01*
X94968142Y-118387974D01*
X94968142Y-118387974D01*
G37*
D11*
X94488000Y-118874300D03*
D10*
G36*
X94968142Y-120262974D02*
X94991803Y-120266484D01*
X95015007Y-120272296D01*
X95037529Y-120280354D01*
X95059153Y-120290582D01*
X95079670Y-120302879D01*
X95098883Y-120317129D01*
X95116607Y-120333193D01*
X95132671Y-120350917D01*
X95146921Y-120370130D01*
X95159218Y-120390647D01*
X95169446Y-120412271D01*
X95177504Y-120434793D01*
X95183316Y-120457997D01*
X95186826Y-120481658D01*
X95188000Y-120505550D01*
X95188000Y-120993050D01*
X95186826Y-121016942D01*
X95183316Y-121040603D01*
X95177504Y-121063807D01*
X95169446Y-121086329D01*
X95159218Y-121107953D01*
X95146921Y-121128470D01*
X95132671Y-121147683D01*
X95116607Y-121165407D01*
X95098883Y-121181471D01*
X95079670Y-121195721D01*
X95059153Y-121208018D01*
X95037529Y-121218246D01*
X95015007Y-121226304D01*
X94991803Y-121232116D01*
X94968142Y-121235626D01*
X94944250Y-121236800D01*
X94031750Y-121236800D01*
X94007858Y-121235626D01*
X93984197Y-121232116D01*
X93960993Y-121226304D01*
X93938471Y-121218246D01*
X93916847Y-121208018D01*
X93896330Y-121195721D01*
X93877117Y-121181471D01*
X93859393Y-121165407D01*
X93843329Y-121147683D01*
X93829079Y-121128470D01*
X93816782Y-121107953D01*
X93806554Y-121086329D01*
X93798496Y-121063807D01*
X93792684Y-121040603D01*
X93789174Y-121016942D01*
X93788000Y-120993050D01*
X93788000Y-120505550D01*
X93789174Y-120481658D01*
X93792684Y-120457997D01*
X93798496Y-120434793D01*
X93806554Y-120412271D01*
X93816782Y-120390647D01*
X93829079Y-120370130D01*
X93843329Y-120350917D01*
X93859393Y-120333193D01*
X93877117Y-120317129D01*
X93896330Y-120302879D01*
X93916847Y-120290582D01*
X93938471Y-120280354D01*
X93960993Y-120272296D01*
X93984197Y-120266484D01*
X94007858Y-120262974D01*
X94031750Y-120261800D01*
X94944250Y-120261800D01*
X94968142Y-120262974D01*
X94968142Y-120262974D01*
G37*
D11*
X94488000Y-120749300D03*
D12*
X106899400Y-82587000D03*
X112099400Y-82587000D03*
X112099400Y-84037000D03*
X106899400Y-84037000D03*
X92548400Y-83145800D03*
X97748400Y-83145800D03*
X97748400Y-84595800D03*
X92548400Y-84595800D03*
D13*
X110122400Y-76512800D03*
D14*
X109622400Y-76512800D03*
D13*
X108622400Y-76512800D03*
D14*
X109122400Y-76512800D03*
D13*
X110122400Y-77512800D03*
D14*
X109122400Y-77512800D03*
X109622400Y-77512800D03*
D13*
X108622400Y-77512800D03*
X96000000Y-76512800D03*
D14*
X95500000Y-76512800D03*
D13*
X94500000Y-76512800D03*
D14*
X95000000Y-76512800D03*
D13*
X96000000Y-77512800D03*
D14*
X95000000Y-77512800D03*
X95500000Y-77512800D03*
D13*
X94500000Y-77512800D03*
D10*
G36*
X86498958Y-81664290D02*
X86513276Y-81666414D01*
X86527317Y-81669931D01*
X86540946Y-81674808D01*
X86554031Y-81680997D01*
X86566447Y-81688438D01*
X86578073Y-81697061D01*
X86588798Y-81706782D01*
X86598519Y-81717507D01*
X86607142Y-81729133D01*
X86614583Y-81741549D01*
X86620772Y-81754634D01*
X86625649Y-81768263D01*
X86629166Y-81782304D01*
X86631290Y-81796622D01*
X86632000Y-81811080D01*
X86632000Y-82156080D01*
X86631290Y-82170538D01*
X86629166Y-82184856D01*
X86625649Y-82198897D01*
X86620772Y-82212526D01*
X86614583Y-82225611D01*
X86607142Y-82238027D01*
X86598519Y-82249653D01*
X86588798Y-82260378D01*
X86578073Y-82270099D01*
X86566447Y-82278722D01*
X86554031Y-82286163D01*
X86540946Y-82292352D01*
X86527317Y-82297229D01*
X86513276Y-82300746D01*
X86498958Y-82302870D01*
X86484500Y-82303580D01*
X86189500Y-82303580D01*
X86175042Y-82302870D01*
X86160724Y-82300746D01*
X86146683Y-82297229D01*
X86133054Y-82292352D01*
X86119969Y-82286163D01*
X86107553Y-82278722D01*
X86095927Y-82270099D01*
X86085202Y-82260378D01*
X86075481Y-82249653D01*
X86066858Y-82238027D01*
X86059417Y-82225611D01*
X86053228Y-82212526D01*
X86048351Y-82198897D01*
X86044834Y-82184856D01*
X86042710Y-82170538D01*
X86042000Y-82156080D01*
X86042000Y-81811080D01*
X86042710Y-81796622D01*
X86044834Y-81782304D01*
X86048351Y-81768263D01*
X86053228Y-81754634D01*
X86059417Y-81741549D01*
X86066858Y-81729133D01*
X86075481Y-81717507D01*
X86085202Y-81706782D01*
X86095927Y-81697061D01*
X86107553Y-81688438D01*
X86119969Y-81680997D01*
X86133054Y-81674808D01*
X86146683Y-81669931D01*
X86160724Y-81666414D01*
X86175042Y-81664290D01*
X86189500Y-81663580D01*
X86484500Y-81663580D01*
X86498958Y-81664290D01*
X86498958Y-81664290D01*
G37*
D15*
X86337000Y-81983580D03*
D10*
G36*
X85528958Y-81664290D02*
X85543276Y-81666414D01*
X85557317Y-81669931D01*
X85570946Y-81674808D01*
X85584031Y-81680997D01*
X85596447Y-81688438D01*
X85608073Y-81697061D01*
X85618798Y-81706782D01*
X85628519Y-81717507D01*
X85637142Y-81729133D01*
X85644583Y-81741549D01*
X85650772Y-81754634D01*
X85655649Y-81768263D01*
X85659166Y-81782304D01*
X85661290Y-81796622D01*
X85662000Y-81811080D01*
X85662000Y-82156080D01*
X85661290Y-82170538D01*
X85659166Y-82184856D01*
X85655649Y-82198897D01*
X85650772Y-82212526D01*
X85644583Y-82225611D01*
X85637142Y-82238027D01*
X85628519Y-82249653D01*
X85618798Y-82260378D01*
X85608073Y-82270099D01*
X85596447Y-82278722D01*
X85584031Y-82286163D01*
X85570946Y-82292352D01*
X85557317Y-82297229D01*
X85543276Y-82300746D01*
X85528958Y-82302870D01*
X85514500Y-82303580D01*
X85219500Y-82303580D01*
X85205042Y-82302870D01*
X85190724Y-82300746D01*
X85176683Y-82297229D01*
X85163054Y-82292352D01*
X85149969Y-82286163D01*
X85137553Y-82278722D01*
X85125927Y-82270099D01*
X85115202Y-82260378D01*
X85105481Y-82249653D01*
X85096858Y-82238027D01*
X85089417Y-82225611D01*
X85083228Y-82212526D01*
X85078351Y-82198897D01*
X85074834Y-82184856D01*
X85072710Y-82170538D01*
X85072000Y-82156080D01*
X85072000Y-81811080D01*
X85072710Y-81796622D01*
X85074834Y-81782304D01*
X85078351Y-81768263D01*
X85083228Y-81754634D01*
X85089417Y-81741549D01*
X85096858Y-81729133D01*
X85105481Y-81717507D01*
X85115202Y-81706782D01*
X85125927Y-81697061D01*
X85137553Y-81688438D01*
X85149969Y-81680997D01*
X85163054Y-81674808D01*
X85176683Y-81669931D01*
X85190724Y-81666414D01*
X85205042Y-81664290D01*
X85219500Y-81663580D01*
X85514500Y-81663580D01*
X85528958Y-81664290D01*
X85528958Y-81664290D01*
G37*
D15*
X85367000Y-81983580D03*
D10*
G36*
X86498958Y-89393510D02*
X86513276Y-89395634D01*
X86527317Y-89399151D01*
X86540946Y-89404028D01*
X86554031Y-89410217D01*
X86566447Y-89417658D01*
X86578073Y-89426281D01*
X86588798Y-89436002D01*
X86598519Y-89446727D01*
X86607142Y-89458353D01*
X86614583Y-89470769D01*
X86620772Y-89483854D01*
X86625649Y-89497483D01*
X86629166Y-89511524D01*
X86631290Y-89525842D01*
X86632000Y-89540300D01*
X86632000Y-89885300D01*
X86631290Y-89899758D01*
X86629166Y-89914076D01*
X86625649Y-89928117D01*
X86620772Y-89941746D01*
X86614583Y-89954831D01*
X86607142Y-89967247D01*
X86598519Y-89978873D01*
X86588798Y-89989598D01*
X86578073Y-89999319D01*
X86566447Y-90007942D01*
X86554031Y-90015383D01*
X86540946Y-90021572D01*
X86527317Y-90026449D01*
X86513276Y-90029966D01*
X86498958Y-90032090D01*
X86484500Y-90032800D01*
X86189500Y-90032800D01*
X86175042Y-90032090D01*
X86160724Y-90029966D01*
X86146683Y-90026449D01*
X86133054Y-90021572D01*
X86119969Y-90015383D01*
X86107553Y-90007942D01*
X86095927Y-89999319D01*
X86085202Y-89989598D01*
X86075481Y-89978873D01*
X86066858Y-89967247D01*
X86059417Y-89954831D01*
X86053228Y-89941746D01*
X86048351Y-89928117D01*
X86044834Y-89914076D01*
X86042710Y-89899758D01*
X86042000Y-89885300D01*
X86042000Y-89540300D01*
X86042710Y-89525842D01*
X86044834Y-89511524D01*
X86048351Y-89497483D01*
X86053228Y-89483854D01*
X86059417Y-89470769D01*
X86066858Y-89458353D01*
X86075481Y-89446727D01*
X86085202Y-89436002D01*
X86095927Y-89426281D01*
X86107553Y-89417658D01*
X86119969Y-89410217D01*
X86133054Y-89404028D01*
X86146683Y-89399151D01*
X86160724Y-89395634D01*
X86175042Y-89393510D01*
X86189500Y-89392800D01*
X86484500Y-89392800D01*
X86498958Y-89393510D01*
X86498958Y-89393510D01*
G37*
D15*
X86337000Y-89712800D03*
D10*
G36*
X85528958Y-89393510D02*
X85543276Y-89395634D01*
X85557317Y-89399151D01*
X85570946Y-89404028D01*
X85584031Y-89410217D01*
X85596447Y-89417658D01*
X85608073Y-89426281D01*
X85618798Y-89436002D01*
X85628519Y-89446727D01*
X85637142Y-89458353D01*
X85644583Y-89470769D01*
X85650772Y-89483854D01*
X85655649Y-89497483D01*
X85659166Y-89511524D01*
X85661290Y-89525842D01*
X85662000Y-89540300D01*
X85662000Y-89885300D01*
X85661290Y-89899758D01*
X85659166Y-89914076D01*
X85655649Y-89928117D01*
X85650772Y-89941746D01*
X85644583Y-89954831D01*
X85637142Y-89967247D01*
X85628519Y-89978873D01*
X85618798Y-89989598D01*
X85608073Y-89999319D01*
X85596447Y-90007942D01*
X85584031Y-90015383D01*
X85570946Y-90021572D01*
X85557317Y-90026449D01*
X85543276Y-90029966D01*
X85528958Y-90032090D01*
X85514500Y-90032800D01*
X85219500Y-90032800D01*
X85205042Y-90032090D01*
X85190724Y-90029966D01*
X85176683Y-90026449D01*
X85163054Y-90021572D01*
X85149969Y-90015383D01*
X85137553Y-90007942D01*
X85125927Y-89999319D01*
X85115202Y-89989598D01*
X85105481Y-89978873D01*
X85096858Y-89967247D01*
X85089417Y-89954831D01*
X85083228Y-89941746D01*
X85078351Y-89928117D01*
X85074834Y-89914076D01*
X85072710Y-89899758D01*
X85072000Y-89885300D01*
X85072000Y-89540300D01*
X85072710Y-89525842D01*
X85074834Y-89511524D01*
X85078351Y-89497483D01*
X85083228Y-89483854D01*
X85089417Y-89470769D01*
X85096858Y-89458353D01*
X85105481Y-89446727D01*
X85115202Y-89436002D01*
X85125927Y-89426281D01*
X85137553Y-89417658D01*
X85149969Y-89410217D01*
X85163054Y-89404028D01*
X85176683Y-89399151D01*
X85190724Y-89395634D01*
X85205042Y-89393510D01*
X85219500Y-89392800D01*
X85514500Y-89392800D01*
X85528958Y-89393510D01*
X85528958Y-89393510D01*
G37*
D15*
X85367000Y-89712800D03*
D10*
G36*
X86498958Y-97013510D02*
X86513276Y-97015634D01*
X86527317Y-97019151D01*
X86540946Y-97024028D01*
X86554031Y-97030217D01*
X86566447Y-97037658D01*
X86578073Y-97046281D01*
X86588798Y-97056002D01*
X86598519Y-97066727D01*
X86607142Y-97078353D01*
X86614583Y-97090769D01*
X86620772Y-97103854D01*
X86625649Y-97117483D01*
X86629166Y-97131524D01*
X86631290Y-97145842D01*
X86632000Y-97160300D01*
X86632000Y-97505300D01*
X86631290Y-97519758D01*
X86629166Y-97534076D01*
X86625649Y-97548117D01*
X86620772Y-97561746D01*
X86614583Y-97574831D01*
X86607142Y-97587247D01*
X86598519Y-97598873D01*
X86588798Y-97609598D01*
X86578073Y-97619319D01*
X86566447Y-97627942D01*
X86554031Y-97635383D01*
X86540946Y-97641572D01*
X86527317Y-97646449D01*
X86513276Y-97649966D01*
X86498958Y-97652090D01*
X86484500Y-97652800D01*
X86189500Y-97652800D01*
X86175042Y-97652090D01*
X86160724Y-97649966D01*
X86146683Y-97646449D01*
X86133054Y-97641572D01*
X86119969Y-97635383D01*
X86107553Y-97627942D01*
X86095927Y-97619319D01*
X86085202Y-97609598D01*
X86075481Y-97598873D01*
X86066858Y-97587247D01*
X86059417Y-97574831D01*
X86053228Y-97561746D01*
X86048351Y-97548117D01*
X86044834Y-97534076D01*
X86042710Y-97519758D01*
X86042000Y-97505300D01*
X86042000Y-97160300D01*
X86042710Y-97145842D01*
X86044834Y-97131524D01*
X86048351Y-97117483D01*
X86053228Y-97103854D01*
X86059417Y-97090769D01*
X86066858Y-97078353D01*
X86075481Y-97066727D01*
X86085202Y-97056002D01*
X86095927Y-97046281D01*
X86107553Y-97037658D01*
X86119969Y-97030217D01*
X86133054Y-97024028D01*
X86146683Y-97019151D01*
X86160724Y-97015634D01*
X86175042Y-97013510D01*
X86189500Y-97012800D01*
X86484500Y-97012800D01*
X86498958Y-97013510D01*
X86498958Y-97013510D01*
G37*
D15*
X86337000Y-97332800D03*
D10*
G36*
X85528958Y-97013510D02*
X85543276Y-97015634D01*
X85557317Y-97019151D01*
X85570946Y-97024028D01*
X85584031Y-97030217D01*
X85596447Y-97037658D01*
X85608073Y-97046281D01*
X85618798Y-97056002D01*
X85628519Y-97066727D01*
X85637142Y-97078353D01*
X85644583Y-97090769D01*
X85650772Y-97103854D01*
X85655649Y-97117483D01*
X85659166Y-97131524D01*
X85661290Y-97145842D01*
X85662000Y-97160300D01*
X85662000Y-97505300D01*
X85661290Y-97519758D01*
X85659166Y-97534076D01*
X85655649Y-97548117D01*
X85650772Y-97561746D01*
X85644583Y-97574831D01*
X85637142Y-97587247D01*
X85628519Y-97598873D01*
X85618798Y-97609598D01*
X85608073Y-97619319D01*
X85596447Y-97627942D01*
X85584031Y-97635383D01*
X85570946Y-97641572D01*
X85557317Y-97646449D01*
X85543276Y-97649966D01*
X85528958Y-97652090D01*
X85514500Y-97652800D01*
X85219500Y-97652800D01*
X85205042Y-97652090D01*
X85190724Y-97649966D01*
X85176683Y-97646449D01*
X85163054Y-97641572D01*
X85149969Y-97635383D01*
X85137553Y-97627942D01*
X85125927Y-97619319D01*
X85115202Y-97609598D01*
X85105481Y-97598873D01*
X85096858Y-97587247D01*
X85089417Y-97574831D01*
X85083228Y-97561746D01*
X85078351Y-97548117D01*
X85074834Y-97534076D01*
X85072710Y-97519758D01*
X85072000Y-97505300D01*
X85072000Y-97160300D01*
X85072710Y-97145842D01*
X85074834Y-97131524D01*
X85078351Y-97117483D01*
X85083228Y-97103854D01*
X85089417Y-97090769D01*
X85096858Y-97078353D01*
X85105481Y-97066727D01*
X85115202Y-97056002D01*
X85125927Y-97046281D01*
X85137553Y-97037658D01*
X85149969Y-97030217D01*
X85163054Y-97024028D01*
X85176683Y-97019151D01*
X85190724Y-97015634D01*
X85205042Y-97013510D01*
X85219500Y-97012800D01*
X85514500Y-97012800D01*
X85528958Y-97013510D01*
X85528958Y-97013510D01*
G37*
D15*
X85367000Y-97332800D03*
D10*
G36*
X85528958Y-80216490D02*
X85543276Y-80218614D01*
X85557317Y-80222131D01*
X85570946Y-80227008D01*
X85584031Y-80233197D01*
X85596447Y-80240638D01*
X85608073Y-80249261D01*
X85618798Y-80258982D01*
X85628519Y-80269707D01*
X85637142Y-80281333D01*
X85644583Y-80293749D01*
X85650772Y-80306834D01*
X85655649Y-80320463D01*
X85659166Y-80334504D01*
X85661290Y-80348822D01*
X85662000Y-80363280D01*
X85662000Y-80708280D01*
X85661290Y-80722738D01*
X85659166Y-80737056D01*
X85655649Y-80751097D01*
X85650772Y-80764726D01*
X85644583Y-80777811D01*
X85637142Y-80790227D01*
X85628519Y-80801853D01*
X85618798Y-80812578D01*
X85608073Y-80822299D01*
X85596447Y-80830922D01*
X85584031Y-80838363D01*
X85570946Y-80844552D01*
X85557317Y-80849429D01*
X85543276Y-80852946D01*
X85528958Y-80855070D01*
X85514500Y-80855780D01*
X85219500Y-80855780D01*
X85205042Y-80855070D01*
X85190724Y-80852946D01*
X85176683Y-80849429D01*
X85163054Y-80844552D01*
X85149969Y-80838363D01*
X85137553Y-80830922D01*
X85125927Y-80822299D01*
X85115202Y-80812578D01*
X85105481Y-80801853D01*
X85096858Y-80790227D01*
X85089417Y-80777811D01*
X85083228Y-80764726D01*
X85078351Y-80751097D01*
X85074834Y-80737056D01*
X85072710Y-80722738D01*
X85072000Y-80708280D01*
X85072000Y-80363280D01*
X85072710Y-80348822D01*
X85074834Y-80334504D01*
X85078351Y-80320463D01*
X85083228Y-80306834D01*
X85089417Y-80293749D01*
X85096858Y-80281333D01*
X85105481Y-80269707D01*
X85115202Y-80258982D01*
X85125927Y-80249261D01*
X85137553Y-80240638D01*
X85149969Y-80233197D01*
X85163054Y-80227008D01*
X85176683Y-80222131D01*
X85190724Y-80218614D01*
X85205042Y-80216490D01*
X85219500Y-80215780D01*
X85514500Y-80215780D01*
X85528958Y-80216490D01*
X85528958Y-80216490D01*
G37*
D15*
X85367000Y-80535780D03*
D10*
G36*
X86498958Y-80216490D02*
X86513276Y-80218614D01*
X86527317Y-80222131D01*
X86540946Y-80227008D01*
X86554031Y-80233197D01*
X86566447Y-80240638D01*
X86578073Y-80249261D01*
X86588798Y-80258982D01*
X86598519Y-80269707D01*
X86607142Y-80281333D01*
X86614583Y-80293749D01*
X86620772Y-80306834D01*
X86625649Y-80320463D01*
X86629166Y-80334504D01*
X86631290Y-80348822D01*
X86632000Y-80363280D01*
X86632000Y-80708280D01*
X86631290Y-80722738D01*
X86629166Y-80737056D01*
X86625649Y-80751097D01*
X86620772Y-80764726D01*
X86614583Y-80777811D01*
X86607142Y-80790227D01*
X86598519Y-80801853D01*
X86588798Y-80812578D01*
X86578073Y-80822299D01*
X86566447Y-80830922D01*
X86554031Y-80838363D01*
X86540946Y-80844552D01*
X86527317Y-80849429D01*
X86513276Y-80852946D01*
X86498958Y-80855070D01*
X86484500Y-80855780D01*
X86189500Y-80855780D01*
X86175042Y-80855070D01*
X86160724Y-80852946D01*
X86146683Y-80849429D01*
X86133054Y-80844552D01*
X86119969Y-80838363D01*
X86107553Y-80830922D01*
X86095927Y-80822299D01*
X86085202Y-80812578D01*
X86075481Y-80801853D01*
X86066858Y-80790227D01*
X86059417Y-80777811D01*
X86053228Y-80764726D01*
X86048351Y-80751097D01*
X86044834Y-80737056D01*
X86042710Y-80722738D01*
X86042000Y-80708280D01*
X86042000Y-80363280D01*
X86042710Y-80348822D01*
X86044834Y-80334504D01*
X86048351Y-80320463D01*
X86053228Y-80306834D01*
X86059417Y-80293749D01*
X86066858Y-80281333D01*
X86075481Y-80269707D01*
X86085202Y-80258982D01*
X86095927Y-80249261D01*
X86107553Y-80240638D01*
X86119969Y-80233197D01*
X86133054Y-80227008D01*
X86146683Y-80222131D01*
X86160724Y-80218614D01*
X86175042Y-80216490D01*
X86189500Y-80215780D01*
X86484500Y-80215780D01*
X86498958Y-80216490D01*
X86498958Y-80216490D01*
G37*
D15*
X86337000Y-80535780D03*
D10*
G36*
X85528958Y-88123510D02*
X85543276Y-88125634D01*
X85557317Y-88129151D01*
X85570946Y-88134028D01*
X85584031Y-88140217D01*
X85596447Y-88147658D01*
X85608073Y-88156281D01*
X85618798Y-88166002D01*
X85628519Y-88176727D01*
X85637142Y-88188353D01*
X85644583Y-88200769D01*
X85650772Y-88213854D01*
X85655649Y-88227483D01*
X85659166Y-88241524D01*
X85661290Y-88255842D01*
X85662000Y-88270300D01*
X85662000Y-88615300D01*
X85661290Y-88629758D01*
X85659166Y-88644076D01*
X85655649Y-88658117D01*
X85650772Y-88671746D01*
X85644583Y-88684831D01*
X85637142Y-88697247D01*
X85628519Y-88708873D01*
X85618798Y-88719598D01*
X85608073Y-88729319D01*
X85596447Y-88737942D01*
X85584031Y-88745383D01*
X85570946Y-88751572D01*
X85557317Y-88756449D01*
X85543276Y-88759966D01*
X85528958Y-88762090D01*
X85514500Y-88762800D01*
X85219500Y-88762800D01*
X85205042Y-88762090D01*
X85190724Y-88759966D01*
X85176683Y-88756449D01*
X85163054Y-88751572D01*
X85149969Y-88745383D01*
X85137553Y-88737942D01*
X85125927Y-88729319D01*
X85115202Y-88719598D01*
X85105481Y-88708873D01*
X85096858Y-88697247D01*
X85089417Y-88684831D01*
X85083228Y-88671746D01*
X85078351Y-88658117D01*
X85074834Y-88644076D01*
X85072710Y-88629758D01*
X85072000Y-88615300D01*
X85072000Y-88270300D01*
X85072710Y-88255842D01*
X85074834Y-88241524D01*
X85078351Y-88227483D01*
X85083228Y-88213854D01*
X85089417Y-88200769D01*
X85096858Y-88188353D01*
X85105481Y-88176727D01*
X85115202Y-88166002D01*
X85125927Y-88156281D01*
X85137553Y-88147658D01*
X85149969Y-88140217D01*
X85163054Y-88134028D01*
X85176683Y-88129151D01*
X85190724Y-88125634D01*
X85205042Y-88123510D01*
X85219500Y-88122800D01*
X85514500Y-88122800D01*
X85528958Y-88123510D01*
X85528958Y-88123510D01*
G37*
D15*
X85367000Y-88442800D03*
D10*
G36*
X86498958Y-88123510D02*
X86513276Y-88125634D01*
X86527317Y-88129151D01*
X86540946Y-88134028D01*
X86554031Y-88140217D01*
X86566447Y-88147658D01*
X86578073Y-88156281D01*
X86588798Y-88166002D01*
X86598519Y-88176727D01*
X86607142Y-88188353D01*
X86614583Y-88200769D01*
X86620772Y-88213854D01*
X86625649Y-88227483D01*
X86629166Y-88241524D01*
X86631290Y-88255842D01*
X86632000Y-88270300D01*
X86632000Y-88615300D01*
X86631290Y-88629758D01*
X86629166Y-88644076D01*
X86625649Y-88658117D01*
X86620772Y-88671746D01*
X86614583Y-88684831D01*
X86607142Y-88697247D01*
X86598519Y-88708873D01*
X86588798Y-88719598D01*
X86578073Y-88729319D01*
X86566447Y-88737942D01*
X86554031Y-88745383D01*
X86540946Y-88751572D01*
X86527317Y-88756449D01*
X86513276Y-88759966D01*
X86498958Y-88762090D01*
X86484500Y-88762800D01*
X86189500Y-88762800D01*
X86175042Y-88762090D01*
X86160724Y-88759966D01*
X86146683Y-88756449D01*
X86133054Y-88751572D01*
X86119969Y-88745383D01*
X86107553Y-88737942D01*
X86095927Y-88729319D01*
X86085202Y-88719598D01*
X86075481Y-88708873D01*
X86066858Y-88697247D01*
X86059417Y-88684831D01*
X86053228Y-88671746D01*
X86048351Y-88658117D01*
X86044834Y-88644076D01*
X86042710Y-88629758D01*
X86042000Y-88615300D01*
X86042000Y-88270300D01*
X86042710Y-88255842D01*
X86044834Y-88241524D01*
X86048351Y-88227483D01*
X86053228Y-88213854D01*
X86059417Y-88200769D01*
X86066858Y-88188353D01*
X86075481Y-88176727D01*
X86085202Y-88166002D01*
X86095927Y-88156281D01*
X86107553Y-88147658D01*
X86119969Y-88140217D01*
X86133054Y-88134028D01*
X86146683Y-88129151D01*
X86160724Y-88125634D01*
X86175042Y-88123510D01*
X86189500Y-88122800D01*
X86484500Y-88122800D01*
X86498958Y-88123510D01*
X86498958Y-88123510D01*
G37*
D15*
X86337000Y-88442800D03*
D10*
G36*
X85528958Y-95558090D02*
X85543276Y-95560214D01*
X85557317Y-95563731D01*
X85570946Y-95568608D01*
X85584031Y-95574797D01*
X85596447Y-95582238D01*
X85608073Y-95590861D01*
X85618798Y-95600582D01*
X85628519Y-95611307D01*
X85637142Y-95622933D01*
X85644583Y-95635349D01*
X85650772Y-95648434D01*
X85655649Y-95662063D01*
X85659166Y-95676104D01*
X85661290Y-95690422D01*
X85662000Y-95704880D01*
X85662000Y-96049880D01*
X85661290Y-96064338D01*
X85659166Y-96078656D01*
X85655649Y-96092697D01*
X85650772Y-96106326D01*
X85644583Y-96119411D01*
X85637142Y-96131827D01*
X85628519Y-96143453D01*
X85618798Y-96154178D01*
X85608073Y-96163899D01*
X85596447Y-96172522D01*
X85584031Y-96179963D01*
X85570946Y-96186152D01*
X85557317Y-96191029D01*
X85543276Y-96194546D01*
X85528958Y-96196670D01*
X85514500Y-96197380D01*
X85219500Y-96197380D01*
X85205042Y-96196670D01*
X85190724Y-96194546D01*
X85176683Y-96191029D01*
X85163054Y-96186152D01*
X85149969Y-96179963D01*
X85137553Y-96172522D01*
X85125927Y-96163899D01*
X85115202Y-96154178D01*
X85105481Y-96143453D01*
X85096858Y-96131827D01*
X85089417Y-96119411D01*
X85083228Y-96106326D01*
X85078351Y-96092697D01*
X85074834Y-96078656D01*
X85072710Y-96064338D01*
X85072000Y-96049880D01*
X85072000Y-95704880D01*
X85072710Y-95690422D01*
X85074834Y-95676104D01*
X85078351Y-95662063D01*
X85083228Y-95648434D01*
X85089417Y-95635349D01*
X85096858Y-95622933D01*
X85105481Y-95611307D01*
X85115202Y-95600582D01*
X85125927Y-95590861D01*
X85137553Y-95582238D01*
X85149969Y-95574797D01*
X85163054Y-95568608D01*
X85176683Y-95563731D01*
X85190724Y-95560214D01*
X85205042Y-95558090D01*
X85219500Y-95557380D01*
X85514500Y-95557380D01*
X85528958Y-95558090D01*
X85528958Y-95558090D01*
G37*
D15*
X85367000Y-95877380D03*
D10*
G36*
X86498958Y-95558090D02*
X86513276Y-95560214D01*
X86527317Y-95563731D01*
X86540946Y-95568608D01*
X86554031Y-95574797D01*
X86566447Y-95582238D01*
X86578073Y-95590861D01*
X86588798Y-95600582D01*
X86598519Y-95611307D01*
X86607142Y-95622933D01*
X86614583Y-95635349D01*
X86620772Y-95648434D01*
X86625649Y-95662063D01*
X86629166Y-95676104D01*
X86631290Y-95690422D01*
X86632000Y-95704880D01*
X86632000Y-96049880D01*
X86631290Y-96064338D01*
X86629166Y-96078656D01*
X86625649Y-96092697D01*
X86620772Y-96106326D01*
X86614583Y-96119411D01*
X86607142Y-96131827D01*
X86598519Y-96143453D01*
X86588798Y-96154178D01*
X86578073Y-96163899D01*
X86566447Y-96172522D01*
X86554031Y-96179963D01*
X86540946Y-96186152D01*
X86527317Y-96191029D01*
X86513276Y-96194546D01*
X86498958Y-96196670D01*
X86484500Y-96197380D01*
X86189500Y-96197380D01*
X86175042Y-96196670D01*
X86160724Y-96194546D01*
X86146683Y-96191029D01*
X86133054Y-96186152D01*
X86119969Y-96179963D01*
X86107553Y-96172522D01*
X86095927Y-96163899D01*
X86085202Y-96154178D01*
X86075481Y-96143453D01*
X86066858Y-96131827D01*
X86059417Y-96119411D01*
X86053228Y-96106326D01*
X86048351Y-96092697D01*
X86044834Y-96078656D01*
X86042710Y-96064338D01*
X86042000Y-96049880D01*
X86042000Y-95704880D01*
X86042710Y-95690422D01*
X86044834Y-95676104D01*
X86048351Y-95662063D01*
X86053228Y-95648434D01*
X86059417Y-95635349D01*
X86066858Y-95622933D01*
X86075481Y-95611307D01*
X86085202Y-95600582D01*
X86095927Y-95590861D01*
X86107553Y-95582238D01*
X86119969Y-95574797D01*
X86133054Y-95568608D01*
X86146683Y-95563731D01*
X86160724Y-95560214D01*
X86175042Y-95558090D01*
X86189500Y-95557380D01*
X86484500Y-95557380D01*
X86498958Y-95558090D01*
X86498958Y-95558090D01*
G37*
D15*
X86337000Y-95877380D03*
D16*
X84344000Y-77411579D03*
X86344000Y-76461579D03*
X86344000Y-78361579D03*
X84344000Y-85648800D03*
X86344000Y-84698800D03*
X86344000Y-86598800D03*
X84344000Y-92760800D03*
X86344000Y-91810800D03*
X86344000Y-93710800D03*
D17*
X109036360Y-101504120D03*
X109036360Y-106664120D03*
X107036360Y-106664120D03*
X107036360Y-101504120D03*
X98266760Y-101504120D03*
X98266760Y-106664120D03*
X96266760Y-106664120D03*
X96266760Y-101504120D03*
X88106760Y-101504120D03*
X88106760Y-106664120D03*
X86106760Y-106664120D03*
X86106760Y-101504120D03*
D16*
X124032520Y-141025920D03*
X124032520Y-139125920D03*
X122032520Y-140075920D03*
D10*
G36*
X120496858Y-141760690D02*
X120511176Y-141762814D01*
X120525217Y-141766331D01*
X120538846Y-141771208D01*
X120551931Y-141777397D01*
X120564347Y-141784838D01*
X120575973Y-141793461D01*
X120586698Y-141803182D01*
X120596419Y-141813907D01*
X120605042Y-141825533D01*
X120612483Y-141837949D01*
X120618672Y-141851034D01*
X120623549Y-141864663D01*
X120627066Y-141878704D01*
X120629190Y-141893022D01*
X120629900Y-141907480D01*
X120629900Y-142252480D01*
X120629190Y-142266938D01*
X120627066Y-142281256D01*
X120623549Y-142295297D01*
X120618672Y-142308926D01*
X120612483Y-142322011D01*
X120605042Y-142334427D01*
X120596419Y-142346053D01*
X120586698Y-142356778D01*
X120575973Y-142366499D01*
X120564347Y-142375122D01*
X120551931Y-142382563D01*
X120538846Y-142388752D01*
X120525217Y-142393629D01*
X120511176Y-142397146D01*
X120496858Y-142399270D01*
X120482400Y-142399980D01*
X120187400Y-142399980D01*
X120172942Y-142399270D01*
X120158624Y-142397146D01*
X120144583Y-142393629D01*
X120130954Y-142388752D01*
X120117869Y-142382563D01*
X120105453Y-142375122D01*
X120093827Y-142366499D01*
X120083102Y-142356778D01*
X120073381Y-142346053D01*
X120064758Y-142334427D01*
X120057317Y-142322011D01*
X120051128Y-142308926D01*
X120046251Y-142295297D01*
X120042734Y-142281256D01*
X120040610Y-142266938D01*
X120039900Y-142252480D01*
X120039900Y-141907480D01*
X120040610Y-141893022D01*
X120042734Y-141878704D01*
X120046251Y-141864663D01*
X120051128Y-141851034D01*
X120057317Y-141837949D01*
X120064758Y-141825533D01*
X120073381Y-141813907D01*
X120083102Y-141803182D01*
X120093827Y-141793461D01*
X120105453Y-141784838D01*
X120117869Y-141777397D01*
X120130954Y-141771208D01*
X120144583Y-141766331D01*
X120158624Y-141762814D01*
X120172942Y-141760690D01*
X120187400Y-141759980D01*
X120482400Y-141759980D01*
X120496858Y-141760690D01*
X120496858Y-141760690D01*
G37*
D15*
X120334900Y-142079980D03*
D10*
G36*
X119526858Y-141760690D02*
X119541176Y-141762814D01*
X119555217Y-141766331D01*
X119568846Y-141771208D01*
X119581931Y-141777397D01*
X119594347Y-141784838D01*
X119605973Y-141793461D01*
X119616698Y-141803182D01*
X119626419Y-141813907D01*
X119635042Y-141825533D01*
X119642483Y-141837949D01*
X119648672Y-141851034D01*
X119653549Y-141864663D01*
X119657066Y-141878704D01*
X119659190Y-141893022D01*
X119659900Y-141907480D01*
X119659900Y-142252480D01*
X119659190Y-142266938D01*
X119657066Y-142281256D01*
X119653549Y-142295297D01*
X119648672Y-142308926D01*
X119642483Y-142322011D01*
X119635042Y-142334427D01*
X119626419Y-142346053D01*
X119616698Y-142356778D01*
X119605973Y-142366499D01*
X119594347Y-142375122D01*
X119581931Y-142382563D01*
X119568846Y-142388752D01*
X119555217Y-142393629D01*
X119541176Y-142397146D01*
X119526858Y-142399270D01*
X119512400Y-142399980D01*
X119217400Y-142399980D01*
X119202942Y-142399270D01*
X119188624Y-142397146D01*
X119174583Y-142393629D01*
X119160954Y-142388752D01*
X119147869Y-142382563D01*
X119135453Y-142375122D01*
X119123827Y-142366499D01*
X119113102Y-142356778D01*
X119103381Y-142346053D01*
X119094758Y-142334427D01*
X119087317Y-142322011D01*
X119081128Y-142308926D01*
X119076251Y-142295297D01*
X119072734Y-142281256D01*
X119070610Y-142266938D01*
X119069900Y-142252480D01*
X119069900Y-141907480D01*
X119070610Y-141893022D01*
X119072734Y-141878704D01*
X119076251Y-141864663D01*
X119081128Y-141851034D01*
X119087317Y-141837949D01*
X119094758Y-141825533D01*
X119103381Y-141813907D01*
X119113102Y-141803182D01*
X119123827Y-141793461D01*
X119135453Y-141784838D01*
X119147869Y-141777397D01*
X119160954Y-141771208D01*
X119174583Y-141766331D01*
X119188624Y-141762814D01*
X119202942Y-141760690D01*
X119217400Y-141759980D01*
X119512400Y-141759980D01*
X119526858Y-141760690D01*
X119526858Y-141760690D01*
G37*
D15*
X119364900Y-142079980D03*
D10*
G36*
X125899718Y-140711670D02*
X125914036Y-140713794D01*
X125928077Y-140717311D01*
X125941706Y-140722188D01*
X125954791Y-140728377D01*
X125967207Y-140735818D01*
X125978833Y-140744441D01*
X125989558Y-140754162D01*
X125999279Y-140764887D01*
X126007902Y-140776513D01*
X126015343Y-140788929D01*
X126021532Y-140802014D01*
X126026409Y-140815643D01*
X126029926Y-140829684D01*
X126032050Y-140844002D01*
X126032760Y-140858460D01*
X126032760Y-141203460D01*
X126032050Y-141217918D01*
X126029926Y-141232236D01*
X126026409Y-141246277D01*
X126021532Y-141259906D01*
X126015343Y-141272991D01*
X126007902Y-141285407D01*
X125999279Y-141297033D01*
X125989558Y-141307758D01*
X125978833Y-141317479D01*
X125967207Y-141326102D01*
X125954791Y-141333543D01*
X125941706Y-141339732D01*
X125928077Y-141344609D01*
X125914036Y-141348126D01*
X125899718Y-141350250D01*
X125885260Y-141350960D01*
X125590260Y-141350960D01*
X125575802Y-141350250D01*
X125561484Y-141348126D01*
X125547443Y-141344609D01*
X125533814Y-141339732D01*
X125520729Y-141333543D01*
X125508313Y-141326102D01*
X125496687Y-141317479D01*
X125485962Y-141307758D01*
X125476241Y-141297033D01*
X125467618Y-141285407D01*
X125460177Y-141272991D01*
X125453988Y-141259906D01*
X125449111Y-141246277D01*
X125445594Y-141232236D01*
X125443470Y-141217918D01*
X125442760Y-141203460D01*
X125442760Y-140858460D01*
X125443470Y-140844002D01*
X125445594Y-140829684D01*
X125449111Y-140815643D01*
X125453988Y-140802014D01*
X125460177Y-140788929D01*
X125467618Y-140776513D01*
X125476241Y-140764887D01*
X125485962Y-140754162D01*
X125496687Y-140744441D01*
X125508313Y-140735818D01*
X125520729Y-140728377D01*
X125533814Y-140722188D01*
X125547443Y-140717311D01*
X125561484Y-140713794D01*
X125575802Y-140711670D01*
X125590260Y-140710960D01*
X125885260Y-140710960D01*
X125899718Y-140711670D01*
X125899718Y-140711670D01*
G37*
D15*
X125737760Y-141030960D03*
D10*
G36*
X126869718Y-140711670D02*
X126884036Y-140713794D01*
X126898077Y-140717311D01*
X126911706Y-140722188D01*
X126924791Y-140728377D01*
X126937207Y-140735818D01*
X126948833Y-140744441D01*
X126959558Y-140754162D01*
X126969279Y-140764887D01*
X126977902Y-140776513D01*
X126985343Y-140788929D01*
X126991532Y-140802014D01*
X126996409Y-140815643D01*
X126999926Y-140829684D01*
X127002050Y-140844002D01*
X127002760Y-140858460D01*
X127002760Y-141203460D01*
X127002050Y-141217918D01*
X126999926Y-141232236D01*
X126996409Y-141246277D01*
X126991532Y-141259906D01*
X126985343Y-141272991D01*
X126977902Y-141285407D01*
X126969279Y-141297033D01*
X126959558Y-141307758D01*
X126948833Y-141317479D01*
X126937207Y-141326102D01*
X126924791Y-141333543D01*
X126911706Y-141339732D01*
X126898077Y-141344609D01*
X126884036Y-141348126D01*
X126869718Y-141350250D01*
X126855260Y-141350960D01*
X126560260Y-141350960D01*
X126545802Y-141350250D01*
X126531484Y-141348126D01*
X126517443Y-141344609D01*
X126503814Y-141339732D01*
X126490729Y-141333543D01*
X126478313Y-141326102D01*
X126466687Y-141317479D01*
X126455962Y-141307758D01*
X126446241Y-141297033D01*
X126437618Y-141285407D01*
X126430177Y-141272991D01*
X126423988Y-141259906D01*
X126419111Y-141246277D01*
X126415594Y-141232236D01*
X126413470Y-141217918D01*
X126412760Y-141203460D01*
X126412760Y-140858460D01*
X126413470Y-140844002D01*
X126415594Y-140829684D01*
X126419111Y-140815643D01*
X126423988Y-140802014D01*
X126430177Y-140788929D01*
X126437618Y-140776513D01*
X126446241Y-140764887D01*
X126455962Y-140754162D01*
X126466687Y-140744441D01*
X126478313Y-140735818D01*
X126490729Y-140728377D01*
X126503814Y-140722188D01*
X126517443Y-140717311D01*
X126531484Y-140713794D01*
X126545802Y-140711670D01*
X126560260Y-140710960D01*
X126855260Y-140710960D01*
X126869718Y-140711670D01*
X126869718Y-140711670D01*
G37*
D15*
X126707760Y-141030960D03*
D10*
G36*
X114484958Y-141971510D02*
X114499276Y-141973634D01*
X114513317Y-141977151D01*
X114526946Y-141982028D01*
X114540031Y-141988217D01*
X114552447Y-141995658D01*
X114564073Y-142004281D01*
X114574798Y-142014002D01*
X114584519Y-142024727D01*
X114593142Y-142036353D01*
X114600583Y-142048769D01*
X114606772Y-142061854D01*
X114611649Y-142075483D01*
X114615166Y-142089524D01*
X114617290Y-142103842D01*
X114618000Y-142118300D01*
X114618000Y-142463300D01*
X114617290Y-142477758D01*
X114615166Y-142492076D01*
X114611649Y-142506117D01*
X114606772Y-142519746D01*
X114600583Y-142532831D01*
X114593142Y-142545247D01*
X114584519Y-142556873D01*
X114574798Y-142567598D01*
X114564073Y-142577319D01*
X114552447Y-142585942D01*
X114540031Y-142593383D01*
X114526946Y-142599572D01*
X114513317Y-142604449D01*
X114499276Y-142607966D01*
X114484958Y-142610090D01*
X114470500Y-142610800D01*
X114175500Y-142610800D01*
X114161042Y-142610090D01*
X114146724Y-142607966D01*
X114132683Y-142604449D01*
X114119054Y-142599572D01*
X114105969Y-142593383D01*
X114093553Y-142585942D01*
X114081927Y-142577319D01*
X114071202Y-142567598D01*
X114061481Y-142556873D01*
X114052858Y-142545247D01*
X114045417Y-142532831D01*
X114039228Y-142519746D01*
X114034351Y-142506117D01*
X114030834Y-142492076D01*
X114028710Y-142477758D01*
X114028000Y-142463300D01*
X114028000Y-142118300D01*
X114028710Y-142103842D01*
X114030834Y-142089524D01*
X114034351Y-142075483D01*
X114039228Y-142061854D01*
X114045417Y-142048769D01*
X114052858Y-142036353D01*
X114061481Y-142024727D01*
X114071202Y-142014002D01*
X114081927Y-142004281D01*
X114093553Y-141995658D01*
X114105969Y-141988217D01*
X114119054Y-141982028D01*
X114132683Y-141977151D01*
X114146724Y-141973634D01*
X114161042Y-141971510D01*
X114175500Y-141970800D01*
X114470500Y-141970800D01*
X114484958Y-141971510D01*
X114484958Y-141971510D01*
G37*
D15*
X114323000Y-142290800D03*
D10*
G36*
X115454958Y-141971510D02*
X115469276Y-141973634D01*
X115483317Y-141977151D01*
X115496946Y-141982028D01*
X115510031Y-141988217D01*
X115522447Y-141995658D01*
X115534073Y-142004281D01*
X115544798Y-142014002D01*
X115554519Y-142024727D01*
X115563142Y-142036353D01*
X115570583Y-142048769D01*
X115576772Y-142061854D01*
X115581649Y-142075483D01*
X115585166Y-142089524D01*
X115587290Y-142103842D01*
X115588000Y-142118300D01*
X115588000Y-142463300D01*
X115587290Y-142477758D01*
X115585166Y-142492076D01*
X115581649Y-142506117D01*
X115576772Y-142519746D01*
X115570583Y-142532831D01*
X115563142Y-142545247D01*
X115554519Y-142556873D01*
X115544798Y-142567598D01*
X115534073Y-142577319D01*
X115522447Y-142585942D01*
X115510031Y-142593383D01*
X115496946Y-142599572D01*
X115483317Y-142604449D01*
X115469276Y-142607966D01*
X115454958Y-142610090D01*
X115440500Y-142610800D01*
X115145500Y-142610800D01*
X115131042Y-142610090D01*
X115116724Y-142607966D01*
X115102683Y-142604449D01*
X115089054Y-142599572D01*
X115075969Y-142593383D01*
X115063553Y-142585942D01*
X115051927Y-142577319D01*
X115041202Y-142567598D01*
X115031481Y-142556873D01*
X115022858Y-142545247D01*
X115015417Y-142532831D01*
X115009228Y-142519746D01*
X115004351Y-142506117D01*
X115000834Y-142492076D01*
X114998710Y-142477758D01*
X114998000Y-142463300D01*
X114998000Y-142118300D01*
X114998710Y-142103842D01*
X115000834Y-142089524D01*
X115004351Y-142075483D01*
X115009228Y-142061854D01*
X115015417Y-142048769D01*
X115022858Y-142036353D01*
X115031481Y-142024727D01*
X115041202Y-142014002D01*
X115051927Y-142004281D01*
X115063553Y-141995658D01*
X115075969Y-141988217D01*
X115089054Y-141982028D01*
X115102683Y-141977151D01*
X115116724Y-141973634D01*
X115131042Y-141971510D01*
X115145500Y-141970800D01*
X115440500Y-141970800D01*
X115454958Y-141971510D01*
X115454958Y-141971510D01*
G37*
D15*
X115293000Y-142290800D03*
D18*
X131205067Y-167623809D03*
D10*
G36*
X130919186Y-168738830D02*
X130269348Y-166953414D01*
X131490948Y-166508788D01*
X132140786Y-168294204D01*
X130919186Y-168738830D01*
X130919186Y-168738830D01*
G37*
D19*
X118365307Y-171818219D03*
D10*
G36*
X118374289Y-173304799D02*
X117416632Y-170673659D01*
X118356325Y-170331639D01*
X119313982Y-172962779D01*
X118374289Y-173304799D01*
X118374289Y-173304799D01*
G37*
D20*
X116945924Y-167918495D03*
D10*
G36*
X116612886Y-168465382D02*
X116339270Y-167713628D01*
X117278962Y-167371608D01*
X117552578Y-168123362D01*
X116612886Y-168465382D01*
X116612886Y-168465382D01*
G37*
D19*
X114825399Y-162092400D03*
D10*
G36*
X114560765Y-162827226D02*
X114150341Y-161699594D01*
X115090033Y-161357574D01*
X115500457Y-162485206D01*
X114560765Y-162827226D01*
X114560765Y-162827226D01*
G37*
D19*
X123832285Y-154238197D03*
D10*
G36*
X123567651Y-154973023D02*
X123157227Y-153845391D01*
X124096919Y-153503371D01*
X124507343Y-154631003D01*
X123567651Y-154973023D01*
X123567651Y-154973023D01*
G37*
D21*
X116173790Y-157025662D03*
D10*
G36*
X116050110Y-157709185D02*
X115639685Y-156581553D01*
X116297470Y-156342139D01*
X116707895Y-157469771D01*
X116050110Y-157709185D01*
X116050110Y-157709185D01*
G37*
D21*
X117207452Y-156649439D03*
D10*
G36*
X117083772Y-157332962D02*
X116673347Y-156205330D01*
X117331132Y-155965916D01*
X117741557Y-157093548D01*
X117083772Y-157332962D01*
X117083772Y-157332962D01*
G37*
D21*
X118241114Y-156273217D03*
D10*
G36*
X118117434Y-156956740D02*
X117707009Y-155829108D01*
X118364794Y-155589694D01*
X118775219Y-156717326D01*
X118117434Y-156956740D01*
X118117434Y-156956740D01*
G37*
D21*
X119274776Y-155896995D03*
D10*
G36*
X119151096Y-156580518D02*
X118740671Y-155452886D01*
X119398456Y-155213472D01*
X119808881Y-156341104D01*
X119151096Y-156580518D01*
X119151096Y-156580518D01*
G37*
D21*
X120308438Y-155520773D03*
D10*
G36*
X120184758Y-156204296D02*
X119774333Y-155076664D01*
X120432118Y-154837250D01*
X120842543Y-155964882D01*
X120184758Y-156204296D01*
X120184758Y-156204296D01*
G37*
D21*
X121342100Y-155144551D03*
D10*
G36*
X121218420Y-155828074D02*
X120807995Y-154700442D01*
X121465780Y-154461028D01*
X121876205Y-155588660D01*
X121218420Y-155828074D01*
X121218420Y-155828074D01*
G37*
D21*
X122375761Y-154768329D03*
D10*
G36*
X122252081Y-155451852D02*
X121841656Y-154324220D01*
X122499441Y-154084806D01*
X122909866Y-155212438D01*
X122252081Y-155451852D01*
X122252081Y-155451852D01*
G37*
D21*
X115140128Y-157401884D03*
D10*
G36*
X115016448Y-158085407D02*
X114606023Y-156957775D01*
X115263808Y-156718361D01*
X115674233Y-157845993D01*
X115016448Y-158085407D01*
X115016448Y-158085407D01*
G37*
D21*
X114247420Y-157726803D03*
D10*
G36*
X114123740Y-158410326D02*
X113713315Y-157282694D01*
X114371100Y-157043280D01*
X114781525Y-158170912D01*
X114123740Y-158410326D01*
X114123740Y-158410326D01*
G37*
G36*
X127981689Y-131501233D02*
X128001172Y-131503604D01*
X128020329Y-131507873D01*
X128038976Y-131513999D01*
X128056932Y-131521923D01*
X128074025Y-131531569D01*
X128090090Y-131542845D01*
X128104973Y-131555640D01*
X128118530Y-131569833D01*
X128130630Y-131585286D01*
X128141158Y-131601851D01*
X128150011Y-131619367D01*
X128312706Y-131984785D01*
X128319800Y-132003086D01*
X128325065Y-132021993D01*
X128328453Y-132041326D01*
X128329928Y-132060897D01*
X128329479Y-132080519D01*
X128327108Y-132100003D01*
X128322839Y-132119160D01*
X128316713Y-132137806D01*
X128308789Y-132155763D01*
X128299143Y-132172856D01*
X128287868Y-132188921D01*
X128275072Y-132203804D01*
X128260879Y-132217361D01*
X128245426Y-132229461D01*
X128228861Y-132239989D01*
X128211344Y-132248842D01*
X127115089Y-132736926D01*
X127096789Y-132744020D01*
X127077881Y-132749285D01*
X127058549Y-132752673D01*
X127038977Y-132754148D01*
X127019355Y-132753699D01*
X126999872Y-132751328D01*
X126980715Y-132747059D01*
X126962068Y-132740933D01*
X126944112Y-132733009D01*
X126927019Y-132723363D01*
X126910954Y-132712087D01*
X126896071Y-132699292D01*
X126882514Y-132685099D01*
X126870414Y-132669646D01*
X126859886Y-132653081D01*
X126851033Y-132635565D01*
X126688338Y-132270147D01*
X126681244Y-132251846D01*
X126675979Y-132232939D01*
X126672591Y-132213606D01*
X126671116Y-132194035D01*
X126671565Y-132174413D01*
X126673936Y-132154929D01*
X126678205Y-132135772D01*
X126684331Y-132117126D01*
X126692255Y-132099169D01*
X126701901Y-132082076D01*
X126713176Y-132066011D01*
X126725972Y-132051128D01*
X126740165Y-132037571D01*
X126755618Y-132025471D01*
X126772183Y-132014943D01*
X126789700Y-132006090D01*
X127885955Y-131518006D01*
X127904255Y-131510912D01*
X127923163Y-131505647D01*
X127942495Y-131502259D01*
X127962067Y-131500784D01*
X127981689Y-131501233D01*
X127981689Y-131501233D01*
G37*
D20*
X127500522Y-132127466D03*
D10*
G36*
X127473268Y-130359301D02*
X127492751Y-130361672D01*
X127511908Y-130365941D01*
X127530555Y-130372067D01*
X127548511Y-130379991D01*
X127565604Y-130389637D01*
X127581669Y-130400913D01*
X127596552Y-130413708D01*
X127610109Y-130427901D01*
X127622209Y-130443354D01*
X127632737Y-130459919D01*
X127641590Y-130477435D01*
X127804285Y-130842853D01*
X127811379Y-130861154D01*
X127816644Y-130880061D01*
X127820032Y-130899394D01*
X127821507Y-130918965D01*
X127821058Y-130938587D01*
X127818687Y-130958071D01*
X127814418Y-130977228D01*
X127808292Y-130995874D01*
X127800368Y-131013831D01*
X127790722Y-131030924D01*
X127779447Y-131046989D01*
X127766651Y-131061872D01*
X127752458Y-131075429D01*
X127737005Y-131087529D01*
X127720440Y-131098057D01*
X127702923Y-131106910D01*
X126606668Y-131594994D01*
X126588368Y-131602088D01*
X126569460Y-131607353D01*
X126550128Y-131610741D01*
X126530556Y-131612216D01*
X126510934Y-131611767D01*
X126491451Y-131609396D01*
X126472294Y-131605127D01*
X126453647Y-131599001D01*
X126435691Y-131591077D01*
X126418598Y-131581431D01*
X126402533Y-131570155D01*
X126387650Y-131557360D01*
X126374093Y-131543167D01*
X126361993Y-131527714D01*
X126351465Y-131511149D01*
X126342612Y-131493633D01*
X126179917Y-131128215D01*
X126172823Y-131109914D01*
X126167558Y-131091007D01*
X126164170Y-131071674D01*
X126162695Y-131052103D01*
X126163144Y-131032481D01*
X126165515Y-131012997D01*
X126169784Y-130993840D01*
X126175910Y-130975194D01*
X126183834Y-130957237D01*
X126193480Y-130940144D01*
X126204755Y-130924079D01*
X126217551Y-130909196D01*
X126231744Y-130895639D01*
X126247197Y-130883539D01*
X126263762Y-130873011D01*
X126281279Y-130864158D01*
X127377534Y-130376074D01*
X127395834Y-130368980D01*
X127414742Y-130363715D01*
X127434074Y-130360327D01*
X127453646Y-130358852D01*
X127473268Y-130359301D01*
X127473268Y-130359301D01*
G37*
D20*
X126992101Y-130985534D03*
D10*
G36*
X126964847Y-129217369D02*
X126984330Y-129219740D01*
X127003487Y-129224009D01*
X127022134Y-129230135D01*
X127040090Y-129238059D01*
X127057183Y-129247705D01*
X127073248Y-129258981D01*
X127088131Y-129271776D01*
X127101688Y-129285969D01*
X127113788Y-129301422D01*
X127124316Y-129317987D01*
X127133169Y-129335503D01*
X127295864Y-129700921D01*
X127302958Y-129719222D01*
X127308223Y-129738129D01*
X127311611Y-129757462D01*
X127313086Y-129777033D01*
X127312637Y-129796655D01*
X127310266Y-129816139D01*
X127305997Y-129835296D01*
X127299871Y-129853942D01*
X127291947Y-129871899D01*
X127282301Y-129888992D01*
X127271026Y-129905057D01*
X127258230Y-129919940D01*
X127244037Y-129933497D01*
X127228584Y-129945597D01*
X127212019Y-129956125D01*
X127194502Y-129964978D01*
X126098247Y-130453062D01*
X126079947Y-130460156D01*
X126061039Y-130465421D01*
X126041707Y-130468809D01*
X126022135Y-130470284D01*
X126002513Y-130469835D01*
X125983030Y-130467464D01*
X125963873Y-130463195D01*
X125945226Y-130457069D01*
X125927270Y-130449145D01*
X125910177Y-130439499D01*
X125894112Y-130428223D01*
X125879229Y-130415428D01*
X125865672Y-130401235D01*
X125853572Y-130385782D01*
X125843044Y-130369217D01*
X125834191Y-130351701D01*
X125671496Y-129986283D01*
X125664402Y-129967982D01*
X125659137Y-129949075D01*
X125655749Y-129929742D01*
X125654274Y-129910171D01*
X125654723Y-129890549D01*
X125657094Y-129871065D01*
X125661363Y-129851908D01*
X125667489Y-129833262D01*
X125675413Y-129815305D01*
X125685059Y-129798212D01*
X125696334Y-129782147D01*
X125709130Y-129767264D01*
X125723323Y-129753707D01*
X125738776Y-129741607D01*
X125755341Y-129731079D01*
X125772858Y-129722226D01*
X126869113Y-129234142D01*
X126887413Y-129227048D01*
X126906321Y-129221783D01*
X126925653Y-129218395D01*
X126945225Y-129216920D01*
X126964847Y-129217369D01*
X126964847Y-129217369D01*
G37*
D20*
X126483680Y-129843602D03*
D10*
G36*
X126456427Y-128075437D02*
X126475910Y-128077808D01*
X126495067Y-128082077D01*
X126513714Y-128088203D01*
X126531670Y-128096127D01*
X126548763Y-128105773D01*
X126564828Y-128117049D01*
X126579711Y-128129844D01*
X126593268Y-128144037D01*
X126605368Y-128159490D01*
X126615896Y-128176055D01*
X126624749Y-128193571D01*
X126787444Y-128558989D01*
X126794538Y-128577290D01*
X126799803Y-128596197D01*
X126803191Y-128615530D01*
X126804666Y-128635101D01*
X126804217Y-128654723D01*
X126801846Y-128674207D01*
X126797577Y-128693364D01*
X126791451Y-128712010D01*
X126783527Y-128729967D01*
X126773881Y-128747060D01*
X126762606Y-128763125D01*
X126749810Y-128778008D01*
X126735617Y-128791565D01*
X126720164Y-128803665D01*
X126703599Y-128814193D01*
X126686082Y-128823046D01*
X125589827Y-129311130D01*
X125571527Y-129318224D01*
X125552619Y-129323489D01*
X125533287Y-129326877D01*
X125513715Y-129328352D01*
X125494093Y-129327903D01*
X125474610Y-129325532D01*
X125455453Y-129321263D01*
X125436806Y-129315137D01*
X125418850Y-129307213D01*
X125401757Y-129297567D01*
X125385692Y-129286291D01*
X125370809Y-129273496D01*
X125357252Y-129259303D01*
X125345152Y-129243850D01*
X125334624Y-129227285D01*
X125325771Y-129209769D01*
X125163076Y-128844351D01*
X125155982Y-128826050D01*
X125150717Y-128807143D01*
X125147329Y-128787810D01*
X125145854Y-128768239D01*
X125146303Y-128748617D01*
X125148674Y-128729133D01*
X125152943Y-128709976D01*
X125159069Y-128691330D01*
X125166993Y-128673373D01*
X125176639Y-128656280D01*
X125187914Y-128640215D01*
X125200710Y-128625332D01*
X125214903Y-128611775D01*
X125230356Y-128599675D01*
X125246921Y-128589147D01*
X125264438Y-128580294D01*
X126360693Y-128092210D01*
X126378993Y-128085116D01*
X126397901Y-128079851D01*
X126417233Y-128076463D01*
X126436805Y-128074988D01*
X126456427Y-128075437D01*
X126456427Y-128075437D01*
G37*
D20*
X125975260Y-128701670D03*
D10*
G36*
X132021508Y-131788861D02*
X132045862Y-131791824D01*
X132069809Y-131797160D01*
X132093117Y-131804818D01*
X132115562Y-131814723D01*
X132136929Y-131826781D01*
X132157010Y-131840875D01*
X132175614Y-131856869D01*
X132192560Y-131874610D01*
X132207685Y-131893927D01*
X132220845Y-131914633D01*
X132231911Y-131936529D01*
X132882689Y-133398202D01*
X132891556Y-133421077D01*
X132898139Y-133444712D01*
X132902372Y-133468877D01*
X132904217Y-133493342D01*
X132903655Y-133517869D01*
X132900692Y-133542223D01*
X132895356Y-133566170D01*
X132887698Y-133589478D01*
X132877793Y-133611923D01*
X132865735Y-133633290D01*
X132851641Y-133653371D01*
X132835647Y-133671975D01*
X132817906Y-133688921D01*
X132798589Y-133704046D01*
X132777883Y-133717206D01*
X132755987Y-133728272D01*
X130472123Y-134745113D01*
X130449248Y-134753980D01*
X130425613Y-134760563D01*
X130401448Y-134764796D01*
X130376983Y-134766641D01*
X130352456Y-134766079D01*
X130328102Y-134763116D01*
X130304155Y-134757780D01*
X130280847Y-134750122D01*
X130258402Y-134740217D01*
X130237035Y-134728159D01*
X130216954Y-134714065D01*
X130198350Y-134698071D01*
X130181404Y-134680330D01*
X130166279Y-134661013D01*
X130153119Y-134640307D01*
X130142053Y-134618411D01*
X129491275Y-133156738D01*
X129482408Y-133133863D01*
X129475825Y-133110228D01*
X129471592Y-133086063D01*
X129469747Y-133061598D01*
X129470309Y-133037071D01*
X129473272Y-133012717D01*
X129478608Y-132988770D01*
X129486266Y-132965462D01*
X129496171Y-132943017D01*
X129508229Y-132921650D01*
X129522323Y-132901569D01*
X129538317Y-132882965D01*
X129556058Y-132866019D01*
X129575375Y-132850894D01*
X129596081Y-132837734D01*
X129617977Y-132826668D01*
X131901841Y-131809827D01*
X131924716Y-131800960D01*
X131948351Y-131794377D01*
X131972516Y-131790144D01*
X131996981Y-131788299D01*
X132021508Y-131788861D01*
X132021508Y-131788861D01*
G37*
D22*
X131186982Y-133277470D03*
D10*
G36*
X128421889Y-123703984D02*
X128446243Y-123706947D01*
X128470190Y-123712283D01*
X128493498Y-123719941D01*
X128515943Y-123729846D01*
X128537310Y-123741904D01*
X128557391Y-123755998D01*
X128575995Y-123771992D01*
X128592941Y-123789733D01*
X128608066Y-123809050D01*
X128621226Y-123829756D01*
X128632292Y-123851652D01*
X129283070Y-125313325D01*
X129291937Y-125336200D01*
X129298520Y-125359835D01*
X129302753Y-125384000D01*
X129304598Y-125408465D01*
X129304036Y-125432992D01*
X129301073Y-125457346D01*
X129295737Y-125481293D01*
X129288079Y-125504601D01*
X129278174Y-125527046D01*
X129266116Y-125548413D01*
X129252022Y-125568494D01*
X129236028Y-125587098D01*
X129218287Y-125604044D01*
X129198970Y-125619169D01*
X129178264Y-125632329D01*
X129156368Y-125643395D01*
X126872504Y-126660236D01*
X126849629Y-126669103D01*
X126825994Y-126675686D01*
X126801829Y-126679919D01*
X126777364Y-126681764D01*
X126752837Y-126681202D01*
X126728483Y-126678239D01*
X126704536Y-126672903D01*
X126681228Y-126665245D01*
X126658783Y-126655340D01*
X126637416Y-126643282D01*
X126617335Y-126629188D01*
X126598731Y-126613194D01*
X126581785Y-126595453D01*
X126566660Y-126576136D01*
X126553500Y-126555430D01*
X126542434Y-126533534D01*
X125891656Y-125071861D01*
X125882789Y-125048986D01*
X125876206Y-125025351D01*
X125871973Y-125001186D01*
X125870128Y-124976721D01*
X125870690Y-124952194D01*
X125873653Y-124927840D01*
X125878989Y-124903893D01*
X125886647Y-124880585D01*
X125896552Y-124858140D01*
X125908610Y-124836773D01*
X125922704Y-124816692D01*
X125938698Y-124798088D01*
X125956439Y-124781142D01*
X125975756Y-124766017D01*
X125996462Y-124752857D01*
X126018358Y-124741791D01*
X128302222Y-123724950D01*
X128325097Y-123716083D01*
X128348732Y-123709500D01*
X128372897Y-123705267D01*
X128397362Y-123703422D01*
X128421889Y-123703984D01*
X128421889Y-123703984D01*
G37*
D22*
X127587363Y-125192593D03*
D10*
G36*
X93049358Y-119438910D02*
X93063676Y-119441034D01*
X93077717Y-119444551D01*
X93091346Y-119449428D01*
X93104431Y-119455617D01*
X93116847Y-119463058D01*
X93128473Y-119471681D01*
X93139198Y-119481402D01*
X93148919Y-119492127D01*
X93157542Y-119503753D01*
X93164983Y-119516169D01*
X93171172Y-119529254D01*
X93176049Y-119542883D01*
X93179566Y-119556924D01*
X93181690Y-119571242D01*
X93182400Y-119585700D01*
X93182400Y-119880700D01*
X93181690Y-119895158D01*
X93179566Y-119909476D01*
X93176049Y-119923517D01*
X93171172Y-119937146D01*
X93164983Y-119950231D01*
X93157542Y-119962647D01*
X93148919Y-119974273D01*
X93139198Y-119984998D01*
X93128473Y-119994719D01*
X93116847Y-120003342D01*
X93104431Y-120010783D01*
X93091346Y-120016972D01*
X93077717Y-120021849D01*
X93063676Y-120025366D01*
X93049358Y-120027490D01*
X93034900Y-120028200D01*
X92689900Y-120028200D01*
X92675442Y-120027490D01*
X92661124Y-120025366D01*
X92647083Y-120021849D01*
X92633454Y-120016972D01*
X92620369Y-120010783D01*
X92607953Y-120003342D01*
X92596327Y-119994719D01*
X92585602Y-119984998D01*
X92575881Y-119974273D01*
X92567258Y-119962647D01*
X92559817Y-119950231D01*
X92553628Y-119937146D01*
X92548751Y-119923517D01*
X92545234Y-119909476D01*
X92543110Y-119895158D01*
X92542400Y-119880700D01*
X92542400Y-119585700D01*
X92543110Y-119571242D01*
X92545234Y-119556924D01*
X92548751Y-119542883D01*
X92553628Y-119529254D01*
X92559817Y-119516169D01*
X92567258Y-119503753D01*
X92575881Y-119492127D01*
X92585602Y-119481402D01*
X92596327Y-119471681D01*
X92607953Y-119463058D01*
X92620369Y-119455617D01*
X92633454Y-119449428D01*
X92647083Y-119444551D01*
X92661124Y-119441034D01*
X92675442Y-119438910D01*
X92689900Y-119438200D01*
X93034900Y-119438200D01*
X93049358Y-119438910D01*
X93049358Y-119438910D01*
G37*
D15*
X92862400Y-119733200D03*
D10*
G36*
X93049358Y-120408910D02*
X93063676Y-120411034D01*
X93077717Y-120414551D01*
X93091346Y-120419428D01*
X93104431Y-120425617D01*
X93116847Y-120433058D01*
X93128473Y-120441681D01*
X93139198Y-120451402D01*
X93148919Y-120462127D01*
X93157542Y-120473753D01*
X93164983Y-120486169D01*
X93171172Y-120499254D01*
X93176049Y-120512883D01*
X93179566Y-120526924D01*
X93181690Y-120541242D01*
X93182400Y-120555700D01*
X93182400Y-120850700D01*
X93181690Y-120865158D01*
X93179566Y-120879476D01*
X93176049Y-120893517D01*
X93171172Y-120907146D01*
X93164983Y-120920231D01*
X93157542Y-120932647D01*
X93148919Y-120944273D01*
X93139198Y-120954998D01*
X93128473Y-120964719D01*
X93116847Y-120973342D01*
X93104431Y-120980783D01*
X93091346Y-120986972D01*
X93077717Y-120991849D01*
X93063676Y-120995366D01*
X93049358Y-120997490D01*
X93034900Y-120998200D01*
X92689900Y-120998200D01*
X92675442Y-120997490D01*
X92661124Y-120995366D01*
X92647083Y-120991849D01*
X92633454Y-120986972D01*
X92620369Y-120980783D01*
X92607953Y-120973342D01*
X92596327Y-120964719D01*
X92585602Y-120954998D01*
X92575881Y-120944273D01*
X92567258Y-120932647D01*
X92559817Y-120920231D01*
X92553628Y-120907146D01*
X92548751Y-120893517D01*
X92545234Y-120879476D01*
X92543110Y-120865158D01*
X92542400Y-120850700D01*
X92542400Y-120555700D01*
X92543110Y-120541242D01*
X92545234Y-120526924D01*
X92548751Y-120512883D01*
X92553628Y-120499254D01*
X92559817Y-120486169D01*
X92567258Y-120473753D01*
X92575881Y-120462127D01*
X92585602Y-120451402D01*
X92596327Y-120441681D01*
X92607953Y-120433058D01*
X92620369Y-120425617D01*
X92633454Y-120419428D01*
X92647083Y-120414551D01*
X92661124Y-120411034D01*
X92675442Y-120408910D01*
X92689900Y-120408200D01*
X93034900Y-120408200D01*
X93049358Y-120408910D01*
X93049358Y-120408910D01*
G37*
D15*
X92862400Y-120703200D03*
D10*
G36*
X92936891Y-159659653D02*
X92958126Y-159662803D01*
X92978950Y-159668019D01*
X92999162Y-159675251D01*
X93018568Y-159684430D01*
X93036981Y-159695466D01*
X93054224Y-159708254D01*
X93070130Y-159722670D01*
X93084546Y-159738576D01*
X93097334Y-159755819D01*
X93108370Y-159774232D01*
X93117549Y-159793638D01*
X93124781Y-159813850D01*
X93129997Y-159834674D01*
X93133147Y-159855909D01*
X93134200Y-159877350D01*
X93134200Y-160314850D01*
X93133147Y-160336291D01*
X93129997Y-160357526D01*
X93124781Y-160378350D01*
X93117549Y-160398562D01*
X93108370Y-160417968D01*
X93097334Y-160436381D01*
X93084546Y-160453624D01*
X93070130Y-160469530D01*
X93054224Y-160483946D01*
X93036981Y-160496734D01*
X93018568Y-160507770D01*
X92999162Y-160516949D01*
X92978950Y-160524181D01*
X92958126Y-160529397D01*
X92936891Y-160532547D01*
X92915450Y-160533600D01*
X92402950Y-160533600D01*
X92381509Y-160532547D01*
X92360274Y-160529397D01*
X92339450Y-160524181D01*
X92319238Y-160516949D01*
X92299832Y-160507770D01*
X92281419Y-160496734D01*
X92264176Y-160483946D01*
X92248270Y-160469530D01*
X92233854Y-160453624D01*
X92221066Y-160436381D01*
X92210030Y-160417968D01*
X92200851Y-160398562D01*
X92193619Y-160378350D01*
X92188403Y-160357526D01*
X92185253Y-160336291D01*
X92184200Y-160314850D01*
X92184200Y-159877350D01*
X92185253Y-159855909D01*
X92188403Y-159834674D01*
X92193619Y-159813850D01*
X92200851Y-159793638D01*
X92210030Y-159774232D01*
X92221066Y-159755819D01*
X92233854Y-159738576D01*
X92248270Y-159722670D01*
X92264176Y-159708254D01*
X92281419Y-159695466D01*
X92299832Y-159684430D01*
X92319238Y-159675251D01*
X92339450Y-159668019D01*
X92360274Y-159662803D01*
X92381509Y-159659653D01*
X92402950Y-159658600D01*
X92915450Y-159658600D01*
X92936891Y-159659653D01*
X92936891Y-159659653D01*
G37*
D23*
X92659200Y-160096100D03*
D10*
G36*
X92936891Y-161234653D02*
X92958126Y-161237803D01*
X92978950Y-161243019D01*
X92999162Y-161250251D01*
X93018568Y-161259430D01*
X93036981Y-161270466D01*
X93054224Y-161283254D01*
X93070130Y-161297670D01*
X93084546Y-161313576D01*
X93097334Y-161330819D01*
X93108370Y-161349232D01*
X93117549Y-161368638D01*
X93124781Y-161388850D01*
X93129997Y-161409674D01*
X93133147Y-161430909D01*
X93134200Y-161452350D01*
X93134200Y-161889850D01*
X93133147Y-161911291D01*
X93129997Y-161932526D01*
X93124781Y-161953350D01*
X93117549Y-161973562D01*
X93108370Y-161992968D01*
X93097334Y-162011381D01*
X93084546Y-162028624D01*
X93070130Y-162044530D01*
X93054224Y-162058946D01*
X93036981Y-162071734D01*
X93018568Y-162082770D01*
X92999162Y-162091949D01*
X92978950Y-162099181D01*
X92958126Y-162104397D01*
X92936891Y-162107547D01*
X92915450Y-162108600D01*
X92402950Y-162108600D01*
X92381509Y-162107547D01*
X92360274Y-162104397D01*
X92339450Y-162099181D01*
X92319238Y-162091949D01*
X92299832Y-162082770D01*
X92281419Y-162071734D01*
X92264176Y-162058946D01*
X92248270Y-162044530D01*
X92233854Y-162028624D01*
X92221066Y-162011381D01*
X92210030Y-161992968D01*
X92200851Y-161973562D01*
X92193619Y-161953350D01*
X92188403Y-161932526D01*
X92185253Y-161911291D01*
X92184200Y-161889850D01*
X92184200Y-161452350D01*
X92185253Y-161430909D01*
X92188403Y-161409674D01*
X92193619Y-161388850D01*
X92200851Y-161368638D01*
X92210030Y-161349232D01*
X92221066Y-161330819D01*
X92233854Y-161313576D01*
X92248270Y-161297670D01*
X92264176Y-161283254D01*
X92281419Y-161270466D01*
X92299832Y-161259430D01*
X92319238Y-161250251D01*
X92339450Y-161243019D01*
X92360274Y-161237803D01*
X92381509Y-161234653D01*
X92402950Y-161233600D01*
X92915450Y-161233600D01*
X92936891Y-161234653D01*
X92936891Y-161234653D01*
G37*
D23*
X92659200Y-161671100D03*
D10*
G36*
X106627491Y-159659653D02*
X106648726Y-159662803D01*
X106669550Y-159668019D01*
X106689762Y-159675251D01*
X106709168Y-159684430D01*
X106727581Y-159695466D01*
X106744824Y-159708254D01*
X106760730Y-159722670D01*
X106775146Y-159738576D01*
X106787934Y-159755819D01*
X106798970Y-159774232D01*
X106808149Y-159793638D01*
X106815381Y-159813850D01*
X106820597Y-159834674D01*
X106823747Y-159855909D01*
X106824800Y-159877350D01*
X106824800Y-160314850D01*
X106823747Y-160336291D01*
X106820597Y-160357526D01*
X106815381Y-160378350D01*
X106808149Y-160398562D01*
X106798970Y-160417968D01*
X106787934Y-160436381D01*
X106775146Y-160453624D01*
X106760730Y-160469530D01*
X106744824Y-160483946D01*
X106727581Y-160496734D01*
X106709168Y-160507770D01*
X106689762Y-160516949D01*
X106669550Y-160524181D01*
X106648726Y-160529397D01*
X106627491Y-160532547D01*
X106606050Y-160533600D01*
X106093550Y-160533600D01*
X106072109Y-160532547D01*
X106050874Y-160529397D01*
X106030050Y-160524181D01*
X106009838Y-160516949D01*
X105990432Y-160507770D01*
X105972019Y-160496734D01*
X105954776Y-160483946D01*
X105938870Y-160469530D01*
X105924454Y-160453624D01*
X105911666Y-160436381D01*
X105900630Y-160417968D01*
X105891451Y-160398562D01*
X105884219Y-160378350D01*
X105879003Y-160357526D01*
X105875853Y-160336291D01*
X105874800Y-160314850D01*
X105874800Y-159877350D01*
X105875853Y-159855909D01*
X105879003Y-159834674D01*
X105884219Y-159813850D01*
X105891451Y-159793638D01*
X105900630Y-159774232D01*
X105911666Y-159755819D01*
X105924454Y-159738576D01*
X105938870Y-159722670D01*
X105954776Y-159708254D01*
X105972019Y-159695466D01*
X105990432Y-159684430D01*
X106009838Y-159675251D01*
X106030050Y-159668019D01*
X106050874Y-159662803D01*
X106072109Y-159659653D01*
X106093550Y-159658600D01*
X106606050Y-159658600D01*
X106627491Y-159659653D01*
X106627491Y-159659653D01*
G37*
D23*
X106349800Y-160096100D03*
D10*
G36*
X106627491Y-161234653D02*
X106648726Y-161237803D01*
X106669550Y-161243019D01*
X106689762Y-161250251D01*
X106709168Y-161259430D01*
X106727581Y-161270466D01*
X106744824Y-161283254D01*
X106760730Y-161297670D01*
X106775146Y-161313576D01*
X106787934Y-161330819D01*
X106798970Y-161349232D01*
X106808149Y-161368638D01*
X106815381Y-161388850D01*
X106820597Y-161409674D01*
X106823747Y-161430909D01*
X106824800Y-161452350D01*
X106824800Y-161889850D01*
X106823747Y-161911291D01*
X106820597Y-161932526D01*
X106815381Y-161953350D01*
X106808149Y-161973562D01*
X106798970Y-161992968D01*
X106787934Y-162011381D01*
X106775146Y-162028624D01*
X106760730Y-162044530D01*
X106744824Y-162058946D01*
X106727581Y-162071734D01*
X106709168Y-162082770D01*
X106689762Y-162091949D01*
X106669550Y-162099181D01*
X106648726Y-162104397D01*
X106627491Y-162107547D01*
X106606050Y-162108600D01*
X106093550Y-162108600D01*
X106072109Y-162107547D01*
X106050874Y-162104397D01*
X106030050Y-162099181D01*
X106009838Y-162091949D01*
X105990432Y-162082770D01*
X105972019Y-162071734D01*
X105954776Y-162058946D01*
X105938870Y-162044530D01*
X105924454Y-162028624D01*
X105911666Y-162011381D01*
X105900630Y-161992968D01*
X105891451Y-161973562D01*
X105884219Y-161953350D01*
X105879003Y-161932526D01*
X105875853Y-161911291D01*
X105874800Y-161889850D01*
X105874800Y-161452350D01*
X105875853Y-161430909D01*
X105879003Y-161409674D01*
X105884219Y-161388850D01*
X105891451Y-161368638D01*
X105900630Y-161349232D01*
X105911666Y-161330819D01*
X105924454Y-161313576D01*
X105938870Y-161297670D01*
X105954776Y-161283254D01*
X105972019Y-161270466D01*
X105990432Y-161259430D01*
X106009838Y-161250251D01*
X106030050Y-161243019D01*
X106050874Y-161237803D01*
X106072109Y-161234653D01*
X106093550Y-161233600D01*
X106606050Y-161233600D01*
X106627491Y-161234653D01*
X106627491Y-161234653D01*
G37*
D23*
X106349800Y-161671100D03*
D10*
G36*
X87983891Y-159659653D02*
X88005126Y-159662803D01*
X88025950Y-159668019D01*
X88046162Y-159675251D01*
X88065568Y-159684430D01*
X88083981Y-159695466D01*
X88101224Y-159708254D01*
X88117130Y-159722670D01*
X88131546Y-159738576D01*
X88144334Y-159755819D01*
X88155370Y-159774232D01*
X88164549Y-159793638D01*
X88171781Y-159813850D01*
X88176997Y-159834674D01*
X88180147Y-159855909D01*
X88181200Y-159877350D01*
X88181200Y-160314850D01*
X88180147Y-160336291D01*
X88176997Y-160357526D01*
X88171781Y-160378350D01*
X88164549Y-160398562D01*
X88155370Y-160417968D01*
X88144334Y-160436381D01*
X88131546Y-160453624D01*
X88117130Y-160469530D01*
X88101224Y-160483946D01*
X88083981Y-160496734D01*
X88065568Y-160507770D01*
X88046162Y-160516949D01*
X88025950Y-160524181D01*
X88005126Y-160529397D01*
X87983891Y-160532547D01*
X87962450Y-160533600D01*
X87449950Y-160533600D01*
X87428509Y-160532547D01*
X87407274Y-160529397D01*
X87386450Y-160524181D01*
X87366238Y-160516949D01*
X87346832Y-160507770D01*
X87328419Y-160496734D01*
X87311176Y-160483946D01*
X87295270Y-160469530D01*
X87280854Y-160453624D01*
X87268066Y-160436381D01*
X87257030Y-160417968D01*
X87247851Y-160398562D01*
X87240619Y-160378350D01*
X87235403Y-160357526D01*
X87232253Y-160336291D01*
X87231200Y-160314850D01*
X87231200Y-159877350D01*
X87232253Y-159855909D01*
X87235403Y-159834674D01*
X87240619Y-159813850D01*
X87247851Y-159793638D01*
X87257030Y-159774232D01*
X87268066Y-159755819D01*
X87280854Y-159738576D01*
X87295270Y-159722670D01*
X87311176Y-159708254D01*
X87328419Y-159695466D01*
X87346832Y-159684430D01*
X87366238Y-159675251D01*
X87386450Y-159668019D01*
X87407274Y-159662803D01*
X87428509Y-159659653D01*
X87449950Y-159658600D01*
X87962450Y-159658600D01*
X87983891Y-159659653D01*
X87983891Y-159659653D01*
G37*
D23*
X87706200Y-160096100D03*
D10*
G36*
X87983891Y-161234653D02*
X88005126Y-161237803D01*
X88025950Y-161243019D01*
X88046162Y-161250251D01*
X88065568Y-161259430D01*
X88083981Y-161270466D01*
X88101224Y-161283254D01*
X88117130Y-161297670D01*
X88131546Y-161313576D01*
X88144334Y-161330819D01*
X88155370Y-161349232D01*
X88164549Y-161368638D01*
X88171781Y-161388850D01*
X88176997Y-161409674D01*
X88180147Y-161430909D01*
X88181200Y-161452350D01*
X88181200Y-161889850D01*
X88180147Y-161911291D01*
X88176997Y-161932526D01*
X88171781Y-161953350D01*
X88164549Y-161973562D01*
X88155370Y-161992968D01*
X88144334Y-162011381D01*
X88131546Y-162028624D01*
X88117130Y-162044530D01*
X88101224Y-162058946D01*
X88083981Y-162071734D01*
X88065568Y-162082770D01*
X88046162Y-162091949D01*
X88025950Y-162099181D01*
X88005126Y-162104397D01*
X87983891Y-162107547D01*
X87962450Y-162108600D01*
X87449950Y-162108600D01*
X87428509Y-162107547D01*
X87407274Y-162104397D01*
X87386450Y-162099181D01*
X87366238Y-162091949D01*
X87346832Y-162082770D01*
X87328419Y-162071734D01*
X87311176Y-162058946D01*
X87295270Y-162044530D01*
X87280854Y-162028624D01*
X87268066Y-162011381D01*
X87257030Y-161992968D01*
X87247851Y-161973562D01*
X87240619Y-161953350D01*
X87235403Y-161932526D01*
X87232253Y-161911291D01*
X87231200Y-161889850D01*
X87231200Y-161452350D01*
X87232253Y-161430909D01*
X87235403Y-161409674D01*
X87240619Y-161388850D01*
X87247851Y-161368638D01*
X87257030Y-161349232D01*
X87268066Y-161330819D01*
X87280854Y-161313576D01*
X87295270Y-161297670D01*
X87311176Y-161283254D01*
X87328419Y-161270466D01*
X87346832Y-161259430D01*
X87366238Y-161250251D01*
X87386450Y-161243019D01*
X87407274Y-161237803D01*
X87428509Y-161234653D01*
X87449950Y-161233600D01*
X87962450Y-161233600D01*
X87983891Y-161234653D01*
X87983891Y-161234653D01*
G37*
D23*
X87706200Y-161671100D03*
D10*
G36*
X101674491Y-159659653D02*
X101695726Y-159662803D01*
X101716550Y-159668019D01*
X101736762Y-159675251D01*
X101756168Y-159684430D01*
X101774581Y-159695466D01*
X101791824Y-159708254D01*
X101807730Y-159722670D01*
X101822146Y-159738576D01*
X101834934Y-159755819D01*
X101845970Y-159774232D01*
X101855149Y-159793638D01*
X101862381Y-159813850D01*
X101867597Y-159834674D01*
X101870747Y-159855909D01*
X101871800Y-159877350D01*
X101871800Y-160314850D01*
X101870747Y-160336291D01*
X101867597Y-160357526D01*
X101862381Y-160378350D01*
X101855149Y-160398562D01*
X101845970Y-160417968D01*
X101834934Y-160436381D01*
X101822146Y-160453624D01*
X101807730Y-160469530D01*
X101791824Y-160483946D01*
X101774581Y-160496734D01*
X101756168Y-160507770D01*
X101736762Y-160516949D01*
X101716550Y-160524181D01*
X101695726Y-160529397D01*
X101674491Y-160532547D01*
X101653050Y-160533600D01*
X101140550Y-160533600D01*
X101119109Y-160532547D01*
X101097874Y-160529397D01*
X101077050Y-160524181D01*
X101056838Y-160516949D01*
X101037432Y-160507770D01*
X101019019Y-160496734D01*
X101001776Y-160483946D01*
X100985870Y-160469530D01*
X100971454Y-160453624D01*
X100958666Y-160436381D01*
X100947630Y-160417968D01*
X100938451Y-160398562D01*
X100931219Y-160378350D01*
X100926003Y-160357526D01*
X100922853Y-160336291D01*
X100921800Y-160314850D01*
X100921800Y-159877350D01*
X100922853Y-159855909D01*
X100926003Y-159834674D01*
X100931219Y-159813850D01*
X100938451Y-159793638D01*
X100947630Y-159774232D01*
X100958666Y-159755819D01*
X100971454Y-159738576D01*
X100985870Y-159722670D01*
X101001776Y-159708254D01*
X101019019Y-159695466D01*
X101037432Y-159684430D01*
X101056838Y-159675251D01*
X101077050Y-159668019D01*
X101097874Y-159662803D01*
X101119109Y-159659653D01*
X101140550Y-159658600D01*
X101653050Y-159658600D01*
X101674491Y-159659653D01*
X101674491Y-159659653D01*
G37*
D23*
X101396800Y-160096100D03*
D10*
G36*
X101674491Y-161234653D02*
X101695726Y-161237803D01*
X101716550Y-161243019D01*
X101736762Y-161250251D01*
X101756168Y-161259430D01*
X101774581Y-161270466D01*
X101791824Y-161283254D01*
X101807730Y-161297670D01*
X101822146Y-161313576D01*
X101834934Y-161330819D01*
X101845970Y-161349232D01*
X101855149Y-161368638D01*
X101862381Y-161388850D01*
X101867597Y-161409674D01*
X101870747Y-161430909D01*
X101871800Y-161452350D01*
X101871800Y-161889850D01*
X101870747Y-161911291D01*
X101867597Y-161932526D01*
X101862381Y-161953350D01*
X101855149Y-161973562D01*
X101845970Y-161992968D01*
X101834934Y-162011381D01*
X101822146Y-162028624D01*
X101807730Y-162044530D01*
X101791824Y-162058946D01*
X101774581Y-162071734D01*
X101756168Y-162082770D01*
X101736762Y-162091949D01*
X101716550Y-162099181D01*
X101695726Y-162104397D01*
X101674491Y-162107547D01*
X101653050Y-162108600D01*
X101140550Y-162108600D01*
X101119109Y-162107547D01*
X101097874Y-162104397D01*
X101077050Y-162099181D01*
X101056838Y-162091949D01*
X101037432Y-162082770D01*
X101019019Y-162071734D01*
X101001776Y-162058946D01*
X100985870Y-162044530D01*
X100971454Y-162028624D01*
X100958666Y-162011381D01*
X100947630Y-161992968D01*
X100938451Y-161973562D01*
X100931219Y-161953350D01*
X100926003Y-161932526D01*
X100922853Y-161911291D01*
X100921800Y-161889850D01*
X100921800Y-161452350D01*
X100922853Y-161430909D01*
X100926003Y-161409674D01*
X100931219Y-161388850D01*
X100938451Y-161368638D01*
X100947630Y-161349232D01*
X100958666Y-161330819D01*
X100971454Y-161313576D01*
X100985870Y-161297670D01*
X101001776Y-161283254D01*
X101019019Y-161270466D01*
X101037432Y-161259430D01*
X101056838Y-161250251D01*
X101077050Y-161243019D01*
X101097874Y-161237803D01*
X101119109Y-161234653D01*
X101140550Y-161233600D01*
X101653050Y-161233600D01*
X101674491Y-161234653D01*
X101674491Y-161234653D01*
G37*
D23*
X101396800Y-161671100D03*
D10*
G36*
X106216718Y-111236970D02*
X106231036Y-111239094D01*
X106245077Y-111242611D01*
X106258706Y-111247488D01*
X106271791Y-111253677D01*
X106284207Y-111261118D01*
X106295833Y-111269741D01*
X106306558Y-111279462D01*
X106316279Y-111290187D01*
X106324902Y-111301813D01*
X106332343Y-111314229D01*
X106338532Y-111327314D01*
X106343409Y-111340943D01*
X106346926Y-111354984D01*
X106349050Y-111369302D01*
X106349760Y-111383760D01*
X106349760Y-111678760D01*
X106349050Y-111693218D01*
X106346926Y-111707536D01*
X106343409Y-111721577D01*
X106338532Y-111735206D01*
X106332343Y-111748291D01*
X106324902Y-111760707D01*
X106316279Y-111772333D01*
X106306558Y-111783058D01*
X106295833Y-111792779D01*
X106284207Y-111801402D01*
X106271791Y-111808843D01*
X106258706Y-111815032D01*
X106245077Y-111819909D01*
X106231036Y-111823426D01*
X106216718Y-111825550D01*
X106202260Y-111826260D01*
X105857260Y-111826260D01*
X105842802Y-111825550D01*
X105828484Y-111823426D01*
X105814443Y-111819909D01*
X105800814Y-111815032D01*
X105787729Y-111808843D01*
X105775313Y-111801402D01*
X105763687Y-111792779D01*
X105752962Y-111783058D01*
X105743241Y-111772333D01*
X105734618Y-111760707D01*
X105727177Y-111748291D01*
X105720988Y-111735206D01*
X105716111Y-111721577D01*
X105712594Y-111707536D01*
X105710470Y-111693218D01*
X105709760Y-111678760D01*
X105709760Y-111383760D01*
X105710470Y-111369302D01*
X105712594Y-111354984D01*
X105716111Y-111340943D01*
X105720988Y-111327314D01*
X105727177Y-111314229D01*
X105734618Y-111301813D01*
X105743241Y-111290187D01*
X105752962Y-111279462D01*
X105763687Y-111269741D01*
X105775313Y-111261118D01*
X105787729Y-111253677D01*
X105800814Y-111247488D01*
X105814443Y-111242611D01*
X105828484Y-111239094D01*
X105842802Y-111236970D01*
X105857260Y-111236260D01*
X106202260Y-111236260D01*
X106216718Y-111236970D01*
X106216718Y-111236970D01*
G37*
D15*
X106029760Y-111531260D03*
D10*
G36*
X106216718Y-110266970D02*
X106231036Y-110269094D01*
X106245077Y-110272611D01*
X106258706Y-110277488D01*
X106271791Y-110283677D01*
X106284207Y-110291118D01*
X106295833Y-110299741D01*
X106306558Y-110309462D01*
X106316279Y-110320187D01*
X106324902Y-110331813D01*
X106332343Y-110344229D01*
X106338532Y-110357314D01*
X106343409Y-110370943D01*
X106346926Y-110384984D01*
X106349050Y-110399302D01*
X106349760Y-110413760D01*
X106349760Y-110708760D01*
X106349050Y-110723218D01*
X106346926Y-110737536D01*
X106343409Y-110751577D01*
X106338532Y-110765206D01*
X106332343Y-110778291D01*
X106324902Y-110790707D01*
X106316279Y-110802333D01*
X106306558Y-110813058D01*
X106295833Y-110822779D01*
X106284207Y-110831402D01*
X106271791Y-110838843D01*
X106258706Y-110845032D01*
X106245077Y-110849909D01*
X106231036Y-110853426D01*
X106216718Y-110855550D01*
X106202260Y-110856260D01*
X105857260Y-110856260D01*
X105842802Y-110855550D01*
X105828484Y-110853426D01*
X105814443Y-110849909D01*
X105800814Y-110845032D01*
X105787729Y-110838843D01*
X105775313Y-110831402D01*
X105763687Y-110822779D01*
X105752962Y-110813058D01*
X105743241Y-110802333D01*
X105734618Y-110790707D01*
X105727177Y-110778291D01*
X105720988Y-110765206D01*
X105716111Y-110751577D01*
X105712594Y-110737536D01*
X105710470Y-110723218D01*
X105709760Y-110708760D01*
X105709760Y-110413760D01*
X105710470Y-110399302D01*
X105712594Y-110384984D01*
X105716111Y-110370943D01*
X105720988Y-110357314D01*
X105727177Y-110344229D01*
X105734618Y-110331813D01*
X105743241Y-110320187D01*
X105752962Y-110309462D01*
X105763687Y-110299741D01*
X105775313Y-110291118D01*
X105787729Y-110283677D01*
X105800814Y-110277488D01*
X105814443Y-110272611D01*
X105828484Y-110269094D01*
X105842802Y-110266970D01*
X105857260Y-110266260D01*
X106202260Y-110266260D01*
X106216718Y-110266970D01*
X106216718Y-110266970D01*
G37*
D15*
X106029760Y-110561260D03*
D10*
G36*
X114484958Y-151369510D02*
X114499276Y-151371634D01*
X114513317Y-151375151D01*
X114526946Y-151380028D01*
X114540031Y-151386217D01*
X114552447Y-151393658D01*
X114564073Y-151402281D01*
X114574798Y-151412002D01*
X114584519Y-151422727D01*
X114593142Y-151434353D01*
X114600583Y-151446769D01*
X114606772Y-151459854D01*
X114611649Y-151473483D01*
X114615166Y-151487524D01*
X114617290Y-151501842D01*
X114618000Y-151516300D01*
X114618000Y-151861300D01*
X114617290Y-151875758D01*
X114615166Y-151890076D01*
X114611649Y-151904117D01*
X114606772Y-151917746D01*
X114600583Y-151930831D01*
X114593142Y-151943247D01*
X114584519Y-151954873D01*
X114574798Y-151965598D01*
X114564073Y-151975319D01*
X114552447Y-151983942D01*
X114540031Y-151991383D01*
X114526946Y-151997572D01*
X114513317Y-152002449D01*
X114499276Y-152005966D01*
X114484958Y-152008090D01*
X114470500Y-152008800D01*
X114175500Y-152008800D01*
X114161042Y-152008090D01*
X114146724Y-152005966D01*
X114132683Y-152002449D01*
X114119054Y-151997572D01*
X114105969Y-151991383D01*
X114093553Y-151983942D01*
X114081927Y-151975319D01*
X114071202Y-151965598D01*
X114061481Y-151954873D01*
X114052858Y-151943247D01*
X114045417Y-151930831D01*
X114039228Y-151917746D01*
X114034351Y-151904117D01*
X114030834Y-151890076D01*
X114028710Y-151875758D01*
X114028000Y-151861300D01*
X114028000Y-151516300D01*
X114028710Y-151501842D01*
X114030834Y-151487524D01*
X114034351Y-151473483D01*
X114039228Y-151459854D01*
X114045417Y-151446769D01*
X114052858Y-151434353D01*
X114061481Y-151422727D01*
X114071202Y-151412002D01*
X114081927Y-151402281D01*
X114093553Y-151393658D01*
X114105969Y-151386217D01*
X114119054Y-151380028D01*
X114132683Y-151375151D01*
X114146724Y-151371634D01*
X114161042Y-151369510D01*
X114175500Y-151368800D01*
X114470500Y-151368800D01*
X114484958Y-151369510D01*
X114484958Y-151369510D01*
G37*
D15*
X114323000Y-151688800D03*
D10*
G36*
X115454958Y-151369510D02*
X115469276Y-151371634D01*
X115483317Y-151375151D01*
X115496946Y-151380028D01*
X115510031Y-151386217D01*
X115522447Y-151393658D01*
X115534073Y-151402281D01*
X115544798Y-151412002D01*
X115554519Y-151422727D01*
X115563142Y-151434353D01*
X115570583Y-151446769D01*
X115576772Y-151459854D01*
X115581649Y-151473483D01*
X115585166Y-151487524D01*
X115587290Y-151501842D01*
X115588000Y-151516300D01*
X115588000Y-151861300D01*
X115587290Y-151875758D01*
X115585166Y-151890076D01*
X115581649Y-151904117D01*
X115576772Y-151917746D01*
X115570583Y-151930831D01*
X115563142Y-151943247D01*
X115554519Y-151954873D01*
X115544798Y-151965598D01*
X115534073Y-151975319D01*
X115522447Y-151983942D01*
X115510031Y-151991383D01*
X115496946Y-151997572D01*
X115483317Y-152002449D01*
X115469276Y-152005966D01*
X115454958Y-152008090D01*
X115440500Y-152008800D01*
X115145500Y-152008800D01*
X115131042Y-152008090D01*
X115116724Y-152005966D01*
X115102683Y-152002449D01*
X115089054Y-151997572D01*
X115075969Y-151991383D01*
X115063553Y-151983942D01*
X115051927Y-151975319D01*
X115041202Y-151965598D01*
X115031481Y-151954873D01*
X115022858Y-151943247D01*
X115015417Y-151930831D01*
X115009228Y-151917746D01*
X115004351Y-151904117D01*
X115000834Y-151890076D01*
X114998710Y-151875758D01*
X114998000Y-151861300D01*
X114998000Y-151516300D01*
X114998710Y-151501842D01*
X115000834Y-151487524D01*
X115004351Y-151473483D01*
X115009228Y-151459854D01*
X115015417Y-151446769D01*
X115022858Y-151434353D01*
X115031481Y-151422727D01*
X115041202Y-151412002D01*
X115051927Y-151402281D01*
X115063553Y-151393658D01*
X115075969Y-151386217D01*
X115089054Y-151380028D01*
X115102683Y-151375151D01*
X115116724Y-151371634D01*
X115131042Y-151369510D01*
X115145500Y-151368800D01*
X115440500Y-151368800D01*
X115454958Y-151369510D01*
X115454958Y-151369510D01*
G37*
D15*
X115293000Y-151688800D03*
D10*
G36*
X114138142Y-149211974D02*
X114161803Y-149215484D01*
X114185007Y-149221296D01*
X114207529Y-149229354D01*
X114229153Y-149239582D01*
X114249670Y-149251879D01*
X114268883Y-149266129D01*
X114286607Y-149282193D01*
X114302671Y-149299917D01*
X114316921Y-149319130D01*
X114329218Y-149339647D01*
X114339446Y-149361271D01*
X114347504Y-149383793D01*
X114353316Y-149406997D01*
X114356826Y-149430658D01*
X114358000Y-149454550D01*
X114358000Y-150367050D01*
X114356826Y-150390942D01*
X114353316Y-150414603D01*
X114347504Y-150437807D01*
X114339446Y-150460329D01*
X114329218Y-150481953D01*
X114316921Y-150502470D01*
X114302671Y-150521683D01*
X114286607Y-150539407D01*
X114268883Y-150555471D01*
X114249670Y-150569721D01*
X114229153Y-150582018D01*
X114207529Y-150592246D01*
X114185007Y-150600304D01*
X114161803Y-150606116D01*
X114138142Y-150609626D01*
X114114250Y-150610800D01*
X113626750Y-150610800D01*
X113602858Y-150609626D01*
X113579197Y-150606116D01*
X113555993Y-150600304D01*
X113533471Y-150592246D01*
X113511847Y-150582018D01*
X113491330Y-150569721D01*
X113472117Y-150555471D01*
X113454393Y-150539407D01*
X113438329Y-150521683D01*
X113424079Y-150502470D01*
X113411782Y-150481953D01*
X113401554Y-150460329D01*
X113393496Y-150437807D01*
X113387684Y-150414603D01*
X113384174Y-150390942D01*
X113383000Y-150367050D01*
X113383000Y-149454550D01*
X113384174Y-149430658D01*
X113387684Y-149406997D01*
X113393496Y-149383793D01*
X113401554Y-149361271D01*
X113411782Y-149339647D01*
X113424079Y-149319130D01*
X113438329Y-149299917D01*
X113454393Y-149282193D01*
X113472117Y-149266129D01*
X113491330Y-149251879D01*
X113511847Y-149239582D01*
X113533471Y-149229354D01*
X113555993Y-149221296D01*
X113579197Y-149215484D01*
X113602858Y-149211974D01*
X113626750Y-149210800D01*
X114114250Y-149210800D01*
X114138142Y-149211974D01*
X114138142Y-149211974D01*
G37*
D11*
X113870500Y-149910800D03*
D10*
G36*
X116013142Y-149211974D02*
X116036803Y-149215484D01*
X116060007Y-149221296D01*
X116082529Y-149229354D01*
X116104153Y-149239582D01*
X116124670Y-149251879D01*
X116143883Y-149266129D01*
X116161607Y-149282193D01*
X116177671Y-149299917D01*
X116191921Y-149319130D01*
X116204218Y-149339647D01*
X116214446Y-149361271D01*
X116222504Y-149383793D01*
X116228316Y-149406997D01*
X116231826Y-149430658D01*
X116233000Y-149454550D01*
X116233000Y-150367050D01*
X116231826Y-150390942D01*
X116228316Y-150414603D01*
X116222504Y-150437807D01*
X116214446Y-150460329D01*
X116204218Y-150481953D01*
X116191921Y-150502470D01*
X116177671Y-150521683D01*
X116161607Y-150539407D01*
X116143883Y-150555471D01*
X116124670Y-150569721D01*
X116104153Y-150582018D01*
X116082529Y-150592246D01*
X116060007Y-150600304D01*
X116036803Y-150606116D01*
X116013142Y-150609626D01*
X115989250Y-150610800D01*
X115501750Y-150610800D01*
X115477858Y-150609626D01*
X115454197Y-150606116D01*
X115430993Y-150600304D01*
X115408471Y-150592246D01*
X115386847Y-150582018D01*
X115366330Y-150569721D01*
X115347117Y-150555471D01*
X115329393Y-150539407D01*
X115313329Y-150521683D01*
X115299079Y-150502470D01*
X115286782Y-150481953D01*
X115276554Y-150460329D01*
X115268496Y-150437807D01*
X115262684Y-150414603D01*
X115259174Y-150390942D01*
X115258000Y-150367050D01*
X115258000Y-149454550D01*
X115259174Y-149430658D01*
X115262684Y-149406997D01*
X115268496Y-149383793D01*
X115276554Y-149361271D01*
X115286782Y-149339647D01*
X115299079Y-149319130D01*
X115313329Y-149299917D01*
X115329393Y-149282193D01*
X115347117Y-149266129D01*
X115366330Y-149251879D01*
X115386847Y-149239582D01*
X115408471Y-149229354D01*
X115430993Y-149221296D01*
X115454197Y-149215484D01*
X115477858Y-149211974D01*
X115501750Y-149210800D01*
X115989250Y-149210800D01*
X116013142Y-149211974D01*
X116013142Y-149211974D01*
G37*
D11*
X115745500Y-149910800D03*
D10*
G36*
X108644958Y-149916510D02*
X108659276Y-149918634D01*
X108673317Y-149922151D01*
X108686946Y-149927028D01*
X108700031Y-149933217D01*
X108712447Y-149940658D01*
X108724073Y-149949281D01*
X108734798Y-149959002D01*
X108744519Y-149969727D01*
X108753142Y-149981353D01*
X108760583Y-149993769D01*
X108766772Y-150006854D01*
X108771649Y-150020483D01*
X108775166Y-150034524D01*
X108777290Y-150048842D01*
X108778000Y-150063300D01*
X108778000Y-150358300D01*
X108777290Y-150372758D01*
X108775166Y-150387076D01*
X108771649Y-150401117D01*
X108766772Y-150414746D01*
X108760583Y-150427831D01*
X108753142Y-150440247D01*
X108744519Y-150451873D01*
X108734798Y-150462598D01*
X108724073Y-150472319D01*
X108712447Y-150480942D01*
X108700031Y-150488383D01*
X108686946Y-150494572D01*
X108673317Y-150499449D01*
X108659276Y-150502966D01*
X108644958Y-150505090D01*
X108630500Y-150505800D01*
X108285500Y-150505800D01*
X108271042Y-150505090D01*
X108256724Y-150502966D01*
X108242683Y-150499449D01*
X108229054Y-150494572D01*
X108215969Y-150488383D01*
X108203553Y-150480942D01*
X108191927Y-150472319D01*
X108181202Y-150462598D01*
X108171481Y-150451873D01*
X108162858Y-150440247D01*
X108155417Y-150427831D01*
X108149228Y-150414746D01*
X108144351Y-150401117D01*
X108140834Y-150387076D01*
X108138710Y-150372758D01*
X108138000Y-150358300D01*
X108138000Y-150063300D01*
X108138710Y-150048842D01*
X108140834Y-150034524D01*
X108144351Y-150020483D01*
X108149228Y-150006854D01*
X108155417Y-149993769D01*
X108162858Y-149981353D01*
X108171481Y-149969727D01*
X108181202Y-149959002D01*
X108191927Y-149949281D01*
X108203553Y-149940658D01*
X108215969Y-149933217D01*
X108229054Y-149927028D01*
X108242683Y-149922151D01*
X108256724Y-149918634D01*
X108271042Y-149916510D01*
X108285500Y-149915800D01*
X108630500Y-149915800D01*
X108644958Y-149916510D01*
X108644958Y-149916510D01*
G37*
D15*
X108458000Y-150210800D03*
D10*
G36*
X108644958Y-150886510D02*
X108659276Y-150888634D01*
X108673317Y-150892151D01*
X108686946Y-150897028D01*
X108700031Y-150903217D01*
X108712447Y-150910658D01*
X108724073Y-150919281D01*
X108734798Y-150929002D01*
X108744519Y-150939727D01*
X108753142Y-150951353D01*
X108760583Y-150963769D01*
X108766772Y-150976854D01*
X108771649Y-150990483D01*
X108775166Y-151004524D01*
X108777290Y-151018842D01*
X108778000Y-151033300D01*
X108778000Y-151328300D01*
X108777290Y-151342758D01*
X108775166Y-151357076D01*
X108771649Y-151371117D01*
X108766772Y-151384746D01*
X108760583Y-151397831D01*
X108753142Y-151410247D01*
X108744519Y-151421873D01*
X108734798Y-151432598D01*
X108724073Y-151442319D01*
X108712447Y-151450942D01*
X108700031Y-151458383D01*
X108686946Y-151464572D01*
X108673317Y-151469449D01*
X108659276Y-151472966D01*
X108644958Y-151475090D01*
X108630500Y-151475800D01*
X108285500Y-151475800D01*
X108271042Y-151475090D01*
X108256724Y-151472966D01*
X108242683Y-151469449D01*
X108229054Y-151464572D01*
X108215969Y-151458383D01*
X108203553Y-151450942D01*
X108191927Y-151442319D01*
X108181202Y-151432598D01*
X108171481Y-151421873D01*
X108162858Y-151410247D01*
X108155417Y-151397831D01*
X108149228Y-151384746D01*
X108144351Y-151371117D01*
X108140834Y-151357076D01*
X108138710Y-151342758D01*
X108138000Y-151328300D01*
X108138000Y-151033300D01*
X108138710Y-151018842D01*
X108140834Y-151004524D01*
X108144351Y-150990483D01*
X108149228Y-150976854D01*
X108155417Y-150963769D01*
X108162858Y-150951353D01*
X108171481Y-150939727D01*
X108181202Y-150929002D01*
X108191927Y-150919281D01*
X108203553Y-150910658D01*
X108215969Y-150903217D01*
X108229054Y-150897028D01*
X108242683Y-150892151D01*
X108256724Y-150888634D01*
X108271042Y-150886510D01*
X108285500Y-150885800D01*
X108630500Y-150885800D01*
X108644958Y-150886510D01*
X108644958Y-150886510D01*
G37*
D15*
X108458000Y-151180800D03*
D10*
G36*
X109914958Y-149916510D02*
X109929276Y-149918634D01*
X109943317Y-149922151D01*
X109956946Y-149927028D01*
X109970031Y-149933217D01*
X109982447Y-149940658D01*
X109994073Y-149949281D01*
X110004798Y-149959002D01*
X110014519Y-149969727D01*
X110023142Y-149981353D01*
X110030583Y-149993769D01*
X110036772Y-150006854D01*
X110041649Y-150020483D01*
X110045166Y-150034524D01*
X110047290Y-150048842D01*
X110048000Y-150063300D01*
X110048000Y-150358300D01*
X110047290Y-150372758D01*
X110045166Y-150387076D01*
X110041649Y-150401117D01*
X110036772Y-150414746D01*
X110030583Y-150427831D01*
X110023142Y-150440247D01*
X110014519Y-150451873D01*
X110004798Y-150462598D01*
X109994073Y-150472319D01*
X109982447Y-150480942D01*
X109970031Y-150488383D01*
X109956946Y-150494572D01*
X109943317Y-150499449D01*
X109929276Y-150502966D01*
X109914958Y-150505090D01*
X109900500Y-150505800D01*
X109555500Y-150505800D01*
X109541042Y-150505090D01*
X109526724Y-150502966D01*
X109512683Y-150499449D01*
X109499054Y-150494572D01*
X109485969Y-150488383D01*
X109473553Y-150480942D01*
X109461927Y-150472319D01*
X109451202Y-150462598D01*
X109441481Y-150451873D01*
X109432858Y-150440247D01*
X109425417Y-150427831D01*
X109419228Y-150414746D01*
X109414351Y-150401117D01*
X109410834Y-150387076D01*
X109408710Y-150372758D01*
X109408000Y-150358300D01*
X109408000Y-150063300D01*
X109408710Y-150048842D01*
X109410834Y-150034524D01*
X109414351Y-150020483D01*
X109419228Y-150006854D01*
X109425417Y-149993769D01*
X109432858Y-149981353D01*
X109441481Y-149969727D01*
X109451202Y-149959002D01*
X109461927Y-149949281D01*
X109473553Y-149940658D01*
X109485969Y-149933217D01*
X109499054Y-149927028D01*
X109512683Y-149922151D01*
X109526724Y-149918634D01*
X109541042Y-149916510D01*
X109555500Y-149915800D01*
X109900500Y-149915800D01*
X109914958Y-149916510D01*
X109914958Y-149916510D01*
G37*
D15*
X109728000Y-150210800D03*
D10*
G36*
X109914958Y-150886510D02*
X109929276Y-150888634D01*
X109943317Y-150892151D01*
X109956946Y-150897028D01*
X109970031Y-150903217D01*
X109982447Y-150910658D01*
X109994073Y-150919281D01*
X110004798Y-150929002D01*
X110014519Y-150939727D01*
X110023142Y-150951353D01*
X110030583Y-150963769D01*
X110036772Y-150976854D01*
X110041649Y-150990483D01*
X110045166Y-151004524D01*
X110047290Y-151018842D01*
X110048000Y-151033300D01*
X110048000Y-151328300D01*
X110047290Y-151342758D01*
X110045166Y-151357076D01*
X110041649Y-151371117D01*
X110036772Y-151384746D01*
X110030583Y-151397831D01*
X110023142Y-151410247D01*
X110014519Y-151421873D01*
X110004798Y-151432598D01*
X109994073Y-151442319D01*
X109982447Y-151450942D01*
X109970031Y-151458383D01*
X109956946Y-151464572D01*
X109943317Y-151469449D01*
X109929276Y-151472966D01*
X109914958Y-151475090D01*
X109900500Y-151475800D01*
X109555500Y-151475800D01*
X109541042Y-151475090D01*
X109526724Y-151472966D01*
X109512683Y-151469449D01*
X109499054Y-151464572D01*
X109485969Y-151458383D01*
X109473553Y-151450942D01*
X109461927Y-151442319D01*
X109451202Y-151432598D01*
X109441481Y-151421873D01*
X109432858Y-151410247D01*
X109425417Y-151397831D01*
X109419228Y-151384746D01*
X109414351Y-151371117D01*
X109410834Y-151357076D01*
X109408710Y-151342758D01*
X109408000Y-151328300D01*
X109408000Y-151033300D01*
X109408710Y-151018842D01*
X109410834Y-151004524D01*
X109414351Y-150990483D01*
X109419228Y-150976854D01*
X109425417Y-150963769D01*
X109432858Y-150951353D01*
X109441481Y-150939727D01*
X109451202Y-150929002D01*
X109461927Y-150919281D01*
X109473553Y-150910658D01*
X109485969Y-150903217D01*
X109499054Y-150897028D01*
X109512683Y-150892151D01*
X109526724Y-150888634D01*
X109541042Y-150886510D01*
X109555500Y-150885800D01*
X109900500Y-150885800D01*
X109914958Y-150886510D01*
X109914958Y-150886510D01*
G37*
D15*
X109728000Y-151180800D03*
D10*
G36*
X114484958Y-143495510D02*
X114499276Y-143497634D01*
X114513317Y-143501151D01*
X114526946Y-143506028D01*
X114540031Y-143512217D01*
X114552447Y-143519658D01*
X114564073Y-143528281D01*
X114574798Y-143538002D01*
X114584519Y-143548727D01*
X114593142Y-143560353D01*
X114600583Y-143572769D01*
X114606772Y-143585854D01*
X114611649Y-143599483D01*
X114615166Y-143613524D01*
X114617290Y-143627842D01*
X114618000Y-143642300D01*
X114618000Y-143987300D01*
X114617290Y-144001758D01*
X114615166Y-144016076D01*
X114611649Y-144030117D01*
X114606772Y-144043746D01*
X114600583Y-144056831D01*
X114593142Y-144069247D01*
X114584519Y-144080873D01*
X114574798Y-144091598D01*
X114564073Y-144101319D01*
X114552447Y-144109942D01*
X114540031Y-144117383D01*
X114526946Y-144123572D01*
X114513317Y-144128449D01*
X114499276Y-144131966D01*
X114484958Y-144134090D01*
X114470500Y-144134800D01*
X114175500Y-144134800D01*
X114161042Y-144134090D01*
X114146724Y-144131966D01*
X114132683Y-144128449D01*
X114119054Y-144123572D01*
X114105969Y-144117383D01*
X114093553Y-144109942D01*
X114081927Y-144101319D01*
X114071202Y-144091598D01*
X114061481Y-144080873D01*
X114052858Y-144069247D01*
X114045417Y-144056831D01*
X114039228Y-144043746D01*
X114034351Y-144030117D01*
X114030834Y-144016076D01*
X114028710Y-144001758D01*
X114028000Y-143987300D01*
X114028000Y-143642300D01*
X114028710Y-143627842D01*
X114030834Y-143613524D01*
X114034351Y-143599483D01*
X114039228Y-143585854D01*
X114045417Y-143572769D01*
X114052858Y-143560353D01*
X114061481Y-143548727D01*
X114071202Y-143538002D01*
X114081927Y-143528281D01*
X114093553Y-143519658D01*
X114105969Y-143512217D01*
X114119054Y-143506028D01*
X114132683Y-143501151D01*
X114146724Y-143497634D01*
X114161042Y-143495510D01*
X114175500Y-143494800D01*
X114470500Y-143494800D01*
X114484958Y-143495510D01*
X114484958Y-143495510D01*
G37*
D15*
X114323000Y-143814800D03*
D10*
G36*
X115454958Y-143495510D02*
X115469276Y-143497634D01*
X115483317Y-143501151D01*
X115496946Y-143506028D01*
X115510031Y-143512217D01*
X115522447Y-143519658D01*
X115534073Y-143528281D01*
X115544798Y-143538002D01*
X115554519Y-143548727D01*
X115563142Y-143560353D01*
X115570583Y-143572769D01*
X115576772Y-143585854D01*
X115581649Y-143599483D01*
X115585166Y-143613524D01*
X115587290Y-143627842D01*
X115588000Y-143642300D01*
X115588000Y-143987300D01*
X115587290Y-144001758D01*
X115585166Y-144016076D01*
X115581649Y-144030117D01*
X115576772Y-144043746D01*
X115570583Y-144056831D01*
X115563142Y-144069247D01*
X115554519Y-144080873D01*
X115544798Y-144091598D01*
X115534073Y-144101319D01*
X115522447Y-144109942D01*
X115510031Y-144117383D01*
X115496946Y-144123572D01*
X115483317Y-144128449D01*
X115469276Y-144131966D01*
X115454958Y-144134090D01*
X115440500Y-144134800D01*
X115145500Y-144134800D01*
X115131042Y-144134090D01*
X115116724Y-144131966D01*
X115102683Y-144128449D01*
X115089054Y-144123572D01*
X115075969Y-144117383D01*
X115063553Y-144109942D01*
X115051927Y-144101319D01*
X115041202Y-144091598D01*
X115031481Y-144080873D01*
X115022858Y-144069247D01*
X115015417Y-144056831D01*
X115009228Y-144043746D01*
X115004351Y-144030117D01*
X115000834Y-144016076D01*
X114998710Y-144001758D01*
X114998000Y-143987300D01*
X114998000Y-143642300D01*
X114998710Y-143627842D01*
X115000834Y-143613524D01*
X115004351Y-143599483D01*
X115009228Y-143585854D01*
X115015417Y-143572769D01*
X115022858Y-143560353D01*
X115031481Y-143548727D01*
X115041202Y-143538002D01*
X115051927Y-143528281D01*
X115063553Y-143519658D01*
X115075969Y-143512217D01*
X115089054Y-143506028D01*
X115102683Y-143501151D01*
X115116724Y-143497634D01*
X115131042Y-143495510D01*
X115145500Y-143494800D01*
X115440500Y-143494800D01*
X115454958Y-143495510D01*
X115454958Y-143495510D01*
G37*
D15*
X115293000Y-143814800D03*
D10*
G36*
X111184958Y-149916510D02*
X111199276Y-149918634D01*
X111213317Y-149922151D01*
X111226946Y-149927028D01*
X111240031Y-149933217D01*
X111252447Y-149940658D01*
X111264073Y-149949281D01*
X111274798Y-149959002D01*
X111284519Y-149969727D01*
X111293142Y-149981353D01*
X111300583Y-149993769D01*
X111306772Y-150006854D01*
X111311649Y-150020483D01*
X111315166Y-150034524D01*
X111317290Y-150048842D01*
X111318000Y-150063300D01*
X111318000Y-150358300D01*
X111317290Y-150372758D01*
X111315166Y-150387076D01*
X111311649Y-150401117D01*
X111306772Y-150414746D01*
X111300583Y-150427831D01*
X111293142Y-150440247D01*
X111284519Y-150451873D01*
X111274798Y-150462598D01*
X111264073Y-150472319D01*
X111252447Y-150480942D01*
X111240031Y-150488383D01*
X111226946Y-150494572D01*
X111213317Y-150499449D01*
X111199276Y-150502966D01*
X111184958Y-150505090D01*
X111170500Y-150505800D01*
X110825500Y-150505800D01*
X110811042Y-150505090D01*
X110796724Y-150502966D01*
X110782683Y-150499449D01*
X110769054Y-150494572D01*
X110755969Y-150488383D01*
X110743553Y-150480942D01*
X110731927Y-150472319D01*
X110721202Y-150462598D01*
X110711481Y-150451873D01*
X110702858Y-150440247D01*
X110695417Y-150427831D01*
X110689228Y-150414746D01*
X110684351Y-150401117D01*
X110680834Y-150387076D01*
X110678710Y-150372758D01*
X110678000Y-150358300D01*
X110678000Y-150063300D01*
X110678710Y-150048842D01*
X110680834Y-150034524D01*
X110684351Y-150020483D01*
X110689228Y-150006854D01*
X110695417Y-149993769D01*
X110702858Y-149981353D01*
X110711481Y-149969727D01*
X110721202Y-149959002D01*
X110731927Y-149949281D01*
X110743553Y-149940658D01*
X110755969Y-149933217D01*
X110769054Y-149927028D01*
X110782683Y-149922151D01*
X110796724Y-149918634D01*
X110811042Y-149916510D01*
X110825500Y-149915800D01*
X111170500Y-149915800D01*
X111184958Y-149916510D01*
X111184958Y-149916510D01*
G37*
D15*
X110998000Y-150210800D03*
D10*
G36*
X111184958Y-150886510D02*
X111199276Y-150888634D01*
X111213317Y-150892151D01*
X111226946Y-150897028D01*
X111240031Y-150903217D01*
X111252447Y-150910658D01*
X111264073Y-150919281D01*
X111274798Y-150929002D01*
X111284519Y-150939727D01*
X111293142Y-150951353D01*
X111300583Y-150963769D01*
X111306772Y-150976854D01*
X111311649Y-150990483D01*
X111315166Y-151004524D01*
X111317290Y-151018842D01*
X111318000Y-151033300D01*
X111318000Y-151328300D01*
X111317290Y-151342758D01*
X111315166Y-151357076D01*
X111311649Y-151371117D01*
X111306772Y-151384746D01*
X111300583Y-151397831D01*
X111293142Y-151410247D01*
X111284519Y-151421873D01*
X111274798Y-151432598D01*
X111264073Y-151442319D01*
X111252447Y-151450942D01*
X111240031Y-151458383D01*
X111226946Y-151464572D01*
X111213317Y-151469449D01*
X111199276Y-151472966D01*
X111184958Y-151475090D01*
X111170500Y-151475800D01*
X110825500Y-151475800D01*
X110811042Y-151475090D01*
X110796724Y-151472966D01*
X110782683Y-151469449D01*
X110769054Y-151464572D01*
X110755969Y-151458383D01*
X110743553Y-151450942D01*
X110731927Y-151442319D01*
X110721202Y-151432598D01*
X110711481Y-151421873D01*
X110702858Y-151410247D01*
X110695417Y-151397831D01*
X110689228Y-151384746D01*
X110684351Y-151371117D01*
X110680834Y-151357076D01*
X110678710Y-151342758D01*
X110678000Y-151328300D01*
X110678000Y-151033300D01*
X110678710Y-151018842D01*
X110680834Y-151004524D01*
X110684351Y-150990483D01*
X110689228Y-150976854D01*
X110695417Y-150963769D01*
X110702858Y-150951353D01*
X110711481Y-150939727D01*
X110721202Y-150929002D01*
X110731927Y-150919281D01*
X110743553Y-150910658D01*
X110755969Y-150903217D01*
X110769054Y-150897028D01*
X110782683Y-150892151D01*
X110796724Y-150888634D01*
X110811042Y-150886510D01*
X110825500Y-150885800D01*
X111170500Y-150885800D01*
X111184958Y-150886510D01*
X111184958Y-150886510D01*
G37*
D15*
X110998000Y-151180800D03*
D10*
G36*
X114484958Y-146543510D02*
X114499276Y-146545634D01*
X114513317Y-146549151D01*
X114526946Y-146554028D01*
X114540031Y-146560217D01*
X114552447Y-146567658D01*
X114564073Y-146576281D01*
X114574798Y-146586002D01*
X114584519Y-146596727D01*
X114593142Y-146608353D01*
X114600583Y-146620769D01*
X114606772Y-146633854D01*
X114611649Y-146647483D01*
X114615166Y-146661524D01*
X114617290Y-146675842D01*
X114618000Y-146690300D01*
X114618000Y-147035300D01*
X114617290Y-147049758D01*
X114615166Y-147064076D01*
X114611649Y-147078117D01*
X114606772Y-147091746D01*
X114600583Y-147104831D01*
X114593142Y-147117247D01*
X114584519Y-147128873D01*
X114574798Y-147139598D01*
X114564073Y-147149319D01*
X114552447Y-147157942D01*
X114540031Y-147165383D01*
X114526946Y-147171572D01*
X114513317Y-147176449D01*
X114499276Y-147179966D01*
X114484958Y-147182090D01*
X114470500Y-147182800D01*
X114175500Y-147182800D01*
X114161042Y-147182090D01*
X114146724Y-147179966D01*
X114132683Y-147176449D01*
X114119054Y-147171572D01*
X114105969Y-147165383D01*
X114093553Y-147157942D01*
X114081927Y-147149319D01*
X114071202Y-147139598D01*
X114061481Y-147128873D01*
X114052858Y-147117247D01*
X114045417Y-147104831D01*
X114039228Y-147091746D01*
X114034351Y-147078117D01*
X114030834Y-147064076D01*
X114028710Y-147049758D01*
X114028000Y-147035300D01*
X114028000Y-146690300D01*
X114028710Y-146675842D01*
X114030834Y-146661524D01*
X114034351Y-146647483D01*
X114039228Y-146633854D01*
X114045417Y-146620769D01*
X114052858Y-146608353D01*
X114061481Y-146596727D01*
X114071202Y-146586002D01*
X114081927Y-146576281D01*
X114093553Y-146567658D01*
X114105969Y-146560217D01*
X114119054Y-146554028D01*
X114132683Y-146549151D01*
X114146724Y-146545634D01*
X114161042Y-146543510D01*
X114175500Y-146542800D01*
X114470500Y-146542800D01*
X114484958Y-146543510D01*
X114484958Y-146543510D01*
G37*
D15*
X114323000Y-146862800D03*
D10*
G36*
X115454958Y-146543510D02*
X115469276Y-146545634D01*
X115483317Y-146549151D01*
X115496946Y-146554028D01*
X115510031Y-146560217D01*
X115522447Y-146567658D01*
X115534073Y-146576281D01*
X115544798Y-146586002D01*
X115554519Y-146596727D01*
X115563142Y-146608353D01*
X115570583Y-146620769D01*
X115576772Y-146633854D01*
X115581649Y-146647483D01*
X115585166Y-146661524D01*
X115587290Y-146675842D01*
X115588000Y-146690300D01*
X115588000Y-147035300D01*
X115587290Y-147049758D01*
X115585166Y-147064076D01*
X115581649Y-147078117D01*
X115576772Y-147091746D01*
X115570583Y-147104831D01*
X115563142Y-147117247D01*
X115554519Y-147128873D01*
X115544798Y-147139598D01*
X115534073Y-147149319D01*
X115522447Y-147157942D01*
X115510031Y-147165383D01*
X115496946Y-147171572D01*
X115483317Y-147176449D01*
X115469276Y-147179966D01*
X115454958Y-147182090D01*
X115440500Y-147182800D01*
X115145500Y-147182800D01*
X115131042Y-147182090D01*
X115116724Y-147179966D01*
X115102683Y-147176449D01*
X115089054Y-147171572D01*
X115075969Y-147165383D01*
X115063553Y-147157942D01*
X115051927Y-147149319D01*
X115041202Y-147139598D01*
X115031481Y-147128873D01*
X115022858Y-147117247D01*
X115015417Y-147104831D01*
X115009228Y-147091746D01*
X115004351Y-147078117D01*
X115000834Y-147064076D01*
X114998710Y-147049758D01*
X114998000Y-147035300D01*
X114998000Y-146690300D01*
X114998710Y-146675842D01*
X115000834Y-146661524D01*
X115004351Y-146647483D01*
X115009228Y-146633854D01*
X115015417Y-146620769D01*
X115022858Y-146608353D01*
X115031481Y-146596727D01*
X115041202Y-146586002D01*
X115051927Y-146576281D01*
X115063553Y-146567658D01*
X115075969Y-146560217D01*
X115089054Y-146554028D01*
X115102683Y-146549151D01*
X115116724Y-146545634D01*
X115131042Y-146543510D01*
X115145500Y-146542800D01*
X115440500Y-146542800D01*
X115454958Y-146543510D01*
X115454958Y-146543510D01*
G37*
D15*
X115293000Y-146862800D03*
D10*
G36*
X114484958Y-145019510D02*
X114499276Y-145021634D01*
X114513317Y-145025151D01*
X114526946Y-145030028D01*
X114540031Y-145036217D01*
X114552447Y-145043658D01*
X114564073Y-145052281D01*
X114574798Y-145062002D01*
X114584519Y-145072727D01*
X114593142Y-145084353D01*
X114600583Y-145096769D01*
X114606772Y-145109854D01*
X114611649Y-145123483D01*
X114615166Y-145137524D01*
X114617290Y-145151842D01*
X114618000Y-145166300D01*
X114618000Y-145511300D01*
X114617290Y-145525758D01*
X114615166Y-145540076D01*
X114611649Y-145554117D01*
X114606772Y-145567746D01*
X114600583Y-145580831D01*
X114593142Y-145593247D01*
X114584519Y-145604873D01*
X114574798Y-145615598D01*
X114564073Y-145625319D01*
X114552447Y-145633942D01*
X114540031Y-145641383D01*
X114526946Y-145647572D01*
X114513317Y-145652449D01*
X114499276Y-145655966D01*
X114484958Y-145658090D01*
X114470500Y-145658800D01*
X114175500Y-145658800D01*
X114161042Y-145658090D01*
X114146724Y-145655966D01*
X114132683Y-145652449D01*
X114119054Y-145647572D01*
X114105969Y-145641383D01*
X114093553Y-145633942D01*
X114081927Y-145625319D01*
X114071202Y-145615598D01*
X114061481Y-145604873D01*
X114052858Y-145593247D01*
X114045417Y-145580831D01*
X114039228Y-145567746D01*
X114034351Y-145554117D01*
X114030834Y-145540076D01*
X114028710Y-145525758D01*
X114028000Y-145511300D01*
X114028000Y-145166300D01*
X114028710Y-145151842D01*
X114030834Y-145137524D01*
X114034351Y-145123483D01*
X114039228Y-145109854D01*
X114045417Y-145096769D01*
X114052858Y-145084353D01*
X114061481Y-145072727D01*
X114071202Y-145062002D01*
X114081927Y-145052281D01*
X114093553Y-145043658D01*
X114105969Y-145036217D01*
X114119054Y-145030028D01*
X114132683Y-145025151D01*
X114146724Y-145021634D01*
X114161042Y-145019510D01*
X114175500Y-145018800D01*
X114470500Y-145018800D01*
X114484958Y-145019510D01*
X114484958Y-145019510D01*
G37*
D15*
X114323000Y-145338800D03*
D10*
G36*
X115454958Y-145019510D02*
X115469276Y-145021634D01*
X115483317Y-145025151D01*
X115496946Y-145030028D01*
X115510031Y-145036217D01*
X115522447Y-145043658D01*
X115534073Y-145052281D01*
X115544798Y-145062002D01*
X115554519Y-145072727D01*
X115563142Y-145084353D01*
X115570583Y-145096769D01*
X115576772Y-145109854D01*
X115581649Y-145123483D01*
X115585166Y-145137524D01*
X115587290Y-145151842D01*
X115588000Y-145166300D01*
X115588000Y-145511300D01*
X115587290Y-145525758D01*
X115585166Y-145540076D01*
X115581649Y-145554117D01*
X115576772Y-145567746D01*
X115570583Y-145580831D01*
X115563142Y-145593247D01*
X115554519Y-145604873D01*
X115544798Y-145615598D01*
X115534073Y-145625319D01*
X115522447Y-145633942D01*
X115510031Y-145641383D01*
X115496946Y-145647572D01*
X115483317Y-145652449D01*
X115469276Y-145655966D01*
X115454958Y-145658090D01*
X115440500Y-145658800D01*
X115145500Y-145658800D01*
X115131042Y-145658090D01*
X115116724Y-145655966D01*
X115102683Y-145652449D01*
X115089054Y-145647572D01*
X115075969Y-145641383D01*
X115063553Y-145633942D01*
X115051927Y-145625319D01*
X115041202Y-145615598D01*
X115031481Y-145604873D01*
X115022858Y-145593247D01*
X115015417Y-145580831D01*
X115009228Y-145567746D01*
X115004351Y-145554117D01*
X115000834Y-145540076D01*
X114998710Y-145525758D01*
X114998000Y-145511300D01*
X114998000Y-145166300D01*
X114998710Y-145151842D01*
X115000834Y-145137524D01*
X115004351Y-145123483D01*
X115009228Y-145109854D01*
X115015417Y-145096769D01*
X115022858Y-145084353D01*
X115031481Y-145072727D01*
X115041202Y-145062002D01*
X115051927Y-145052281D01*
X115063553Y-145043658D01*
X115075969Y-145036217D01*
X115089054Y-145030028D01*
X115102683Y-145025151D01*
X115116724Y-145021634D01*
X115131042Y-145019510D01*
X115145500Y-145018800D01*
X115440500Y-145018800D01*
X115454958Y-145019510D01*
X115454958Y-145019510D01*
G37*
D15*
X115293000Y-145338800D03*
D10*
G36*
X67369958Y-138209230D02*
X67384276Y-138211354D01*
X67398317Y-138214871D01*
X67411946Y-138219748D01*
X67425031Y-138225937D01*
X67437447Y-138233378D01*
X67449073Y-138242001D01*
X67459798Y-138251722D01*
X67469519Y-138262447D01*
X67478142Y-138274073D01*
X67485583Y-138286489D01*
X67491772Y-138299574D01*
X67496649Y-138313203D01*
X67500166Y-138327244D01*
X67502290Y-138341562D01*
X67503000Y-138356020D01*
X67503000Y-138651020D01*
X67502290Y-138665478D01*
X67500166Y-138679796D01*
X67496649Y-138693837D01*
X67491772Y-138707466D01*
X67485583Y-138720551D01*
X67478142Y-138732967D01*
X67469519Y-138744593D01*
X67459798Y-138755318D01*
X67449073Y-138765039D01*
X67437447Y-138773662D01*
X67425031Y-138781103D01*
X67411946Y-138787292D01*
X67398317Y-138792169D01*
X67384276Y-138795686D01*
X67369958Y-138797810D01*
X67355500Y-138798520D01*
X67010500Y-138798520D01*
X66996042Y-138797810D01*
X66981724Y-138795686D01*
X66967683Y-138792169D01*
X66954054Y-138787292D01*
X66940969Y-138781103D01*
X66928553Y-138773662D01*
X66916927Y-138765039D01*
X66906202Y-138755318D01*
X66896481Y-138744593D01*
X66887858Y-138732967D01*
X66880417Y-138720551D01*
X66874228Y-138707466D01*
X66869351Y-138693837D01*
X66865834Y-138679796D01*
X66863710Y-138665478D01*
X66863000Y-138651020D01*
X66863000Y-138356020D01*
X66863710Y-138341562D01*
X66865834Y-138327244D01*
X66869351Y-138313203D01*
X66874228Y-138299574D01*
X66880417Y-138286489D01*
X66887858Y-138274073D01*
X66896481Y-138262447D01*
X66906202Y-138251722D01*
X66916927Y-138242001D01*
X66928553Y-138233378D01*
X66940969Y-138225937D01*
X66954054Y-138219748D01*
X66967683Y-138214871D01*
X66981724Y-138211354D01*
X66996042Y-138209230D01*
X67010500Y-138208520D01*
X67355500Y-138208520D01*
X67369958Y-138209230D01*
X67369958Y-138209230D01*
G37*
D15*
X67183000Y-138503520D03*
D10*
G36*
X67369958Y-137239230D02*
X67384276Y-137241354D01*
X67398317Y-137244871D01*
X67411946Y-137249748D01*
X67425031Y-137255937D01*
X67437447Y-137263378D01*
X67449073Y-137272001D01*
X67459798Y-137281722D01*
X67469519Y-137292447D01*
X67478142Y-137304073D01*
X67485583Y-137316489D01*
X67491772Y-137329574D01*
X67496649Y-137343203D01*
X67500166Y-137357244D01*
X67502290Y-137371562D01*
X67503000Y-137386020D01*
X67503000Y-137681020D01*
X67502290Y-137695478D01*
X67500166Y-137709796D01*
X67496649Y-137723837D01*
X67491772Y-137737466D01*
X67485583Y-137750551D01*
X67478142Y-137762967D01*
X67469519Y-137774593D01*
X67459798Y-137785318D01*
X67449073Y-137795039D01*
X67437447Y-137803662D01*
X67425031Y-137811103D01*
X67411946Y-137817292D01*
X67398317Y-137822169D01*
X67384276Y-137825686D01*
X67369958Y-137827810D01*
X67355500Y-137828520D01*
X67010500Y-137828520D01*
X66996042Y-137827810D01*
X66981724Y-137825686D01*
X66967683Y-137822169D01*
X66954054Y-137817292D01*
X66940969Y-137811103D01*
X66928553Y-137803662D01*
X66916927Y-137795039D01*
X66906202Y-137785318D01*
X66896481Y-137774593D01*
X66887858Y-137762967D01*
X66880417Y-137750551D01*
X66874228Y-137737466D01*
X66869351Y-137723837D01*
X66865834Y-137709796D01*
X66863710Y-137695478D01*
X66863000Y-137681020D01*
X66863000Y-137386020D01*
X66863710Y-137371562D01*
X66865834Y-137357244D01*
X66869351Y-137343203D01*
X66874228Y-137329574D01*
X66880417Y-137316489D01*
X66887858Y-137304073D01*
X66896481Y-137292447D01*
X66906202Y-137281722D01*
X66916927Y-137272001D01*
X66928553Y-137263378D01*
X66940969Y-137255937D01*
X66954054Y-137249748D01*
X66967683Y-137244871D01*
X66981724Y-137241354D01*
X66996042Y-137239230D01*
X67010500Y-137238520D01*
X67355500Y-137238520D01*
X67369958Y-137239230D01*
X67369958Y-137239230D01*
G37*
D15*
X67183000Y-137533520D03*
D10*
G36*
X68589158Y-137239230D02*
X68603476Y-137241354D01*
X68617517Y-137244871D01*
X68631146Y-137249748D01*
X68644231Y-137255937D01*
X68656647Y-137263378D01*
X68668273Y-137272001D01*
X68678998Y-137281722D01*
X68688719Y-137292447D01*
X68697342Y-137304073D01*
X68704783Y-137316489D01*
X68710972Y-137329574D01*
X68715849Y-137343203D01*
X68719366Y-137357244D01*
X68721490Y-137371562D01*
X68722200Y-137386020D01*
X68722200Y-137681020D01*
X68721490Y-137695478D01*
X68719366Y-137709796D01*
X68715849Y-137723837D01*
X68710972Y-137737466D01*
X68704783Y-137750551D01*
X68697342Y-137762967D01*
X68688719Y-137774593D01*
X68678998Y-137785318D01*
X68668273Y-137795039D01*
X68656647Y-137803662D01*
X68644231Y-137811103D01*
X68631146Y-137817292D01*
X68617517Y-137822169D01*
X68603476Y-137825686D01*
X68589158Y-137827810D01*
X68574700Y-137828520D01*
X68229700Y-137828520D01*
X68215242Y-137827810D01*
X68200924Y-137825686D01*
X68186883Y-137822169D01*
X68173254Y-137817292D01*
X68160169Y-137811103D01*
X68147753Y-137803662D01*
X68136127Y-137795039D01*
X68125402Y-137785318D01*
X68115681Y-137774593D01*
X68107058Y-137762967D01*
X68099617Y-137750551D01*
X68093428Y-137737466D01*
X68088551Y-137723837D01*
X68085034Y-137709796D01*
X68082910Y-137695478D01*
X68082200Y-137681020D01*
X68082200Y-137386020D01*
X68082910Y-137371562D01*
X68085034Y-137357244D01*
X68088551Y-137343203D01*
X68093428Y-137329574D01*
X68099617Y-137316489D01*
X68107058Y-137304073D01*
X68115681Y-137292447D01*
X68125402Y-137281722D01*
X68136127Y-137272001D01*
X68147753Y-137263378D01*
X68160169Y-137255937D01*
X68173254Y-137249748D01*
X68186883Y-137244871D01*
X68200924Y-137241354D01*
X68215242Y-137239230D01*
X68229700Y-137238520D01*
X68574700Y-137238520D01*
X68589158Y-137239230D01*
X68589158Y-137239230D01*
G37*
D15*
X68402200Y-137533520D03*
D10*
G36*
X68589158Y-138209230D02*
X68603476Y-138211354D01*
X68617517Y-138214871D01*
X68631146Y-138219748D01*
X68644231Y-138225937D01*
X68656647Y-138233378D01*
X68668273Y-138242001D01*
X68678998Y-138251722D01*
X68688719Y-138262447D01*
X68697342Y-138274073D01*
X68704783Y-138286489D01*
X68710972Y-138299574D01*
X68715849Y-138313203D01*
X68719366Y-138327244D01*
X68721490Y-138341562D01*
X68722200Y-138356020D01*
X68722200Y-138651020D01*
X68721490Y-138665478D01*
X68719366Y-138679796D01*
X68715849Y-138693837D01*
X68710972Y-138707466D01*
X68704783Y-138720551D01*
X68697342Y-138732967D01*
X68688719Y-138744593D01*
X68678998Y-138755318D01*
X68668273Y-138765039D01*
X68656647Y-138773662D01*
X68644231Y-138781103D01*
X68631146Y-138787292D01*
X68617517Y-138792169D01*
X68603476Y-138795686D01*
X68589158Y-138797810D01*
X68574700Y-138798520D01*
X68229700Y-138798520D01*
X68215242Y-138797810D01*
X68200924Y-138795686D01*
X68186883Y-138792169D01*
X68173254Y-138787292D01*
X68160169Y-138781103D01*
X68147753Y-138773662D01*
X68136127Y-138765039D01*
X68125402Y-138755318D01*
X68115681Y-138744593D01*
X68107058Y-138732967D01*
X68099617Y-138720551D01*
X68093428Y-138707466D01*
X68088551Y-138693837D01*
X68085034Y-138679796D01*
X68082910Y-138665478D01*
X68082200Y-138651020D01*
X68082200Y-138356020D01*
X68082910Y-138341562D01*
X68085034Y-138327244D01*
X68088551Y-138313203D01*
X68093428Y-138299574D01*
X68099617Y-138286489D01*
X68107058Y-138274073D01*
X68115681Y-138262447D01*
X68125402Y-138251722D01*
X68136127Y-138242001D01*
X68147753Y-138233378D01*
X68160169Y-138225937D01*
X68173254Y-138219748D01*
X68186883Y-138214871D01*
X68200924Y-138211354D01*
X68215242Y-138209230D01*
X68229700Y-138208520D01*
X68574700Y-138208520D01*
X68589158Y-138209230D01*
X68589158Y-138209230D01*
G37*
D15*
X68402200Y-138503520D03*
D10*
G36*
X71114178Y-129266430D02*
X71128496Y-129268554D01*
X71142537Y-129272071D01*
X71156166Y-129276948D01*
X71169251Y-129283137D01*
X71181667Y-129290578D01*
X71193293Y-129299201D01*
X71204018Y-129308922D01*
X71213739Y-129319647D01*
X71222362Y-129331273D01*
X71229803Y-129343689D01*
X71235992Y-129356774D01*
X71240869Y-129370403D01*
X71244386Y-129384444D01*
X71246510Y-129398762D01*
X71247220Y-129413220D01*
X71247220Y-129758220D01*
X71246510Y-129772678D01*
X71244386Y-129786996D01*
X71240869Y-129801037D01*
X71235992Y-129814666D01*
X71229803Y-129827751D01*
X71222362Y-129840167D01*
X71213739Y-129851793D01*
X71204018Y-129862518D01*
X71193293Y-129872239D01*
X71181667Y-129880862D01*
X71169251Y-129888303D01*
X71156166Y-129894492D01*
X71142537Y-129899369D01*
X71128496Y-129902886D01*
X71114178Y-129905010D01*
X71099720Y-129905720D01*
X70804720Y-129905720D01*
X70790262Y-129905010D01*
X70775944Y-129902886D01*
X70761903Y-129899369D01*
X70748274Y-129894492D01*
X70735189Y-129888303D01*
X70722773Y-129880862D01*
X70711147Y-129872239D01*
X70700422Y-129862518D01*
X70690701Y-129851793D01*
X70682078Y-129840167D01*
X70674637Y-129827751D01*
X70668448Y-129814666D01*
X70663571Y-129801037D01*
X70660054Y-129786996D01*
X70657930Y-129772678D01*
X70657220Y-129758220D01*
X70657220Y-129413220D01*
X70657930Y-129398762D01*
X70660054Y-129384444D01*
X70663571Y-129370403D01*
X70668448Y-129356774D01*
X70674637Y-129343689D01*
X70682078Y-129331273D01*
X70690701Y-129319647D01*
X70700422Y-129308922D01*
X70711147Y-129299201D01*
X70722773Y-129290578D01*
X70735189Y-129283137D01*
X70748274Y-129276948D01*
X70761903Y-129272071D01*
X70775944Y-129268554D01*
X70790262Y-129266430D01*
X70804720Y-129265720D01*
X71099720Y-129265720D01*
X71114178Y-129266430D01*
X71114178Y-129266430D01*
G37*
D15*
X70952220Y-129585720D03*
D10*
G36*
X70144178Y-129266430D02*
X70158496Y-129268554D01*
X70172537Y-129272071D01*
X70186166Y-129276948D01*
X70199251Y-129283137D01*
X70211667Y-129290578D01*
X70223293Y-129299201D01*
X70234018Y-129308922D01*
X70243739Y-129319647D01*
X70252362Y-129331273D01*
X70259803Y-129343689D01*
X70265992Y-129356774D01*
X70270869Y-129370403D01*
X70274386Y-129384444D01*
X70276510Y-129398762D01*
X70277220Y-129413220D01*
X70277220Y-129758220D01*
X70276510Y-129772678D01*
X70274386Y-129786996D01*
X70270869Y-129801037D01*
X70265992Y-129814666D01*
X70259803Y-129827751D01*
X70252362Y-129840167D01*
X70243739Y-129851793D01*
X70234018Y-129862518D01*
X70223293Y-129872239D01*
X70211667Y-129880862D01*
X70199251Y-129888303D01*
X70186166Y-129894492D01*
X70172537Y-129899369D01*
X70158496Y-129902886D01*
X70144178Y-129905010D01*
X70129720Y-129905720D01*
X69834720Y-129905720D01*
X69820262Y-129905010D01*
X69805944Y-129902886D01*
X69791903Y-129899369D01*
X69778274Y-129894492D01*
X69765189Y-129888303D01*
X69752773Y-129880862D01*
X69741147Y-129872239D01*
X69730422Y-129862518D01*
X69720701Y-129851793D01*
X69712078Y-129840167D01*
X69704637Y-129827751D01*
X69698448Y-129814666D01*
X69693571Y-129801037D01*
X69690054Y-129786996D01*
X69687930Y-129772678D01*
X69687220Y-129758220D01*
X69687220Y-129413220D01*
X69687930Y-129398762D01*
X69690054Y-129384444D01*
X69693571Y-129370403D01*
X69698448Y-129356774D01*
X69704637Y-129343689D01*
X69712078Y-129331273D01*
X69720701Y-129319647D01*
X69730422Y-129308922D01*
X69741147Y-129299201D01*
X69752773Y-129290578D01*
X69765189Y-129283137D01*
X69778274Y-129276948D01*
X69791903Y-129272071D01*
X69805944Y-129268554D01*
X69820262Y-129266430D01*
X69834720Y-129265720D01*
X70129720Y-129265720D01*
X70144178Y-129266430D01*
X70144178Y-129266430D01*
G37*
D15*
X69982220Y-129585720D03*
D24*
X72019620Y-126563120D03*
X69219620Y-126563120D03*
D10*
G36*
X72942362Y-139910494D02*
X72966023Y-139914004D01*
X72989227Y-139919816D01*
X73011749Y-139927874D01*
X73033373Y-139938102D01*
X73053890Y-139950399D01*
X73073103Y-139964649D01*
X73090827Y-139980713D01*
X73106891Y-139998437D01*
X73121141Y-140017650D01*
X73133438Y-140038167D01*
X73143666Y-140059791D01*
X73151724Y-140082313D01*
X73157536Y-140105517D01*
X73161046Y-140129178D01*
X73162220Y-140153070D01*
X73162220Y-141065570D01*
X73161046Y-141089462D01*
X73157536Y-141113123D01*
X73151724Y-141136327D01*
X73143666Y-141158849D01*
X73133438Y-141180473D01*
X73121141Y-141200990D01*
X73106891Y-141220203D01*
X73090827Y-141237927D01*
X73073103Y-141253991D01*
X73053890Y-141268241D01*
X73033373Y-141280538D01*
X73011749Y-141290766D01*
X72989227Y-141298824D01*
X72966023Y-141304636D01*
X72942362Y-141308146D01*
X72918470Y-141309320D01*
X72430970Y-141309320D01*
X72407078Y-141308146D01*
X72383417Y-141304636D01*
X72360213Y-141298824D01*
X72337691Y-141290766D01*
X72316067Y-141280538D01*
X72295550Y-141268241D01*
X72276337Y-141253991D01*
X72258613Y-141237927D01*
X72242549Y-141220203D01*
X72228299Y-141200990D01*
X72216002Y-141180473D01*
X72205774Y-141158849D01*
X72197716Y-141136327D01*
X72191904Y-141113123D01*
X72188394Y-141089462D01*
X72187220Y-141065570D01*
X72187220Y-140153070D01*
X72188394Y-140129178D01*
X72191904Y-140105517D01*
X72197716Y-140082313D01*
X72205774Y-140059791D01*
X72216002Y-140038167D01*
X72228299Y-140017650D01*
X72242549Y-139998437D01*
X72258613Y-139980713D01*
X72276337Y-139964649D01*
X72295550Y-139950399D01*
X72316067Y-139938102D01*
X72337691Y-139927874D01*
X72360213Y-139919816D01*
X72383417Y-139914004D01*
X72407078Y-139910494D01*
X72430970Y-139909320D01*
X72918470Y-139909320D01*
X72942362Y-139910494D01*
X72942362Y-139910494D01*
G37*
D11*
X72674720Y-140609320D03*
D10*
G36*
X71067362Y-139910494D02*
X71091023Y-139914004D01*
X71114227Y-139919816D01*
X71136749Y-139927874D01*
X71158373Y-139938102D01*
X71178890Y-139950399D01*
X71198103Y-139964649D01*
X71215827Y-139980713D01*
X71231891Y-139998437D01*
X71246141Y-140017650D01*
X71258438Y-140038167D01*
X71268666Y-140059791D01*
X71276724Y-140082313D01*
X71282536Y-140105517D01*
X71286046Y-140129178D01*
X71287220Y-140153070D01*
X71287220Y-141065570D01*
X71286046Y-141089462D01*
X71282536Y-141113123D01*
X71276724Y-141136327D01*
X71268666Y-141158849D01*
X71258438Y-141180473D01*
X71246141Y-141200990D01*
X71231891Y-141220203D01*
X71215827Y-141237927D01*
X71198103Y-141253991D01*
X71178890Y-141268241D01*
X71158373Y-141280538D01*
X71136749Y-141290766D01*
X71114227Y-141298824D01*
X71091023Y-141304636D01*
X71067362Y-141308146D01*
X71043470Y-141309320D01*
X70555970Y-141309320D01*
X70532078Y-141308146D01*
X70508417Y-141304636D01*
X70485213Y-141298824D01*
X70462691Y-141290766D01*
X70441067Y-141280538D01*
X70420550Y-141268241D01*
X70401337Y-141253991D01*
X70383613Y-141237927D01*
X70367549Y-141220203D01*
X70353299Y-141200990D01*
X70341002Y-141180473D01*
X70330774Y-141158849D01*
X70322716Y-141136327D01*
X70316904Y-141113123D01*
X70313394Y-141089462D01*
X70312220Y-141065570D01*
X70312220Y-140153070D01*
X70313394Y-140129178D01*
X70316904Y-140105517D01*
X70322716Y-140082313D01*
X70330774Y-140059791D01*
X70341002Y-140038167D01*
X70353299Y-140017650D01*
X70367549Y-139998437D01*
X70383613Y-139980713D01*
X70401337Y-139964649D01*
X70420550Y-139950399D01*
X70441067Y-139938102D01*
X70462691Y-139927874D01*
X70485213Y-139919816D01*
X70508417Y-139914004D01*
X70532078Y-139910494D01*
X70555970Y-139909320D01*
X71043470Y-139909320D01*
X71067362Y-139910494D01*
X71067362Y-139910494D01*
G37*
D11*
X70799720Y-140609320D03*
D10*
G36*
X72942362Y-137548294D02*
X72966023Y-137551804D01*
X72989227Y-137557616D01*
X73011749Y-137565674D01*
X73033373Y-137575902D01*
X73053890Y-137588199D01*
X73073103Y-137602449D01*
X73090827Y-137618513D01*
X73106891Y-137636237D01*
X73121141Y-137655450D01*
X73133438Y-137675967D01*
X73143666Y-137697591D01*
X73151724Y-137720113D01*
X73157536Y-137743317D01*
X73161046Y-137766978D01*
X73162220Y-137790870D01*
X73162220Y-138703370D01*
X73161046Y-138727262D01*
X73157536Y-138750923D01*
X73151724Y-138774127D01*
X73143666Y-138796649D01*
X73133438Y-138818273D01*
X73121141Y-138838790D01*
X73106891Y-138858003D01*
X73090827Y-138875727D01*
X73073103Y-138891791D01*
X73053890Y-138906041D01*
X73033373Y-138918338D01*
X73011749Y-138928566D01*
X72989227Y-138936624D01*
X72966023Y-138942436D01*
X72942362Y-138945946D01*
X72918470Y-138947120D01*
X72430970Y-138947120D01*
X72407078Y-138945946D01*
X72383417Y-138942436D01*
X72360213Y-138936624D01*
X72337691Y-138928566D01*
X72316067Y-138918338D01*
X72295550Y-138906041D01*
X72276337Y-138891791D01*
X72258613Y-138875727D01*
X72242549Y-138858003D01*
X72228299Y-138838790D01*
X72216002Y-138818273D01*
X72205774Y-138796649D01*
X72197716Y-138774127D01*
X72191904Y-138750923D01*
X72188394Y-138727262D01*
X72187220Y-138703370D01*
X72187220Y-137790870D01*
X72188394Y-137766978D01*
X72191904Y-137743317D01*
X72197716Y-137720113D01*
X72205774Y-137697591D01*
X72216002Y-137675967D01*
X72228299Y-137655450D01*
X72242549Y-137636237D01*
X72258613Y-137618513D01*
X72276337Y-137602449D01*
X72295550Y-137588199D01*
X72316067Y-137575902D01*
X72337691Y-137565674D01*
X72360213Y-137557616D01*
X72383417Y-137551804D01*
X72407078Y-137548294D01*
X72430970Y-137547120D01*
X72918470Y-137547120D01*
X72942362Y-137548294D01*
X72942362Y-137548294D01*
G37*
D11*
X72674720Y-138247120D03*
D10*
G36*
X71067362Y-137548294D02*
X71091023Y-137551804D01*
X71114227Y-137557616D01*
X71136749Y-137565674D01*
X71158373Y-137575902D01*
X71178890Y-137588199D01*
X71198103Y-137602449D01*
X71215827Y-137618513D01*
X71231891Y-137636237D01*
X71246141Y-137655450D01*
X71258438Y-137675967D01*
X71268666Y-137697591D01*
X71276724Y-137720113D01*
X71282536Y-137743317D01*
X71286046Y-137766978D01*
X71287220Y-137790870D01*
X71287220Y-138703370D01*
X71286046Y-138727262D01*
X71282536Y-138750923D01*
X71276724Y-138774127D01*
X71268666Y-138796649D01*
X71258438Y-138818273D01*
X71246141Y-138838790D01*
X71231891Y-138858003D01*
X71215827Y-138875727D01*
X71198103Y-138891791D01*
X71178890Y-138906041D01*
X71158373Y-138918338D01*
X71136749Y-138928566D01*
X71114227Y-138936624D01*
X71091023Y-138942436D01*
X71067362Y-138945946D01*
X71043470Y-138947120D01*
X70555970Y-138947120D01*
X70532078Y-138945946D01*
X70508417Y-138942436D01*
X70485213Y-138936624D01*
X70462691Y-138928566D01*
X70441067Y-138918338D01*
X70420550Y-138906041D01*
X70401337Y-138891791D01*
X70383613Y-138875727D01*
X70367549Y-138858003D01*
X70353299Y-138838790D01*
X70341002Y-138818273D01*
X70330774Y-138796649D01*
X70322716Y-138774127D01*
X70316904Y-138750923D01*
X70313394Y-138727262D01*
X70312220Y-138703370D01*
X70312220Y-137790870D01*
X70313394Y-137766978D01*
X70316904Y-137743317D01*
X70322716Y-137720113D01*
X70330774Y-137697591D01*
X70341002Y-137675967D01*
X70353299Y-137655450D01*
X70367549Y-137636237D01*
X70383613Y-137618513D01*
X70401337Y-137602449D01*
X70420550Y-137588199D01*
X70441067Y-137575902D01*
X70462691Y-137565674D01*
X70485213Y-137557616D01*
X70508417Y-137551804D01*
X70532078Y-137548294D01*
X70555970Y-137547120D01*
X71043470Y-137547120D01*
X71067362Y-137548294D01*
X71067362Y-137548294D01*
G37*
D11*
X70799720Y-138247120D03*
D10*
G36*
X71375182Y-122374334D02*
X71398843Y-122377844D01*
X71422047Y-122383656D01*
X71444569Y-122391714D01*
X71466193Y-122401942D01*
X71486710Y-122414239D01*
X71505923Y-122428489D01*
X71523647Y-122444553D01*
X71539711Y-122462277D01*
X71553961Y-122481490D01*
X71566258Y-122502007D01*
X71576486Y-122523631D01*
X71584544Y-122546153D01*
X71590356Y-122569357D01*
X71593866Y-122593018D01*
X71595040Y-122616910D01*
X71595040Y-123529410D01*
X71593866Y-123553302D01*
X71590356Y-123576963D01*
X71584544Y-123600167D01*
X71576486Y-123622689D01*
X71566258Y-123644313D01*
X71553961Y-123664830D01*
X71539711Y-123684043D01*
X71523647Y-123701767D01*
X71505923Y-123717831D01*
X71486710Y-123732081D01*
X71466193Y-123744378D01*
X71444569Y-123754606D01*
X71422047Y-123762664D01*
X71398843Y-123768476D01*
X71375182Y-123771986D01*
X71351290Y-123773160D01*
X70863790Y-123773160D01*
X70839898Y-123771986D01*
X70816237Y-123768476D01*
X70793033Y-123762664D01*
X70770511Y-123754606D01*
X70748887Y-123744378D01*
X70728370Y-123732081D01*
X70709157Y-123717831D01*
X70691433Y-123701767D01*
X70675369Y-123684043D01*
X70661119Y-123664830D01*
X70648822Y-123644313D01*
X70638594Y-123622689D01*
X70630536Y-123600167D01*
X70624724Y-123576963D01*
X70621214Y-123553302D01*
X70620040Y-123529410D01*
X70620040Y-122616910D01*
X70621214Y-122593018D01*
X70624724Y-122569357D01*
X70630536Y-122546153D01*
X70638594Y-122523631D01*
X70648822Y-122502007D01*
X70661119Y-122481490D01*
X70675369Y-122462277D01*
X70691433Y-122444553D01*
X70709157Y-122428489D01*
X70728370Y-122414239D01*
X70748887Y-122401942D01*
X70770511Y-122391714D01*
X70793033Y-122383656D01*
X70816237Y-122377844D01*
X70839898Y-122374334D01*
X70863790Y-122373160D01*
X71351290Y-122373160D01*
X71375182Y-122374334D01*
X71375182Y-122374334D01*
G37*
D11*
X71107540Y-123073160D03*
D10*
G36*
X69500182Y-122374334D02*
X69523843Y-122377844D01*
X69547047Y-122383656D01*
X69569569Y-122391714D01*
X69591193Y-122401942D01*
X69611710Y-122414239D01*
X69630923Y-122428489D01*
X69648647Y-122444553D01*
X69664711Y-122462277D01*
X69678961Y-122481490D01*
X69691258Y-122502007D01*
X69701486Y-122523631D01*
X69709544Y-122546153D01*
X69715356Y-122569357D01*
X69718866Y-122593018D01*
X69720040Y-122616910D01*
X69720040Y-123529410D01*
X69718866Y-123553302D01*
X69715356Y-123576963D01*
X69709544Y-123600167D01*
X69701486Y-123622689D01*
X69691258Y-123644313D01*
X69678961Y-123664830D01*
X69664711Y-123684043D01*
X69648647Y-123701767D01*
X69630923Y-123717831D01*
X69611710Y-123732081D01*
X69591193Y-123744378D01*
X69569569Y-123754606D01*
X69547047Y-123762664D01*
X69523843Y-123768476D01*
X69500182Y-123771986D01*
X69476290Y-123773160D01*
X68988790Y-123773160D01*
X68964898Y-123771986D01*
X68941237Y-123768476D01*
X68918033Y-123762664D01*
X68895511Y-123754606D01*
X68873887Y-123744378D01*
X68853370Y-123732081D01*
X68834157Y-123717831D01*
X68816433Y-123701767D01*
X68800369Y-123684043D01*
X68786119Y-123664830D01*
X68773822Y-123644313D01*
X68763594Y-123622689D01*
X68755536Y-123600167D01*
X68749724Y-123576963D01*
X68746214Y-123553302D01*
X68745040Y-123529410D01*
X68745040Y-122616910D01*
X68746214Y-122593018D01*
X68749724Y-122569357D01*
X68755536Y-122546153D01*
X68763594Y-122523631D01*
X68773822Y-122502007D01*
X68786119Y-122481490D01*
X68800369Y-122462277D01*
X68816433Y-122444553D01*
X68834157Y-122428489D01*
X68853370Y-122414239D01*
X68873887Y-122401942D01*
X68895511Y-122391714D01*
X68918033Y-122383656D01*
X68941237Y-122377844D01*
X68964898Y-122374334D01*
X68988790Y-122373160D01*
X69476290Y-122373160D01*
X69500182Y-122374334D01*
X69500182Y-122374334D01*
G37*
D11*
X69232540Y-123073160D03*
D10*
G36*
X118650558Y-136840710D02*
X118664876Y-136842834D01*
X118678917Y-136846351D01*
X118692546Y-136851228D01*
X118705631Y-136857417D01*
X118718047Y-136864858D01*
X118729673Y-136873481D01*
X118740398Y-136883202D01*
X118750119Y-136893927D01*
X118758742Y-136905553D01*
X118766183Y-136917969D01*
X118772372Y-136931054D01*
X118777249Y-136944683D01*
X118780766Y-136958724D01*
X118782890Y-136973042D01*
X118783600Y-136987500D01*
X118783600Y-137332500D01*
X118782890Y-137346958D01*
X118780766Y-137361276D01*
X118777249Y-137375317D01*
X118772372Y-137388946D01*
X118766183Y-137402031D01*
X118758742Y-137414447D01*
X118750119Y-137426073D01*
X118740398Y-137436798D01*
X118729673Y-137446519D01*
X118718047Y-137455142D01*
X118705631Y-137462583D01*
X118692546Y-137468772D01*
X118678917Y-137473649D01*
X118664876Y-137477166D01*
X118650558Y-137479290D01*
X118636100Y-137480000D01*
X118341100Y-137480000D01*
X118326642Y-137479290D01*
X118312324Y-137477166D01*
X118298283Y-137473649D01*
X118284654Y-137468772D01*
X118271569Y-137462583D01*
X118259153Y-137455142D01*
X118247527Y-137446519D01*
X118236802Y-137436798D01*
X118227081Y-137426073D01*
X118218458Y-137414447D01*
X118211017Y-137402031D01*
X118204828Y-137388946D01*
X118199951Y-137375317D01*
X118196434Y-137361276D01*
X118194310Y-137346958D01*
X118193600Y-137332500D01*
X118193600Y-136987500D01*
X118194310Y-136973042D01*
X118196434Y-136958724D01*
X118199951Y-136944683D01*
X118204828Y-136931054D01*
X118211017Y-136917969D01*
X118218458Y-136905553D01*
X118227081Y-136893927D01*
X118236802Y-136883202D01*
X118247527Y-136873481D01*
X118259153Y-136864858D01*
X118271569Y-136857417D01*
X118284654Y-136851228D01*
X118298283Y-136846351D01*
X118312324Y-136842834D01*
X118326642Y-136840710D01*
X118341100Y-136840000D01*
X118636100Y-136840000D01*
X118650558Y-136840710D01*
X118650558Y-136840710D01*
G37*
D15*
X118488600Y-137160000D03*
D10*
G36*
X119620558Y-136840710D02*
X119634876Y-136842834D01*
X119648917Y-136846351D01*
X119662546Y-136851228D01*
X119675631Y-136857417D01*
X119688047Y-136864858D01*
X119699673Y-136873481D01*
X119710398Y-136883202D01*
X119720119Y-136893927D01*
X119728742Y-136905553D01*
X119736183Y-136917969D01*
X119742372Y-136931054D01*
X119747249Y-136944683D01*
X119750766Y-136958724D01*
X119752890Y-136973042D01*
X119753600Y-136987500D01*
X119753600Y-137332500D01*
X119752890Y-137346958D01*
X119750766Y-137361276D01*
X119747249Y-137375317D01*
X119742372Y-137388946D01*
X119736183Y-137402031D01*
X119728742Y-137414447D01*
X119720119Y-137426073D01*
X119710398Y-137436798D01*
X119699673Y-137446519D01*
X119688047Y-137455142D01*
X119675631Y-137462583D01*
X119662546Y-137468772D01*
X119648917Y-137473649D01*
X119634876Y-137477166D01*
X119620558Y-137479290D01*
X119606100Y-137480000D01*
X119311100Y-137480000D01*
X119296642Y-137479290D01*
X119282324Y-137477166D01*
X119268283Y-137473649D01*
X119254654Y-137468772D01*
X119241569Y-137462583D01*
X119229153Y-137455142D01*
X119217527Y-137446519D01*
X119206802Y-137436798D01*
X119197081Y-137426073D01*
X119188458Y-137414447D01*
X119181017Y-137402031D01*
X119174828Y-137388946D01*
X119169951Y-137375317D01*
X119166434Y-137361276D01*
X119164310Y-137346958D01*
X119163600Y-137332500D01*
X119163600Y-136987500D01*
X119164310Y-136973042D01*
X119166434Y-136958724D01*
X119169951Y-136944683D01*
X119174828Y-136931054D01*
X119181017Y-136917969D01*
X119188458Y-136905553D01*
X119197081Y-136893927D01*
X119206802Y-136883202D01*
X119217527Y-136873481D01*
X119229153Y-136864858D01*
X119241569Y-136857417D01*
X119254654Y-136851228D01*
X119268283Y-136846351D01*
X119282324Y-136842834D01*
X119296642Y-136840710D01*
X119311100Y-136840000D01*
X119606100Y-136840000D01*
X119620558Y-136840710D01*
X119620558Y-136840710D01*
G37*
D15*
X119458600Y-137160000D03*
D10*
G36*
X116267758Y-136840710D02*
X116282076Y-136842834D01*
X116296117Y-136846351D01*
X116309746Y-136851228D01*
X116322831Y-136857417D01*
X116335247Y-136864858D01*
X116346873Y-136873481D01*
X116357598Y-136883202D01*
X116367319Y-136893927D01*
X116375942Y-136905553D01*
X116383383Y-136917969D01*
X116389572Y-136931054D01*
X116394449Y-136944683D01*
X116397966Y-136958724D01*
X116400090Y-136973042D01*
X116400800Y-136987500D01*
X116400800Y-137332500D01*
X116400090Y-137346958D01*
X116397966Y-137361276D01*
X116394449Y-137375317D01*
X116389572Y-137388946D01*
X116383383Y-137402031D01*
X116375942Y-137414447D01*
X116367319Y-137426073D01*
X116357598Y-137436798D01*
X116346873Y-137446519D01*
X116335247Y-137455142D01*
X116322831Y-137462583D01*
X116309746Y-137468772D01*
X116296117Y-137473649D01*
X116282076Y-137477166D01*
X116267758Y-137479290D01*
X116253300Y-137480000D01*
X115958300Y-137480000D01*
X115943842Y-137479290D01*
X115929524Y-137477166D01*
X115915483Y-137473649D01*
X115901854Y-137468772D01*
X115888769Y-137462583D01*
X115876353Y-137455142D01*
X115864727Y-137446519D01*
X115854002Y-137436798D01*
X115844281Y-137426073D01*
X115835658Y-137414447D01*
X115828217Y-137402031D01*
X115822028Y-137388946D01*
X115817151Y-137375317D01*
X115813634Y-137361276D01*
X115811510Y-137346958D01*
X115810800Y-137332500D01*
X115810800Y-136987500D01*
X115811510Y-136973042D01*
X115813634Y-136958724D01*
X115817151Y-136944683D01*
X115822028Y-136931054D01*
X115828217Y-136917969D01*
X115835658Y-136905553D01*
X115844281Y-136893927D01*
X115854002Y-136883202D01*
X115864727Y-136873481D01*
X115876353Y-136864858D01*
X115888769Y-136857417D01*
X115901854Y-136851228D01*
X115915483Y-136846351D01*
X115929524Y-136842834D01*
X115943842Y-136840710D01*
X115958300Y-136840000D01*
X116253300Y-136840000D01*
X116267758Y-136840710D01*
X116267758Y-136840710D01*
G37*
D15*
X116105800Y-137160000D03*
D10*
G36*
X115297758Y-136840710D02*
X115312076Y-136842834D01*
X115326117Y-136846351D01*
X115339746Y-136851228D01*
X115352831Y-136857417D01*
X115365247Y-136864858D01*
X115376873Y-136873481D01*
X115387598Y-136883202D01*
X115397319Y-136893927D01*
X115405942Y-136905553D01*
X115413383Y-136917969D01*
X115419572Y-136931054D01*
X115424449Y-136944683D01*
X115427966Y-136958724D01*
X115430090Y-136973042D01*
X115430800Y-136987500D01*
X115430800Y-137332500D01*
X115430090Y-137346958D01*
X115427966Y-137361276D01*
X115424449Y-137375317D01*
X115419572Y-137388946D01*
X115413383Y-137402031D01*
X115405942Y-137414447D01*
X115397319Y-137426073D01*
X115387598Y-137436798D01*
X115376873Y-137446519D01*
X115365247Y-137455142D01*
X115352831Y-137462583D01*
X115339746Y-137468772D01*
X115326117Y-137473649D01*
X115312076Y-137477166D01*
X115297758Y-137479290D01*
X115283300Y-137480000D01*
X114988300Y-137480000D01*
X114973842Y-137479290D01*
X114959524Y-137477166D01*
X114945483Y-137473649D01*
X114931854Y-137468772D01*
X114918769Y-137462583D01*
X114906353Y-137455142D01*
X114894727Y-137446519D01*
X114884002Y-137436798D01*
X114874281Y-137426073D01*
X114865658Y-137414447D01*
X114858217Y-137402031D01*
X114852028Y-137388946D01*
X114847151Y-137375317D01*
X114843634Y-137361276D01*
X114841510Y-137346958D01*
X114840800Y-137332500D01*
X114840800Y-136987500D01*
X114841510Y-136973042D01*
X114843634Y-136958724D01*
X114847151Y-136944683D01*
X114852028Y-136931054D01*
X114858217Y-136917969D01*
X114865658Y-136905553D01*
X114874281Y-136893927D01*
X114884002Y-136883202D01*
X114894727Y-136873481D01*
X114906353Y-136864858D01*
X114918769Y-136857417D01*
X114931854Y-136851228D01*
X114945483Y-136846351D01*
X114959524Y-136842834D01*
X114973842Y-136840710D01*
X114988300Y-136840000D01*
X115283300Y-136840000D01*
X115297758Y-136840710D01*
X115297758Y-136840710D01*
G37*
D15*
X115135800Y-137160000D03*
D10*
G36*
X114637358Y-132802110D02*
X114651676Y-132804234D01*
X114665717Y-132807751D01*
X114679346Y-132812628D01*
X114692431Y-132818817D01*
X114704847Y-132826258D01*
X114716473Y-132834881D01*
X114727198Y-132844602D01*
X114736919Y-132855327D01*
X114745542Y-132866953D01*
X114752983Y-132879369D01*
X114759172Y-132892454D01*
X114764049Y-132906083D01*
X114767566Y-132920124D01*
X114769690Y-132934442D01*
X114770400Y-132948900D01*
X114770400Y-133293900D01*
X114769690Y-133308358D01*
X114767566Y-133322676D01*
X114764049Y-133336717D01*
X114759172Y-133350346D01*
X114752983Y-133363431D01*
X114745542Y-133375847D01*
X114736919Y-133387473D01*
X114727198Y-133398198D01*
X114716473Y-133407919D01*
X114704847Y-133416542D01*
X114692431Y-133423983D01*
X114679346Y-133430172D01*
X114665717Y-133435049D01*
X114651676Y-133438566D01*
X114637358Y-133440690D01*
X114622900Y-133441400D01*
X114327900Y-133441400D01*
X114313442Y-133440690D01*
X114299124Y-133438566D01*
X114285083Y-133435049D01*
X114271454Y-133430172D01*
X114258369Y-133423983D01*
X114245953Y-133416542D01*
X114234327Y-133407919D01*
X114223602Y-133398198D01*
X114213881Y-133387473D01*
X114205258Y-133375847D01*
X114197817Y-133363431D01*
X114191628Y-133350346D01*
X114186751Y-133336717D01*
X114183234Y-133322676D01*
X114181110Y-133308358D01*
X114180400Y-133293900D01*
X114180400Y-132948900D01*
X114181110Y-132934442D01*
X114183234Y-132920124D01*
X114186751Y-132906083D01*
X114191628Y-132892454D01*
X114197817Y-132879369D01*
X114205258Y-132866953D01*
X114213881Y-132855327D01*
X114223602Y-132844602D01*
X114234327Y-132834881D01*
X114245953Y-132826258D01*
X114258369Y-132818817D01*
X114271454Y-132812628D01*
X114285083Y-132807751D01*
X114299124Y-132804234D01*
X114313442Y-132802110D01*
X114327900Y-132801400D01*
X114622900Y-132801400D01*
X114637358Y-132802110D01*
X114637358Y-132802110D01*
G37*
D15*
X114475400Y-133121400D03*
D10*
G36*
X115607358Y-132802110D02*
X115621676Y-132804234D01*
X115635717Y-132807751D01*
X115649346Y-132812628D01*
X115662431Y-132818817D01*
X115674847Y-132826258D01*
X115686473Y-132834881D01*
X115697198Y-132844602D01*
X115706919Y-132855327D01*
X115715542Y-132866953D01*
X115722983Y-132879369D01*
X115729172Y-132892454D01*
X115734049Y-132906083D01*
X115737566Y-132920124D01*
X115739690Y-132934442D01*
X115740400Y-132948900D01*
X115740400Y-133293900D01*
X115739690Y-133308358D01*
X115737566Y-133322676D01*
X115734049Y-133336717D01*
X115729172Y-133350346D01*
X115722983Y-133363431D01*
X115715542Y-133375847D01*
X115706919Y-133387473D01*
X115697198Y-133398198D01*
X115686473Y-133407919D01*
X115674847Y-133416542D01*
X115662431Y-133423983D01*
X115649346Y-133430172D01*
X115635717Y-133435049D01*
X115621676Y-133438566D01*
X115607358Y-133440690D01*
X115592900Y-133441400D01*
X115297900Y-133441400D01*
X115283442Y-133440690D01*
X115269124Y-133438566D01*
X115255083Y-133435049D01*
X115241454Y-133430172D01*
X115228369Y-133423983D01*
X115215953Y-133416542D01*
X115204327Y-133407919D01*
X115193602Y-133398198D01*
X115183881Y-133387473D01*
X115175258Y-133375847D01*
X115167817Y-133363431D01*
X115161628Y-133350346D01*
X115156751Y-133336717D01*
X115153234Y-133322676D01*
X115151110Y-133308358D01*
X115150400Y-133293900D01*
X115150400Y-132948900D01*
X115151110Y-132934442D01*
X115153234Y-132920124D01*
X115156751Y-132906083D01*
X115161628Y-132892454D01*
X115167817Y-132879369D01*
X115175258Y-132866953D01*
X115183881Y-132855327D01*
X115193602Y-132844602D01*
X115204327Y-132834881D01*
X115215953Y-132826258D01*
X115228369Y-132818817D01*
X115241454Y-132812628D01*
X115255083Y-132807751D01*
X115269124Y-132804234D01*
X115283442Y-132802110D01*
X115297900Y-132801400D01*
X115592900Y-132801400D01*
X115607358Y-132802110D01*
X115607358Y-132802110D01*
G37*
D15*
X115445400Y-133121400D03*
D10*
G36*
X119668558Y-128963910D02*
X119682876Y-128966034D01*
X119696917Y-128969551D01*
X119710546Y-128974428D01*
X119723631Y-128980617D01*
X119736047Y-128988058D01*
X119747673Y-128996681D01*
X119758398Y-129006402D01*
X119768119Y-129017127D01*
X119776742Y-129028753D01*
X119784183Y-129041169D01*
X119790372Y-129054254D01*
X119795249Y-129067883D01*
X119798766Y-129081924D01*
X119800890Y-129096242D01*
X119801600Y-129110700D01*
X119801600Y-129405700D01*
X119800890Y-129420158D01*
X119798766Y-129434476D01*
X119795249Y-129448517D01*
X119790372Y-129462146D01*
X119784183Y-129475231D01*
X119776742Y-129487647D01*
X119768119Y-129499273D01*
X119758398Y-129509998D01*
X119747673Y-129519719D01*
X119736047Y-129528342D01*
X119723631Y-129535783D01*
X119710546Y-129541972D01*
X119696917Y-129546849D01*
X119682876Y-129550366D01*
X119668558Y-129552490D01*
X119654100Y-129553200D01*
X119309100Y-129553200D01*
X119294642Y-129552490D01*
X119280324Y-129550366D01*
X119266283Y-129546849D01*
X119252654Y-129541972D01*
X119239569Y-129535783D01*
X119227153Y-129528342D01*
X119215527Y-129519719D01*
X119204802Y-129509998D01*
X119195081Y-129499273D01*
X119186458Y-129487647D01*
X119179017Y-129475231D01*
X119172828Y-129462146D01*
X119167951Y-129448517D01*
X119164434Y-129434476D01*
X119162310Y-129420158D01*
X119161600Y-129405700D01*
X119161600Y-129110700D01*
X119162310Y-129096242D01*
X119164434Y-129081924D01*
X119167951Y-129067883D01*
X119172828Y-129054254D01*
X119179017Y-129041169D01*
X119186458Y-129028753D01*
X119195081Y-129017127D01*
X119204802Y-129006402D01*
X119215527Y-128996681D01*
X119227153Y-128988058D01*
X119239569Y-128980617D01*
X119252654Y-128974428D01*
X119266283Y-128969551D01*
X119280324Y-128966034D01*
X119294642Y-128963910D01*
X119309100Y-128963200D01*
X119654100Y-128963200D01*
X119668558Y-128963910D01*
X119668558Y-128963910D01*
G37*
D15*
X119481600Y-129258200D03*
D10*
G36*
X119668558Y-129933910D02*
X119682876Y-129936034D01*
X119696917Y-129939551D01*
X119710546Y-129944428D01*
X119723631Y-129950617D01*
X119736047Y-129958058D01*
X119747673Y-129966681D01*
X119758398Y-129976402D01*
X119768119Y-129987127D01*
X119776742Y-129998753D01*
X119784183Y-130011169D01*
X119790372Y-130024254D01*
X119795249Y-130037883D01*
X119798766Y-130051924D01*
X119800890Y-130066242D01*
X119801600Y-130080700D01*
X119801600Y-130375700D01*
X119800890Y-130390158D01*
X119798766Y-130404476D01*
X119795249Y-130418517D01*
X119790372Y-130432146D01*
X119784183Y-130445231D01*
X119776742Y-130457647D01*
X119768119Y-130469273D01*
X119758398Y-130479998D01*
X119747673Y-130489719D01*
X119736047Y-130498342D01*
X119723631Y-130505783D01*
X119710546Y-130511972D01*
X119696917Y-130516849D01*
X119682876Y-130520366D01*
X119668558Y-130522490D01*
X119654100Y-130523200D01*
X119309100Y-130523200D01*
X119294642Y-130522490D01*
X119280324Y-130520366D01*
X119266283Y-130516849D01*
X119252654Y-130511972D01*
X119239569Y-130505783D01*
X119227153Y-130498342D01*
X119215527Y-130489719D01*
X119204802Y-130479998D01*
X119195081Y-130469273D01*
X119186458Y-130457647D01*
X119179017Y-130445231D01*
X119172828Y-130432146D01*
X119167951Y-130418517D01*
X119164434Y-130404476D01*
X119162310Y-130390158D01*
X119161600Y-130375700D01*
X119161600Y-130080700D01*
X119162310Y-130066242D01*
X119164434Y-130051924D01*
X119167951Y-130037883D01*
X119172828Y-130024254D01*
X119179017Y-130011169D01*
X119186458Y-129998753D01*
X119195081Y-129987127D01*
X119204802Y-129976402D01*
X119215527Y-129966681D01*
X119227153Y-129958058D01*
X119239569Y-129950617D01*
X119252654Y-129944428D01*
X119266283Y-129939551D01*
X119280324Y-129936034D01*
X119294642Y-129933910D01*
X119309100Y-129933200D01*
X119654100Y-129933200D01*
X119668558Y-129933910D01*
X119668558Y-129933910D01*
G37*
D15*
X119481600Y-130228200D03*
D13*
X101898960Y-117567200D03*
D14*
X101398960Y-117567200D03*
D13*
X100398960Y-117567200D03*
D14*
X100898960Y-117567200D03*
D13*
X101898960Y-118567200D03*
D14*
X100898960Y-118567200D03*
X101398960Y-118567200D03*
D13*
X100398960Y-118567200D03*
X104374380Y-115075080D03*
D14*
X103874380Y-115075080D03*
D13*
X102874380Y-115075080D03*
D14*
X103374380Y-115075080D03*
D13*
X104374380Y-116075080D03*
D14*
X103374380Y-116075080D03*
X103874380Y-116075080D03*
D13*
X102874380Y-116075080D03*
X106756200Y-117640860D03*
D14*
X106256200Y-117640860D03*
D13*
X105256200Y-117640860D03*
D14*
X105756200Y-117640860D03*
D13*
X106756200Y-118640860D03*
D14*
X105756200Y-118640860D03*
X106256200Y-118640860D03*
D13*
X105256200Y-118640860D03*
X109108940Y-114932840D03*
D14*
X108608940Y-114932840D03*
D13*
X107608940Y-114932840D03*
D14*
X108108940Y-114932840D03*
D13*
X109108940Y-115932840D03*
D14*
X108108940Y-115932840D03*
X108608940Y-115932840D03*
D13*
X107608940Y-115932840D03*
D25*
X71442220Y-136027520D03*
X70792220Y-136027520D03*
X70142220Y-136027520D03*
X69492220Y-136027520D03*
X69492220Y-131627520D03*
X70142220Y-131627520D03*
X70792220Y-131627520D03*
X71442220Y-131627520D03*
D10*
G36*
X74391904Y-117468204D02*
X74416173Y-117471804D01*
X74439971Y-117477765D01*
X74463071Y-117486030D01*
X74485249Y-117496520D01*
X74506293Y-117509133D01*
X74525998Y-117523747D01*
X74544177Y-117540223D01*
X74560653Y-117558402D01*
X74575267Y-117578107D01*
X74587880Y-117599151D01*
X74598370Y-117621329D01*
X74606635Y-117644429D01*
X74612596Y-117668227D01*
X74616196Y-117692496D01*
X74617400Y-117717000D01*
X74617400Y-118217000D01*
X74616196Y-118241504D01*
X74612596Y-118265773D01*
X74606635Y-118289571D01*
X74598370Y-118312671D01*
X74587880Y-118334849D01*
X74575267Y-118355893D01*
X74560653Y-118375598D01*
X74544177Y-118393777D01*
X74525998Y-118410253D01*
X74506293Y-118424867D01*
X74485249Y-118437480D01*
X74463071Y-118447970D01*
X74439971Y-118456235D01*
X74416173Y-118462196D01*
X74391904Y-118465796D01*
X74367400Y-118467000D01*
X71367400Y-118467000D01*
X71342896Y-118465796D01*
X71318627Y-118462196D01*
X71294829Y-118456235D01*
X71271729Y-118447970D01*
X71249551Y-118437480D01*
X71228507Y-118424867D01*
X71208802Y-118410253D01*
X71190623Y-118393777D01*
X71174147Y-118375598D01*
X71159533Y-118355893D01*
X71146920Y-118334849D01*
X71136430Y-118312671D01*
X71128165Y-118289571D01*
X71122204Y-118265773D01*
X71118604Y-118241504D01*
X71117400Y-118217000D01*
X71117400Y-117717000D01*
X71118604Y-117692496D01*
X71122204Y-117668227D01*
X71128165Y-117644429D01*
X71136430Y-117621329D01*
X71146920Y-117599151D01*
X71159533Y-117578107D01*
X71174147Y-117558402D01*
X71190623Y-117540223D01*
X71208802Y-117523747D01*
X71228507Y-117509133D01*
X71249551Y-117496520D01*
X71271729Y-117486030D01*
X71294829Y-117477765D01*
X71318627Y-117471804D01*
X71342896Y-117468204D01*
X71367400Y-117467000D01*
X74367400Y-117467000D01*
X74391904Y-117468204D01*
X74391904Y-117468204D01*
G37*
D19*
X72867400Y-117967000D03*
D10*
G36*
X74391904Y-115468204D02*
X74416173Y-115471804D01*
X74439971Y-115477765D01*
X74463071Y-115486030D01*
X74485249Y-115496520D01*
X74506293Y-115509133D01*
X74525998Y-115523747D01*
X74544177Y-115540223D01*
X74560653Y-115558402D01*
X74575267Y-115578107D01*
X74587880Y-115599151D01*
X74598370Y-115621329D01*
X74606635Y-115644429D01*
X74612596Y-115668227D01*
X74616196Y-115692496D01*
X74617400Y-115717000D01*
X74617400Y-116217000D01*
X74616196Y-116241504D01*
X74612596Y-116265773D01*
X74606635Y-116289571D01*
X74598370Y-116312671D01*
X74587880Y-116334849D01*
X74575267Y-116355893D01*
X74560653Y-116375598D01*
X74544177Y-116393777D01*
X74525998Y-116410253D01*
X74506293Y-116424867D01*
X74485249Y-116437480D01*
X74463071Y-116447970D01*
X74439971Y-116456235D01*
X74416173Y-116462196D01*
X74391904Y-116465796D01*
X74367400Y-116467000D01*
X71367400Y-116467000D01*
X71342896Y-116465796D01*
X71318627Y-116462196D01*
X71294829Y-116456235D01*
X71271729Y-116447970D01*
X71249551Y-116437480D01*
X71228507Y-116424867D01*
X71208802Y-116410253D01*
X71190623Y-116393777D01*
X71174147Y-116375598D01*
X71159533Y-116355893D01*
X71146920Y-116334849D01*
X71136430Y-116312671D01*
X71128165Y-116289571D01*
X71122204Y-116265773D01*
X71118604Y-116241504D01*
X71117400Y-116217000D01*
X71117400Y-115717000D01*
X71118604Y-115692496D01*
X71122204Y-115668227D01*
X71128165Y-115644429D01*
X71136430Y-115621329D01*
X71146920Y-115599151D01*
X71159533Y-115578107D01*
X71174147Y-115558402D01*
X71190623Y-115540223D01*
X71208802Y-115523747D01*
X71228507Y-115509133D01*
X71249551Y-115496520D01*
X71271729Y-115486030D01*
X71294829Y-115477765D01*
X71318627Y-115471804D01*
X71342896Y-115468204D01*
X71367400Y-115467000D01*
X74367400Y-115467000D01*
X74391904Y-115468204D01*
X74391904Y-115468204D01*
G37*
D19*
X72867400Y-115967000D03*
D10*
G36*
X80091904Y-119568204D02*
X80116173Y-119571804D01*
X80139971Y-119577765D01*
X80163071Y-119586030D01*
X80185249Y-119596520D01*
X80206293Y-119609133D01*
X80225998Y-119623747D01*
X80244177Y-119640223D01*
X80260653Y-119658402D01*
X80275267Y-119678107D01*
X80287880Y-119699151D01*
X80298370Y-119721329D01*
X80306635Y-119744429D01*
X80312596Y-119768227D01*
X80316196Y-119792496D01*
X80317400Y-119817000D01*
X80317400Y-120817000D01*
X80316196Y-120841504D01*
X80312596Y-120865773D01*
X80306635Y-120889571D01*
X80298370Y-120912671D01*
X80287880Y-120934849D01*
X80275267Y-120955893D01*
X80260653Y-120975598D01*
X80244177Y-120993777D01*
X80225998Y-121010253D01*
X80206293Y-121024867D01*
X80185249Y-121037480D01*
X80163071Y-121047970D01*
X80139971Y-121056235D01*
X80116173Y-121062196D01*
X80091904Y-121065796D01*
X80067400Y-121067000D01*
X77167400Y-121067000D01*
X77142896Y-121065796D01*
X77118627Y-121062196D01*
X77094829Y-121056235D01*
X77071729Y-121047970D01*
X77049551Y-121037480D01*
X77028507Y-121024867D01*
X77008802Y-121010253D01*
X76990623Y-120993777D01*
X76974147Y-120975598D01*
X76959533Y-120955893D01*
X76946920Y-120934849D01*
X76936430Y-120912671D01*
X76928165Y-120889571D01*
X76922204Y-120865773D01*
X76918604Y-120841504D01*
X76917400Y-120817000D01*
X76917400Y-119817000D01*
X76918604Y-119792496D01*
X76922204Y-119768227D01*
X76928165Y-119744429D01*
X76936430Y-119721329D01*
X76946920Y-119699151D01*
X76959533Y-119678107D01*
X76974147Y-119658402D01*
X76990623Y-119640223D01*
X77008802Y-119623747D01*
X77028507Y-119609133D01*
X77049551Y-119596520D01*
X77071729Y-119586030D01*
X77094829Y-119577765D01*
X77118627Y-119571804D01*
X77142896Y-119568204D01*
X77167400Y-119567000D01*
X80067400Y-119567000D01*
X80091904Y-119568204D01*
X80091904Y-119568204D01*
G37*
D26*
X78617400Y-120317000D03*
D10*
G36*
X80091904Y-112868204D02*
X80116173Y-112871804D01*
X80139971Y-112877765D01*
X80163071Y-112886030D01*
X80185249Y-112896520D01*
X80206293Y-112909133D01*
X80225998Y-112923747D01*
X80244177Y-112940223D01*
X80260653Y-112958402D01*
X80275267Y-112978107D01*
X80287880Y-112999151D01*
X80298370Y-113021329D01*
X80306635Y-113044429D01*
X80312596Y-113068227D01*
X80316196Y-113092496D01*
X80317400Y-113117000D01*
X80317400Y-114117000D01*
X80316196Y-114141504D01*
X80312596Y-114165773D01*
X80306635Y-114189571D01*
X80298370Y-114212671D01*
X80287880Y-114234849D01*
X80275267Y-114255893D01*
X80260653Y-114275598D01*
X80244177Y-114293777D01*
X80225998Y-114310253D01*
X80206293Y-114324867D01*
X80185249Y-114337480D01*
X80163071Y-114347970D01*
X80139971Y-114356235D01*
X80116173Y-114362196D01*
X80091904Y-114365796D01*
X80067400Y-114367000D01*
X77167400Y-114367000D01*
X77142896Y-114365796D01*
X77118627Y-114362196D01*
X77094829Y-114356235D01*
X77071729Y-114347970D01*
X77049551Y-114337480D01*
X77028507Y-114324867D01*
X77008802Y-114310253D01*
X76990623Y-114293777D01*
X76974147Y-114275598D01*
X76959533Y-114255893D01*
X76946920Y-114234849D01*
X76936430Y-114212671D01*
X76928165Y-114189571D01*
X76922204Y-114165773D01*
X76918604Y-114141504D01*
X76917400Y-114117000D01*
X76917400Y-113117000D01*
X76918604Y-113092496D01*
X76922204Y-113068227D01*
X76928165Y-113044429D01*
X76936430Y-113021329D01*
X76946920Y-112999151D01*
X76959533Y-112978107D01*
X76974147Y-112958402D01*
X76990623Y-112940223D01*
X77008802Y-112923747D01*
X77028507Y-112909133D01*
X77049551Y-112896520D01*
X77071729Y-112886030D01*
X77094829Y-112877765D01*
X77118627Y-112871804D01*
X77142896Y-112868204D01*
X77167400Y-112867000D01*
X80067400Y-112867000D01*
X80091904Y-112868204D01*
X80091904Y-112868204D01*
G37*
D26*
X78617400Y-113617000D03*
D27*
X85234600Y-158049000D03*
X85234600Y-156149000D03*
X87434600Y-156149000D03*
X87434600Y-157099000D03*
X87434600Y-158049000D03*
D28*
X103311960Y-160357820D03*
X103809800Y-160357820D03*
X104307640Y-160357820D03*
X104307640Y-161104580D03*
X103809800Y-161104580D03*
D29*
X103311960Y-161109660D03*
D28*
X89595960Y-160383220D03*
X90093800Y-160383220D03*
X90591640Y-160383220D03*
X90591640Y-161129980D03*
X90093800Y-161129980D03*
D29*
X89595960Y-161135060D03*
D30*
X91010000Y-166350800D03*
X89330000Y-166350800D03*
D31*
X93080000Y-166350800D03*
X87260000Y-166350800D03*
D32*
X92632500Y-164050800D03*
X87707500Y-164050800D03*
D33*
X91470000Y-163690800D03*
X90820000Y-163690800D03*
X90170000Y-163690800D03*
X89520000Y-163690800D03*
X88870000Y-163690800D03*
D30*
X104726000Y-166350800D03*
X103046000Y-166350800D03*
D31*
X106796000Y-166350800D03*
X100976000Y-166350800D03*
D32*
X106348500Y-164050800D03*
X101423500Y-164050800D03*
D33*
X105186000Y-163690800D03*
X104536000Y-163690800D03*
X103886000Y-163690800D03*
X103236000Y-163690800D03*
X102586000Y-163690800D03*
D34*
X111633000Y-123571000D03*
X111633000Y-127381000D03*
X111633000Y-126111000D03*
X111633000Y-124841000D03*
X111633000Y-135001000D03*
X111633000Y-133731000D03*
X111633000Y-131191000D03*
X111633000Y-132461000D03*
X111633000Y-129921000D03*
X111633000Y-128651000D03*
X111633000Y-141351000D03*
X111633000Y-140081000D03*
X111633000Y-142621000D03*
X111633000Y-145161000D03*
X111633000Y-143891000D03*
X111633000Y-146431000D03*
X111633000Y-147701000D03*
X111633000Y-138811000D03*
X111633000Y-137541000D03*
X111633000Y-136271000D03*
X110363000Y-123571000D03*
X110363000Y-127381000D03*
X110363000Y-126111000D03*
X110363000Y-124841000D03*
X110363000Y-135001000D03*
X110363000Y-133731000D03*
X110363000Y-131191000D03*
X110363000Y-132461000D03*
X110363000Y-129921000D03*
X110363000Y-128651000D03*
X110363000Y-141351000D03*
X110363000Y-140081000D03*
X110363000Y-142621000D03*
X110363000Y-145161000D03*
X110363000Y-143891000D03*
X110363000Y-146431000D03*
X110363000Y-147701000D03*
X110363000Y-138811000D03*
X110363000Y-137541000D03*
X110363000Y-136271000D03*
X109093000Y-123571000D03*
X109093000Y-124841000D03*
X109093000Y-126111000D03*
X109093000Y-127381000D03*
X109093000Y-131191000D03*
X109093000Y-128651000D03*
X109093000Y-129921000D03*
X109093000Y-141351000D03*
X109093000Y-142621000D03*
X109093000Y-143891000D03*
X109093000Y-146431000D03*
X109093000Y-147701000D03*
X109093000Y-145161000D03*
X109093000Y-140081000D03*
X109093000Y-137541000D03*
X109093000Y-138811000D03*
X109093000Y-136271000D03*
X109093000Y-133731000D03*
X109093000Y-135001000D03*
X109093000Y-132461000D03*
X107823000Y-123571000D03*
X107823000Y-124841000D03*
X107823000Y-126111000D03*
X107823000Y-127381000D03*
X107823000Y-131191000D03*
X107823000Y-128651000D03*
X107823000Y-129921000D03*
X107823000Y-141351000D03*
X107823000Y-142621000D03*
X107823000Y-143891000D03*
X107823000Y-146431000D03*
X107823000Y-147701000D03*
X107823000Y-145161000D03*
X107823000Y-140081000D03*
X107823000Y-137541000D03*
X107823000Y-138811000D03*
X107823000Y-136271000D03*
X107823000Y-133731000D03*
X107823000Y-135001000D03*
X107823000Y-132461000D03*
X106553000Y-123571000D03*
X106553000Y-124841000D03*
X106553000Y-126111000D03*
X106553000Y-127381000D03*
X106553000Y-131191000D03*
X106553000Y-128651000D03*
X106553000Y-129921000D03*
X106553000Y-141351000D03*
X106553000Y-142621000D03*
X106553000Y-143891000D03*
X106553000Y-146431000D03*
X106553000Y-147701000D03*
X106553000Y-145161000D03*
X106553000Y-140081000D03*
X106553000Y-137541000D03*
X106553000Y-138811000D03*
X106553000Y-136271000D03*
X106553000Y-133731000D03*
X106553000Y-135001000D03*
X106553000Y-132461000D03*
X105283000Y-123571000D03*
X105283000Y-124841000D03*
X105283000Y-126111000D03*
X105283000Y-127381000D03*
X105283000Y-131191000D03*
X105283000Y-128651000D03*
X105283000Y-129921000D03*
X105283000Y-141351000D03*
X105283000Y-142621000D03*
X105283000Y-143891000D03*
X105283000Y-146431000D03*
X105283000Y-147701000D03*
X105283000Y-145161000D03*
X105283000Y-140081000D03*
X105283000Y-137541000D03*
X105283000Y-138811000D03*
X105283000Y-136271000D03*
X105283000Y-133731000D03*
X105283000Y-135001000D03*
X105283000Y-132461000D03*
X104013000Y-123571000D03*
X104013000Y-124841000D03*
X104013000Y-126111000D03*
X104013000Y-127381000D03*
X104013000Y-131191000D03*
X104013000Y-128651000D03*
X104013000Y-129921000D03*
X104013000Y-141351000D03*
X104013000Y-142621000D03*
X104013000Y-143891000D03*
X104013000Y-146431000D03*
X104013000Y-147701000D03*
X104013000Y-145161000D03*
X104013000Y-140081000D03*
X104013000Y-137541000D03*
X104013000Y-138811000D03*
X104013000Y-136271000D03*
X104013000Y-133731000D03*
X104013000Y-135001000D03*
X104013000Y-132461000D03*
X102743000Y-123571000D03*
X102743000Y-124841000D03*
X102743000Y-126111000D03*
X102743000Y-127381000D03*
X102743000Y-131191000D03*
X102743000Y-128651000D03*
X102743000Y-129921000D03*
X102743000Y-141351000D03*
X102743000Y-142621000D03*
X102743000Y-143891000D03*
X102743000Y-146431000D03*
X102743000Y-147701000D03*
X102743000Y-145161000D03*
X102743000Y-140081000D03*
X102743000Y-137541000D03*
X102743000Y-138811000D03*
X102743000Y-136271000D03*
X102743000Y-133731000D03*
X102743000Y-135001000D03*
X102743000Y-132461000D03*
X101473000Y-123571000D03*
X101473000Y-124841000D03*
X101473000Y-126111000D03*
X101473000Y-127381000D03*
X101473000Y-131191000D03*
X101473000Y-128651000D03*
X101473000Y-129921000D03*
X101473000Y-141351000D03*
X101473000Y-142621000D03*
X101473000Y-143891000D03*
X101473000Y-146431000D03*
X101473000Y-147701000D03*
X101473000Y-145161000D03*
X101473000Y-140081000D03*
X101473000Y-137541000D03*
X101473000Y-138811000D03*
X101473000Y-136271000D03*
X101473000Y-133731000D03*
X101473000Y-135001000D03*
X101473000Y-132461000D03*
X100203000Y-123571000D03*
X100203000Y-124841000D03*
X100203000Y-126111000D03*
X100203000Y-127381000D03*
X100203000Y-131191000D03*
X100203000Y-128651000D03*
X100203000Y-129921000D03*
X100203000Y-141351000D03*
X100203000Y-142621000D03*
X100203000Y-143891000D03*
X100203000Y-146431000D03*
X100203000Y-147701000D03*
X100203000Y-145161000D03*
X100203000Y-140081000D03*
X100203000Y-137541000D03*
X100203000Y-138811000D03*
X100203000Y-136271000D03*
X100203000Y-133731000D03*
X100203000Y-135001000D03*
X100203000Y-132461000D03*
X98933000Y-123571000D03*
X98933000Y-124841000D03*
X98933000Y-126111000D03*
X98933000Y-127381000D03*
X98933000Y-128651000D03*
X98933000Y-129921000D03*
X98933000Y-131191000D03*
X98933000Y-132461000D03*
X98933000Y-133731000D03*
X98933000Y-135001000D03*
X98933000Y-136271000D03*
X98933000Y-137541000D03*
X98933000Y-138811000D03*
X98933000Y-140081000D03*
X98933000Y-141351000D03*
X98933000Y-147701000D03*
X98933000Y-143891000D03*
X98933000Y-145161000D03*
X98933000Y-142621000D03*
X98933000Y-146431000D03*
X97663000Y-123571000D03*
X97663000Y-124841000D03*
X97663000Y-126111000D03*
X97663000Y-127381000D03*
X97663000Y-128651000D03*
X97663000Y-129921000D03*
X97663000Y-131191000D03*
X97663000Y-132461000D03*
X97663000Y-133731000D03*
X97663000Y-135001000D03*
X97663000Y-136271000D03*
X97663000Y-137541000D03*
X97663000Y-138811000D03*
X97663000Y-140081000D03*
X97663000Y-141351000D03*
X97663000Y-147701000D03*
X97663000Y-143891000D03*
X97663000Y-145161000D03*
X97663000Y-142621000D03*
X97663000Y-146431000D03*
X96393000Y-123571000D03*
X96393000Y-124841000D03*
X96393000Y-126111000D03*
X96393000Y-127381000D03*
X96393000Y-128651000D03*
X96393000Y-129921000D03*
X96393000Y-131191000D03*
X96393000Y-132461000D03*
X96393000Y-133731000D03*
X96393000Y-135001000D03*
X96393000Y-136271000D03*
X96393000Y-137541000D03*
X96393000Y-138811000D03*
X96393000Y-140081000D03*
X96393000Y-141351000D03*
X96393000Y-147701000D03*
X96393000Y-143891000D03*
X96393000Y-145161000D03*
X96393000Y-142621000D03*
X96393000Y-146431000D03*
X95123000Y-123571000D03*
X95123000Y-124841000D03*
X95123000Y-126111000D03*
X95123000Y-127381000D03*
X95123000Y-128651000D03*
X95123000Y-129921000D03*
X95123000Y-131191000D03*
X95123000Y-132461000D03*
X95123000Y-133731000D03*
X95123000Y-135001000D03*
X95123000Y-136271000D03*
X95123000Y-137541000D03*
X95123000Y-138811000D03*
X95123000Y-140081000D03*
X95123000Y-141351000D03*
X95123000Y-147701000D03*
X95123000Y-143891000D03*
X95123000Y-145161000D03*
X95123000Y-142621000D03*
X95123000Y-146431000D03*
X93853000Y-123571000D03*
X93853000Y-124841000D03*
X93853000Y-126111000D03*
X93853000Y-127381000D03*
X93853000Y-128651000D03*
X93853000Y-129921000D03*
X93853000Y-131191000D03*
X93853000Y-132461000D03*
X93853000Y-133731000D03*
X93853000Y-135001000D03*
X93853000Y-136271000D03*
X93853000Y-137541000D03*
X93853000Y-138811000D03*
X93853000Y-140081000D03*
X93853000Y-141351000D03*
X93853000Y-147701000D03*
X93853000Y-143891000D03*
X93853000Y-145161000D03*
X93853000Y-142621000D03*
X93853000Y-146431000D03*
X92583000Y-123571000D03*
X92583000Y-124841000D03*
X92583000Y-126111000D03*
X92583000Y-127381000D03*
X92583000Y-128651000D03*
X92583000Y-129921000D03*
X92583000Y-131191000D03*
X92583000Y-132461000D03*
X92583000Y-133731000D03*
X92583000Y-135001000D03*
X92583000Y-136271000D03*
X92583000Y-137541000D03*
X92583000Y-138811000D03*
X92583000Y-140081000D03*
X92583000Y-141351000D03*
X92583000Y-147701000D03*
X92583000Y-143891000D03*
X92583000Y-145161000D03*
X92583000Y-142621000D03*
X92583000Y-146431000D03*
X91313000Y-123571000D03*
X91313000Y-124841000D03*
X91313000Y-126111000D03*
X91313000Y-127381000D03*
X91313000Y-128651000D03*
X91313000Y-129921000D03*
X91313000Y-131191000D03*
X91313000Y-132461000D03*
X91313000Y-133731000D03*
X91313000Y-135001000D03*
X91313000Y-136271000D03*
X91313000Y-137541000D03*
X91313000Y-138811000D03*
X91313000Y-140081000D03*
X91313000Y-141351000D03*
X91313000Y-147701000D03*
X91313000Y-143891000D03*
X91313000Y-145161000D03*
X91313000Y-142621000D03*
X91313000Y-146431000D03*
X90043000Y-123571000D03*
X90043000Y-124841000D03*
X90043000Y-126111000D03*
X90043000Y-127381000D03*
X90043000Y-128651000D03*
X90043000Y-129921000D03*
X90043000Y-131191000D03*
X90043000Y-132461000D03*
X90043000Y-133731000D03*
X90043000Y-135001000D03*
X90043000Y-136271000D03*
X90043000Y-137541000D03*
X90043000Y-138811000D03*
X90043000Y-140081000D03*
X90043000Y-141351000D03*
X90043000Y-147701000D03*
X90043000Y-143891000D03*
X90043000Y-145161000D03*
X90043000Y-142621000D03*
X90043000Y-146431000D03*
X88773000Y-123571000D03*
X88773000Y-124841000D03*
X88773000Y-126111000D03*
X88773000Y-127381000D03*
X88773000Y-128651000D03*
X88773000Y-129921000D03*
X88773000Y-131191000D03*
X88773000Y-132461000D03*
X88773000Y-133731000D03*
X88773000Y-135001000D03*
X88773000Y-136271000D03*
X88773000Y-137541000D03*
X88773000Y-138811000D03*
X88773000Y-140081000D03*
X88773000Y-141351000D03*
X88773000Y-147701000D03*
X88773000Y-143891000D03*
X88773000Y-145161000D03*
X88773000Y-142621000D03*
X88773000Y-146431000D03*
X87503000Y-123571000D03*
X87503000Y-124841000D03*
X87503000Y-126111000D03*
X87503000Y-127381000D03*
X87503000Y-128651000D03*
X87503000Y-129921000D03*
X87503000Y-131191000D03*
X87503000Y-132461000D03*
X87503000Y-133731000D03*
X87503000Y-135001000D03*
X87503000Y-136271000D03*
X87503000Y-137541000D03*
X87503000Y-138811000D03*
X87503000Y-140081000D03*
X87503000Y-141351000D03*
X87503000Y-142621000D03*
X87503000Y-143891000D03*
X87503000Y-145161000D03*
X87503000Y-146431000D03*
X87503000Y-147701000D03*
D35*
X118481220Y-132349320D03*
X118981220Y-132349320D03*
X119481220Y-132349320D03*
D36*
X120256220Y-132624320D03*
X120256220Y-133124320D03*
X120256220Y-133624320D03*
X120256220Y-134124320D03*
X120256220Y-134624320D03*
D35*
X119481220Y-134899320D03*
X118981220Y-134899320D03*
X118481220Y-134899320D03*
D36*
X117706220Y-134624320D03*
X117706220Y-134124320D03*
X117706220Y-133624320D03*
X117706220Y-133124320D03*
X117706220Y-132624320D03*
M02*
