G04 #@! TF.GenerationSoftware,KiCad,Pcbnew,(2018-02-05 revision d1a45d147)-makepkg*
G04 #@! TF.CreationDate,2019-11-12T11:54:18-08:00*
G04 #@! TF.ProjectId,lichen-badge,6C696368656E2D62616467652E6B6963,rev?*
G04 #@! TF.SameCoordinates,Original*
G04 #@! TF.FileFunction,Copper,L4,Bot,Signal*
G04 #@! TF.FilePolarity,Positive*
%FSLAX46Y46*%
G04 Gerber Fmt 4.6, Leading zero omitted, Abs format (unit mm)*
G04 Created by KiCad (PCBNEW (2018-02-05 revision d1a45d147)-makepkg) date 11/12/19 11:54:18*
%MOMM*%
%LPD*%
G01*
G04 APERTURE LIST*
%ADD10R,1.500000X0.500000*%
%ADD11C,0.508000*%
%ADD12C,0.152400*%
%ADD13C,1.270000*%
%ADD14C,0.200000*%
%ADD15C,0.254000*%
G04 APERTURE END LIST*
D10*
X110220400Y-145662000D03*
X110220400Y-144862000D03*
X110220400Y-144062000D03*
X110220400Y-143262000D03*
X110220400Y-142462000D03*
X110220400Y-141662000D03*
X110220400Y-140862000D03*
X110220400Y-140062000D03*
X110220400Y-139262000D03*
X110220400Y-138462000D03*
X110220400Y-137662000D03*
X110220400Y-136862000D03*
X110220400Y-136062000D03*
X110220400Y-135262000D03*
D11*
X105257600Y-116763800D03*
X105765600Y-116332000D03*
X109093000Y-113614200D03*
X108610400Y-114046000D03*
X90678000Y-141986000D03*
X91965781Y-130581399D03*
X101396800Y-116814600D03*
X101879400Y-116357400D03*
X91968323Y-131843779D03*
X91983560Y-133111240D03*
X91973400Y-134355840D03*
X91968320Y-135653780D03*
X91970860Y-136908540D03*
X93218000Y-135653780D03*
X93215460Y-134345680D03*
X98300540Y-133101080D03*
X98285300Y-134350760D03*
X98282760Y-136903460D03*
X97030540Y-136895840D03*
X91968320Y-129286000D03*
X93212920Y-129286000D03*
X91968320Y-127980440D03*
X93220540Y-127975360D03*
X95758000Y-129235200D03*
X98298000Y-129235200D03*
X100838000Y-127965200D03*
X102108000Y-127965200D03*
X102108000Y-129286000D03*
X100838000Y-129286000D03*
X99568000Y-129286000D03*
X91973400Y-138176000D03*
X91973400Y-139420600D03*
X91973400Y-140716000D03*
X91973400Y-141986000D03*
X93218000Y-141986000D03*
X94513400Y-141986000D03*
X95783400Y-141986000D03*
X97028000Y-141986000D03*
X98323400Y-141986000D03*
X99568000Y-141986000D03*
X99568000Y-140690600D03*
X99568000Y-139420600D03*
X99568000Y-138150600D03*
X97028000Y-133096000D03*
X97028000Y-134340600D03*
X97028000Y-135636000D03*
X97028000Y-138150600D03*
X98298000Y-138150600D03*
X91973400Y-143256000D03*
X90678000Y-143256000D03*
X100838000Y-141986000D03*
X102108000Y-141986000D03*
X103378000Y-141986000D03*
X104648000Y-141986000D03*
X104648000Y-140690600D03*
X103378000Y-140690600D03*
X103378000Y-139420600D03*
X105918000Y-139420600D03*
X105918000Y-140690600D03*
X105918000Y-138201400D03*
X104648000Y-138201400D03*
X104648000Y-136906000D03*
X105918000Y-136906000D03*
X105918000Y-135661400D03*
X105918000Y-134366000D03*
X104673400Y-134366000D03*
X104673400Y-133096000D03*
X105918000Y-133096000D03*
X105918000Y-131800600D03*
X105918000Y-130556000D03*
X105918000Y-129286000D03*
X104648000Y-129286000D03*
X104648000Y-130556000D03*
X104648000Y-131800600D03*
X103378000Y-130556000D03*
X103378000Y-129286000D03*
X103378000Y-127965200D03*
X104648000Y-127965200D03*
X105918000Y-127965200D03*
X107188000Y-127965200D03*
X107188000Y-129286000D03*
X107188000Y-130556000D03*
X105918000Y-141986000D03*
X107188000Y-141986000D03*
X107188000Y-143256000D03*
X105918000Y-143256000D03*
X102870000Y-114198400D03*
X103378000Y-113766600D03*
X103886000Y-114198400D03*
X104368600Y-113766600D03*
X86791800Y-148412200D03*
X86995000Y-123063000D03*
X112141000Y-123063000D03*
X112141000Y-148209000D03*
X121183400Y-133121400D03*
X121183400Y-134137400D03*
X113741200Y-133123940D03*
X116586000Y-134884160D03*
X118986300Y-135788400D03*
X119489220Y-128572260D03*
X125719840Y-132544820D03*
X126037340Y-133187440D03*
X70589140Y-117955060D03*
X72867520Y-119039640D03*
X75135740Y-117955060D03*
X88386920Y-157109160D03*
X85140800Y-101518720D03*
X95305880Y-101523800D03*
X92859860Y-118996460D03*
X95666320Y-118874300D03*
X85138260Y-106667300D03*
X95303340Y-106639360D03*
X109979460Y-106725720D03*
X109931200Y-101452680D03*
X90601800Y-159715200D03*
X91465400Y-162534600D03*
X105181400Y-162560000D03*
X98323400Y-127965200D03*
X99568000Y-127965200D03*
X104310180Y-159682180D03*
X106352340Y-159260540D03*
X92656660Y-159245300D03*
X105968800Y-151815800D03*
X69496940Y-130456940D03*
X72019160Y-123075700D03*
X67177920Y-139197080D03*
X73553320Y-140609320D03*
X73560940Y-138247120D03*
X72260460Y-136034780D03*
X115448080Y-154541220D03*
X112514380Y-155610560D03*
X113565940Y-151691340D03*
X112862360Y-149905720D03*
X108498640Y-135648700D03*
X108491020Y-143253460D03*
X125041660Y-139136120D03*
X87122000Y-97332800D03*
X87122000Y-89712800D03*
X87147400Y-81965800D03*
X87274400Y-91795600D03*
X87325200Y-84683600D03*
X87325200Y-76454000D03*
X103886000Y-117017874D03*
X103378000Y-125476000D03*
X104648000Y-125476000D03*
X105765600Y-119507000D03*
X105918000Y-125476000D03*
X107594400Y-116890800D03*
X107188000Y-125476000D03*
X109118400Y-116890800D03*
X106032300Y-112280700D03*
X108108940Y-117346920D03*
X106756200Y-116332000D03*
X107594400Y-114046000D03*
X108102400Y-113614200D03*
X97002600Y-130530600D03*
X94488000Y-138099800D03*
X97028000Y-139420600D03*
X120167400Y-137160000D03*
X114427000Y-137160000D03*
X116479320Y-132303520D03*
X120284240Y-130225800D03*
X115615720Y-150924260D03*
X111000540Y-151892000D03*
X109722920Y-151889460D03*
X108460540Y-151889460D03*
X116027200Y-146862800D03*
X116027200Y-145338800D03*
X116027200Y-143814800D03*
X116027200Y-142290800D03*
X108430060Y-138107420D03*
X112095280Y-143263620D03*
X114046000Y-154101800D03*
X112496600Y-145161000D03*
X107696000Y-166979600D03*
X100965000Y-164744400D03*
X105918000Y-164744400D03*
X101854000Y-164744400D03*
X107696000Y-166268400D03*
X101854000Y-163322000D03*
X101854000Y-166979600D03*
X105892600Y-166979600D03*
X100965000Y-163322000D03*
X100101400Y-166979600D03*
X105918000Y-163322000D03*
X106781600Y-163322000D03*
X105892600Y-166268400D03*
X100076000Y-166268400D03*
X101879400Y-166268400D03*
X106781600Y-164744400D03*
X92176600Y-166268400D03*
X92176600Y-166979600D03*
X93980000Y-166979600D03*
X93980000Y-166268400D03*
X88163400Y-166268400D03*
X86360000Y-166268400D03*
X88138000Y-166979600D03*
X86385400Y-166979600D03*
X93065600Y-164744400D03*
X93065600Y-163322000D03*
X92202000Y-163322000D03*
X92202000Y-164744400D03*
X88138000Y-164744400D03*
X87249000Y-164744400D03*
X88138000Y-163322000D03*
X87249000Y-163322000D03*
X117055900Y-172252640D03*
X132613400Y-167833040D03*
X86956900Y-125569980D03*
X88120224Y-107876340D03*
X101396800Y-159181800D03*
X89407986Y-126745988D03*
X90043000Y-122859800D03*
X124129800Y-129540000D03*
X94462600Y-130530600D03*
X94488000Y-121640600D03*
X92537280Y-87515700D03*
X88145620Y-126746000D03*
X98254818Y-107904280D03*
X94996000Y-78435200D03*
X91109800Y-84582000D03*
X99110800Y-84607400D03*
X95504000Y-79070200D03*
X105664000Y-84023200D03*
X109118400Y-78435200D03*
X109626400Y-79070200D03*
X113436400Y-84048600D03*
X97028000Y-147066000D03*
X89460800Y-161798000D03*
X98298000Y-147066000D03*
X90218800Y-161798000D03*
X99568000Y-147066000D03*
X103176800Y-161798000D03*
X100838000Y-147066000D03*
X103934800Y-161798000D03*
X112217215Y-141935191D03*
X113385600Y-141884366D03*
X112819180Y-142293340D03*
X126695200Y-138684000D03*
X110540800Y-122199400D03*
X118503700Y-142079980D03*
X88107520Y-131864100D03*
X86862918Y-131861560D03*
X96012000Y-75539600D03*
X110134400Y-75539600D03*
X85344000Y-92735400D03*
X95504000Y-75031600D03*
X109626400Y-75031600D03*
X84328000Y-84709000D03*
X94996000Y-74498200D03*
X109118400Y-74498200D03*
X84353400Y-76504800D03*
X109664500Y-128071880D03*
X84480400Y-95859600D03*
X111033560Y-129242820D03*
X84124800Y-88442800D03*
X90619580Y-131884420D03*
X84328000Y-80518000D03*
D12*
X108911940Y-136062000D02*
X108498640Y-135648700D01*
X110220400Y-136062000D02*
X108911940Y-136062000D01*
X108491020Y-142720060D02*
X108491020Y-143253460D01*
X108749080Y-142462000D02*
X108491020Y-142720060D01*
X110220400Y-142462000D02*
X108749080Y-142462000D01*
X108766060Y-144862000D02*
X108491020Y-144586960D01*
X108491020Y-144586960D02*
X108491020Y-143253460D01*
X110220400Y-144862000D02*
X108766060Y-144862000D01*
X103886000Y-117377084D02*
X103886000Y-117017874D01*
X103378000Y-125476000D02*
X103886000Y-124968000D01*
X103886000Y-124968000D02*
X103886000Y-124714000D01*
X103886000Y-124714000D02*
X103886000Y-117377084D01*
X103886000Y-124891800D02*
X103886000Y-124714000D01*
X105765600Y-119866210D02*
X105765600Y-119507000D01*
X105765600Y-124358400D02*
X105765600Y-124256800D01*
X105765600Y-124256800D02*
X105765600Y-119866210D01*
X104648000Y-125476000D02*
X105765600Y-124358400D01*
X105765600Y-124332982D02*
X105765600Y-124256800D01*
X107594400Y-123698000D02*
X107594400Y-116890800D01*
X107594400Y-123799600D02*
X107594400Y-123698000D01*
X105918000Y-125476000D02*
X107594400Y-123799600D01*
X109118400Y-123494800D02*
X109118400Y-116890800D01*
X109118400Y-123545600D02*
X109118400Y-123494800D01*
X107188000Y-125476000D02*
X109118400Y-123545600D01*
X108108940Y-116064220D02*
X108108940Y-117346920D01*
X106032300Y-113987580D02*
X108108940Y-116064220D01*
X106032300Y-112280700D02*
X106032300Y-113987580D01*
X112093660Y-143262000D02*
X112095280Y-143263620D01*
X110220400Y-143262000D02*
X112093660Y-143262000D01*
X111539020Y-151594820D02*
X111539020Y-146118580D01*
X111539020Y-146118580D02*
X112496600Y-145161000D01*
X114046000Y-154101800D02*
X111539020Y-151594820D01*
X88120224Y-108364010D02*
X88120224Y-107876340D01*
X88120224Y-124406656D02*
X88120224Y-108364010D01*
X86956900Y-125569980D02*
X88120224Y-124406656D01*
D13*
X90043000Y-111851440D02*
X90043000Y-122859800D01*
X120253760Y-110794800D02*
X91099640Y-110794800D01*
X122707400Y-129540000D02*
X121234200Y-128066800D01*
X121234200Y-128066800D02*
X121234200Y-111775240D01*
X91099640Y-110794800D02*
X90043000Y-111851440D01*
X124129800Y-129540000D02*
X122707400Y-129540000D01*
X121234200Y-111775240D02*
X120253760Y-110794800D01*
D12*
X88145620Y-126746000D02*
X88646000Y-126245620D01*
X88646000Y-126245620D02*
X88646000Y-109334300D01*
X88646000Y-109334300D02*
X90076020Y-107904280D01*
X97895608Y-107904280D02*
X98254818Y-107904280D01*
X90076020Y-107904280D02*
X97895608Y-107904280D01*
X91643200Y-78435200D02*
X91109800Y-78968600D01*
X91109800Y-78968600D02*
X91109800Y-84582000D01*
X94996000Y-78435200D02*
X91643200Y-78435200D01*
X99110800Y-84607400D02*
X99110800Y-79502000D01*
X98679000Y-79070200D02*
X95504000Y-79070200D01*
X99110800Y-79502000D02*
X98679000Y-79070200D01*
X105664000Y-84023200D02*
X105664000Y-83663990D01*
X105664000Y-83663990D02*
X105664000Y-79070200D01*
X106299000Y-78435200D02*
X109118400Y-78435200D01*
X105664000Y-79070200D02*
X106299000Y-78435200D01*
X109626400Y-79070200D02*
X112522000Y-79070200D01*
X113436400Y-79984600D02*
X113436400Y-84048600D01*
X112522000Y-79070200D02*
X113436400Y-79984600D01*
D14*
X89614800Y-161644000D02*
X89460800Y-161798000D01*
X89614800Y-158733000D02*
X89614800Y-161644000D01*
X97028000Y-147066000D02*
X97438000Y-147476000D01*
X97438000Y-150909800D02*
X89614800Y-158733000D01*
X97438000Y-147476000D02*
X97438000Y-150909800D01*
X98298000Y-147066000D02*
X97888000Y-147476000D01*
X97888000Y-147476000D02*
X97888000Y-151096200D01*
X90064800Y-158919400D02*
X90064800Y-161644000D01*
X97888000Y-151096200D02*
X90064800Y-158919400D01*
X90064800Y-161644000D02*
X90218800Y-161798000D01*
X99978000Y-151070800D02*
X103330800Y-154423600D01*
X103330800Y-154423600D02*
X103330800Y-161644000D01*
X99978000Y-147476000D02*
X99978000Y-151070800D01*
X99568000Y-147066000D02*
X99978000Y-147476000D01*
X103330800Y-161644000D02*
X103176800Y-161798000D01*
X103780800Y-154237200D02*
X103780800Y-161644000D01*
X100428000Y-150884400D02*
X103780800Y-154237200D01*
X100428000Y-147476000D02*
X100428000Y-150884400D01*
X100838000Y-147066000D02*
X100428000Y-147476000D01*
X103780800Y-161644000D02*
X103934800Y-161798000D01*
D12*
X112217215Y-141575981D02*
X112217215Y-141935191D01*
X112217215Y-140383275D02*
X112217215Y-141575981D01*
X111895940Y-140062000D02*
X112217215Y-140383275D01*
X110220400Y-140062000D02*
X111895940Y-140062000D01*
X113385600Y-141525156D02*
X113385600Y-141884366D01*
X112790420Y-136862000D02*
X113385600Y-137457180D01*
X113385600Y-137457180D02*
X113385600Y-141525156D01*
X110220400Y-136862000D02*
X112790420Y-136862000D01*
X112434520Y-139262000D02*
X110220400Y-139262000D01*
X112819180Y-139646660D02*
X112434520Y-139262000D01*
X112819180Y-142293340D02*
X112819180Y-139646660D01*
X126441201Y-138430001D02*
X117017801Y-138430001D01*
X126695200Y-138684000D02*
X126441201Y-138430001D01*
X115996719Y-137408919D02*
X115996719Y-123565919D01*
X117017801Y-138430001D02*
X115996719Y-137408919D01*
X114630200Y-122199400D02*
X110540800Y-122199400D01*
X115996719Y-123565919D02*
X114630200Y-122199400D01*
X112627860Y-144062000D02*
X110220400Y-144062000D01*
X113698020Y-142991840D02*
X112627860Y-144062000D01*
X117591840Y-142991840D02*
X113698020Y-142991840D01*
X118503700Y-142079980D02*
X117591840Y-142991840D01*
X88102440Y-131869180D02*
X88107520Y-131864100D01*
X88102440Y-140477240D02*
X88102440Y-131869180D01*
X110220400Y-140862000D02*
X108624420Y-140862000D01*
X88912700Y-141287500D02*
X88102440Y-140477240D01*
X108624420Y-140862000D02*
X108198920Y-141287500D01*
X108198920Y-141287500D02*
X88912700Y-141287500D01*
X87635080Y-142704820D02*
X86862918Y-141932658D01*
X110220400Y-141662000D02*
X108764220Y-141662000D01*
X86862918Y-132220770D02*
X86862918Y-131861560D01*
X86862918Y-141932658D02*
X86862918Y-132220770D01*
X107721400Y-142704820D02*
X87635080Y-142704820D01*
X108764220Y-141662000D02*
X107721400Y-142704820D01*
X110134400Y-75539600D02*
X96012000Y-75539600D01*
X86918800Y-75539600D02*
X96012000Y-75539600D01*
X86360000Y-76098400D02*
X86918800Y-75539600D01*
X86360000Y-91719400D02*
X86360000Y-76098400D01*
X85344000Y-92735400D02*
X86360000Y-91719400D01*
X109626400Y-75031600D02*
X95504000Y-75031600D01*
X85750400Y-75869800D02*
X86588600Y-75031600D01*
X85750400Y-83286600D02*
X85750400Y-75869800D01*
X86588600Y-75031600D02*
X95504000Y-75031600D01*
X84328000Y-84709000D02*
X85750400Y-83286600D01*
X109118400Y-74498200D02*
X94996000Y-74498200D01*
X86360000Y-74498200D02*
X94996000Y-74498200D01*
X84353400Y-76504800D02*
X86360000Y-74498200D01*
X109664500Y-128071880D02*
X109664500Y-127712670D01*
X109664500Y-127712670D02*
X109335370Y-127383540D01*
X85039200Y-127383540D02*
X84084160Y-126428500D01*
X109335370Y-127383540D02*
X85039200Y-127383540D01*
X84084160Y-126428500D02*
X84084160Y-97165160D01*
X84084160Y-97165160D02*
X84084160Y-96481900D01*
X84084160Y-96230440D02*
X84084160Y-97165160D01*
X84455000Y-95859600D02*
X84084160Y-96230440D01*
X84480400Y-95859600D02*
X84455000Y-95859600D01*
X84056220Y-128678940D02*
X83306920Y-127929640D01*
X110469680Y-128678940D02*
X84056220Y-128678940D01*
X111033560Y-129242820D02*
X110469680Y-128678940D01*
X83306920Y-88901470D02*
X83306920Y-88981280D01*
X83765590Y-88442800D02*
X83306920Y-88901470D01*
X84124800Y-88442800D02*
X83765590Y-88442800D01*
X83306920Y-127929640D02*
X83306920Y-88981280D01*
X83601560Y-131203700D02*
X89938860Y-131203700D01*
X84328000Y-80518000D02*
X83566000Y-80518000D01*
X89938860Y-131203700D02*
X90619580Y-131884420D01*
X83566000Y-80518000D02*
X82626200Y-81457800D01*
X82626200Y-81457800D02*
X82626200Y-130228340D01*
X82626200Y-130228340D02*
X83601560Y-131203700D01*
D15*
G36*
X105242901Y-84811021D02*
X105404688Y-84878036D01*
X105576441Y-84912200D01*
X105751559Y-84912200D01*
X105923312Y-84878036D01*
X106038134Y-84830475D01*
X106139713Y-84846102D01*
X106142857Y-84846546D01*
X106611063Y-84906637D01*
X107015871Y-85003597D01*
X107159348Y-85071236D01*
X107456622Y-85501437D01*
X107470527Y-85518260D01*
X108196967Y-86257400D01*
X108203598Y-86263679D01*
X108907178Y-86883439D01*
X108910066Y-86885907D01*
X109905259Y-87711003D01*
X110837880Y-88499170D01*
X111806117Y-89376635D01*
X112287178Y-89927126D01*
X112622303Y-90467730D01*
X112806851Y-90997406D01*
X112822845Y-91527501D01*
X112484512Y-92048905D01*
X112174939Y-92300433D01*
X112166217Y-92308211D01*
X111468168Y-92991030D01*
X110684914Y-93741331D01*
X109307701Y-94997471D01*
X108447963Y-95536042D01*
X107489642Y-95824278D01*
X106368826Y-95906289D01*
X103931178Y-95669330D01*
X101175784Y-95054490D01*
X99726510Y-94654865D01*
X98112448Y-94120223D01*
X96490592Y-93558519D01*
X94080585Y-92467195D01*
X93431042Y-92059687D01*
X92851278Y-91499915D01*
X92831758Y-91484461D01*
X92809599Y-91473112D01*
X92783648Y-91465958D01*
X92257868Y-91379598D01*
X92233024Y-91377990D01*
X92208343Y-91381261D01*
X92174582Y-91394477D01*
X91780882Y-91617997D01*
X91760540Y-91632352D01*
X91743390Y-91650399D01*
X91732822Y-91666304D01*
X91674402Y-91770444D01*
X91664408Y-91793247D01*
X91659055Y-91817561D01*
X91658192Y-91835262D01*
X91665812Y-92195942D01*
X91668775Y-92220661D01*
X91676504Y-92244327D01*
X91688636Y-92265938D01*
X91935016Y-92618998D01*
X91951196Y-92637920D01*
X91966065Y-92650173D01*
X92557885Y-93066733D01*
X92574188Y-93076471D01*
X93595268Y-93587011D01*
X93604840Y-93591312D01*
X94498920Y-93949452D01*
X94499862Y-93949825D01*
X97781957Y-95234233D01*
X101231721Y-96729385D01*
X101248040Y-96735172D01*
X102411360Y-97060292D01*
X102426584Y-97063556D01*
X103721984Y-97259136D01*
X103734642Y-97260403D01*
X105319602Y-97339143D01*
X105323674Y-97339279D01*
X108355818Y-97392519D01*
X108751112Y-97435051D01*
X108961022Y-97458636D01*
X109072330Y-97500905D01*
X109056405Y-97522323D01*
X108926436Y-97678285D01*
X107937155Y-98499338D01*
X107143863Y-99091797D01*
X106296786Y-99564872D01*
X105689675Y-99722092D01*
X104956645Y-99734474D01*
X103695132Y-99681702D01*
X102461381Y-99435955D01*
X101318610Y-99086075D01*
X99775332Y-98491534D01*
X98867489Y-98107154D01*
X95643741Y-96604431D01*
X95643597Y-96604364D01*
X94315177Y-95987144D01*
X94311051Y-95985315D01*
X92908971Y-95393495D01*
X92902860Y-95391100D01*
X91739540Y-94969460D01*
X91739230Y-94969348D01*
X90916681Y-94673628D01*
X90714134Y-94520540D01*
X90576925Y-94414822D01*
X90532902Y-94346786D01*
X90532903Y-94346786D01*
X90186032Y-93810489D01*
X90133054Y-93603183D01*
X90046990Y-93236146D01*
X90046367Y-93233608D01*
X89739152Y-92034966D01*
X89653205Y-90993780D01*
X89905325Y-90204120D01*
X90497498Y-89616742D01*
X91486543Y-89086277D01*
X94790029Y-87890537D01*
X94798563Y-87887093D01*
X96170163Y-87274953D01*
X96187975Y-87265228D01*
X97115075Y-86658168D01*
X97139271Y-86637574D01*
X97418202Y-86332228D01*
X99890362Y-86332228D01*
X99893548Y-86356920D01*
X99901490Y-86380515D01*
X100084370Y-86786915D01*
X100100593Y-86813606D01*
X100117881Y-86831521D01*
X100138332Y-86845719D01*
X100161160Y-86855655D01*
X100185487Y-86860946D01*
X100708727Y-86921906D01*
X100741560Y-86921457D01*
X100765734Y-86915504D01*
X101527734Y-86646264D01*
X101555103Y-86632697D01*
X102042783Y-86312657D01*
X102062907Y-86296282D01*
X102078701Y-86277036D01*
X102090437Y-86255080D01*
X102097664Y-86231255D01*
X102100104Y-86206479D01*
X102100104Y-86068498D01*
X105224441Y-86068498D01*
X105225728Y-86093361D01*
X105231840Y-86117496D01*
X105242543Y-86139974D01*
X105257426Y-86159932D01*
X105465706Y-86388532D01*
X105490778Y-86409745D01*
X105512925Y-86421117D01*
X105536866Y-86427950D01*
X105686977Y-86455243D01*
X106046528Y-86632743D01*
X106272578Y-86920015D01*
X106281506Y-86930193D01*
X106698066Y-87356913D01*
X106711734Y-87369034D01*
X106732890Y-87382159D01*
X106756199Y-87390905D01*
X106780767Y-87394936D01*
X107253207Y-87425416D01*
X107277820Y-87424611D01*
X107302072Y-87418985D01*
X107324761Y-87408735D01*
X107345014Y-87394256D01*
X107629494Y-87145336D01*
X107645157Y-87128942D01*
X107658697Y-87108049D01*
X107667901Y-87084917D01*
X107672415Y-87060433D01*
X107672065Y-87035539D01*
X107631425Y-86674859D01*
X107625267Y-86647622D01*
X107614872Y-86624999D01*
X107600264Y-86604839D01*
X107403423Y-86382762D01*
X107252268Y-86201376D01*
X107236854Y-86185827D01*
X107216381Y-86171661D01*
X106667741Y-85866861D01*
X106636866Y-85854671D01*
X106027266Y-85702271D01*
X106013170Y-85699583D01*
X105988287Y-85698742D01*
X105515847Y-85729222D01*
X105484955Y-85735118D01*
X105462130Y-85745062D01*
X105441685Y-85759268D01*
X105424403Y-85777189D01*
X105251683Y-85995629D01*
X105236356Y-86020399D01*
X105228030Y-86043862D01*
X105224441Y-86068498D01*
X102100104Y-86068498D01*
X102100104Y-85962639D01*
X102099062Y-85946401D01*
X102093473Y-85922140D01*
X102083260Y-85899435D01*
X102068812Y-85879159D01*
X102050687Y-85862091D01*
X102029581Y-85848888D01*
X102006304Y-85840055D01*
X101518624Y-85707975D01*
X101489801Y-85703634D01*
X101047841Y-85688394D01*
X101035781Y-85688552D01*
X100365221Y-85729192D01*
X100332179Y-85735666D01*
X100309493Y-85745922D01*
X100009773Y-85918642D01*
X99982308Y-85939963D01*
X99966747Y-85959396D01*
X99955275Y-85981493D01*
X99948335Y-86005402D01*
X99892455Y-86305122D01*
X99890362Y-86332228D01*
X97418202Y-86332228D01*
X97800791Y-85913410D01*
X98059160Y-85728861D01*
X98740176Y-85496974D01*
X98896798Y-85471249D01*
X99023241Y-85496400D01*
X99198359Y-85496400D01*
X99370112Y-85462236D01*
X99531899Y-85395221D01*
X99588035Y-85357712D01*
X100306508Y-85239702D01*
X101244211Y-85095634D01*
X102032716Y-85024871D01*
X102033231Y-85024823D01*
X102818091Y-84951163D01*
X102818129Y-84951160D01*
X103599771Y-84877564D01*
X105148711Y-84748085D01*
X105242901Y-84811021D01*
X105242901Y-84811021D01*
G37*
X105242901Y-84811021D02*
X105404688Y-84878036D01*
X105576441Y-84912200D01*
X105751559Y-84912200D01*
X105923312Y-84878036D01*
X106038134Y-84830475D01*
X106139713Y-84846102D01*
X106142857Y-84846546D01*
X106611063Y-84906637D01*
X107015871Y-85003597D01*
X107159348Y-85071236D01*
X107456622Y-85501437D01*
X107470527Y-85518260D01*
X108196967Y-86257400D01*
X108203598Y-86263679D01*
X108907178Y-86883439D01*
X108910066Y-86885907D01*
X109905259Y-87711003D01*
X110837880Y-88499170D01*
X111806117Y-89376635D01*
X112287178Y-89927126D01*
X112622303Y-90467730D01*
X112806851Y-90997406D01*
X112822845Y-91527501D01*
X112484512Y-92048905D01*
X112174939Y-92300433D01*
X112166217Y-92308211D01*
X111468168Y-92991030D01*
X110684914Y-93741331D01*
X109307701Y-94997471D01*
X108447963Y-95536042D01*
X107489642Y-95824278D01*
X106368826Y-95906289D01*
X103931178Y-95669330D01*
X101175784Y-95054490D01*
X99726510Y-94654865D01*
X98112448Y-94120223D01*
X96490592Y-93558519D01*
X94080585Y-92467195D01*
X93431042Y-92059687D01*
X92851278Y-91499915D01*
X92831758Y-91484461D01*
X92809599Y-91473112D01*
X92783648Y-91465958D01*
X92257868Y-91379598D01*
X92233024Y-91377990D01*
X92208343Y-91381261D01*
X92174582Y-91394477D01*
X91780882Y-91617997D01*
X91760540Y-91632352D01*
X91743390Y-91650399D01*
X91732822Y-91666304D01*
X91674402Y-91770444D01*
X91664408Y-91793247D01*
X91659055Y-91817561D01*
X91658192Y-91835262D01*
X91665812Y-92195942D01*
X91668775Y-92220661D01*
X91676504Y-92244327D01*
X91688636Y-92265938D01*
X91935016Y-92618998D01*
X91951196Y-92637920D01*
X91966065Y-92650173D01*
X92557885Y-93066733D01*
X92574188Y-93076471D01*
X93595268Y-93587011D01*
X93604840Y-93591312D01*
X94498920Y-93949452D01*
X94499862Y-93949825D01*
X97781957Y-95234233D01*
X101231721Y-96729385D01*
X101248040Y-96735172D01*
X102411360Y-97060292D01*
X102426584Y-97063556D01*
X103721984Y-97259136D01*
X103734642Y-97260403D01*
X105319602Y-97339143D01*
X105323674Y-97339279D01*
X108355818Y-97392519D01*
X108751112Y-97435051D01*
X108961022Y-97458636D01*
X109072330Y-97500905D01*
X109056405Y-97522323D01*
X108926436Y-97678285D01*
X107937155Y-98499338D01*
X107143863Y-99091797D01*
X106296786Y-99564872D01*
X105689675Y-99722092D01*
X104956645Y-99734474D01*
X103695132Y-99681702D01*
X102461381Y-99435955D01*
X101318610Y-99086075D01*
X99775332Y-98491534D01*
X98867489Y-98107154D01*
X95643741Y-96604431D01*
X95643597Y-96604364D01*
X94315177Y-95987144D01*
X94311051Y-95985315D01*
X92908971Y-95393495D01*
X92902860Y-95391100D01*
X91739540Y-94969460D01*
X91739230Y-94969348D01*
X90916681Y-94673628D01*
X90714134Y-94520540D01*
X90576925Y-94414822D01*
X90532902Y-94346786D01*
X90532903Y-94346786D01*
X90186032Y-93810489D01*
X90133054Y-93603183D01*
X90046990Y-93236146D01*
X90046367Y-93233608D01*
X89739152Y-92034966D01*
X89653205Y-90993780D01*
X89905325Y-90204120D01*
X90497498Y-89616742D01*
X91486543Y-89086277D01*
X94790029Y-87890537D01*
X94798563Y-87887093D01*
X96170163Y-87274953D01*
X96187975Y-87265228D01*
X97115075Y-86658168D01*
X97139271Y-86637574D01*
X97418202Y-86332228D01*
X99890362Y-86332228D01*
X99893548Y-86356920D01*
X99901490Y-86380515D01*
X100084370Y-86786915D01*
X100100593Y-86813606D01*
X100117881Y-86831521D01*
X100138332Y-86845719D01*
X100161160Y-86855655D01*
X100185487Y-86860946D01*
X100708727Y-86921906D01*
X100741560Y-86921457D01*
X100765734Y-86915504D01*
X101527734Y-86646264D01*
X101555103Y-86632697D01*
X102042783Y-86312657D01*
X102062907Y-86296282D01*
X102078701Y-86277036D01*
X102090437Y-86255080D01*
X102097664Y-86231255D01*
X102100104Y-86206479D01*
X102100104Y-86068498D01*
X105224441Y-86068498D01*
X105225728Y-86093361D01*
X105231840Y-86117496D01*
X105242543Y-86139974D01*
X105257426Y-86159932D01*
X105465706Y-86388532D01*
X105490778Y-86409745D01*
X105512925Y-86421117D01*
X105536866Y-86427950D01*
X105686977Y-86455243D01*
X106046528Y-86632743D01*
X106272578Y-86920015D01*
X106281506Y-86930193D01*
X106698066Y-87356913D01*
X106711734Y-87369034D01*
X106732890Y-87382159D01*
X106756199Y-87390905D01*
X106780767Y-87394936D01*
X107253207Y-87425416D01*
X107277820Y-87424611D01*
X107302072Y-87418985D01*
X107324761Y-87408735D01*
X107345014Y-87394256D01*
X107629494Y-87145336D01*
X107645157Y-87128942D01*
X107658697Y-87108049D01*
X107667901Y-87084917D01*
X107672415Y-87060433D01*
X107672065Y-87035539D01*
X107631425Y-86674859D01*
X107625267Y-86647622D01*
X107614872Y-86624999D01*
X107600264Y-86604839D01*
X107403423Y-86382762D01*
X107252268Y-86201376D01*
X107236854Y-86185827D01*
X107216381Y-86171661D01*
X106667741Y-85866861D01*
X106636866Y-85854671D01*
X106027266Y-85702271D01*
X106013170Y-85699583D01*
X105988287Y-85698742D01*
X105515847Y-85729222D01*
X105484955Y-85735118D01*
X105462130Y-85745062D01*
X105441685Y-85759268D01*
X105424403Y-85777189D01*
X105251683Y-85995629D01*
X105236356Y-86020399D01*
X105228030Y-86043862D01*
X105224441Y-86068498D01*
X102100104Y-86068498D01*
X102100104Y-85962639D01*
X102099062Y-85946401D01*
X102093473Y-85922140D01*
X102083260Y-85899435D01*
X102068812Y-85879159D01*
X102050687Y-85862091D01*
X102029581Y-85848888D01*
X102006304Y-85840055D01*
X101518624Y-85707975D01*
X101489801Y-85703634D01*
X101047841Y-85688394D01*
X101035781Y-85688552D01*
X100365221Y-85729192D01*
X100332179Y-85735666D01*
X100309493Y-85745922D01*
X100009773Y-85918642D01*
X99982308Y-85939963D01*
X99966747Y-85959396D01*
X99955275Y-85981493D01*
X99948335Y-86005402D01*
X99892455Y-86305122D01*
X99890362Y-86332228D01*
X97418202Y-86332228D01*
X97800791Y-85913410D01*
X98059160Y-85728861D01*
X98740176Y-85496974D01*
X98896798Y-85471249D01*
X99023241Y-85496400D01*
X99198359Y-85496400D01*
X99370112Y-85462236D01*
X99531899Y-85395221D01*
X99588035Y-85357712D01*
X100306508Y-85239702D01*
X101244211Y-85095634D01*
X102032716Y-85024871D01*
X102033231Y-85024823D01*
X102818091Y-84951163D01*
X102818129Y-84951160D01*
X103599771Y-84877564D01*
X105148711Y-84748085D01*
X105242901Y-84811021D01*
G36*
X80243483Y-140803313D02*
X80862157Y-141250661D01*
X81384234Y-142199669D01*
X81707956Y-143459697D01*
X81868924Y-145154894D01*
X81861395Y-145724621D01*
X81861387Y-145725480D01*
X81853796Y-146902102D01*
X81762820Y-148082268D01*
X81649041Y-149204879D01*
X81319506Y-151260671D01*
X81040194Y-152916231D01*
X81038973Y-152925568D01*
X80965313Y-153715508D01*
X80964978Y-153719935D01*
X80906558Y-154725775D01*
X80906344Y-154733139D01*
X80906344Y-155683099D01*
X80906370Y-155685670D01*
X80939390Y-157316350D01*
X80939480Y-157319210D01*
X81030920Y-159455350D01*
X81031036Y-159457590D01*
X81334990Y-164480426D01*
X81212752Y-165241294D01*
X81212631Y-165242058D01*
X81107136Y-165925264D01*
X80981154Y-166371045D01*
X80582946Y-167091262D01*
X79882839Y-167913019D01*
X78830626Y-168753782D01*
X78732331Y-168831972D01*
X77437910Y-169389912D01*
X75844757Y-169607501D01*
X75494674Y-169612432D01*
X74678530Y-169587320D01*
X73975875Y-169492970D01*
X73306666Y-169295418D01*
X72580729Y-168947366D01*
X72271925Y-168753118D01*
X72271712Y-168752984D01*
X72020465Y-168595637D01*
X71840492Y-168481570D01*
X71837188Y-168479546D01*
X71717480Y-168408698D01*
X71480664Y-168239188D01*
X71480561Y-168239115D01*
X71267201Y-168086715D01*
X71266530Y-168086239D01*
X71043010Y-167928759D01*
X71041813Y-167927926D01*
X71001504Y-167900213D01*
X70944026Y-167860229D01*
X70597933Y-167612658D01*
X70291818Y-167382440D01*
X70291733Y-167382376D01*
X69445913Y-166747376D01*
X69445287Y-166746909D01*
X67502187Y-165306729D01*
X67498666Y-165304211D01*
X66099126Y-164339011D01*
X66094334Y-164335863D01*
X65383134Y-163891363D01*
X65382732Y-163891113D01*
X64768052Y-163510113D01*
X64755863Y-163503452D01*
X62447003Y-162401092D01*
X62437610Y-162397063D01*
X61673070Y-162104963D01*
X61669730Y-162103740D01*
X60372048Y-161649171D01*
X59285186Y-161263182D01*
X59283296Y-161262527D01*
X58676499Y-161057733D01*
X57717061Y-160683071D01*
X56557907Y-160219916D01*
X55167966Y-159561523D01*
X54189391Y-158964892D01*
X53427441Y-158245134D01*
X52807027Y-157408816D01*
X52458489Y-156647922D01*
X52406479Y-156364037D01*
X52628911Y-155733814D01*
X53314112Y-155082510D01*
X54437431Y-154452356D01*
X55944000Y-153884553D01*
X57345195Y-153379412D01*
X57346857Y-153378800D01*
X57583077Y-153289900D01*
X57599471Y-153282360D01*
X58737391Y-152657520D01*
X58762094Y-152639806D01*
X59618074Y-151854946D01*
X59638600Y-151830747D01*
X60306620Y-150807127D01*
X60315281Y-150791571D01*
X60521021Y-150352151D01*
X60526241Y-150339190D01*
X60909781Y-149211430D01*
X60914446Y-149193527D01*
X61143046Y-147951467D01*
X61144556Y-147940686D01*
X61258856Y-146757046D01*
X61259435Y-146743290D01*
X61249279Y-145910461D01*
X61246741Y-145560279D01*
X61245865Y-145546285D01*
X61130200Y-144568162D01*
X61161903Y-143766288D01*
X61567634Y-143037764D01*
X62484670Y-142564992D01*
X63384275Y-142593856D01*
X64339747Y-142894147D01*
X65145548Y-143235253D01*
X66111981Y-144021419D01*
X66861075Y-144633391D01*
X66874768Y-144643141D01*
X67517388Y-145039381D01*
X67517426Y-145039404D01*
X68589306Y-145699804D01*
X68591327Y-145701023D01*
X69416827Y-146188703D01*
X69435157Y-146197631D01*
X70415597Y-146581171D01*
X70426610Y-146584908D01*
X71437530Y-146877008D01*
X71472784Y-146881999D01*
X72651344Y-146881999D01*
X72677109Y-146879358D01*
X73596589Y-146688858D01*
X73628907Y-146677439D01*
X75051307Y-145945919D01*
X75075938Y-145929350D01*
X76348478Y-144837150D01*
X76367322Y-144817036D01*
X77462062Y-143359076D01*
X77474391Y-143339023D01*
X78526430Y-141207260D01*
X79024930Y-140722737D01*
X79625958Y-140633611D01*
X80243483Y-140803313D01*
X80243483Y-140803313D01*
G37*
X80243483Y-140803313D02*
X80862157Y-141250661D01*
X81384234Y-142199669D01*
X81707956Y-143459697D01*
X81868924Y-145154894D01*
X81861395Y-145724621D01*
X81861387Y-145725480D01*
X81853796Y-146902102D01*
X81762820Y-148082268D01*
X81649041Y-149204879D01*
X81319506Y-151260671D01*
X81040194Y-152916231D01*
X81038973Y-152925568D01*
X80965313Y-153715508D01*
X80964978Y-153719935D01*
X80906558Y-154725775D01*
X80906344Y-154733139D01*
X80906344Y-155683099D01*
X80906370Y-155685670D01*
X80939390Y-157316350D01*
X80939480Y-157319210D01*
X81030920Y-159455350D01*
X81031036Y-159457590D01*
X81334990Y-164480426D01*
X81212752Y-165241294D01*
X81212631Y-165242058D01*
X81107136Y-165925264D01*
X80981154Y-166371045D01*
X80582946Y-167091262D01*
X79882839Y-167913019D01*
X78830626Y-168753782D01*
X78732331Y-168831972D01*
X77437910Y-169389912D01*
X75844757Y-169607501D01*
X75494674Y-169612432D01*
X74678530Y-169587320D01*
X73975875Y-169492970D01*
X73306666Y-169295418D01*
X72580729Y-168947366D01*
X72271925Y-168753118D01*
X72271712Y-168752984D01*
X72020465Y-168595637D01*
X71840492Y-168481570D01*
X71837188Y-168479546D01*
X71717480Y-168408698D01*
X71480664Y-168239188D01*
X71480561Y-168239115D01*
X71267201Y-168086715D01*
X71266530Y-168086239D01*
X71043010Y-167928759D01*
X71041813Y-167927926D01*
X71001504Y-167900213D01*
X70944026Y-167860229D01*
X70597933Y-167612658D01*
X70291818Y-167382440D01*
X70291733Y-167382376D01*
X69445913Y-166747376D01*
X69445287Y-166746909D01*
X67502187Y-165306729D01*
X67498666Y-165304211D01*
X66099126Y-164339011D01*
X66094334Y-164335863D01*
X65383134Y-163891363D01*
X65382732Y-163891113D01*
X64768052Y-163510113D01*
X64755863Y-163503452D01*
X62447003Y-162401092D01*
X62437610Y-162397063D01*
X61673070Y-162104963D01*
X61669730Y-162103740D01*
X60372048Y-161649171D01*
X59285186Y-161263182D01*
X59283296Y-161262527D01*
X58676499Y-161057733D01*
X57717061Y-160683071D01*
X56557907Y-160219916D01*
X55167966Y-159561523D01*
X54189391Y-158964892D01*
X53427441Y-158245134D01*
X52807027Y-157408816D01*
X52458489Y-156647922D01*
X52406479Y-156364037D01*
X52628911Y-155733814D01*
X53314112Y-155082510D01*
X54437431Y-154452356D01*
X55944000Y-153884553D01*
X57345195Y-153379412D01*
X57346857Y-153378800D01*
X57583077Y-153289900D01*
X57599471Y-153282360D01*
X58737391Y-152657520D01*
X58762094Y-152639806D01*
X59618074Y-151854946D01*
X59638600Y-151830747D01*
X60306620Y-150807127D01*
X60315281Y-150791571D01*
X60521021Y-150352151D01*
X60526241Y-150339190D01*
X60909781Y-149211430D01*
X60914446Y-149193527D01*
X61143046Y-147951467D01*
X61144556Y-147940686D01*
X61258856Y-146757046D01*
X61259435Y-146743290D01*
X61249279Y-145910461D01*
X61246741Y-145560279D01*
X61245865Y-145546285D01*
X61130200Y-144568162D01*
X61161903Y-143766288D01*
X61567634Y-143037764D01*
X62484670Y-142564992D01*
X63384275Y-142593856D01*
X64339747Y-142894147D01*
X65145548Y-143235253D01*
X66111981Y-144021419D01*
X66861075Y-144633391D01*
X66874768Y-144643141D01*
X67517388Y-145039381D01*
X67517426Y-145039404D01*
X68589306Y-145699804D01*
X68591327Y-145701023D01*
X69416827Y-146188703D01*
X69435157Y-146197631D01*
X70415597Y-146581171D01*
X70426610Y-146584908D01*
X71437530Y-146877008D01*
X71472784Y-146881999D01*
X72651344Y-146881999D01*
X72677109Y-146879358D01*
X73596589Y-146688858D01*
X73628907Y-146677439D01*
X75051307Y-145945919D01*
X75075938Y-145929350D01*
X76348478Y-144837150D01*
X76367322Y-144817036D01*
X77462062Y-143359076D01*
X77474391Y-143339023D01*
X78526430Y-141207260D01*
X79024930Y-140722737D01*
X79625958Y-140633611D01*
X80243483Y-140803313D01*
G36*
X131004996Y-137962973D02*
X131847096Y-138317928D01*
X132431687Y-138700255D01*
X132800881Y-139027607D01*
X133197449Y-139458875D01*
X133585374Y-140005948D01*
X133868796Y-140503786D01*
X134002643Y-140880992D01*
X134127145Y-141383980D01*
X134255553Y-142101553D01*
X134262768Y-142152058D01*
X134293154Y-142382483D01*
X134315961Y-142559874D01*
X134315984Y-142560051D01*
X134349004Y-142814051D01*
X134349047Y-142814380D01*
X134382067Y-143063300D01*
X134384328Y-143075635D01*
X134462960Y-143410456D01*
X134531483Y-143709926D01*
X134531690Y-143710812D01*
X134630750Y-144129912D01*
X134633799Y-144140674D01*
X134961459Y-145128734D01*
X134966205Y-145140909D01*
X135288785Y-145857189D01*
X135295620Y-145870276D01*
X135765520Y-146655136D01*
X135781021Y-146675885D01*
X136306801Y-147247385D01*
X136325372Y-147263967D01*
X136336906Y-147271466D01*
X136941426Y-147619446D01*
X136972082Y-147632096D01*
X137896642Y-147878476D01*
X137915437Y-147881995D01*
X139114317Y-148014075D01*
X139124625Y-148014788D01*
X140737525Y-148060508D01*
X140741124Y-148060559D01*
X142724406Y-148060559D01*
X143842677Y-148113450D01*
X144475770Y-148208781D01*
X144853926Y-148386604D01*
X145026670Y-148643614D01*
X145089904Y-149065174D01*
X145099397Y-149364202D01*
X145040883Y-149683593D01*
X145040720Y-149684505D01*
X145008917Y-149865537D01*
X144932236Y-150127737D01*
X144778051Y-150645898D01*
X144720578Y-150815820D01*
X144545524Y-151318149D01*
X144434321Y-151636593D01*
X143990431Y-152805927D01*
X143989639Y-152808073D01*
X143565459Y-153989173D01*
X143560866Y-154005197D01*
X143225586Y-155552057D01*
X143223492Y-155564831D01*
X143147292Y-156245551D01*
X143146562Y-156255832D01*
X143118622Y-157177852D01*
X143119226Y-157194647D01*
X143203046Y-158012527D01*
X143207035Y-158033635D01*
X143344195Y-158526395D01*
X143345405Y-158530475D01*
X143388352Y-158666894D01*
X143444006Y-158851565D01*
X143450829Y-158869286D01*
X143632836Y-159253523D01*
X143708216Y-159426897D01*
X143709254Y-159429221D01*
X143808314Y-159645121D01*
X143809129Y-159646862D01*
X143915809Y-159870382D01*
X143919824Y-159878102D01*
X144531964Y-160962682D01*
X144534403Y-160966819D01*
X144574931Y-161032677D01*
X144645575Y-161148735D01*
X144927362Y-161618380D01*
X144927844Y-161619175D01*
X145081853Y-161871648D01*
X145403978Y-162434753D01*
X145468824Y-162733880D01*
X145320056Y-163018663D01*
X145056306Y-163305754D01*
X144661732Y-163548203D01*
X143507585Y-163943767D01*
X140482489Y-164788157D01*
X134825109Y-166212659D01*
X127128318Y-168114637D01*
X121075299Y-169449601D01*
X118924862Y-169802959D01*
X117390702Y-169802959D01*
X116322545Y-169546404D01*
X115241542Y-168941733D01*
X114359357Y-168032366D01*
X113589068Y-166648837D01*
X113106559Y-165093807D01*
X113046874Y-164496962D01*
X113046428Y-164493105D01*
X112915959Y-163497025D01*
X113031157Y-161711452D01*
X113457571Y-160171346D01*
X113869671Y-159143609D01*
X114490286Y-157887243D01*
X115106902Y-156838489D01*
X115994523Y-155410687D01*
X117103302Y-153692969D01*
X120993120Y-147886171D01*
X123779716Y-143944838D01*
X124851773Y-142543307D01*
X125548747Y-141676525D01*
X126293222Y-140775052D01*
X126883164Y-140122082D01*
X127817522Y-139202794D01*
X129120925Y-138303895D01*
X130156401Y-137926913D01*
X131004996Y-137962973D01*
X131004996Y-137962973D01*
G37*
X131004996Y-137962973D02*
X131847096Y-138317928D01*
X132431687Y-138700255D01*
X132800881Y-139027607D01*
X133197449Y-139458875D01*
X133585374Y-140005948D01*
X133868796Y-140503786D01*
X134002643Y-140880992D01*
X134127145Y-141383980D01*
X134255553Y-142101553D01*
X134262768Y-142152058D01*
X134293154Y-142382483D01*
X134315961Y-142559874D01*
X134315984Y-142560051D01*
X134349004Y-142814051D01*
X134349047Y-142814380D01*
X134382067Y-143063300D01*
X134384328Y-143075635D01*
X134462960Y-143410456D01*
X134531483Y-143709926D01*
X134531690Y-143710812D01*
X134630750Y-144129912D01*
X134633799Y-144140674D01*
X134961459Y-145128734D01*
X134966205Y-145140909D01*
X135288785Y-145857189D01*
X135295620Y-145870276D01*
X135765520Y-146655136D01*
X135781021Y-146675885D01*
X136306801Y-147247385D01*
X136325372Y-147263967D01*
X136336906Y-147271466D01*
X136941426Y-147619446D01*
X136972082Y-147632096D01*
X137896642Y-147878476D01*
X137915437Y-147881995D01*
X139114317Y-148014075D01*
X139124625Y-148014788D01*
X140737525Y-148060508D01*
X140741124Y-148060559D01*
X142724406Y-148060559D01*
X143842677Y-148113450D01*
X144475770Y-148208781D01*
X144853926Y-148386604D01*
X145026670Y-148643614D01*
X145089904Y-149065174D01*
X145099397Y-149364202D01*
X145040883Y-149683593D01*
X145040720Y-149684505D01*
X145008917Y-149865537D01*
X144932236Y-150127737D01*
X144778051Y-150645898D01*
X144720578Y-150815820D01*
X144545524Y-151318149D01*
X144434321Y-151636593D01*
X143990431Y-152805927D01*
X143989639Y-152808073D01*
X143565459Y-153989173D01*
X143560866Y-154005197D01*
X143225586Y-155552057D01*
X143223492Y-155564831D01*
X143147292Y-156245551D01*
X143146562Y-156255832D01*
X143118622Y-157177852D01*
X143119226Y-157194647D01*
X143203046Y-158012527D01*
X143207035Y-158033635D01*
X143344195Y-158526395D01*
X143345405Y-158530475D01*
X143388352Y-158666894D01*
X143444006Y-158851565D01*
X143450829Y-158869286D01*
X143632836Y-159253523D01*
X143708216Y-159426897D01*
X143709254Y-159429221D01*
X143808314Y-159645121D01*
X143809129Y-159646862D01*
X143915809Y-159870382D01*
X143919824Y-159878102D01*
X144531964Y-160962682D01*
X144534403Y-160966819D01*
X144574931Y-161032677D01*
X144645575Y-161148735D01*
X144927362Y-161618380D01*
X144927844Y-161619175D01*
X145081853Y-161871648D01*
X145403978Y-162434753D01*
X145468824Y-162733880D01*
X145320056Y-163018663D01*
X145056306Y-163305754D01*
X144661732Y-163548203D01*
X143507585Y-163943767D01*
X140482489Y-164788157D01*
X134825109Y-166212659D01*
X127128318Y-168114637D01*
X121075299Y-169449601D01*
X118924862Y-169802959D01*
X117390702Y-169802959D01*
X116322545Y-169546404D01*
X115241542Y-168941733D01*
X114359357Y-168032366D01*
X113589068Y-166648837D01*
X113106559Y-165093807D01*
X113046874Y-164496962D01*
X113046428Y-164493105D01*
X112915959Y-163497025D01*
X113031157Y-161711452D01*
X113457571Y-160171346D01*
X113869671Y-159143609D01*
X114490286Y-157887243D01*
X115106902Y-156838489D01*
X115994523Y-155410687D01*
X117103302Y-153692969D01*
X120993120Y-147886171D01*
X123779716Y-143944838D01*
X124851773Y-142543307D01*
X125548747Y-141676525D01*
X126293222Y-140775052D01*
X126883164Y-140122082D01*
X127817522Y-139202794D01*
X129120925Y-138303895D01*
X130156401Y-137926913D01*
X131004996Y-137962973D01*
G36*
X110843060Y-137538247D02*
X110843060Y-138584940D01*
X108074213Y-138584940D01*
X108072168Y-137533594D01*
X110843060Y-137538247D01*
X110843060Y-137538247D01*
G37*
X110843060Y-137538247D02*
X110843060Y-138584940D01*
X108074213Y-138584940D01*
X108072168Y-137533594D01*
X110843060Y-137538247D01*
G36*
X95249817Y-80967854D02*
X95316476Y-81015468D01*
X95170144Y-81308133D01*
X94776669Y-81726199D01*
X94344869Y-82183399D01*
X94340522Y-82188245D01*
X93756322Y-82874045D01*
X93742113Y-82894488D01*
X93735083Y-82909233D01*
X93531883Y-83417233D01*
X93523430Y-83451763D01*
X93475996Y-83926108D01*
X93374768Y-84067826D01*
X93371368Y-84071226D01*
X93340193Y-84086814D01*
X93100405Y-83986902D01*
X92988895Y-83912562D01*
X92910977Y-83737247D01*
X92887800Y-83459121D01*
X92887800Y-83150629D01*
X93007272Y-82696636D01*
X93250691Y-82209797D01*
X93446230Y-81940932D01*
X93815735Y-81472892D01*
X94318954Y-81089487D01*
X94902540Y-80902740D01*
X95249817Y-80967854D01*
X95249817Y-80967854D01*
G37*
X95249817Y-80967854D02*
X95316476Y-81015468D01*
X95170144Y-81308133D01*
X94776669Y-81726199D01*
X94344869Y-82183399D01*
X94340522Y-82188245D01*
X93756322Y-82874045D01*
X93742113Y-82894488D01*
X93735083Y-82909233D01*
X93531883Y-83417233D01*
X93523430Y-83451763D01*
X93475996Y-83926108D01*
X93374768Y-84067826D01*
X93371368Y-84071226D01*
X93340193Y-84086814D01*
X93100405Y-83986902D01*
X92988895Y-83912562D01*
X92910977Y-83737247D01*
X92887800Y-83459121D01*
X92887800Y-83150629D01*
X93007272Y-82696636D01*
X93250691Y-82209797D01*
X93446230Y-81940932D01*
X93815735Y-81472892D01*
X94318954Y-81089487D01*
X94902540Y-80902740D01*
X95249817Y-80967854D01*
G36*
X109485786Y-81532782D02*
X109380637Y-81869258D01*
X109079289Y-82522180D01*
X109078546Y-82523820D01*
X108570546Y-83666820D01*
X108567246Y-83674999D01*
X108467027Y-83950601D01*
X108305772Y-84319184D01*
X108107206Y-84451561D01*
X108051600Y-84326449D01*
X108051600Y-83678111D01*
X108175689Y-82933578D01*
X108324196Y-82413804D01*
X108541931Y-81881563D01*
X108718591Y-81682821D01*
X109082020Y-81455677D01*
X109413341Y-81436188D01*
X109485786Y-81532782D01*
X109485786Y-81532782D01*
G37*
X109485786Y-81532782D02*
X109380637Y-81869258D01*
X109079289Y-82522180D01*
X109078546Y-82523820D01*
X108570546Y-83666820D01*
X108567246Y-83674999D01*
X108467027Y-83950601D01*
X108305772Y-84319184D01*
X108107206Y-84451561D01*
X108051600Y-84326449D01*
X108051600Y-83678111D01*
X108175689Y-82933578D01*
X108324196Y-82413804D01*
X108541931Y-81881563D01*
X108718591Y-81682821D01*
X109082020Y-81455677D01*
X109413341Y-81436188D01*
X109485786Y-81532782D01*
M02*
