M48
;DRILL file {KiCad (2018-02-05 revision d1a45d147)-makepkg} date 11/12/19 11:54:20
;FORMAT={-:-/ absolute / inch / decimal}
FMAT,2
INCH,TZ
T1C0.0100
%
G90
G05
M72
T1
X2.6448Y-5.4802
X2.7361Y-5.1361
X2.7791Y-4.6439
X2.8354Y-4.8455
X2.8449Y-5.3557
X2.8688Y-4.6866
X2.8958Y-5.5358
X2.8961Y-5.4428
X2.9581Y-4.6439
X3.312Y-3.482
X3.32Y-3.17
X3.32Y-3.335
X3.321Y-3.012
X3.326Y-3.774
X3.3519Y-4.1995
X3.352Y-3.9968
X3.36Y-3.651
X3.4Y-6.546
X3.401Y-6.574
X3.417Y-5.843
X3.4198Y-5.1914
X3.4235Y-4.9437
X3.425Y-4.845
X3.43Y-3.532
X3.43Y-3.832
X3.431Y-3.227
X3.435Y-6.43
X3.435Y-6.486
X3.436Y-3.614
X3.438Y-3.01
X3.438Y-3.334
X3.4688Y-5.1915
X3.4693Y-4.2471
X3.47Y-6.43
X3.47Y-6.486
X3.47Y-6.574
X3.4703Y-4.99
X3.471Y-6.546
X3.4798Y-6.1854
X3.52Y-4.99
X3.5221Y-6.37
X3.545Y-4.837
X3.5519Y-6.37
X3.567Y-6.288
X3.5677Y-5.1923
X3.57Y-5.59
X3.57Y-5.64
X3.587Y-3.33
X3.601Y-6.399
X3.6207Y-5.141
X3.6208Y-5.0386
X3.6208Y-5.09
X3.6208Y-5.3407
X3.6208Y-5.1907
X3.6209Y-5.3901
X3.621Y-5.2896
X3.621Y-5.44
X3.621Y-5.489
X3.621Y-5.54
X3.621Y-5.59
X3.621Y-5.64
X3.6214Y-5.2406
X3.629Y-6.546
X3.629Y-6.574
X3.63Y-6.43
X3.63Y-6.486
X3.6432Y-3.4455
X3.6479Y-6.2695
X3.6559Y-4.6849
X3.664Y-6.43
X3.664Y-6.486
X3.6698Y-5.09
X3.6699Y-5.2892
X3.67Y-5.3407
X3.67Y-5.59
X3.6701Y-5.0384
X3.7Y-6.546
X3.7Y-6.574
X3.719Y-5.139
X3.72Y-4.789
X3.72Y-5.437
X3.721Y-5.59
X3.74Y-2.933
X3.74Y-3.088
X3.7521Y-4.1984
X3.7522Y-3.997
X3.76Y-2.954
X3.76Y-3.113
X3.7664Y-4.6801
X3.77Y-5.088
X3.771Y-5.59
X3.78Y-2.974
X3.819Y-5.139
X3.82Y-5.24
X3.82Y-5.289
X3.82Y-5.34
X3.82Y-5.439
X3.82Y-5.489
X3.82Y-5.59
X3.82Y-5.79
X3.8201Y-5.3896
X3.8683Y-4.2482
X3.8694Y-5.3899
X3.8695Y-5.2894
X3.87Y-5.088
X3.87Y-5.439
X3.87Y-5.79
X3.8701Y-5.2402
X3.871Y-5.038
X3.871Y-5.59
X3.902Y-3.331
X3.92Y-5.038
X3.92Y-5.09
X3.92Y-5.439
X3.92Y-5.489
X3.92Y-5.539
X3.92Y-5.59
X3.92Y-5.79
X3.94Y-6.546
X3.941Y-6.574
X3.97Y-5.038
X3.97Y-5.09
X3.97Y-5.59
X3.97Y-5.79
X3.975Y-6.43
X3.975Y-6.486
X3.992Y-4.599
X3.992Y-6.267
X4.01Y-6.43
X4.01Y-6.486
X4.01Y-6.574
X4.011Y-4.581
X4.011Y-6.546
X4.02Y-5.038
X4.02Y-5.09
X4.02Y-5.59
X4.05Y-4.496
X4.0621Y-6.37
X4.07Y-4.479
X4.07Y-4.94
X4.07Y-5.038
X4.07Y-5.09
X4.07Y-5.14
X4.07Y-5.489
X4.07Y-5.539
X4.07Y-5.59
X4.09Y-4.496
X4.09Y-4.607
X4.0919Y-6.37
X4.1067Y-6.2867
X4.109Y-4.479
X4.12Y-4.94
X4.12Y-5.038
X4.12Y-5.09
X4.12Y-5.14
X4.12Y-5.189
X4.12Y-5.39
X4.12Y-5.441
X4.12Y-5.539
X4.12Y-5.59
X4.121Y-5.24
X4.121Y-5.29
X4.141Y-6.4
X4.144Y-4.597
X4.16Y-3.308
X4.164Y-4.58
X4.164Y-4.705
X4.169Y-6.546
X4.169Y-6.574
X4.17Y-4.94
X4.17Y-5.038
X4.17Y-5.09
X4.17Y-5.14
X4.17Y-5.189
X4.17Y-5.24
X4.17Y-5.29
X4.17Y-5.341
X4.17Y-5.39
X4.17Y-5.441
X4.17Y-5.489
X4.17Y-5.539
X4.17Y-5.59
X4.17Y-5.64
X4.17Y-6.43
X4.17Y-6.486
X4.172Y-5.977
X4.1745Y-4.4205
X4.1871Y-6.2701
X4.203Y-4.58
X4.204Y-6.43
X4.204Y-6.486
X4.22Y-4.94
X4.22Y-5.038
X4.22Y-5.09
X4.22Y-5.14
X4.22Y-5.59
X4.22Y-5.64
X4.236Y-4.49
X4.236Y-4.602
X4.24Y-6.546
X4.24Y-6.574
X4.256Y-4.473
X4.2563Y-4.62
X4.2689Y-5.4373
X4.2701Y-5.9799
X4.2713Y-5.6399
X4.2716Y-5.3405
X4.276Y-4.49
X4.295Y-4.473
X4.296Y-2.933
X4.296Y-3.088
X4.296Y-4.602
X4.316Y-2.954
X4.316Y-3.113
X4.3175Y-5.0422
X4.3198Y-5.9799
X4.328Y-3.9942
X4.3299Y-4.2018
X4.336Y-2.974
X4.352Y-4.811
X4.3701Y-5.98
X4.3714Y-5.0883
X4.4132Y-5.6403
X4.415Y-4.845
X4.415Y-5.835
X4.418Y-5.588
X4.429Y-5.715
X4.4297Y-6.1264
X4.4417Y-5.6021
X4.4434Y-5.9018
X4.464Y-5.586
X4.466Y-3.309
X4.4711Y-5.9721
X4.478Y-5.2411
X4.49Y-6.067
X4.505Y-5.4
X4.5452Y-6.0843
X4.5518Y-5.9419
X4.568Y-5.602
X4.568Y-5.662
X4.568Y-5.722
X4.568Y-5.782
X4.5858Y-5.2088
X4.59Y-5.3104
X4.6085Y-6.7816
X4.6655Y-5.5937
X4.6845Y-5.346
X4.7043Y-5.0619
X4.731Y-5.4
X4.7356Y-5.127
X4.771Y-5.241
X4.771Y-5.281
X4.887Y-5.1
X4.9229Y-5.4778
X4.9496Y-5.2183
X4.9621Y-5.2436
X4.988Y-5.46
X5.221Y-6.6076
T0
M30
