G04 #@! TF.GenerationSoftware,KiCad,Pcbnew,(2018-02-05 revision d1a45d147)-makepkg*
G04 #@! TF.CreationDate,2019-11-12T11:54:18-08:00*
G04 #@! TF.ProjectId,lichen-badge,6C696368656E2D62616467652E6B6963,rev?*
G04 #@! TF.SameCoordinates,Original*
G04 #@! TF.FileFunction,Copper,L3,Inr,Plane*
G04 #@! TF.FilePolarity,Positive*
%FSLAX46Y46*%
G04 Gerber Fmt 4.6, Leading zero omitted, Abs format (unit mm)*
G04 Created by KiCad (PCBNEW (2018-02-05 revision d1a45d147)-makepkg) date 11/12/19 11:54:18*
%MOMM*%
%LPD*%
G01*
G04 APERTURE LIST*
%ADD10C,0.508000*%
%ADD11C,0.152400*%
%ADD12C,0.254000*%
G04 APERTURE END LIST*
D10*
X105257600Y-116763800D03*
X105765600Y-116332000D03*
X109093000Y-113614200D03*
X108610400Y-114046000D03*
X90678000Y-141986000D03*
X91965781Y-130581399D03*
X101396800Y-116814600D03*
X101879400Y-116357400D03*
X91968323Y-131843779D03*
X91983560Y-133111240D03*
X91973400Y-134355840D03*
X91968320Y-135653780D03*
X91970860Y-136908540D03*
X93218000Y-135653780D03*
X93215460Y-134345680D03*
X98300540Y-133101080D03*
X98285300Y-134350760D03*
X98282760Y-136903460D03*
X97030540Y-136895840D03*
X91968320Y-129286000D03*
X93212920Y-129286000D03*
X91968320Y-127980440D03*
X93220540Y-127975360D03*
X95758000Y-129235200D03*
X98298000Y-129235200D03*
X100838000Y-127965200D03*
X102108000Y-127965200D03*
X102108000Y-129286000D03*
X100838000Y-129286000D03*
X99568000Y-129286000D03*
X91973400Y-138176000D03*
X91973400Y-139420600D03*
X91973400Y-140716000D03*
X91973400Y-141986000D03*
X93218000Y-141986000D03*
X94513400Y-141986000D03*
X95783400Y-141986000D03*
X97028000Y-141986000D03*
X98323400Y-141986000D03*
X99568000Y-141986000D03*
X99568000Y-140690600D03*
X99568000Y-139420600D03*
X99568000Y-138150600D03*
X97028000Y-133096000D03*
X97028000Y-134340600D03*
X97028000Y-135636000D03*
X97028000Y-138150600D03*
X98298000Y-138150600D03*
X91973400Y-143256000D03*
X90678000Y-143256000D03*
X100838000Y-141986000D03*
X102108000Y-141986000D03*
X103378000Y-141986000D03*
X104648000Y-141986000D03*
X104648000Y-140690600D03*
X103378000Y-140690600D03*
X103378000Y-139420600D03*
X105918000Y-139420600D03*
X105918000Y-140690600D03*
X105918000Y-138201400D03*
X104648000Y-138201400D03*
X104648000Y-136906000D03*
X105918000Y-136906000D03*
X105918000Y-135661400D03*
X105918000Y-134366000D03*
X104673400Y-134366000D03*
X104673400Y-133096000D03*
X105918000Y-133096000D03*
X105918000Y-131800600D03*
X105918000Y-130556000D03*
X105918000Y-129286000D03*
X104648000Y-129286000D03*
X104648000Y-130556000D03*
X104648000Y-131800600D03*
X103378000Y-130556000D03*
X103378000Y-129286000D03*
X103378000Y-127965200D03*
X104648000Y-127965200D03*
X105918000Y-127965200D03*
X107188000Y-127965200D03*
X107188000Y-129286000D03*
X107188000Y-130556000D03*
X105918000Y-141986000D03*
X107188000Y-141986000D03*
X107188000Y-143256000D03*
X105918000Y-143256000D03*
X102870000Y-114198400D03*
X103378000Y-113766600D03*
X103886000Y-114198400D03*
X104368600Y-113766600D03*
X86791800Y-148412200D03*
X86995000Y-123063000D03*
X112141000Y-123063000D03*
X112141000Y-148209000D03*
X121183400Y-133121400D03*
X121183400Y-134137400D03*
X113741200Y-133123940D03*
X116586000Y-134884160D03*
X118986300Y-135788400D03*
X119489220Y-128572260D03*
X125719840Y-132544820D03*
X126037340Y-133187440D03*
X70589140Y-117955060D03*
X72867520Y-119039640D03*
X75135740Y-117955060D03*
X88386920Y-157109160D03*
X85140800Y-101518720D03*
X95305880Y-101523800D03*
X92859860Y-118996460D03*
X95666320Y-118874300D03*
X85138260Y-106667300D03*
X95303340Y-106639360D03*
X109979460Y-106725720D03*
X109931200Y-101452680D03*
X90601800Y-159715200D03*
X91465400Y-162534600D03*
X105181400Y-162560000D03*
X98323400Y-127965200D03*
X99568000Y-127965200D03*
X104310180Y-159682180D03*
X106352340Y-159260540D03*
X92656660Y-159245300D03*
X105968800Y-151815800D03*
X69496940Y-130456940D03*
X72019160Y-123075700D03*
X67177920Y-139197080D03*
X73553320Y-140609320D03*
X73560940Y-138247120D03*
X72260460Y-136034780D03*
X115448080Y-154541220D03*
X112514380Y-155610560D03*
X113565940Y-151691340D03*
X112862360Y-149905720D03*
X108498640Y-135648700D03*
X108491020Y-143253460D03*
X125041660Y-139136120D03*
X87122000Y-97332800D03*
X87122000Y-89712800D03*
X87147400Y-81965800D03*
X87274400Y-91795600D03*
X87325200Y-84683600D03*
X87325200Y-76454000D03*
X103886000Y-117017874D03*
X103378000Y-125476000D03*
X104648000Y-125476000D03*
X105765600Y-119507000D03*
X105918000Y-125476000D03*
X107594400Y-116890800D03*
X107188000Y-125476000D03*
X109118400Y-116890800D03*
X106032300Y-112280700D03*
X108108940Y-117346920D03*
X106756200Y-116332000D03*
X107594400Y-114046000D03*
X108102400Y-113614200D03*
X97002600Y-130530600D03*
X94488000Y-138099800D03*
X97028000Y-139420600D03*
X120167400Y-137160000D03*
X114427000Y-137160000D03*
X116479320Y-132303520D03*
X120284240Y-130225800D03*
X115615720Y-150924260D03*
X111000540Y-151892000D03*
X109722920Y-151889460D03*
X108460540Y-151889460D03*
X116027200Y-146862800D03*
X116027200Y-145338800D03*
X116027200Y-143814800D03*
X116027200Y-142290800D03*
X108430060Y-138107420D03*
X112095280Y-143263620D03*
X114046000Y-154101800D03*
X112496600Y-145161000D03*
X107696000Y-166979600D03*
X100965000Y-164744400D03*
X105918000Y-164744400D03*
X101854000Y-164744400D03*
X107696000Y-166268400D03*
X101854000Y-163322000D03*
X101854000Y-166979600D03*
X105892600Y-166979600D03*
X100965000Y-163322000D03*
X100101400Y-166979600D03*
X105918000Y-163322000D03*
X106781600Y-163322000D03*
X105892600Y-166268400D03*
X100076000Y-166268400D03*
X101879400Y-166268400D03*
X106781600Y-164744400D03*
X92176600Y-166268400D03*
X92176600Y-166979600D03*
X93980000Y-166979600D03*
X93980000Y-166268400D03*
X88163400Y-166268400D03*
X86360000Y-166268400D03*
X88138000Y-166979600D03*
X86385400Y-166979600D03*
X93065600Y-164744400D03*
X93065600Y-163322000D03*
X92202000Y-163322000D03*
X92202000Y-164744400D03*
X88138000Y-164744400D03*
X87249000Y-164744400D03*
X88138000Y-163322000D03*
X87249000Y-163322000D03*
X117055900Y-172252640D03*
X132613400Y-167833040D03*
X86956900Y-125569980D03*
X88120224Y-107876340D03*
X101396800Y-159181800D03*
X89407986Y-126745988D03*
X90043000Y-122859800D03*
X124129800Y-129540000D03*
X94462600Y-130530600D03*
X94488000Y-121640600D03*
X92537280Y-87515700D03*
X88145620Y-126746000D03*
X98254818Y-107904280D03*
X94996000Y-78435200D03*
X91109800Y-84582000D03*
X99110800Y-84607400D03*
X95504000Y-79070200D03*
X105664000Y-84023200D03*
X109118400Y-78435200D03*
X109626400Y-79070200D03*
X113436400Y-84048600D03*
X97028000Y-147066000D03*
X89460800Y-161798000D03*
X98298000Y-147066000D03*
X90218800Y-161798000D03*
X99568000Y-147066000D03*
X103176800Y-161798000D03*
X100838000Y-147066000D03*
X103934800Y-161798000D03*
X112217215Y-141935191D03*
X113385600Y-141884366D03*
X112819180Y-142293340D03*
X126695200Y-138684000D03*
X110540800Y-122199400D03*
X118503700Y-142079980D03*
X88107520Y-131864100D03*
X86862918Y-131861560D03*
X96012000Y-75539600D03*
X110134400Y-75539600D03*
X85344000Y-92735400D03*
X95504000Y-75031600D03*
X109626400Y-75031600D03*
X84328000Y-84709000D03*
X94996000Y-74498200D03*
X109118400Y-74498200D03*
X84353400Y-76504800D03*
X109664500Y-128071880D03*
X84480400Y-95859600D03*
X111033560Y-129242820D03*
X84124800Y-88442800D03*
X90619580Y-131884420D03*
X84328000Y-80518000D03*
D11*
G36*
X103827737Y-60973634D02*
X105420797Y-61248641D01*
X105861651Y-61362937D01*
X108208455Y-62274895D01*
X110152265Y-63502048D01*
X111848694Y-65132287D01*
X113253800Y-67231335D01*
X114239908Y-69529783D01*
X114946547Y-72316535D01*
X115286885Y-75392092D01*
X115311840Y-76654792D01*
X115309312Y-79142766D01*
X114824496Y-92484115D01*
X114629005Y-96810297D01*
X114565918Y-98145210D01*
X114563149Y-98176898D01*
X114566212Y-98204838D01*
X114567643Y-98232912D01*
X114570552Y-98244433D01*
X114571846Y-98256240D01*
X114580303Y-98283053D01*
X114587182Y-98310300D01*
X114592278Y-98321023D01*
X114595854Y-98332361D01*
X114609385Y-98357019D01*
X114621443Y-98382391D01*
X114640432Y-98407897D01*
X115625792Y-99848039D01*
X116851543Y-101665274D01*
X116852168Y-101666413D01*
X116862617Y-101681692D01*
X116873067Y-101697184D01*
X116873903Y-101698194D01*
X118364878Y-103878276D01*
X118366091Y-103880424D01*
X118376039Y-103894595D01*
X118385936Y-103909066D01*
X118387541Y-103910980D01*
X120940344Y-107547402D01*
X120941409Y-107549244D01*
X120951727Y-107563618D01*
X120961978Y-107578220D01*
X120963377Y-107579847D01*
X124023180Y-111842348D01*
X124758700Y-112980654D01*
X125590740Y-114432353D01*
X126566866Y-116522621D01*
X127358124Y-118495758D01*
X127358282Y-118496297D01*
X127365440Y-118514003D01*
X127372724Y-118532167D01*
X127372989Y-118532677D01*
X129093056Y-122787449D01*
X129095126Y-122793722D01*
X129100483Y-122805819D01*
X129105479Y-122818178D01*
X129108566Y-122824073D01*
X130394527Y-125728185D01*
X130395708Y-125731562D01*
X130402545Y-125746291D01*
X130409180Y-125761276D01*
X130410958Y-125764418D01*
X131373501Y-127838171D01*
X133331437Y-132173966D01*
X133709211Y-133246747D01*
X133869216Y-134302301D01*
X133876616Y-136023946D01*
X133772351Y-137039925D01*
X133585122Y-137822021D01*
X133581679Y-137830481D01*
X133575852Y-137860747D01*
X133573326Y-137871297D01*
X133572086Y-137880305D01*
X133566588Y-137908860D01*
X133566655Y-137919758D01*
X133565168Y-137930558D01*
X133566899Y-137959583D01*
X133567077Y-137988674D01*
X133569271Y-137999358D01*
X133569919Y-138010232D01*
X133577278Y-138038361D01*
X133579108Y-138047272D01*
X133582321Y-138057635D01*
X133590122Y-138087451D01*
X133594113Y-138095667D01*
X134446350Y-140844260D01*
X134449038Y-140859150D01*
X134458133Y-140882261D01*
X134459574Y-140886908D01*
X134465436Y-140900819D01*
X134478267Y-140933422D01*
X134480907Y-140937529D01*
X134482805Y-140942033D01*
X134502483Y-140971096D01*
X134510613Y-140983743D01*
X134513618Y-140987540D01*
X134527556Y-141008125D01*
X134538331Y-141018769D01*
X134776996Y-141320354D01*
X135515126Y-142779335D01*
X136104983Y-144042965D01*
X136106488Y-144048442D01*
X136121822Y-144079040D01*
X136127874Y-144092004D01*
X136130763Y-144096880D01*
X136133290Y-144101922D01*
X136140890Y-144113971D01*
X136158368Y-144143468D01*
X136162166Y-144147701D01*
X136657376Y-144932791D01*
X136660378Y-144938343D01*
X136667959Y-144949570D01*
X136675223Y-144961086D01*
X136679117Y-144966093D01*
X137001930Y-145444155D01*
X137021285Y-145474136D01*
X137038117Y-145491508D01*
X137053565Y-145510145D01*
X137081313Y-145532691D01*
X137805228Y-146146180D01*
X137812415Y-146154299D01*
X137835601Y-146171920D01*
X137842575Y-146177830D01*
X137851455Y-146183968D01*
X137875963Y-146202594D01*
X137884222Y-146206619D01*
X137891783Y-146211846D01*
X137920047Y-146224080D01*
X137929736Y-146228802D01*
X137938294Y-146231978D01*
X137965032Y-146243551D01*
X137975637Y-146245835D01*
X138986294Y-146620875D01*
X139006734Y-146630514D01*
X139042889Y-146639527D01*
X139079004Y-146649024D01*
X139101571Y-146650398D01*
X140396184Y-146840926D01*
X140400983Y-146842504D01*
X140435599Y-146846726D01*
X140450355Y-146848898D01*
X140455380Y-146849139D01*
X140460363Y-146849747D01*
X140475239Y-146850092D01*
X140510106Y-146851766D01*
X140515108Y-146851018D01*
X142113625Y-146888136D01*
X144118964Y-147008701D01*
X144919787Y-147293439D01*
X145599103Y-147810597D01*
X146103615Y-148606511D01*
X146294071Y-149879314D01*
X146257602Y-151466950D01*
X145561448Y-154883081D01*
X145561166Y-154883759D01*
X145553498Y-154922093D01*
X145549651Y-154940969D01*
X145549576Y-154941699D01*
X145549432Y-154942417D01*
X145547518Y-154961636D01*
X145543509Y-155000473D01*
X145543577Y-155001200D01*
X145423095Y-156210843D01*
X145420053Y-156223815D01*
X145419148Y-156250466D01*
X145418487Y-156257103D01*
X145418472Y-156270366D01*
X145418023Y-156283600D01*
X145418450Y-156290247D01*
X145418421Y-156316922D01*
X145421006Y-156329993D01*
X145490602Y-157412334D01*
X145490233Y-157415486D01*
X145493161Y-157452129D01*
X145494237Y-157468860D01*
X145494747Y-157471972D01*
X145494998Y-157475115D01*
X145497967Y-157491628D01*
X145503908Y-157527893D01*
X145505021Y-157530861D01*
X145758254Y-158939319D01*
X145758245Y-158939860D01*
X145765288Y-158978444D01*
X145768741Y-158997649D01*
X145768889Y-158998172D01*
X145768987Y-158998708D01*
X145774355Y-159017466D01*
X145785046Y-159055204D01*
X145785293Y-159055687D01*
X146669831Y-162146603D01*
X146763828Y-162926775D01*
X146739389Y-163637726D01*
X146496167Y-164247841D01*
X146033810Y-164716562D01*
X145293259Y-165176533D01*
X144110791Y-165601257D01*
X135190926Y-167697817D01*
X135187729Y-167698296D01*
X135171588Y-167702363D01*
X135155338Y-167706182D01*
X135152271Y-167707229D01*
X134440199Y-167886627D01*
X133307398Y-165092156D01*
X133286310Y-165049323D01*
X133248279Y-164996944D01*
X133200759Y-164952990D01*
X133145577Y-164919152D01*
X133084854Y-164896729D01*
X133020924Y-164886584D01*
X132956242Y-164889105D01*
X132893296Y-164904197D01*
X117256568Y-170321245D01*
X109550200Y-166222425D01*
X109550200Y-162610800D01*
X109543855Y-162546381D01*
X109525065Y-162484438D01*
X109494551Y-162427351D01*
X109453487Y-162377313D01*
X109403449Y-162336249D01*
X109346362Y-162305735D01*
X109284419Y-162286945D01*
X109220000Y-162280600D01*
X105664000Y-162280600D01*
X105599581Y-162286945D01*
X105537638Y-162305735D01*
X105480551Y-162336249D01*
X105430513Y-162377313D01*
X105389449Y-162427351D01*
X105358935Y-162484438D01*
X105340145Y-162546381D01*
X105333800Y-162610800D01*
X105333800Y-165074600D01*
X102438200Y-165074600D01*
X102438200Y-162610800D01*
X102431855Y-162546381D01*
X102413065Y-162484438D01*
X102382551Y-162427351D01*
X102341487Y-162377313D01*
X102291449Y-162336249D01*
X102234362Y-162305735D01*
X102172419Y-162286945D01*
X102108000Y-162280600D01*
X100584000Y-162280600D01*
X100519581Y-162286945D01*
X100457638Y-162305735D01*
X100400551Y-162336249D01*
X100350513Y-162377313D01*
X100309449Y-162427351D01*
X100278935Y-162484438D01*
X100260145Y-162546381D01*
X100253800Y-162610800D01*
X100253800Y-165074600D01*
X93802200Y-165074600D01*
X93802200Y-162610800D01*
X93795855Y-162546381D01*
X93777065Y-162484438D01*
X93746551Y-162427351D01*
X93705487Y-162377313D01*
X93655449Y-162336249D01*
X93598362Y-162305735D01*
X93536419Y-162286945D01*
X93472000Y-162280600D01*
X91948000Y-162280600D01*
X91883581Y-162286945D01*
X91821638Y-162305735D01*
X91764551Y-162336249D01*
X91714513Y-162377313D01*
X91673449Y-162427351D01*
X91642935Y-162484438D01*
X91624145Y-162546381D01*
X91617800Y-162610800D01*
X91617800Y-165074600D01*
X88722200Y-165074600D01*
X88722200Y-162610800D01*
X88715855Y-162546381D01*
X88697065Y-162484438D01*
X88666551Y-162427351D01*
X88625487Y-162377313D01*
X88575449Y-162336249D01*
X88518362Y-162305735D01*
X88456419Y-162286945D01*
X88392000Y-162280600D01*
X84582000Y-162280600D01*
X84517581Y-162286945D01*
X84455638Y-162305735D01*
X84398551Y-162336249D01*
X84348513Y-162377313D01*
X84307449Y-162427351D01*
X84276935Y-162484438D01*
X84258145Y-162546381D01*
X84251800Y-162610800D01*
X84251800Y-168697453D01*
X82855392Y-170573192D01*
X81621874Y-171690842D01*
X80419905Y-172352864D01*
X79341873Y-172554410D01*
X77979787Y-172626099D01*
X74543470Y-172626099D01*
X73653244Y-172526101D01*
X72863764Y-172379989D01*
X72061041Y-172022455D01*
X71355737Y-171519008D01*
X69142262Y-169593813D01*
X69141944Y-169593477D01*
X69126919Y-169580468D01*
X69112565Y-169567983D01*
X69112204Y-169567727D01*
X68089975Y-168682626D01*
X67385288Y-168072409D01*
X66815785Y-167575986D01*
X66805358Y-167566363D01*
X66800756Y-167562885D01*
X66796433Y-167559117D01*
X66784939Y-167550933D01*
X66012478Y-166967185D01*
X64782580Y-166004549D01*
X64781220Y-166003000D01*
X64751109Y-165979917D01*
X64737097Y-165968950D01*
X64735379Y-165967859D01*
X64733745Y-165966606D01*
X64718464Y-165957113D01*
X64686604Y-165936874D01*
X64684690Y-165936133D01*
X63879919Y-165436199D01*
X62251783Y-164408170D01*
X62238940Y-164399654D01*
X62234927Y-164397527D01*
X62231110Y-164395117D01*
X62217421Y-164388249D01*
X60968275Y-163726203D01*
X60967628Y-163725777D01*
X60950433Y-163716746D01*
X60933772Y-163707916D01*
X60933076Y-163707631D01*
X59651964Y-163034800D01*
X59647103Y-163031795D01*
X59634287Y-163025516D01*
X59621750Y-163018932D01*
X59616495Y-163016800D01*
X58253335Y-162348978D01*
X57193421Y-161767654D01*
X57147767Y-161740461D01*
X88876600Y-161740461D01*
X88876600Y-161855539D01*
X88899050Y-161968405D01*
X88943088Y-162074723D01*
X89007022Y-162170406D01*
X89088394Y-162251778D01*
X89184077Y-162315712D01*
X89290395Y-162359750D01*
X89403261Y-162382200D01*
X89518339Y-162382200D01*
X89631205Y-162359750D01*
X89737523Y-162315712D01*
X89833206Y-162251778D01*
X89839800Y-162245184D01*
X89846394Y-162251778D01*
X89942077Y-162315712D01*
X90048395Y-162359750D01*
X90161261Y-162382200D01*
X90276339Y-162382200D01*
X90389205Y-162359750D01*
X90495523Y-162315712D01*
X90591206Y-162251778D01*
X90672578Y-162170406D01*
X90736512Y-162074723D01*
X90780550Y-161968405D01*
X90803000Y-161855539D01*
X90803000Y-161740461D01*
X102592600Y-161740461D01*
X102592600Y-161855539D01*
X102615050Y-161968405D01*
X102659088Y-162074723D01*
X102723022Y-162170406D01*
X102804394Y-162251778D01*
X102900077Y-162315712D01*
X103006395Y-162359750D01*
X103119261Y-162382200D01*
X103234339Y-162382200D01*
X103347205Y-162359750D01*
X103453523Y-162315712D01*
X103549206Y-162251778D01*
X103555800Y-162245184D01*
X103562394Y-162251778D01*
X103658077Y-162315712D01*
X103764395Y-162359750D01*
X103877261Y-162382200D01*
X103992339Y-162382200D01*
X104105205Y-162359750D01*
X104211523Y-162315712D01*
X104307206Y-162251778D01*
X104388578Y-162170406D01*
X104452512Y-162074723D01*
X104496550Y-161968405D01*
X104519000Y-161855539D01*
X104519000Y-161740461D01*
X104496550Y-161627595D01*
X104452512Y-161521277D01*
X104388578Y-161425594D01*
X104307206Y-161344222D01*
X104211523Y-161280288D01*
X104105205Y-161236250D01*
X103992339Y-161213800D01*
X103877261Y-161213800D01*
X103764395Y-161236250D01*
X103658077Y-161280288D01*
X103562394Y-161344222D01*
X103555800Y-161350816D01*
X103549206Y-161344222D01*
X103453523Y-161280288D01*
X103347205Y-161236250D01*
X103234339Y-161213800D01*
X103119261Y-161213800D01*
X103006395Y-161236250D01*
X102900077Y-161280288D01*
X102804394Y-161344222D01*
X102723022Y-161425594D01*
X102659088Y-161521277D01*
X102615050Y-161627595D01*
X102592600Y-161740461D01*
X90803000Y-161740461D01*
X90780550Y-161627595D01*
X90736512Y-161521277D01*
X90672578Y-161425594D01*
X90591206Y-161344222D01*
X90495523Y-161280288D01*
X90389205Y-161236250D01*
X90276339Y-161213800D01*
X90161261Y-161213800D01*
X90048395Y-161236250D01*
X89942077Y-161280288D01*
X89846394Y-161344222D01*
X89839800Y-161350816D01*
X89833206Y-161344222D01*
X89737523Y-161280288D01*
X89631205Y-161236250D01*
X89518339Y-161213800D01*
X89403261Y-161213800D01*
X89290395Y-161236250D01*
X89184077Y-161280288D01*
X89088394Y-161344222D01*
X89007022Y-161425594D01*
X88943088Y-161521277D01*
X88899050Y-161627595D01*
X88876600Y-161740461D01*
X57147767Y-161740461D01*
X54547381Y-160191612D01*
X53103596Y-159124261D01*
X100812600Y-159124261D01*
X100812600Y-159239339D01*
X100835050Y-159352205D01*
X100879088Y-159458523D01*
X100943022Y-159554206D01*
X101024394Y-159635578D01*
X101120077Y-159699512D01*
X101226395Y-159743550D01*
X101339261Y-159766000D01*
X101454339Y-159766000D01*
X101567205Y-159743550D01*
X101673523Y-159699512D01*
X101769206Y-159635578D01*
X101850578Y-159554206D01*
X101914512Y-159458523D01*
X101958550Y-159352205D01*
X101981000Y-159239339D01*
X101981000Y-159124261D01*
X101958550Y-159011395D01*
X101914512Y-158905077D01*
X101850578Y-158809394D01*
X101769206Y-158728022D01*
X101673523Y-158664088D01*
X101567205Y-158620050D01*
X101454339Y-158597600D01*
X101339261Y-158597600D01*
X101226395Y-158620050D01*
X101120077Y-158664088D01*
X101024394Y-158728022D01*
X100943022Y-158809394D01*
X100879088Y-158905077D01*
X100835050Y-159011395D01*
X100812600Y-159124261D01*
X53103596Y-159124261D01*
X53046426Y-159081997D01*
X51497383Y-157574100D01*
X51309621Y-157144378D01*
X51248697Y-156421679D01*
X51473224Y-155760688D01*
X52025172Y-155008032D01*
X53013502Y-154135977D01*
X53141153Y-154044261D01*
X113461800Y-154044261D01*
X113461800Y-154159339D01*
X113484250Y-154272205D01*
X113528288Y-154378523D01*
X113592222Y-154474206D01*
X113673594Y-154555578D01*
X113769277Y-154619512D01*
X113875595Y-154663550D01*
X113988461Y-154686000D01*
X114103539Y-154686000D01*
X114216405Y-154663550D01*
X114322723Y-154619512D01*
X114418406Y-154555578D01*
X114499778Y-154474206D01*
X114563712Y-154378523D01*
X114607750Y-154272205D01*
X114630200Y-154159339D01*
X114630200Y-154044261D01*
X114607750Y-153931395D01*
X114563712Y-153825077D01*
X114499778Y-153729394D01*
X114418406Y-153648022D01*
X114322723Y-153584088D01*
X114216405Y-153540050D01*
X114103539Y-153517600D01*
X113988461Y-153517600D01*
X113875595Y-153540050D01*
X113769277Y-153584088D01*
X113673594Y-153648022D01*
X113592222Y-153729394D01*
X113528288Y-153825077D01*
X113484250Y-153931395D01*
X113461800Y-154044261D01*
X53141153Y-154044261D01*
X55411165Y-152413288D01*
X55423493Y-152404877D01*
X55427262Y-152401723D01*
X55431278Y-152398837D01*
X55442554Y-152388923D01*
X56108046Y-151831921D01*
X107876340Y-151831921D01*
X107876340Y-151946999D01*
X107898790Y-152059865D01*
X107942828Y-152166183D01*
X108006762Y-152261866D01*
X108088134Y-152343238D01*
X108183817Y-152407172D01*
X108290135Y-152451210D01*
X108403001Y-152473660D01*
X108518079Y-152473660D01*
X108630945Y-152451210D01*
X108737263Y-152407172D01*
X108832946Y-152343238D01*
X108914318Y-152261866D01*
X108978252Y-152166183D01*
X109022290Y-152059865D01*
X109044740Y-151946999D01*
X109044740Y-151831921D01*
X109138720Y-151831921D01*
X109138720Y-151946999D01*
X109161170Y-152059865D01*
X109205208Y-152166183D01*
X109269142Y-152261866D01*
X109350514Y-152343238D01*
X109446197Y-152407172D01*
X109552515Y-152451210D01*
X109665381Y-152473660D01*
X109780459Y-152473660D01*
X109893325Y-152451210D01*
X109999643Y-152407172D01*
X110095326Y-152343238D01*
X110176698Y-152261866D01*
X110240632Y-152166183D01*
X110284670Y-152059865D01*
X110307120Y-151946999D01*
X110307120Y-151834461D01*
X110416340Y-151834461D01*
X110416340Y-151949539D01*
X110438790Y-152062405D01*
X110482828Y-152168723D01*
X110546762Y-152264406D01*
X110628134Y-152345778D01*
X110723817Y-152409712D01*
X110830135Y-152453750D01*
X110943001Y-152476200D01*
X111058079Y-152476200D01*
X111170945Y-152453750D01*
X111277263Y-152409712D01*
X111372946Y-152345778D01*
X111454318Y-152264406D01*
X111518252Y-152168723D01*
X111562290Y-152062405D01*
X111584740Y-151949539D01*
X111584740Y-151834461D01*
X111562290Y-151721595D01*
X111518252Y-151615277D01*
X111454318Y-151519594D01*
X111372946Y-151438222D01*
X111277263Y-151374288D01*
X111170945Y-151330250D01*
X111058079Y-151307800D01*
X110943001Y-151307800D01*
X110830135Y-151330250D01*
X110723817Y-151374288D01*
X110628134Y-151438222D01*
X110546762Y-151519594D01*
X110482828Y-151615277D01*
X110438790Y-151721595D01*
X110416340Y-151834461D01*
X110307120Y-151834461D01*
X110307120Y-151831921D01*
X110284670Y-151719055D01*
X110240632Y-151612737D01*
X110176698Y-151517054D01*
X110095326Y-151435682D01*
X109999643Y-151371748D01*
X109893325Y-151327710D01*
X109780459Y-151305260D01*
X109665381Y-151305260D01*
X109552515Y-151327710D01*
X109446197Y-151371748D01*
X109350514Y-151435682D01*
X109269142Y-151517054D01*
X109205208Y-151612737D01*
X109161170Y-151719055D01*
X109138720Y-151831921D01*
X109044740Y-151831921D01*
X109022290Y-151719055D01*
X108978252Y-151612737D01*
X108914318Y-151517054D01*
X108832946Y-151435682D01*
X108737263Y-151371748D01*
X108630945Y-151327710D01*
X108518079Y-151305260D01*
X108403001Y-151305260D01*
X108290135Y-151327710D01*
X108183817Y-151371748D01*
X108088134Y-151435682D01*
X108006762Y-151517054D01*
X107942828Y-151612737D01*
X107898790Y-151719055D01*
X107876340Y-151831921D01*
X56108046Y-151831921D01*
X56714834Y-151324054D01*
X56728485Y-151312871D01*
X56729989Y-151311370D01*
X56731635Y-151309992D01*
X56744111Y-151297273D01*
X57175426Y-150866721D01*
X115031520Y-150866721D01*
X115031520Y-150981799D01*
X115053970Y-151094665D01*
X115098008Y-151200983D01*
X115161942Y-151296666D01*
X115243314Y-151378038D01*
X115338997Y-151441972D01*
X115445315Y-151486010D01*
X115558181Y-151508460D01*
X115673259Y-151508460D01*
X115786125Y-151486010D01*
X115892443Y-151441972D01*
X115988126Y-151378038D01*
X116069498Y-151296666D01*
X116133432Y-151200983D01*
X116177470Y-151094665D01*
X116199920Y-150981799D01*
X116199920Y-150866721D01*
X116177470Y-150753855D01*
X116133432Y-150647537D01*
X116069498Y-150551854D01*
X115988126Y-150470482D01*
X115892443Y-150406548D01*
X115786125Y-150362510D01*
X115673259Y-150340060D01*
X115558181Y-150340060D01*
X115445315Y-150362510D01*
X115338997Y-150406548D01*
X115243314Y-150470482D01*
X115161942Y-150551854D01*
X115098008Y-150647537D01*
X115053970Y-150753855D01*
X115031520Y-150866721D01*
X57175426Y-150866721D01*
X58156776Y-149887109D01*
X58165107Y-149880919D01*
X58184955Y-149858980D01*
X58191754Y-149852193D01*
X58198319Y-149844208D01*
X58205239Y-149836559D01*
X58210943Y-149828854D01*
X58229745Y-149805985D01*
X58234649Y-149796830D01*
X59208311Y-148481533D01*
X59210163Y-148479809D01*
X59231993Y-148449541D01*
X59242380Y-148435510D01*
X59243677Y-148433341D01*
X59256853Y-148415073D01*
X59264115Y-148399175D01*
X59273088Y-148384173D01*
X59280660Y-148362949D01*
X59281706Y-148360660D01*
X59287337Y-148344237D01*
X59299910Y-148308997D01*
X59300280Y-148306485D01*
X59386553Y-148054855D01*
X113640200Y-148054855D01*
X113640200Y-148169145D01*
X113662497Y-148281238D01*
X113706234Y-148386828D01*
X113769729Y-148481856D01*
X113850544Y-148562671D01*
X113945572Y-148626166D01*
X114051162Y-148669903D01*
X114163255Y-148692200D01*
X114277545Y-148692200D01*
X114389638Y-148669903D01*
X114495228Y-148626166D01*
X114590256Y-148562671D01*
X114671071Y-148481856D01*
X114734566Y-148386828D01*
X114778303Y-148281238D01*
X114800600Y-148169145D01*
X114800600Y-148054855D01*
X114778303Y-147942762D01*
X114734566Y-147837172D01*
X114671071Y-147742144D01*
X114590256Y-147661329D01*
X114495228Y-147597834D01*
X114389638Y-147554097D01*
X114277545Y-147531800D01*
X114163255Y-147531800D01*
X114051162Y-147554097D01*
X113945572Y-147597834D01*
X113850544Y-147661329D01*
X113769729Y-147742144D01*
X113706234Y-147837172D01*
X113662497Y-147942762D01*
X113640200Y-148054855D01*
X59386553Y-148054855D01*
X59704436Y-147127698D01*
X59708057Y-147120892D01*
X59717358Y-147090009D01*
X59721335Y-147078410D01*
X59723099Y-147070946D01*
X59725308Y-147063613D01*
X59727674Y-147051597D01*
X59735097Y-147020195D01*
X59735373Y-147012489D01*
X59736165Y-147008461D01*
X96443800Y-147008461D01*
X96443800Y-147123539D01*
X96466250Y-147236405D01*
X96510288Y-147342723D01*
X96574222Y-147438406D01*
X96655594Y-147519778D01*
X96751277Y-147583712D01*
X96857595Y-147627750D01*
X96970461Y-147650200D01*
X97085539Y-147650200D01*
X97198405Y-147627750D01*
X97304723Y-147583712D01*
X97400406Y-147519778D01*
X97481778Y-147438406D01*
X97545712Y-147342723D01*
X97589750Y-147236405D01*
X97612200Y-147123539D01*
X97612200Y-147008461D01*
X97713800Y-147008461D01*
X97713800Y-147123539D01*
X97736250Y-147236405D01*
X97780288Y-147342723D01*
X97844222Y-147438406D01*
X97925594Y-147519778D01*
X98021277Y-147583712D01*
X98127595Y-147627750D01*
X98240461Y-147650200D01*
X98355539Y-147650200D01*
X98468405Y-147627750D01*
X98574723Y-147583712D01*
X98670406Y-147519778D01*
X98751778Y-147438406D01*
X98815712Y-147342723D01*
X98859750Y-147236405D01*
X98882200Y-147123539D01*
X98882200Y-147008461D01*
X98983800Y-147008461D01*
X98983800Y-147123539D01*
X99006250Y-147236405D01*
X99050288Y-147342723D01*
X99114222Y-147438406D01*
X99195594Y-147519778D01*
X99291277Y-147583712D01*
X99397595Y-147627750D01*
X99510461Y-147650200D01*
X99625539Y-147650200D01*
X99738405Y-147627750D01*
X99844723Y-147583712D01*
X99940406Y-147519778D01*
X100021778Y-147438406D01*
X100085712Y-147342723D01*
X100129750Y-147236405D01*
X100152200Y-147123539D01*
X100152200Y-147008461D01*
X100253800Y-147008461D01*
X100253800Y-147123539D01*
X100276250Y-147236405D01*
X100320288Y-147342723D01*
X100384222Y-147438406D01*
X100465594Y-147519778D01*
X100561277Y-147583712D01*
X100667595Y-147627750D01*
X100780461Y-147650200D01*
X100895539Y-147650200D01*
X101008405Y-147627750D01*
X101114723Y-147583712D01*
X101210406Y-147519778D01*
X101291778Y-147438406D01*
X101355712Y-147342723D01*
X101399750Y-147236405D01*
X101422200Y-147123539D01*
X101422200Y-147008461D01*
X101399750Y-146895595D01*
X101362333Y-146805261D01*
X115443000Y-146805261D01*
X115443000Y-146920339D01*
X115465450Y-147033205D01*
X115509488Y-147139523D01*
X115573422Y-147235206D01*
X115654794Y-147316578D01*
X115750477Y-147380512D01*
X115856795Y-147424550D01*
X115969661Y-147447000D01*
X116084739Y-147447000D01*
X116197605Y-147424550D01*
X116303923Y-147380512D01*
X116399606Y-147316578D01*
X116480978Y-147235206D01*
X116544912Y-147139523D01*
X116588950Y-147033205D01*
X116611400Y-146920339D01*
X116611400Y-146805261D01*
X116588950Y-146692395D01*
X116544912Y-146586077D01*
X116480978Y-146490394D01*
X116399606Y-146409022D01*
X116303923Y-146345088D01*
X116197605Y-146301050D01*
X116084739Y-146278600D01*
X115969661Y-146278600D01*
X115856795Y-146301050D01*
X115750477Y-146345088D01*
X115654794Y-146409022D01*
X115573422Y-146490394D01*
X115509488Y-146586077D01*
X115465450Y-146692395D01*
X115443000Y-146805261D01*
X101362333Y-146805261D01*
X101355712Y-146789277D01*
X101291778Y-146693594D01*
X101210406Y-146612222D01*
X101114723Y-146548288D01*
X101008405Y-146504250D01*
X100895539Y-146481800D01*
X100780461Y-146481800D01*
X100667595Y-146504250D01*
X100561277Y-146548288D01*
X100465594Y-146612222D01*
X100384222Y-146693594D01*
X100320288Y-146789277D01*
X100276250Y-146895595D01*
X100253800Y-147008461D01*
X100152200Y-147008461D01*
X100129750Y-146895595D01*
X100085712Y-146789277D01*
X100021778Y-146693594D01*
X99940406Y-146612222D01*
X99844723Y-146548288D01*
X99738405Y-146504250D01*
X99625539Y-146481800D01*
X99510461Y-146481800D01*
X99397595Y-146504250D01*
X99291277Y-146548288D01*
X99195594Y-146612222D01*
X99114222Y-146693594D01*
X99050288Y-146789277D01*
X99006250Y-146895595D01*
X98983800Y-147008461D01*
X98882200Y-147008461D01*
X98859750Y-146895595D01*
X98815712Y-146789277D01*
X98751778Y-146693594D01*
X98670406Y-146612222D01*
X98574723Y-146548288D01*
X98468405Y-146504250D01*
X98355539Y-146481800D01*
X98240461Y-146481800D01*
X98127595Y-146504250D01*
X98021277Y-146548288D01*
X97925594Y-146612222D01*
X97844222Y-146693594D01*
X97780288Y-146789277D01*
X97736250Y-146895595D01*
X97713800Y-147008461D01*
X97612200Y-147008461D01*
X97589750Y-146895595D01*
X97545712Y-146789277D01*
X97481778Y-146693594D01*
X97400406Y-146612222D01*
X97304723Y-146548288D01*
X97198405Y-146504250D01*
X97085539Y-146481800D01*
X96970461Y-146481800D01*
X96857595Y-146504250D01*
X96751277Y-146548288D01*
X96655594Y-146612222D01*
X96574222Y-146693594D01*
X96510288Y-146789277D01*
X96466250Y-146895595D01*
X96443800Y-147008461D01*
X59736165Y-147008461D01*
X59950397Y-145920270D01*
X59952418Y-145912440D01*
X59954232Y-145900787D01*
X59956517Y-145889182D01*
X59957296Y-145881111D01*
X60078374Y-145103461D01*
X111912400Y-145103461D01*
X111912400Y-145218539D01*
X111934850Y-145331405D01*
X111978888Y-145437723D01*
X112042822Y-145533406D01*
X112124194Y-145614778D01*
X112219877Y-145678712D01*
X112326195Y-145722750D01*
X112439061Y-145745200D01*
X112554139Y-145745200D01*
X112667005Y-145722750D01*
X112773323Y-145678712D01*
X112869006Y-145614778D01*
X112950378Y-145533406D01*
X113014312Y-145437723D01*
X113058350Y-145331405D01*
X113068324Y-145281261D01*
X115443000Y-145281261D01*
X115443000Y-145396339D01*
X115465450Y-145509205D01*
X115509488Y-145615523D01*
X115573422Y-145711206D01*
X115654794Y-145792578D01*
X115750477Y-145856512D01*
X115856795Y-145900550D01*
X115969661Y-145923000D01*
X116084739Y-145923000D01*
X116197605Y-145900550D01*
X116303923Y-145856512D01*
X116399606Y-145792578D01*
X116480978Y-145711206D01*
X116544912Y-145615523D01*
X116588950Y-145509205D01*
X116611400Y-145396339D01*
X116611400Y-145281261D01*
X116588950Y-145168395D01*
X116544912Y-145062077D01*
X116480978Y-144966394D01*
X116399606Y-144885022D01*
X116303923Y-144821088D01*
X116197605Y-144777050D01*
X116084739Y-144754600D01*
X115969661Y-144754600D01*
X115856795Y-144777050D01*
X115750477Y-144821088D01*
X115654794Y-144885022D01*
X115573422Y-144966394D01*
X115509488Y-145062077D01*
X115465450Y-145168395D01*
X115443000Y-145281261D01*
X113068324Y-145281261D01*
X113080800Y-145218539D01*
X113080800Y-145103461D01*
X113058350Y-144990595D01*
X113014312Y-144884277D01*
X112950378Y-144788594D01*
X112869006Y-144707222D01*
X112773323Y-144643288D01*
X112667005Y-144599250D01*
X112554139Y-144576800D01*
X112439061Y-144576800D01*
X112326195Y-144599250D01*
X112219877Y-144643288D01*
X112124194Y-144707222D01*
X112042822Y-144788594D01*
X111978888Y-144884277D01*
X111934850Y-144990595D01*
X111912400Y-145103461D01*
X60078374Y-145103461D01*
X60198384Y-144332676D01*
X60321113Y-143881930D01*
X60408009Y-143711917D01*
X60416976Y-143698517D01*
X60426122Y-143676480D01*
X60427885Y-143673030D01*
X60433760Y-143658075D01*
X60439906Y-143643266D01*
X60441031Y-143639568D01*
X60449758Y-143617352D01*
X60452613Y-143601478D01*
X60572849Y-143206081D01*
X111511080Y-143206081D01*
X111511080Y-143321159D01*
X111533530Y-143434025D01*
X111577568Y-143540343D01*
X111641502Y-143636026D01*
X111722874Y-143717398D01*
X111818557Y-143781332D01*
X111924875Y-143825370D01*
X112037741Y-143847820D01*
X112152819Y-143847820D01*
X112265685Y-143825370D01*
X112372003Y-143781332D01*
X112408027Y-143757261D01*
X115443000Y-143757261D01*
X115443000Y-143872339D01*
X115465450Y-143985205D01*
X115509488Y-144091523D01*
X115573422Y-144187206D01*
X115654794Y-144268578D01*
X115750477Y-144332512D01*
X115856795Y-144376550D01*
X115969661Y-144399000D01*
X116084739Y-144399000D01*
X116197605Y-144376550D01*
X116303923Y-144332512D01*
X116399606Y-144268578D01*
X116480978Y-144187206D01*
X116544912Y-144091523D01*
X116588950Y-143985205D01*
X116611400Y-143872339D01*
X116611400Y-143757261D01*
X116588950Y-143644395D01*
X116544912Y-143538077D01*
X116480978Y-143442394D01*
X116399606Y-143361022D01*
X116303923Y-143297088D01*
X116197605Y-143253050D01*
X116084739Y-143230600D01*
X115969661Y-143230600D01*
X115856795Y-143253050D01*
X115750477Y-143297088D01*
X115654794Y-143361022D01*
X115573422Y-143442394D01*
X115509488Y-143538077D01*
X115465450Y-143644395D01*
X115443000Y-143757261D01*
X112408027Y-143757261D01*
X112467686Y-143717398D01*
X112549058Y-143636026D01*
X112612992Y-143540343D01*
X112657030Y-143434025D01*
X112679480Y-143321159D01*
X112679480Y-143206081D01*
X112657030Y-143093215D01*
X112612992Y-142986897D01*
X112549058Y-142891214D01*
X112467686Y-142809842D01*
X112372003Y-142745908D01*
X112265685Y-142701870D01*
X112152819Y-142679420D01*
X112037741Y-142679420D01*
X111924875Y-142701870D01*
X111818557Y-142745908D01*
X111722874Y-142809842D01*
X111641502Y-142891214D01*
X111577568Y-142986897D01*
X111533530Y-143093215D01*
X111511080Y-143206081D01*
X60572849Y-143206081D01*
X60976811Y-141877652D01*
X111633015Y-141877652D01*
X111633015Y-141992730D01*
X111655465Y-142105596D01*
X111699503Y-142211914D01*
X111763437Y-142307597D01*
X111844809Y-142388969D01*
X111940492Y-142452903D01*
X112046810Y-142496941D01*
X112159676Y-142519391D01*
X112274754Y-142519391D01*
X112280043Y-142518339D01*
X112301468Y-142570063D01*
X112365402Y-142665746D01*
X112446774Y-142747118D01*
X112542457Y-142811052D01*
X112648775Y-142855090D01*
X112761641Y-142877540D01*
X112876719Y-142877540D01*
X112989585Y-142855090D01*
X113095903Y-142811052D01*
X113191586Y-142747118D01*
X113272958Y-142665746D01*
X113336892Y-142570063D01*
X113378933Y-142468566D01*
X113443139Y-142468566D01*
X113556005Y-142446116D01*
X113662323Y-142402078D01*
X113758006Y-142338144D01*
X113839378Y-142256772D01*
X113855087Y-142233261D01*
X115443000Y-142233261D01*
X115443000Y-142348339D01*
X115465450Y-142461205D01*
X115509488Y-142567523D01*
X115573422Y-142663206D01*
X115654794Y-142744578D01*
X115750477Y-142808512D01*
X115856795Y-142852550D01*
X115969661Y-142875000D01*
X116084739Y-142875000D01*
X116197605Y-142852550D01*
X116303923Y-142808512D01*
X116399606Y-142744578D01*
X116480978Y-142663206D01*
X116544912Y-142567523D01*
X116588950Y-142461205D01*
X116611400Y-142348339D01*
X116611400Y-142233261D01*
X116588950Y-142120395D01*
X116548377Y-142022441D01*
X117919500Y-142022441D01*
X117919500Y-142137519D01*
X117941950Y-142250385D01*
X117985988Y-142356703D01*
X118049922Y-142452386D01*
X118131294Y-142533758D01*
X118226977Y-142597692D01*
X118333295Y-142641730D01*
X118446161Y-142664180D01*
X118561239Y-142664180D01*
X118674105Y-142641730D01*
X118780423Y-142597692D01*
X118876106Y-142533758D01*
X118957478Y-142452386D01*
X119021412Y-142356703D01*
X119065450Y-142250385D01*
X119087900Y-142137519D01*
X119087900Y-142022441D01*
X119065450Y-141909575D01*
X119021412Y-141803257D01*
X118957478Y-141707574D01*
X118876106Y-141626202D01*
X118780423Y-141562268D01*
X118674105Y-141518230D01*
X118561239Y-141495780D01*
X118446161Y-141495780D01*
X118333295Y-141518230D01*
X118226977Y-141562268D01*
X118131294Y-141626202D01*
X118049922Y-141707574D01*
X117985988Y-141803257D01*
X117941950Y-141909575D01*
X117919500Y-142022441D01*
X116548377Y-142022441D01*
X116544912Y-142014077D01*
X116480978Y-141918394D01*
X116399606Y-141837022D01*
X116303923Y-141773088D01*
X116197605Y-141729050D01*
X116084739Y-141706600D01*
X115969661Y-141706600D01*
X115856795Y-141729050D01*
X115750477Y-141773088D01*
X115654794Y-141837022D01*
X115573422Y-141918394D01*
X115509488Y-142014077D01*
X115465450Y-142120395D01*
X115443000Y-142233261D01*
X113855087Y-142233261D01*
X113903312Y-142161089D01*
X113947350Y-142054771D01*
X113969800Y-141941905D01*
X113969800Y-141826827D01*
X113947350Y-141713961D01*
X113903312Y-141607643D01*
X113839378Y-141511960D01*
X113758006Y-141430588D01*
X113662323Y-141366654D01*
X113556005Y-141322616D01*
X113443139Y-141300166D01*
X113328061Y-141300166D01*
X113215195Y-141322616D01*
X113108877Y-141366654D01*
X113013194Y-141430588D01*
X112931822Y-141511960D01*
X112867888Y-141607643D01*
X112825847Y-141709140D01*
X112761641Y-141709140D01*
X112756352Y-141710192D01*
X112734927Y-141658468D01*
X112670993Y-141562785D01*
X112589621Y-141481413D01*
X112493938Y-141417479D01*
X112387620Y-141373441D01*
X112274754Y-141350991D01*
X112159676Y-141350991D01*
X112046810Y-141373441D01*
X111940492Y-141417479D01*
X111844809Y-141481413D01*
X111763437Y-141562785D01*
X111699503Y-141658468D01*
X111655465Y-141764786D01*
X111633015Y-141877652D01*
X60976811Y-141877652D01*
X61741474Y-139363061D01*
X96443800Y-139363061D01*
X96443800Y-139478139D01*
X96466250Y-139591005D01*
X96510288Y-139697323D01*
X96574222Y-139793006D01*
X96655594Y-139874378D01*
X96751277Y-139938312D01*
X96857595Y-139982350D01*
X96970461Y-140004800D01*
X97085539Y-140004800D01*
X97198405Y-139982350D01*
X97304723Y-139938312D01*
X97400406Y-139874378D01*
X97481778Y-139793006D01*
X97545712Y-139697323D01*
X97589750Y-139591005D01*
X97612200Y-139478139D01*
X97612200Y-139363061D01*
X97589750Y-139250195D01*
X97545712Y-139143877D01*
X97481778Y-139048194D01*
X97400406Y-138966822D01*
X97304723Y-138902888D01*
X97198405Y-138858850D01*
X97085539Y-138836400D01*
X96970461Y-138836400D01*
X96857595Y-138858850D01*
X96751277Y-138902888D01*
X96655594Y-138966822D01*
X96574222Y-139048194D01*
X96510288Y-139143877D01*
X96466250Y-139250195D01*
X96443800Y-139363061D01*
X61741474Y-139363061D01*
X61876565Y-138918817D01*
X61885663Y-138895147D01*
X61891529Y-138861102D01*
X61898296Y-138827205D01*
X61898300Y-138821806D01*
X61899216Y-138816488D01*
X61898327Y-138781939D01*
X61898350Y-138747388D01*
X61897301Y-138742096D01*
X61897162Y-138736697D01*
X61889543Y-138702955D01*
X61882831Y-138669093D01*
X61873148Y-138645671D01*
X61673013Y-138042261D01*
X93903800Y-138042261D01*
X93903800Y-138157339D01*
X93926250Y-138270205D01*
X93970288Y-138376523D01*
X94034222Y-138472206D01*
X94115594Y-138553578D01*
X94211277Y-138617512D01*
X94317595Y-138661550D01*
X94430461Y-138684000D01*
X94545539Y-138684000D01*
X94658405Y-138661550D01*
X94764723Y-138617512D01*
X94860406Y-138553578D01*
X94941778Y-138472206D01*
X95005712Y-138376523D01*
X95049750Y-138270205D01*
X95072200Y-138157339D01*
X95072200Y-138049881D01*
X107845860Y-138049881D01*
X107845860Y-138164959D01*
X107868310Y-138277825D01*
X107912348Y-138384143D01*
X107976282Y-138479826D01*
X108057654Y-138561198D01*
X108153337Y-138625132D01*
X108259655Y-138669170D01*
X108372521Y-138691620D01*
X108487599Y-138691620D01*
X108600465Y-138669170D01*
X108703574Y-138626461D01*
X126111000Y-138626461D01*
X126111000Y-138741539D01*
X126133450Y-138854405D01*
X126177488Y-138960723D01*
X126241422Y-139056406D01*
X126322794Y-139137778D01*
X126418477Y-139201712D01*
X126524795Y-139245750D01*
X126637661Y-139268200D01*
X126752739Y-139268200D01*
X126865605Y-139245750D01*
X126971923Y-139201712D01*
X127067606Y-139137778D01*
X127148978Y-139056406D01*
X127212912Y-138960723D01*
X127256950Y-138854405D01*
X127279400Y-138741539D01*
X127279400Y-138626461D01*
X127256950Y-138513595D01*
X127212912Y-138407277D01*
X127148978Y-138311594D01*
X127067606Y-138230222D01*
X126971923Y-138166288D01*
X126865605Y-138122250D01*
X126752739Y-138099800D01*
X126637661Y-138099800D01*
X126524795Y-138122250D01*
X126418477Y-138166288D01*
X126322794Y-138230222D01*
X126241422Y-138311594D01*
X126177488Y-138407277D01*
X126133450Y-138513595D01*
X126111000Y-138626461D01*
X108703574Y-138626461D01*
X108706783Y-138625132D01*
X108802466Y-138561198D01*
X108883838Y-138479826D01*
X108947772Y-138384143D01*
X108991810Y-138277825D01*
X109014260Y-138164959D01*
X109014260Y-138049881D01*
X108991810Y-137937015D01*
X108947772Y-137830697D01*
X108883838Y-137735014D01*
X108802466Y-137653642D01*
X108706783Y-137589708D01*
X108600465Y-137545670D01*
X108487599Y-137523220D01*
X108372521Y-137523220D01*
X108259655Y-137545670D01*
X108153337Y-137589708D01*
X108057654Y-137653642D01*
X107976282Y-137735014D01*
X107912348Y-137830697D01*
X107868310Y-137937015D01*
X107845860Y-138049881D01*
X95072200Y-138049881D01*
X95072200Y-138042261D01*
X95049750Y-137929395D01*
X95005712Y-137823077D01*
X94941778Y-137727394D01*
X94860406Y-137646022D01*
X94764723Y-137582088D01*
X94658405Y-137538050D01*
X94545539Y-137515600D01*
X94430461Y-137515600D01*
X94317595Y-137538050D01*
X94211277Y-137582088D01*
X94115594Y-137646022D01*
X94034222Y-137727394D01*
X93970288Y-137823077D01*
X93926250Y-137929395D01*
X93903800Y-138042261D01*
X61673013Y-138042261D01*
X61379971Y-137158741D01*
X61370894Y-137102461D01*
X113842800Y-137102461D01*
X113842800Y-137217539D01*
X113865250Y-137330405D01*
X113909288Y-137436723D01*
X113973222Y-137532406D01*
X114054594Y-137613778D01*
X114150277Y-137677712D01*
X114256595Y-137721750D01*
X114369461Y-137744200D01*
X114484539Y-137744200D01*
X114597405Y-137721750D01*
X114703723Y-137677712D01*
X114799406Y-137613778D01*
X114880778Y-137532406D01*
X114944712Y-137436723D01*
X114988750Y-137330405D01*
X115011200Y-137217539D01*
X115011200Y-137102461D01*
X119583200Y-137102461D01*
X119583200Y-137217539D01*
X119605650Y-137330405D01*
X119649688Y-137436723D01*
X119713622Y-137532406D01*
X119794994Y-137613778D01*
X119890677Y-137677712D01*
X119996995Y-137721750D01*
X120109861Y-137744200D01*
X120224939Y-137744200D01*
X120337805Y-137721750D01*
X120444123Y-137677712D01*
X120539806Y-137613778D01*
X120621178Y-137532406D01*
X120685112Y-137436723D01*
X120729150Y-137330405D01*
X120751600Y-137217539D01*
X120751600Y-137102461D01*
X120729150Y-136989595D01*
X120685112Y-136883277D01*
X120621178Y-136787594D01*
X120539806Y-136706222D01*
X120444123Y-136642288D01*
X120337805Y-136598250D01*
X120224939Y-136575800D01*
X120109861Y-136575800D01*
X119996995Y-136598250D01*
X119890677Y-136642288D01*
X119794994Y-136706222D01*
X119713622Y-136787594D01*
X119649688Y-136883277D01*
X119605650Y-136989595D01*
X119583200Y-137102461D01*
X115011200Y-137102461D01*
X114988750Y-136989595D01*
X114944712Y-136883277D01*
X114880778Y-136787594D01*
X114799406Y-136706222D01*
X114703723Y-136642288D01*
X114597405Y-136598250D01*
X114484539Y-136575800D01*
X114369461Y-136575800D01*
X114256595Y-136598250D01*
X114150277Y-136642288D01*
X114054594Y-136706222D01*
X113973222Y-136787594D01*
X113909288Y-136883277D01*
X113865250Y-136989595D01*
X113842800Y-137102461D01*
X61370894Y-137102461D01*
X61111570Y-135494661D01*
X61156168Y-133254841D01*
X61327653Y-131804021D01*
X86278718Y-131804021D01*
X86278718Y-131919099D01*
X86301168Y-132031965D01*
X86345206Y-132138283D01*
X86409140Y-132233966D01*
X86490512Y-132315338D01*
X86586195Y-132379272D01*
X86692513Y-132423310D01*
X86805379Y-132445760D01*
X86920457Y-132445760D01*
X87033323Y-132423310D01*
X87139641Y-132379272D01*
X87235324Y-132315338D01*
X87316696Y-132233966D01*
X87380630Y-132138283D01*
X87424668Y-132031965D01*
X87447118Y-131919099D01*
X87447118Y-131806561D01*
X87523320Y-131806561D01*
X87523320Y-131921639D01*
X87545770Y-132034505D01*
X87589808Y-132140823D01*
X87653742Y-132236506D01*
X87735114Y-132317878D01*
X87830797Y-132381812D01*
X87937115Y-132425850D01*
X88049981Y-132448300D01*
X88165059Y-132448300D01*
X88277925Y-132425850D01*
X88384243Y-132381812D01*
X88479926Y-132317878D01*
X88561298Y-132236506D01*
X88625232Y-132140823D01*
X88669270Y-132034505D01*
X88691720Y-131921639D01*
X88691720Y-131826881D01*
X90035380Y-131826881D01*
X90035380Y-131941959D01*
X90057830Y-132054825D01*
X90101868Y-132161143D01*
X90165802Y-132256826D01*
X90247174Y-132338198D01*
X90342857Y-132402132D01*
X90449175Y-132446170D01*
X90562041Y-132468620D01*
X90677119Y-132468620D01*
X90789985Y-132446170D01*
X90896303Y-132402132D01*
X90991986Y-132338198D01*
X91073358Y-132256826D01*
X91080604Y-132245981D01*
X115895120Y-132245981D01*
X115895120Y-132361059D01*
X115917570Y-132473925D01*
X115961608Y-132580243D01*
X116025542Y-132675926D01*
X116106914Y-132757298D01*
X116202597Y-132821232D01*
X116308915Y-132865270D01*
X116421781Y-132887720D01*
X116536859Y-132887720D01*
X116649725Y-132865270D01*
X116756043Y-132821232D01*
X116851726Y-132757298D01*
X116933098Y-132675926D01*
X116997032Y-132580243D01*
X117041070Y-132473925D01*
X117063520Y-132361059D01*
X117063520Y-132245981D01*
X117041070Y-132133115D01*
X116997032Y-132026797D01*
X116933098Y-131931114D01*
X116851726Y-131849742D01*
X116756043Y-131785808D01*
X116649725Y-131741770D01*
X116536859Y-131719320D01*
X116421781Y-131719320D01*
X116308915Y-131741770D01*
X116202597Y-131785808D01*
X116106914Y-131849742D01*
X116025542Y-131931114D01*
X115961608Y-132026797D01*
X115917570Y-132133115D01*
X115895120Y-132245981D01*
X91080604Y-132245981D01*
X91137292Y-132161143D01*
X91181330Y-132054825D01*
X91203780Y-131941959D01*
X91203780Y-131826881D01*
X91181330Y-131714015D01*
X91137292Y-131607697D01*
X91073358Y-131512014D01*
X90991986Y-131430642D01*
X90896303Y-131366708D01*
X90789985Y-131322670D01*
X90677119Y-131300220D01*
X90562041Y-131300220D01*
X90449175Y-131322670D01*
X90342857Y-131366708D01*
X90247174Y-131430642D01*
X90165802Y-131512014D01*
X90101868Y-131607697D01*
X90057830Y-131714015D01*
X90035380Y-131826881D01*
X88691720Y-131826881D01*
X88691720Y-131806561D01*
X88669270Y-131693695D01*
X88625232Y-131587377D01*
X88561298Y-131491694D01*
X88479926Y-131410322D01*
X88384243Y-131346388D01*
X88277925Y-131302350D01*
X88165059Y-131279900D01*
X88049981Y-131279900D01*
X87937115Y-131302350D01*
X87830797Y-131346388D01*
X87735114Y-131410322D01*
X87653742Y-131491694D01*
X87589808Y-131587377D01*
X87545770Y-131693695D01*
X87523320Y-131806561D01*
X87447118Y-131806561D01*
X87447118Y-131804021D01*
X87424668Y-131691155D01*
X87380630Y-131584837D01*
X87316696Y-131489154D01*
X87235324Y-131407782D01*
X87139641Y-131343848D01*
X87033323Y-131299810D01*
X86920457Y-131277360D01*
X86805379Y-131277360D01*
X86692513Y-131299810D01*
X86586195Y-131343848D01*
X86490512Y-131407782D01*
X86409140Y-131489154D01*
X86345206Y-131584837D01*
X86301168Y-131691155D01*
X86278718Y-131804021D01*
X61327653Y-131804021D01*
X61472936Y-130574886D01*
X61489093Y-130473061D01*
X93878400Y-130473061D01*
X93878400Y-130588139D01*
X93900850Y-130701005D01*
X93944888Y-130807323D01*
X94008822Y-130903006D01*
X94090194Y-130984378D01*
X94185877Y-131048312D01*
X94292195Y-131092350D01*
X94405061Y-131114800D01*
X94520139Y-131114800D01*
X94633005Y-131092350D01*
X94739323Y-131048312D01*
X94835006Y-130984378D01*
X94916378Y-130903006D01*
X94980312Y-130807323D01*
X95024350Y-130701005D01*
X95046800Y-130588139D01*
X95046800Y-130473061D01*
X96418400Y-130473061D01*
X96418400Y-130588139D01*
X96440850Y-130701005D01*
X96484888Y-130807323D01*
X96548822Y-130903006D01*
X96630194Y-130984378D01*
X96725877Y-131048312D01*
X96832195Y-131092350D01*
X96945061Y-131114800D01*
X97060139Y-131114800D01*
X97173005Y-131092350D01*
X97279323Y-131048312D01*
X97375006Y-130984378D01*
X97456378Y-130903006D01*
X97520312Y-130807323D01*
X97564350Y-130701005D01*
X97586800Y-130588139D01*
X97586800Y-130473061D01*
X97564350Y-130360195D01*
X97520312Y-130253877D01*
X97463105Y-130168261D01*
X119700040Y-130168261D01*
X119700040Y-130283339D01*
X119722490Y-130396205D01*
X119766528Y-130502523D01*
X119830462Y-130598206D01*
X119911834Y-130679578D01*
X120007517Y-130743512D01*
X120113835Y-130787550D01*
X120226701Y-130810000D01*
X120341779Y-130810000D01*
X120454645Y-130787550D01*
X120560963Y-130743512D01*
X120656646Y-130679578D01*
X120738018Y-130598206D01*
X120801952Y-130502523D01*
X120845990Y-130396205D01*
X120868440Y-130283339D01*
X120868440Y-130168261D01*
X120845990Y-130055395D01*
X120801952Y-129949077D01*
X120738018Y-129853394D01*
X120656646Y-129772022D01*
X120560963Y-129708088D01*
X120454645Y-129664050D01*
X120341779Y-129641600D01*
X120226701Y-129641600D01*
X120113835Y-129664050D01*
X120007517Y-129708088D01*
X119911834Y-129772022D01*
X119830462Y-129853394D01*
X119766528Y-129949077D01*
X119722490Y-130055395D01*
X119700040Y-130168261D01*
X97463105Y-130168261D01*
X97456378Y-130158194D01*
X97375006Y-130076822D01*
X97279323Y-130012888D01*
X97173005Y-129968850D01*
X97060139Y-129946400D01*
X96945061Y-129946400D01*
X96832195Y-129968850D01*
X96725877Y-130012888D01*
X96630194Y-130076822D01*
X96548822Y-130158194D01*
X96484888Y-130253877D01*
X96440850Y-130360195D01*
X96418400Y-130473061D01*
X95046800Y-130473061D01*
X95024350Y-130360195D01*
X94980312Y-130253877D01*
X94916378Y-130158194D01*
X94835006Y-130076822D01*
X94739323Y-130012888D01*
X94633005Y-129968850D01*
X94520139Y-129946400D01*
X94405061Y-129946400D01*
X94292195Y-129968850D01*
X94185877Y-130012888D01*
X94090194Y-130076822D01*
X94008822Y-130158194D01*
X93944888Y-130253877D01*
X93900850Y-130360195D01*
X93878400Y-130473061D01*
X61489093Y-130473061D01*
X61693437Y-129185281D01*
X110449360Y-129185281D01*
X110449360Y-129300359D01*
X110471810Y-129413225D01*
X110515848Y-129519543D01*
X110579782Y-129615226D01*
X110661154Y-129696598D01*
X110756837Y-129760532D01*
X110863155Y-129804570D01*
X110976021Y-129827020D01*
X111091099Y-129827020D01*
X111203965Y-129804570D01*
X111310283Y-129760532D01*
X111405966Y-129696598D01*
X111487338Y-129615226D01*
X111551272Y-129519543D01*
X111566631Y-129482461D01*
X123545600Y-129482461D01*
X123545600Y-129597539D01*
X123568050Y-129710405D01*
X123612088Y-129816723D01*
X123676022Y-129912406D01*
X123757394Y-129993778D01*
X123853077Y-130057712D01*
X123959395Y-130101750D01*
X124072261Y-130124200D01*
X124187339Y-130124200D01*
X124300205Y-130101750D01*
X124406523Y-130057712D01*
X124502206Y-129993778D01*
X124583578Y-129912406D01*
X124647512Y-129816723D01*
X124691550Y-129710405D01*
X124714000Y-129597539D01*
X124714000Y-129482461D01*
X124691550Y-129369595D01*
X124647512Y-129263277D01*
X124583578Y-129167594D01*
X124502206Y-129086222D01*
X124406523Y-129022288D01*
X124300205Y-128978250D01*
X124187339Y-128955800D01*
X124072261Y-128955800D01*
X123959395Y-128978250D01*
X123853077Y-129022288D01*
X123757394Y-129086222D01*
X123676022Y-129167594D01*
X123612088Y-129263277D01*
X123568050Y-129369595D01*
X123545600Y-129482461D01*
X111566631Y-129482461D01*
X111595310Y-129413225D01*
X111617760Y-129300359D01*
X111617760Y-129185281D01*
X111595310Y-129072415D01*
X111551272Y-128966097D01*
X111487338Y-128870414D01*
X111405966Y-128789042D01*
X111310283Y-128725108D01*
X111203965Y-128681070D01*
X111091099Y-128658620D01*
X110976021Y-128658620D01*
X110863155Y-128681070D01*
X110756837Y-128725108D01*
X110661154Y-128789042D01*
X110579782Y-128870414D01*
X110515848Y-128966097D01*
X110471810Y-129072415D01*
X110449360Y-129185281D01*
X61693437Y-129185281D01*
X61847499Y-128214382D01*
X61896531Y-128014341D01*
X109080300Y-128014341D01*
X109080300Y-128129419D01*
X109102750Y-128242285D01*
X109146788Y-128348603D01*
X109210722Y-128444286D01*
X109292094Y-128525658D01*
X109387777Y-128589592D01*
X109494095Y-128633630D01*
X109606961Y-128656080D01*
X109722039Y-128656080D01*
X109834905Y-128633630D01*
X109941223Y-128589592D01*
X110036906Y-128525658D01*
X110118278Y-128444286D01*
X110182212Y-128348603D01*
X110226250Y-128242285D01*
X110248700Y-128129419D01*
X110248700Y-128014341D01*
X110226250Y-127901475D01*
X110182212Y-127795157D01*
X110118278Y-127699474D01*
X110036906Y-127618102D01*
X110017081Y-127604855D01*
X113640200Y-127604855D01*
X113640200Y-127719145D01*
X113662497Y-127831238D01*
X113706234Y-127936828D01*
X113769729Y-128031856D01*
X113850544Y-128112671D01*
X113945572Y-128176166D01*
X114051162Y-128219903D01*
X114163255Y-128242200D01*
X114277545Y-128242200D01*
X114389638Y-128219903D01*
X114495228Y-128176166D01*
X114590256Y-128112671D01*
X114671071Y-128031856D01*
X114734566Y-127936828D01*
X114778303Y-127831238D01*
X114800600Y-127719145D01*
X114800600Y-127604855D01*
X114778303Y-127492762D01*
X114734566Y-127387172D01*
X114671071Y-127292144D01*
X114590256Y-127211329D01*
X114495228Y-127147834D01*
X114389638Y-127104097D01*
X114277545Y-127081800D01*
X114163255Y-127081800D01*
X114051162Y-127104097D01*
X113945572Y-127147834D01*
X113850544Y-127211329D01*
X113769729Y-127292144D01*
X113706234Y-127387172D01*
X113662497Y-127492762D01*
X113640200Y-127604855D01*
X110017081Y-127604855D01*
X109941223Y-127554168D01*
X109834905Y-127510130D01*
X109722039Y-127487680D01*
X109606961Y-127487680D01*
X109494095Y-127510130D01*
X109387777Y-127554168D01*
X109292094Y-127618102D01*
X109210722Y-127699474D01*
X109146788Y-127795157D01*
X109102750Y-127901475D01*
X109080300Y-128014341D01*
X61896531Y-128014341D01*
X62221521Y-126688461D01*
X87561420Y-126688461D01*
X87561420Y-126803539D01*
X87583870Y-126916405D01*
X87627908Y-127022723D01*
X87691842Y-127118406D01*
X87773214Y-127199778D01*
X87868897Y-127263712D01*
X87975215Y-127307750D01*
X88088081Y-127330200D01*
X88203159Y-127330200D01*
X88316025Y-127307750D01*
X88422343Y-127263712D01*
X88518026Y-127199778D01*
X88599398Y-127118406D01*
X88663332Y-127022723D01*
X88707370Y-126916405D01*
X88729820Y-126803539D01*
X88729820Y-126688461D01*
X88729818Y-126688449D01*
X88823786Y-126688449D01*
X88823786Y-126803527D01*
X88846236Y-126916393D01*
X88890274Y-127022711D01*
X88954208Y-127118394D01*
X89035580Y-127199766D01*
X89131263Y-127263700D01*
X89237581Y-127307738D01*
X89350447Y-127330188D01*
X89465525Y-127330188D01*
X89578391Y-127307738D01*
X89684709Y-127263700D01*
X89780392Y-127199766D01*
X89861764Y-127118394D01*
X89925698Y-127022711D01*
X89969736Y-126916393D01*
X89992186Y-126803527D01*
X89992186Y-126688449D01*
X89969736Y-126575583D01*
X89925698Y-126469265D01*
X89861764Y-126373582D01*
X89780392Y-126292210D01*
X89684709Y-126228276D01*
X89578391Y-126184238D01*
X89465525Y-126161788D01*
X89350447Y-126161788D01*
X89237581Y-126184238D01*
X89131263Y-126228276D01*
X89035580Y-126292210D01*
X88954208Y-126373582D01*
X88890274Y-126469265D01*
X88846236Y-126575583D01*
X88823786Y-126688449D01*
X88729818Y-126688449D01*
X88707370Y-126575595D01*
X88663332Y-126469277D01*
X88599398Y-126373594D01*
X88518026Y-126292222D01*
X88422343Y-126228288D01*
X88316025Y-126184250D01*
X88203159Y-126161800D01*
X88088081Y-126161800D01*
X87975215Y-126184250D01*
X87868897Y-126228288D01*
X87773214Y-126292222D01*
X87691842Y-126373594D01*
X87627908Y-126469277D01*
X87583870Y-126575595D01*
X87561420Y-126688461D01*
X62221521Y-126688461D01*
X62509778Y-125512441D01*
X86372700Y-125512441D01*
X86372700Y-125627519D01*
X86395150Y-125740385D01*
X86439188Y-125846703D01*
X86503122Y-125942386D01*
X86584494Y-126023758D01*
X86680177Y-126087692D01*
X86786495Y-126131730D01*
X86899361Y-126154180D01*
X87014439Y-126154180D01*
X87127305Y-126131730D01*
X87233623Y-126087692D01*
X87329306Y-126023758D01*
X87410678Y-125942386D01*
X87474612Y-125846703D01*
X87518650Y-125740385D01*
X87541100Y-125627519D01*
X87541100Y-125512441D01*
X87522407Y-125418461D01*
X102793800Y-125418461D01*
X102793800Y-125533539D01*
X102816250Y-125646405D01*
X102860288Y-125752723D01*
X102924222Y-125848406D01*
X103005594Y-125929778D01*
X103101277Y-125993712D01*
X103207595Y-126037750D01*
X103320461Y-126060200D01*
X103435539Y-126060200D01*
X103548405Y-126037750D01*
X103654723Y-125993712D01*
X103750406Y-125929778D01*
X103831778Y-125848406D01*
X103895712Y-125752723D01*
X103939750Y-125646405D01*
X103962200Y-125533539D01*
X103962200Y-125418461D01*
X104063800Y-125418461D01*
X104063800Y-125533539D01*
X104086250Y-125646405D01*
X104130288Y-125752723D01*
X104194222Y-125848406D01*
X104275594Y-125929778D01*
X104371277Y-125993712D01*
X104477595Y-126037750D01*
X104590461Y-126060200D01*
X104705539Y-126060200D01*
X104818405Y-126037750D01*
X104924723Y-125993712D01*
X105020406Y-125929778D01*
X105101778Y-125848406D01*
X105165712Y-125752723D01*
X105209750Y-125646405D01*
X105232200Y-125533539D01*
X105232200Y-125418461D01*
X105333800Y-125418461D01*
X105333800Y-125533539D01*
X105356250Y-125646405D01*
X105400288Y-125752723D01*
X105464222Y-125848406D01*
X105545594Y-125929778D01*
X105641277Y-125993712D01*
X105747595Y-126037750D01*
X105860461Y-126060200D01*
X105975539Y-126060200D01*
X106088405Y-126037750D01*
X106194723Y-125993712D01*
X106290406Y-125929778D01*
X106371778Y-125848406D01*
X106435712Y-125752723D01*
X106479750Y-125646405D01*
X106502200Y-125533539D01*
X106502200Y-125418461D01*
X106603800Y-125418461D01*
X106603800Y-125533539D01*
X106626250Y-125646405D01*
X106670288Y-125752723D01*
X106734222Y-125848406D01*
X106815594Y-125929778D01*
X106911277Y-125993712D01*
X107017595Y-126037750D01*
X107130461Y-126060200D01*
X107245539Y-126060200D01*
X107358405Y-126037750D01*
X107464723Y-125993712D01*
X107560406Y-125929778D01*
X107641778Y-125848406D01*
X107705712Y-125752723D01*
X107749750Y-125646405D01*
X107772200Y-125533539D01*
X107772200Y-125418461D01*
X107749750Y-125305595D01*
X107705712Y-125199277D01*
X107641778Y-125103594D01*
X107560406Y-125022222D01*
X107464723Y-124958288D01*
X107358405Y-124914250D01*
X107245539Y-124891800D01*
X107130461Y-124891800D01*
X107017595Y-124914250D01*
X106911277Y-124958288D01*
X106815594Y-125022222D01*
X106734222Y-125103594D01*
X106670288Y-125199277D01*
X106626250Y-125305595D01*
X106603800Y-125418461D01*
X106502200Y-125418461D01*
X106479750Y-125305595D01*
X106435712Y-125199277D01*
X106371778Y-125103594D01*
X106290406Y-125022222D01*
X106194723Y-124958288D01*
X106088405Y-124914250D01*
X105975539Y-124891800D01*
X105860461Y-124891800D01*
X105747595Y-124914250D01*
X105641277Y-124958288D01*
X105545594Y-125022222D01*
X105464222Y-125103594D01*
X105400288Y-125199277D01*
X105356250Y-125305595D01*
X105333800Y-125418461D01*
X105232200Y-125418461D01*
X105209750Y-125305595D01*
X105165712Y-125199277D01*
X105101778Y-125103594D01*
X105020406Y-125022222D01*
X104924723Y-124958288D01*
X104818405Y-124914250D01*
X104705539Y-124891800D01*
X104590461Y-124891800D01*
X104477595Y-124914250D01*
X104371277Y-124958288D01*
X104275594Y-125022222D01*
X104194222Y-125103594D01*
X104130288Y-125199277D01*
X104086250Y-125305595D01*
X104063800Y-125418461D01*
X103962200Y-125418461D01*
X103939750Y-125305595D01*
X103895712Y-125199277D01*
X103831778Y-125103594D01*
X103750406Y-125022222D01*
X103654723Y-124958288D01*
X103548405Y-124914250D01*
X103435539Y-124891800D01*
X103320461Y-124891800D01*
X103207595Y-124914250D01*
X103101277Y-124958288D01*
X103005594Y-125022222D01*
X102924222Y-125103594D01*
X102860288Y-125199277D01*
X102816250Y-125305595D01*
X102793800Y-125418461D01*
X87522407Y-125418461D01*
X87518650Y-125399575D01*
X87474612Y-125293257D01*
X87410678Y-125197574D01*
X87329306Y-125116202D01*
X87233623Y-125052268D01*
X87127305Y-125008230D01*
X87014439Y-124985780D01*
X86899361Y-124985780D01*
X86786495Y-125008230D01*
X86680177Y-125052268D01*
X86584494Y-125116202D01*
X86503122Y-125197574D01*
X86439188Y-125293257D01*
X86395150Y-125399575D01*
X86372700Y-125512441D01*
X62509778Y-125512441D01*
X63081229Y-123181064D01*
X63210972Y-122802261D01*
X89458800Y-122802261D01*
X89458800Y-122917339D01*
X89481250Y-123030205D01*
X89525288Y-123136523D01*
X89589222Y-123232206D01*
X89670594Y-123313578D01*
X89766277Y-123377512D01*
X89872595Y-123421550D01*
X89985461Y-123444000D01*
X90100539Y-123444000D01*
X90213405Y-123421550D01*
X90319723Y-123377512D01*
X90415406Y-123313578D01*
X90496778Y-123232206D01*
X90560712Y-123136523D01*
X90604750Y-123030205D01*
X90627200Y-122917339D01*
X90627200Y-122802261D01*
X90604750Y-122689395D01*
X90560712Y-122583077D01*
X90496778Y-122487394D01*
X90415406Y-122406022D01*
X90319723Y-122342088D01*
X90213405Y-122298050D01*
X90100539Y-122275600D01*
X89985461Y-122275600D01*
X89872595Y-122298050D01*
X89766277Y-122342088D01*
X89670594Y-122406022D01*
X89589222Y-122487394D01*
X89525288Y-122583077D01*
X89481250Y-122689395D01*
X89458800Y-122802261D01*
X63210972Y-122802261D01*
X63628558Y-121583061D01*
X93903800Y-121583061D01*
X93903800Y-121698139D01*
X93926250Y-121811005D01*
X93970288Y-121917323D01*
X94034222Y-122013006D01*
X94115594Y-122094378D01*
X94211277Y-122158312D01*
X94317595Y-122202350D01*
X94430461Y-122224800D01*
X94545539Y-122224800D01*
X94658405Y-122202350D01*
X94764723Y-122158312D01*
X94789343Y-122141861D01*
X109956600Y-122141861D01*
X109956600Y-122256939D01*
X109979050Y-122369805D01*
X110023088Y-122476123D01*
X110087022Y-122571806D01*
X110168394Y-122653178D01*
X110264077Y-122717112D01*
X110370395Y-122761150D01*
X110483261Y-122783600D01*
X110598339Y-122783600D01*
X110711205Y-122761150D01*
X110817523Y-122717112D01*
X110913206Y-122653178D01*
X110994578Y-122571806D01*
X111058512Y-122476123D01*
X111102550Y-122369805D01*
X111125000Y-122256939D01*
X111125000Y-122141861D01*
X111102550Y-122028995D01*
X111058512Y-121922677D01*
X110994578Y-121826994D01*
X110913206Y-121745622D01*
X110817523Y-121681688D01*
X110711205Y-121637650D01*
X110598339Y-121615200D01*
X110483261Y-121615200D01*
X110370395Y-121637650D01*
X110264077Y-121681688D01*
X110168394Y-121745622D01*
X110087022Y-121826994D01*
X110023088Y-121922677D01*
X109979050Y-122028995D01*
X109956600Y-122141861D01*
X94789343Y-122141861D01*
X94860406Y-122094378D01*
X94941778Y-122013006D01*
X95005712Y-121917323D01*
X95049750Y-121811005D01*
X95072200Y-121698139D01*
X95072200Y-121583061D01*
X95049750Y-121470195D01*
X95005712Y-121363877D01*
X94941778Y-121268194D01*
X94860406Y-121186822D01*
X94764723Y-121122888D01*
X94658405Y-121078850D01*
X94545539Y-121056400D01*
X94430461Y-121056400D01*
X94317595Y-121078850D01*
X94211277Y-121122888D01*
X94115594Y-121186822D01*
X94034222Y-121268194D01*
X93970288Y-121363877D01*
X93926250Y-121470195D01*
X93903800Y-121583061D01*
X63628558Y-121583061D01*
X63640769Y-121547410D01*
X64487996Y-119449461D01*
X105181400Y-119449461D01*
X105181400Y-119564539D01*
X105203850Y-119677405D01*
X105247888Y-119783723D01*
X105311822Y-119879406D01*
X105393194Y-119960778D01*
X105488877Y-120024712D01*
X105595195Y-120068750D01*
X105708061Y-120091200D01*
X105823139Y-120091200D01*
X105936005Y-120068750D01*
X106042323Y-120024712D01*
X106138006Y-119960778D01*
X106219378Y-119879406D01*
X106283312Y-119783723D01*
X106327350Y-119677405D01*
X106349800Y-119564539D01*
X106349800Y-119449461D01*
X106327350Y-119336595D01*
X106283312Y-119230277D01*
X106219378Y-119134594D01*
X106138006Y-119053222D01*
X106042323Y-118989288D01*
X105936005Y-118945250D01*
X105823139Y-118922800D01*
X105708061Y-118922800D01*
X105595195Y-118945250D01*
X105488877Y-118989288D01*
X105393194Y-119053222D01*
X105311822Y-119134594D01*
X105247888Y-119230277D01*
X105203850Y-119336595D01*
X105181400Y-119449461D01*
X64487996Y-119449461D01*
X65493195Y-116960335D01*
X103301800Y-116960335D01*
X103301800Y-117075413D01*
X103324250Y-117188279D01*
X103368288Y-117294597D01*
X103432222Y-117390280D01*
X103513594Y-117471652D01*
X103609277Y-117535586D01*
X103715595Y-117579624D01*
X103828461Y-117602074D01*
X103943539Y-117602074D01*
X104056405Y-117579624D01*
X104162723Y-117535586D01*
X104258406Y-117471652D01*
X104339778Y-117390280D01*
X104403712Y-117294597D01*
X104447750Y-117188279D01*
X104470200Y-117075413D01*
X104470200Y-116960335D01*
X104447750Y-116847469D01*
X104403712Y-116741151D01*
X104339778Y-116645468D01*
X104258406Y-116564096D01*
X104162723Y-116500162D01*
X104056405Y-116456124D01*
X103943539Y-116433674D01*
X103828461Y-116433674D01*
X103715595Y-116456124D01*
X103609277Y-116500162D01*
X103513594Y-116564096D01*
X103432222Y-116645468D01*
X103368288Y-116741151D01*
X103324250Y-116847469D01*
X103301800Y-116960335D01*
X65493195Y-116960335D01*
X65552559Y-116813335D01*
X65852674Y-116274461D01*
X106172000Y-116274461D01*
X106172000Y-116389539D01*
X106194450Y-116502405D01*
X106238488Y-116608723D01*
X106302422Y-116704406D01*
X106383794Y-116785778D01*
X106479477Y-116849712D01*
X106585795Y-116893750D01*
X106698661Y-116916200D01*
X106813739Y-116916200D01*
X106926605Y-116893750D01*
X107010200Y-116859124D01*
X107010200Y-116948339D01*
X107032650Y-117061205D01*
X107076688Y-117167523D01*
X107140622Y-117263206D01*
X107221994Y-117344578D01*
X107317677Y-117408512D01*
X107423995Y-117452550D01*
X107536861Y-117475000D01*
X107538771Y-117475000D01*
X107547190Y-117517325D01*
X107591228Y-117623643D01*
X107655162Y-117719326D01*
X107736534Y-117800698D01*
X107832217Y-117864632D01*
X107938535Y-117908670D01*
X108051401Y-117931120D01*
X108166479Y-117931120D01*
X108279345Y-117908670D01*
X108385663Y-117864632D01*
X108481346Y-117800698D01*
X108562718Y-117719326D01*
X108626652Y-117623643D01*
X108670690Y-117517325D01*
X108693140Y-117404459D01*
X108693140Y-117291724D01*
X108745994Y-117344578D01*
X108841677Y-117408512D01*
X108947995Y-117452550D01*
X109060861Y-117475000D01*
X109175939Y-117475000D01*
X109288805Y-117452550D01*
X109395123Y-117408512D01*
X109490806Y-117344578D01*
X109572178Y-117263206D01*
X109636112Y-117167523D01*
X109680150Y-117061205D01*
X109702600Y-116948339D01*
X109702600Y-116833261D01*
X109680150Y-116720395D01*
X109636112Y-116614077D01*
X109572178Y-116518394D01*
X109490806Y-116437022D01*
X109395123Y-116373088D01*
X109288805Y-116329050D01*
X109175939Y-116306600D01*
X109060861Y-116306600D01*
X108947995Y-116329050D01*
X108841677Y-116373088D01*
X108745994Y-116437022D01*
X108664622Y-116518394D01*
X108600688Y-116614077D01*
X108556650Y-116720395D01*
X108534200Y-116833261D01*
X108534200Y-116945996D01*
X108481346Y-116893142D01*
X108385663Y-116829208D01*
X108279345Y-116785170D01*
X108166479Y-116762720D01*
X108164569Y-116762720D01*
X108156150Y-116720395D01*
X108112112Y-116614077D01*
X108048178Y-116518394D01*
X107966806Y-116437022D01*
X107871123Y-116373088D01*
X107764805Y-116329050D01*
X107651939Y-116306600D01*
X107536861Y-116306600D01*
X107423995Y-116329050D01*
X107340400Y-116363676D01*
X107340400Y-116274461D01*
X107317950Y-116161595D01*
X107273912Y-116055277D01*
X107209978Y-115959594D01*
X107128606Y-115878222D01*
X107032923Y-115814288D01*
X106926605Y-115770250D01*
X106813739Y-115747800D01*
X106698661Y-115747800D01*
X106585795Y-115770250D01*
X106479477Y-115814288D01*
X106383794Y-115878222D01*
X106302422Y-115959594D01*
X106238488Y-116055277D01*
X106194450Y-116161595D01*
X106172000Y-116274461D01*
X65852674Y-116274461D01*
X67125818Y-113988461D01*
X107010200Y-113988461D01*
X107010200Y-114103539D01*
X107032650Y-114216405D01*
X107076688Y-114322723D01*
X107140622Y-114418406D01*
X107221994Y-114499778D01*
X107317677Y-114563712D01*
X107423995Y-114607750D01*
X107536861Y-114630200D01*
X107651939Y-114630200D01*
X107764805Y-114607750D01*
X107871123Y-114563712D01*
X107966806Y-114499778D01*
X108048178Y-114418406D01*
X108112112Y-114322723D01*
X108156150Y-114216405D01*
X108159731Y-114198400D01*
X108159939Y-114198400D01*
X108272805Y-114175950D01*
X108379123Y-114131912D01*
X108474806Y-114067978D01*
X108556178Y-113986606D01*
X108620112Y-113890923D01*
X108664150Y-113784605D01*
X108686600Y-113671739D01*
X108686600Y-113556661D01*
X108664150Y-113443795D01*
X108620112Y-113337477D01*
X108556178Y-113241794D01*
X108474806Y-113160422D01*
X108379123Y-113096488D01*
X108272805Y-113052450D01*
X108159939Y-113030000D01*
X108044861Y-113030000D01*
X107931995Y-113052450D01*
X107825677Y-113096488D01*
X107729994Y-113160422D01*
X107648622Y-113241794D01*
X107584688Y-113337477D01*
X107540650Y-113443795D01*
X107537069Y-113461800D01*
X107536861Y-113461800D01*
X107423995Y-113484250D01*
X107317677Y-113528288D01*
X107221994Y-113592222D01*
X107140622Y-113673594D01*
X107076688Y-113769277D01*
X107032650Y-113875595D01*
X107010200Y-113988461D01*
X67125818Y-113988461D01*
X67245454Y-113773649D01*
X68312520Y-112223161D01*
X105448100Y-112223161D01*
X105448100Y-112338239D01*
X105470550Y-112451105D01*
X105514588Y-112557423D01*
X105578522Y-112653106D01*
X105659894Y-112734478D01*
X105755577Y-112798412D01*
X105861895Y-112842450D01*
X105974761Y-112864900D01*
X106089839Y-112864900D01*
X106202705Y-112842450D01*
X106309023Y-112798412D01*
X106404706Y-112734478D01*
X106486078Y-112653106D01*
X106550012Y-112557423D01*
X106594050Y-112451105D01*
X106616500Y-112338239D01*
X106616500Y-112223161D01*
X106594050Y-112110295D01*
X106550012Y-112003977D01*
X106486078Y-111908294D01*
X106404706Y-111826922D01*
X106309023Y-111762988D01*
X106202705Y-111718950D01*
X106089839Y-111696500D01*
X105974761Y-111696500D01*
X105861895Y-111718950D01*
X105755577Y-111762988D01*
X105659894Y-111826922D01*
X105578522Y-111908294D01*
X105514588Y-112003977D01*
X105470550Y-112110295D01*
X105448100Y-112223161D01*
X68312520Y-112223161D01*
X70450098Y-109117178D01*
X71389114Y-107818801D01*
X87536024Y-107818801D01*
X87536024Y-107933879D01*
X87558474Y-108046745D01*
X87602512Y-108153063D01*
X87666446Y-108248746D01*
X87747818Y-108330118D01*
X87843501Y-108394052D01*
X87949819Y-108438090D01*
X88062685Y-108460540D01*
X88177763Y-108460540D01*
X88290629Y-108438090D01*
X88396947Y-108394052D01*
X88492630Y-108330118D01*
X88574002Y-108248746D01*
X88637936Y-108153063D01*
X88681974Y-108046745D01*
X88704424Y-107933879D01*
X88704424Y-107846741D01*
X97670618Y-107846741D01*
X97670618Y-107961819D01*
X97693068Y-108074685D01*
X97737106Y-108181003D01*
X97801040Y-108276686D01*
X97882412Y-108358058D01*
X97978095Y-108421992D01*
X98084413Y-108466030D01*
X98197279Y-108488480D01*
X98312357Y-108488480D01*
X98425223Y-108466030D01*
X98531541Y-108421992D01*
X98627224Y-108358058D01*
X98708596Y-108276686D01*
X98772530Y-108181003D01*
X98816568Y-108074685D01*
X98839018Y-107961819D01*
X98839018Y-107846741D01*
X98816568Y-107733875D01*
X98772530Y-107627557D01*
X98708596Y-107531874D01*
X98627224Y-107450502D01*
X98531541Y-107386568D01*
X98425223Y-107342530D01*
X98312357Y-107320080D01*
X98197279Y-107320080D01*
X98084413Y-107342530D01*
X97978095Y-107386568D01*
X97882412Y-107450502D01*
X97801040Y-107531874D01*
X97737106Y-107627557D01*
X97693068Y-107733875D01*
X97670618Y-107846741D01*
X88704424Y-107846741D01*
X88704424Y-107818801D01*
X88681974Y-107705935D01*
X88637936Y-107599617D01*
X88574002Y-107503934D01*
X88492630Y-107422562D01*
X88396947Y-107358628D01*
X88290629Y-107314590D01*
X88177763Y-107292140D01*
X88062685Y-107292140D01*
X87949819Y-107314590D01*
X87843501Y-107358628D01*
X87747818Y-107422562D01*
X87666446Y-107503934D01*
X87602512Y-107599617D01*
X87558474Y-107705935D01*
X87536024Y-107818801D01*
X71389114Y-107818801D01*
X74115609Y-104048881D01*
X74125471Y-104035719D01*
X74127245Y-104032792D01*
X74129257Y-104030010D01*
X74137567Y-104015762D01*
X76102810Y-100773238D01*
X76106937Y-100767301D01*
X76113107Y-100756249D01*
X76119681Y-100745403D01*
X76122811Y-100738869D01*
X77886953Y-97579059D01*
X77891920Y-97571161D01*
X77896641Y-97561707D01*
X77901799Y-97552469D01*
X77905532Y-97543905D01*
X78775415Y-95802061D01*
X83896200Y-95802061D01*
X83896200Y-95917139D01*
X83918650Y-96030005D01*
X83962688Y-96136323D01*
X84026622Y-96232006D01*
X84107994Y-96313378D01*
X84203677Y-96377312D01*
X84309995Y-96421350D01*
X84422861Y-96443800D01*
X84537939Y-96443800D01*
X84650805Y-96421350D01*
X84757123Y-96377312D01*
X84852806Y-96313378D01*
X84934178Y-96232006D01*
X84998112Y-96136323D01*
X85042150Y-96030005D01*
X85064600Y-95917139D01*
X85064600Y-95802061D01*
X85042150Y-95689195D01*
X84998112Y-95582877D01*
X84934178Y-95487194D01*
X84852806Y-95405822D01*
X84757123Y-95341888D01*
X84650805Y-95297850D01*
X84537939Y-95275400D01*
X84422861Y-95275400D01*
X84309995Y-95297850D01*
X84203677Y-95341888D01*
X84107994Y-95405822D01*
X84026622Y-95487194D01*
X83962688Y-95582877D01*
X83918650Y-95689195D01*
X83896200Y-95802061D01*
X78775415Y-95802061D01*
X78962198Y-95428051D01*
X78968576Y-95416237D01*
X78971071Y-95410284D01*
X78973963Y-95404493D01*
X78978767Y-95391921D01*
X80116264Y-92677861D01*
X84759800Y-92677861D01*
X84759800Y-92792939D01*
X84782250Y-92905805D01*
X84826288Y-93012123D01*
X84890222Y-93107806D01*
X84971594Y-93189178D01*
X85067277Y-93253112D01*
X85173595Y-93297150D01*
X85286461Y-93319600D01*
X85401539Y-93319600D01*
X85514405Y-93297150D01*
X85620723Y-93253112D01*
X85716406Y-93189178D01*
X85797778Y-93107806D01*
X85861712Y-93012123D01*
X85905750Y-92905805D01*
X85928200Y-92792939D01*
X85928200Y-92677861D01*
X85905750Y-92564995D01*
X85861712Y-92458677D01*
X85797778Y-92362994D01*
X85716406Y-92281622D01*
X85620723Y-92217688D01*
X85514405Y-92173650D01*
X85401539Y-92151200D01*
X85286461Y-92151200D01*
X85173595Y-92173650D01*
X85067277Y-92217688D01*
X84971594Y-92281622D01*
X84890222Y-92362994D01*
X84826288Y-92458677D01*
X84782250Y-92564995D01*
X84759800Y-92677861D01*
X80116264Y-92677861D01*
X80522521Y-91708536D01*
X80525462Y-91703911D01*
X80537926Y-91671779D01*
X80543521Y-91658430D01*
X80545125Y-91653222D01*
X80547096Y-91648140D01*
X80550985Y-91634190D01*
X80561125Y-91601259D01*
X80561685Y-91595808D01*
X80936663Y-90250724D01*
X80938654Y-90246556D01*
X80947367Y-90212328D01*
X80951484Y-90197560D01*
X80952278Y-90193037D01*
X80953411Y-90188585D01*
X80955720Y-90173422D01*
X80961823Y-90138641D01*
X80961718Y-90134024D01*
X81227981Y-88385261D01*
X83540600Y-88385261D01*
X83540600Y-88500339D01*
X83563050Y-88613205D01*
X83607088Y-88719523D01*
X83671022Y-88815206D01*
X83752394Y-88896578D01*
X83848077Y-88960512D01*
X83954395Y-89004550D01*
X84067261Y-89027000D01*
X84182339Y-89027000D01*
X84295205Y-89004550D01*
X84401523Y-88960512D01*
X84497206Y-88896578D01*
X84578578Y-88815206D01*
X84642512Y-88719523D01*
X84686550Y-88613205D01*
X84709000Y-88500339D01*
X84709000Y-88385261D01*
X84686550Y-88272395D01*
X84642512Y-88166077D01*
X84578578Y-88070394D01*
X84497206Y-87989022D01*
X84401523Y-87925088D01*
X84295205Y-87881050D01*
X84182339Y-87858600D01*
X84067261Y-87858600D01*
X83954395Y-87881050D01*
X83848077Y-87925088D01*
X83752394Y-87989022D01*
X83671022Y-88070394D01*
X83607088Y-88166077D01*
X83563050Y-88272395D01*
X83540600Y-88385261D01*
X81227981Y-88385261D01*
X81254803Y-88209101D01*
X81256950Y-88198204D01*
X81257797Y-88189439D01*
X81259122Y-88180737D01*
X81259709Y-88169651D01*
X81328467Y-87458161D01*
X91953080Y-87458161D01*
X91953080Y-87573239D01*
X91975530Y-87686105D01*
X92019568Y-87792423D01*
X92083502Y-87888106D01*
X92164874Y-87969478D01*
X92260557Y-88033412D01*
X92366875Y-88077450D01*
X92479741Y-88099900D01*
X92594819Y-88099900D01*
X92707685Y-88077450D01*
X92814003Y-88033412D01*
X92909686Y-87969478D01*
X92991058Y-87888106D01*
X93054992Y-87792423D01*
X93099030Y-87686105D01*
X93121480Y-87573239D01*
X93121480Y-87458161D01*
X93099030Y-87345295D01*
X93054992Y-87238977D01*
X92991058Y-87143294D01*
X92909686Y-87061922D01*
X92814003Y-86997988D01*
X92707685Y-86953950D01*
X92594819Y-86931500D01*
X92479741Y-86931500D01*
X92366875Y-86953950D01*
X92260557Y-86997988D01*
X92164874Y-87061922D01*
X92083502Y-87143294D01*
X92019568Y-87238977D01*
X91975530Y-87345295D01*
X91953080Y-87458161D01*
X81328467Y-87458161D01*
X81599707Y-84651461D01*
X83743800Y-84651461D01*
X83743800Y-84766539D01*
X83766250Y-84879405D01*
X83810288Y-84985723D01*
X83874222Y-85081406D01*
X83955594Y-85162778D01*
X84051277Y-85226712D01*
X84157595Y-85270750D01*
X84270461Y-85293200D01*
X84385539Y-85293200D01*
X84498405Y-85270750D01*
X84604723Y-85226712D01*
X84700406Y-85162778D01*
X84781778Y-85081406D01*
X84845712Y-84985723D01*
X84889750Y-84879405D01*
X84912200Y-84766539D01*
X84912200Y-84651461D01*
X84889750Y-84538595D01*
X84883896Y-84524461D01*
X90525600Y-84524461D01*
X90525600Y-84639539D01*
X90548050Y-84752405D01*
X90592088Y-84858723D01*
X90656022Y-84954406D01*
X90737394Y-85035778D01*
X90833077Y-85099712D01*
X90939395Y-85143750D01*
X91052261Y-85166200D01*
X91167339Y-85166200D01*
X91280205Y-85143750D01*
X91386523Y-85099712D01*
X91482206Y-85035778D01*
X91563578Y-84954406D01*
X91627512Y-84858723D01*
X91671550Y-84752405D01*
X91694000Y-84639539D01*
X91694000Y-84524461D01*
X91671550Y-84411595D01*
X91627512Y-84305277D01*
X91563578Y-84209594D01*
X91482206Y-84128222D01*
X91386523Y-84064288D01*
X91280205Y-84020250D01*
X91167339Y-83997800D01*
X91052261Y-83997800D01*
X90939395Y-84020250D01*
X90833077Y-84064288D01*
X90737394Y-84128222D01*
X90656022Y-84209594D01*
X90592088Y-84305277D01*
X90548050Y-84411595D01*
X90525600Y-84524461D01*
X84883896Y-84524461D01*
X84845712Y-84432277D01*
X84781778Y-84336594D01*
X84700406Y-84255222D01*
X84604723Y-84191288D01*
X84498405Y-84147250D01*
X84385539Y-84124800D01*
X84270461Y-84124800D01*
X84157595Y-84147250D01*
X84051277Y-84191288D01*
X83955594Y-84255222D01*
X83874222Y-84336594D01*
X83810288Y-84432277D01*
X83766250Y-84538595D01*
X83743800Y-84651461D01*
X81599707Y-84651461D01*
X81724606Y-83359047D01*
X92075092Y-83359047D01*
X92075823Y-83373967D01*
X92279023Y-84745567D01*
X92282110Y-84758497D01*
X92536110Y-85520497D01*
X92541055Y-85532053D01*
X92998255Y-86395653D01*
X93006741Y-86408395D01*
X93017313Y-86418948D01*
X93029741Y-86427235D01*
X93791741Y-86833635D01*
X93802662Y-86838404D01*
X93817188Y-86841885D01*
X95290388Y-87045085D01*
X95299148Y-87045782D01*
X95314042Y-87044641D01*
X96177642Y-86892241D01*
X96186453Y-86890139D01*
X96200259Y-86884435D01*
X96962259Y-86478035D01*
X96968734Y-86474158D01*
X96980282Y-86464682D01*
X97793082Y-85651882D01*
X97803958Y-85638161D01*
X97810548Y-85624756D01*
X97962948Y-85218356D01*
X97966957Y-85202904D01*
X98064913Y-84549861D01*
X98526600Y-84549861D01*
X98526600Y-84664939D01*
X98549050Y-84777805D01*
X98593088Y-84884123D01*
X98657022Y-84979806D01*
X98738394Y-85061178D01*
X98834077Y-85125112D01*
X98940395Y-85169150D01*
X99053261Y-85191600D01*
X99168339Y-85191600D01*
X99281205Y-85169150D01*
X99387523Y-85125112D01*
X99483206Y-85061178D01*
X99564578Y-84979806D01*
X99628512Y-84884123D01*
X99672550Y-84777805D01*
X99695000Y-84664939D01*
X99695000Y-84549861D01*
X99672550Y-84436995D01*
X99628512Y-84330677D01*
X99564578Y-84234994D01*
X99483206Y-84153622D01*
X99387523Y-84089688D01*
X99281205Y-84045650D01*
X99168339Y-84023200D01*
X99053261Y-84023200D01*
X98940395Y-84045650D01*
X98834077Y-84089688D01*
X98738394Y-84153622D01*
X98657022Y-84234994D01*
X98593088Y-84330677D01*
X98549050Y-84436995D01*
X98526600Y-84549861D01*
X98064913Y-84549861D01*
X98119357Y-84186904D01*
X98119887Y-84168701D01*
X98101429Y-83965661D01*
X105079800Y-83965661D01*
X105079800Y-84080739D01*
X105102250Y-84193605D01*
X105146288Y-84299923D01*
X105210222Y-84395606D01*
X105291594Y-84476978D01*
X105387277Y-84540912D01*
X105493595Y-84584950D01*
X105606461Y-84607400D01*
X105721539Y-84607400D01*
X105834405Y-84584950D01*
X105940723Y-84540912D01*
X106036406Y-84476978D01*
X106117778Y-84395606D01*
X106181712Y-84299923D01*
X106225750Y-84193605D01*
X106248200Y-84080739D01*
X106248200Y-83965661D01*
X106225750Y-83852795D01*
X106181712Y-83746477D01*
X106117778Y-83650794D01*
X106037737Y-83570753D01*
X107010348Y-83570753D01*
X107061148Y-84383553D01*
X107063275Y-84397281D01*
X107164875Y-84803681D01*
X107168400Y-84814360D01*
X107175442Y-84827534D01*
X107184918Y-84839082D01*
X107591318Y-85245482D01*
X107601262Y-85253857D01*
X107614252Y-85261232D01*
X108071452Y-85464432D01*
X108089873Y-85469963D01*
X109004273Y-85622363D01*
X109016800Y-85623400D01*
X109982000Y-85623400D01*
X109999821Y-85621287D01*
X110013932Y-85616387D01*
X110674332Y-85311587D01*
X110684734Y-85305758D01*
X110696282Y-85296282D01*
X111153482Y-84839082D01*
X111164589Y-84824986D01*
X111171102Y-84811543D01*
X111473384Y-83991061D01*
X112852200Y-83991061D01*
X112852200Y-84106139D01*
X112874650Y-84219005D01*
X112918688Y-84325323D01*
X112982622Y-84421006D01*
X113063994Y-84502378D01*
X113159677Y-84566312D01*
X113265995Y-84610350D01*
X113378861Y-84632800D01*
X113493939Y-84632800D01*
X113606805Y-84610350D01*
X113713123Y-84566312D01*
X113808806Y-84502378D01*
X113890178Y-84421006D01*
X113954112Y-84325323D01*
X113998150Y-84219005D01*
X114020600Y-84106139D01*
X114020600Y-83991061D01*
X113998150Y-83878195D01*
X113954112Y-83771877D01*
X113890178Y-83676194D01*
X113808806Y-83594822D01*
X113713123Y-83530888D01*
X113606805Y-83486850D01*
X113493939Y-83464400D01*
X113378861Y-83464400D01*
X113265995Y-83486850D01*
X113159677Y-83530888D01*
X113063994Y-83594822D01*
X112982622Y-83676194D01*
X112918688Y-83771877D01*
X112874650Y-83878195D01*
X112852200Y-83991061D01*
X111473384Y-83991061D01*
X111526702Y-83846343D01*
X111530701Y-83830296D01*
X111683101Y-82712696D01*
X111682868Y-82690516D01*
X111530468Y-81725316D01*
X111527626Y-81713517D01*
X111521614Y-81699842D01*
X111064414Y-80887042D01*
X111051825Y-80870462D01*
X111040268Y-80860998D01*
X110583068Y-80556198D01*
X110569100Y-80548850D01*
X110061100Y-80345650D01*
X110040382Y-80340578D01*
X109532382Y-80289778D01*
X109515269Y-80289998D01*
X109500703Y-80293310D01*
X108738703Y-80547310D01*
X108724500Y-80553725D01*
X108712384Y-80562462D01*
X107848784Y-81324462D01*
X107839895Y-81333753D01*
X107831700Y-81346243D01*
X107272900Y-82413043D01*
X107266095Y-82431512D01*
X107012095Y-83549112D01*
X107010348Y-83570753D01*
X106037737Y-83570753D01*
X106036406Y-83569422D01*
X105940723Y-83505488D01*
X105834405Y-83461450D01*
X105721539Y-83439000D01*
X105606461Y-83439000D01*
X105493595Y-83461450D01*
X105387277Y-83505488D01*
X105291594Y-83569422D01*
X105210222Y-83650794D01*
X105146288Y-83746477D01*
X105102250Y-83852795D01*
X105079800Y-83965661D01*
X98101429Y-83965661D01*
X98018287Y-83051101D01*
X98016325Y-83039519D01*
X97762325Y-82023519D01*
X97755635Y-82006141D01*
X97349235Y-81244141D01*
X97343273Y-81234700D01*
X97333258Y-81223617D01*
X96774458Y-80715617D01*
X96764759Y-80708131D01*
X96751500Y-80701250D01*
X96243500Y-80498050D01*
X96230066Y-80494064D01*
X96215200Y-80492600D01*
X95351600Y-80492600D01*
X95340824Y-80493366D01*
X94274024Y-80645766D01*
X94260628Y-80648936D01*
X94246994Y-80655040D01*
X92824594Y-81467840D01*
X92807730Y-81480919D01*
X92798425Y-81492604D01*
X92239625Y-82356204D01*
X92232097Y-82371260D01*
X92228332Y-82385716D01*
X92075932Y-83350916D01*
X92075092Y-83359047D01*
X81724606Y-83359047D01*
X81967436Y-80846335D01*
X82006511Y-80460461D01*
X83743800Y-80460461D01*
X83743800Y-80575539D01*
X83766250Y-80688405D01*
X83810288Y-80794723D01*
X83874222Y-80890406D01*
X83955594Y-80971778D01*
X84051277Y-81035712D01*
X84157595Y-81079750D01*
X84270461Y-81102200D01*
X84385539Y-81102200D01*
X84498405Y-81079750D01*
X84604723Y-81035712D01*
X84700406Y-80971778D01*
X84781778Y-80890406D01*
X84845712Y-80794723D01*
X84889750Y-80688405D01*
X84912200Y-80575539D01*
X84912200Y-80460461D01*
X84889750Y-80347595D01*
X84845712Y-80241277D01*
X84781778Y-80145594D01*
X84700406Y-80064222D01*
X84604723Y-80000288D01*
X84498405Y-79956250D01*
X84385539Y-79933800D01*
X84270461Y-79933800D01*
X84157595Y-79956250D01*
X84051277Y-80000288D01*
X83955594Y-80064222D01*
X83874222Y-80145594D01*
X83810288Y-80241277D01*
X83766250Y-80347595D01*
X83743800Y-80460461D01*
X82006511Y-80460461D01*
X82217427Y-78377661D01*
X94411800Y-78377661D01*
X94411800Y-78492739D01*
X94434250Y-78605605D01*
X94478288Y-78711923D01*
X94542222Y-78807606D01*
X94623594Y-78888978D01*
X94719277Y-78952912D01*
X94825595Y-78996950D01*
X94919800Y-79015688D01*
X94919800Y-79127739D01*
X94942250Y-79240605D01*
X94986288Y-79346923D01*
X95050222Y-79442606D01*
X95131594Y-79523978D01*
X95227277Y-79587912D01*
X95333595Y-79631950D01*
X95446461Y-79654400D01*
X95561539Y-79654400D01*
X95674405Y-79631950D01*
X95780723Y-79587912D01*
X95876406Y-79523978D01*
X95957778Y-79442606D01*
X96021712Y-79346923D01*
X96065750Y-79240605D01*
X96088200Y-79127739D01*
X96088200Y-79012661D01*
X96065750Y-78899795D01*
X96021712Y-78793477D01*
X95957778Y-78697794D01*
X95876406Y-78616422D01*
X95780723Y-78552488D01*
X95674405Y-78508450D01*
X95580200Y-78489712D01*
X95580200Y-78377661D01*
X108534200Y-78377661D01*
X108534200Y-78492739D01*
X108556650Y-78605605D01*
X108600688Y-78711923D01*
X108664622Y-78807606D01*
X108745994Y-78888978D01*
X108841677Y-78952912D01*
X108947995Y-78996950D01*
X109042200Y-79015688D01*
X109042200Y-79127739D01*
X109064650Y-79240605D01*
X109108688Y-79346923D01*
X109172622Y-79442606D01*
X109253994Y-79523978D01*
X109349677Y-79587912D01*
X109455995Y-79631950D01*
X109568861Y-79654400D01*
X109683939Y-79654400D01*
X109796805Y-79631950D01*
X109903123Y-79587912D01*
X109998806Y-79523978D01*
X110080178Y-79442606D01*
X110144112Y-79346923D01*
X110188150Y-79240605D01*
X110210600Y-79127739D01*
X110210600Y-79012661D01*
X110188150Y-78899795D01*
X110144112Y-78793477D01*
X110080178Y-78697794D01*
X109998806Y-78616422D01*
X109903123Y-78552488D01*
X109796805Y-78508450D01*
X109702600Y-78489712D01*
X109702600Y-78377661D01*
X109680150Y-78264795D01*
X109636112Y-78158477D01*
X109572178Y-78062794D01*
X109490806Y-77981422D01*
X109395123Y-77917488D01*
X109288805Y-77873450D01*
X109175939Y-77851000D01*
X109060861Y-77851000D01*
X108947995Y-77873450D01*
X108841677Y-77917488D01*
X108745994Y-77981422D01*
X108664622Y-78062794D01*
X108600688Y-78158477D01*
X108556650Y-78264795D01*
X108534200Y-78377661D01*
X95580200Y-78377661D01*
X95557750Y-78264795D01*
X95513712Y-78158477D01*
X95449778Y-78062794D01*
X95368406Y-77981422D01*
X95272723Y-77917488D01*
X95166405Y-77873450D01*
X95053539Y-77851000D01*
X94938461Y-77851000D01*
X94825595Y-77873450D01*
X94719277Y-77917488D01*
X94623594Y-77981422D01*
X94542222Y-78062794D01*
X94478288Y-78158477D01*
X94434250Y-78264795D01*
X94411800Y-78377661D01*
X82217427Y-78377661D01*
X82412911Y-76447261D01*
X83769200Y-76447261D01*
X83769200Y-76562339D01*
X83791650Y-76675205D01*
X83835688Y-76781523D01*
X83899622Y-76877206D01*
X83980994Y-76958578D01*
X84076677Y-77022512D01*
X84182995Y-77066550D01*
X84295861Y-77089000D01*
X84410939Y-77089000D01*
X84523805Y-77066550D01*
X84630123Y-77022512D01*
X84725806Y-76958578D01*
X84807178Y-76877206D01*
X84871112Y-76781523D01*
X84915150Y-76675205D01*
X84937600Y-76562339D01*
X84937600Y-76447261D01*
X84915150Y-76334395D01*
X84871112Y-76228077D01*
X84807178Y-76132394D01*
X84725806Y-76051022D01*
X84630123Y-75987088D01*
X84523805Y-75943050D01*
X84410939Y-75920600D01*
X84295861Y-75920600D01*
X84182995Y-75943050D01*
X84076677Y-75987088D01*
X83980994Y-76051022D01*
X83899622Y-76132394D01*
X83835688Y-76228077D01*
X83791650Y-76334395D01*
X83769200Y-76447261D01*
X82412911Y-76447261D01*
X82596437Y-74634955D01*
X82624092Y-74440661D01*
X94411800Y-74440661D01*
X94411800Y-74555739D01*
X94434250Y-74668605D01*
X94478288Y-74774923D01*
X94542222Y-74870606D01*
X94623594Y-74951978D01*
X94719277Y-75015912D01*
X94825595Y-75059950D01*
X94919800Y-75078688D01*
X94919800Y-75089139D01*
X94942250Y-75202005D01*
X94986288Y-75308323D01*
X95050222Y-75404006D01*
X95131594Y-75485378D01*
X95227277Y-75549312D01*
X95333595Y-75593350D01*
X95430896Y-75612704D01*
X95450250Y-75710005D01*
X95494288Y-75816323D01*
X95558222Y-75912006D01*
X95639594Y-75993378D01*
X95735277Y-76057312D01*
X95841595Y-76101350D01*
X95954461Y-76123800D01*
X96069539Y-76123800D01*
X96182405Y-76101350D01*
X96288723Y-76057312D01*
X96384406Y-75993378D01*
X96465778Y-75912006D01*
X96529712Y-75816323D01*
X96573750Y-75710005D01*
X96596200Y-75597139D01*
X96596200Y-75482061D01*
X96573750Y-75369195D01*
X96529712Y-75262877D01*
X96465778Y-75167194D01*
X96384406Y-75085822D01*
X96288723Y-75021888D01*
X96182405Y-74977850D01*
X96085104Y-74958496D01*
X96065750Y-74861195D01*
X96021712Y-74754877D01*
X95957778Y-74659194D01*
X95876406Y-74577822D01*
X95780723Y-74513888D01*
X95674405Y-74469850D01*
X95580200Y-74451112D01*
X95580200Y-74440661D01*
X108534200Y-74440661D01*
X108534200Y-74555739D01*
X108556650Y-74668605D01*
X108600688Y-74774923D01*
X108664622Y-74870606D01*
X108745994Y-74951978D01*
X108841677Y-75015912D01*
X108947995Y-75059950D01*
X109042200Y-75078688D01*
X109042200Y-75089139D01*
X109064650Y-75202005D01*
X109108688Y-75308323D01*
X109172622Y-75404006D01*
X109253994Y-75485378D01*
X109349677Y-75549312D01*
X109455995Y-75593350D01*
X109553296Y-75612704D01*
X109572650Y-75710005D01*
X109616688Y-75816323D01*
X109680622Y-75912006D01*
X109761994Y-75993378D01*
X109857677Y-76057312D01*
X109963995Y-76101350D01*
X110076861Y-76123800D01*
X110191939Y-76123800D01*
X110304805Y-76101350D01*
X110411123Y-76057312D01*
X110506806Y-75993378D01*
X110588178Y-75912006D01*
X110652112Y-75816323D01*
X110696150Y-75710005D01*
X110718600Y-75597139D01*
X110718600Y-75482061D01*
X110696150Y-75369195D01*
X110652112Y-75262877D01*
X110588178Y-75167194D01*
X110506806Y-75085822D01*
X110411123Y-75021888D01*
X110304805Y-74977850D01*
X110207504Y-74958496D01*
X110188150Y-74861195D01*
X110144112Y-74754877D01*
X110080178Y-74659194D01*
X109998806Y-74577822D01*
X109903123Y-74513888D01*
X109796805Y-74469850D01*
X109702600Y-74451112D01*
X109702600Y-74440661D01*
X109680150Y-74327795D01*
X109636112Y-74221477D01*
X109572178Y-74125794D01*
X109490806Y-74044422D01*
X109395123Y-73980488D01*
X109288805Y-73936450D01*
X109175939Y-73914000D01*
X109060861Y-73914000D01*
X108947995Y-73936450D01*
X108841677Y-73980488D01*
X108745994Y-74044422D01*
X108664622Y-74125794D01*
X108600688Y-74221477D01*
X108556650Y-74327795D01*
X108534200Y-74440661D01*
X95580200Y-74440661D01*
X95557750Y-74327795D01*
X95513712Y-74221477D01*
X95449778Y-74125794D01*
X95368406Y-74044422D01*
X95272723Y-73980488D01*
X95166405Y-73936450D01*
X95053539Y-73914000D01*
X94938461Y-73914000D01*
X94825595Y-73936450D01*
X94719277Y-73980488D01*
X94623594Y-74044422D01*
X94542222Y-74125794D01*
X94478288Y-74221477D01*
X94434250Y-74327795D01*
X94411800Y-74440661D01*
X82624092Y-74440661D01*
X82790534Y-73271301D01*
X83419142Y-70722088D01*
X84388851Y-68605464D01*
X85709681Y-66710469D01*
X87071510Y-65331781D01*
X96495800Y-65331781D01*
X96495800Y-66037019D01*
X96633385Y-66728706D01*
X96903268Y-67380261D01*
X97295077Y-67966644D01*
X97793756Y-68465323D01*
X98380139Y-68857132D01*
X99031694Y-69127015D01*
X99723381Y-69264600D01*
X100428619Y-69264600D01*
X101120306Y-69127015D01*
X101771861Y-68857132D01*
X102358244Y-68465323D01*
X102856923Y-67966644D01*
X103248732Y-67380261D01*
X103518615Y-66728706D01*
X103656200Y-66037019D01*
X103656200Y-65331781D01*
X103518615Y-64640094D01*
X103248732Y-63988539D01*
X102856923Y-63402156D01*
X102358244Y-62903477D01*
X101771861Y-62511668D01*
X101120306Y-62241785D01*
X100428619Y-62104200D01*
X99723381Y-62104200D01*
X99031694Y-62241785D01*
X98380139Y-62511668D01*
X97793756Y-62903477D01*
X97295077Y-63402156D01*
X96903268Y-63988539D01*
X96633385Y-64640094D01*
X96495800Y-65331781D01*
X87071510Y-65331781D01*
X87507491Y-64890403D01*
X89579028Y-63410381D01*
X92038487Y-62185621D01*
X94662448Y-61325062D01*
X96605651Y-60985497D01*
X98512543Y-60840352D01*
X100254333Y-60785295D01*
X103827737Y-60973634D01*
X103827737Y-60973634D01*
G37*
X103827737Y-60973634D02*
X105420797Y-61248641D01*
X105861651Y-61362937D01*
X108208455Y-62274895D01*
X110152265Y-63502048D01*
X111848694Y-65132287D01*
X113253800Y-67231335D01*
X114239908Y-69529783D01*
X114946547Y-72316535D01*
X115286885Y-75392092D01*
X115311840Y-76654792D01*
X115309312Y-79142766D01*
X114824496Y-92484115D01*
X114629005Y-96810297D01*
X114565918Y-98145210D01*
X114563149Y-98176898D01*
X114566212Y-98204838D01*
X114567643Y-98232912D01*
X114570552Y-98244433D01*
X114571846Y-98256240D01*
X114580303Y-98283053D01*
X114587182Y-98310300D01*
X114592278Y-98321023D01*
X114595854Y-98332361D01*
X114609385Y-98357019D01*
X114621443Y-98382391D01*
X114640432Y-98407897D01*
X115625792Y-99848039D01*
X116851543Y-101665274D01*
X116852168Y-101666413D01*
X116862617Y-101681692D01*
X116873067Y-101697184D01*
X116873903Y-101698194D01*
X118364878Y-103878276D01*
X118366091Y-103880424D01*
X118376039Y-103894595D01*
X118385936Y-103909066D01*
X118387541Y-103910980D01*
X120940344Y-107547402D01*
X120941409Y-107549244D01*
X120951727Y-107563618D01*
X120961978Y-107578220D01*
X120963377Y-107579847D01*
X124023180Y-111842348D01*
X124758700Y-112980654D01*
X125590740Y-114432353D01*
X126566866Y-116522621D01*
X127358124Y-118495758D01*
X127358282Y-118496297D01*
X127365440Y-118514003D01*
X127372724Y-118532167D01*
X127372989Y-118532677D01*
X129093056Y-122787449D01*
X129095126Y-122793722D01*
X129100483Y-122805819D01*
X129105479Y-122818178D01*
X129108566Y-122824073D01*
X130394527Y-125728185D01*
X130395708Y-125731562D01*
X130402545Y-125746291D01*
X130409180Y-125761276D01*
X130410958Y-125764418D01*
X131373501Y-127838171D01*
X133331437Y-132173966D01*
X133709211Y-133246747D01*
X133869216Y-134302301D01*
X133876616Y-136023946D01*
X133772351Y-137039925D01*
X133585122Y-137822021D01*
X133581679Y-137830481D01*
X133575852Y-137860747D01*
X133573326Y-137871297D01*
X133572086Y-137880305D01*
X133566588Y-137908860D01*
X133566655Y-137919758D01*
X133565168Y-137930558D01*
X133566899Y-137959583D01*
X133567077Y-137988674D01*
X133569271Y-137999358D01*
X133569919Y-138010232D01*
X133577278Y-138038361D01*
X133579108Y-138047272D01*
X133582321Y-138057635D01*
X133590122Y-138087451D01*
X133594113Y-138095667D01*
X134446350Y-140844260D01*
X134449038Y-140859150D01*
X134458133Y-140882261D01*
X134459574Y-140886908D01*
X134465436Y-140900819D01*
X134478267Y-140933422D01*
X134480907Y-140937529D01*
X134482805Y-140942033D01*
X134502483Y-140971096D01*
X134510613Y-140983743D01*
X134513618Y-140987540D01*
X134527556Y-141008125D01*
X134538331Y-141018769D01*
X134776996Y-141320354D01*
X135515126Y-142779335D01*
X136104983Y-144042965D01*
X136106488Y-144048442D01*
X136121822Y-144079040D01*
X136127874Y-144092004D01*
X136130763Y-144096880D01*
X136133290Y-144101922D01*
X136140890Y-144113971D01*
X136158368Y-144143468D01*
X136162166Y-144147701D01*
X136657376Y-144932791D01*
X136660378Y-144938343D01*
X136667959Y-144949570D01*
X136675223Y-144961086D01*
X136679117Y-144966093D01*
X137001930Y-145444155D01*
X137021285Y-145474136D01*
X137038117Y-145491508D01*
X137053565Y-145510145D01*
X137081313Y-145532691D01*
X137805228Y-146146180D01*
X137812415Y-146154299D01*
X137835601Y-146171920D01*
X137842575Y-146177830D01*
X137851455Y-146183968D01*
X137875963Y-146202594D01*
X137884222Y-146206619D01*
X137891783Y-146211846D01*
X137920047Y-146224080D01*
X137929736Y-146228802D01*
X137938294Y-146231978D01*
X137965032Y-146243551D01*
X137975637Y-146245835D01*
X138986294Y-146620875D01*
X139006734Y-146630514D01*
X139042889Y-146639527D01*
X139079004Y-146649024D01*
X139101571Y-146650398D01*
X140396184Y-146840926D01*
X140400983Y-146842504D01*
X140435599Y-146846726D01*
X140450355Y-146848898D01*
X140455380Y-146849139D01*
X140460363Y-146849747D01*
X140475239Y-146850092D01*
X140510106Y-146851766D01*
X140515108Y-146851018D01*
X142113625Y-146888136D01*
X144118964Y-147008701D01*
X144919787Y-147293439D01*
X145599103Y-147810597D01*
X146103615Y-148606511D01*
X146294071Y-149879314D01*
X146257602Y-151466950D01*
X145561448Y-154883081D01*
X145561166Y-154883759D01*
X145553498Y-154922093D01*
X145549651Y-154940969D01*
X145549576Y-154941699D01*
X145549432Y-154942417D01*
X145547518Y-154961636D01*
X145543509Y-155000473D01*
X145543577Y-155001200D01*
X145423095Y-156210843D01*
X145420053Y-156223815D01*
X145419148Y-156250466D01*
X145418487Y-156257103D01*
X145418472Y-156270366D01*
X145418023Y-156283600D01*
X145418450Y-156290247D01*
X145418421Y-156316922D01*
X145421006Y-156329993D01*
X145490602Y-157412334D01*
X145490233Y-157415486D01*
X145493161Y-157452129D01*
X145494237Y-157468860D01*
X145494747Y-157471972D01*
X145494998Y-157475115D01*
X145497967Y-157491628D01*
X145503908Y-157527893D01*
X145505021Y-157530861D01*
X145758254Y-158939319D01*
X145758245Y-158939860D01*
X145765288Y-158978444D01*
X145768741Y-158997649D01*
X145768889Y-158998172D01*
X145768987Y-158998708D01*
X145774355Y-159017466D01*
X145785046Y-159055204D01*
X145785293Y-159055687D01*
X146669831Y-162146603D01*
X146763828Y-162926775D01*
X146739389Y-163637726D01*
X146496167Y-164247841D01*
X146033810Y-164716562D01*
X145293259Y-165176533D01*
X144110791Y-165601257D01*
X135190926Y-167697817D01*
X135187729Y-167698296D01*
X135171588Y-167702363D01*
X135155338Y-167706182D01*
X135152271Y-167707229D01*
X134440199Y-167886627D01*
X133307398Y-165092156D01*
X133286310Y-165049323D01*
X133248279Y-164996944D01*
X133200759Y-164952990D01*
X133145577Y-164919152D01*
X133084854Y-164896729D01*
X133020924Y-164886584D01*
X132956242Y-164889105D01*
X132893296Y-164904197D01*
X117256568Y-170321245D01*
X109550200Y-166222425D01*
X109550200Y-162610800D01*
X109543855Y-162546381D01*
X109525065Y-162484438D01*
X109494551Y-162427351D01*
X109453487Y-162377313D01*
X109403449Y-162336249D01*
X109346362Y-162305735D01*
X109284419Y-162286945D01*
X109220000Y-162280600D01*
X105664000Y-162280600D01*
X105599581Y-162286945D01*
X105537638Y-162305735D01*
X105480551Y-162336249D01*
X105430513Y-162377313D01*
X105389449Y-162427351D01*
X105358935Y-162484438D01*
X105340145Y-162546381D01*
X105333800Y-162610800D01*
X105333800Y-165074600D01*
X102438200Y-165074600D01*
X102438200Y-162610800D01*
X102431855Y-162546381D01*
X102413065Y-162484438D01*
X102382551Y-162427351D01*
X102341487Y-162377313D01*
X102291449Y-162336249D01*
X102234362Y-162305735D01*
X102172419Y-162286945D01*
X102108000Y-162280600D01*
X100584000Y-162280600D01*
X100519581Y-162286945D01*
X100457638Y-162305735D01*
X100400551Y-162336249D01*
X100350513Y-162377313D01*
X100309449Y-162427351D01*
X100278935Y-162484438D01*
X100260145Y-162546381D01*
X100253800Y-162610800D01*
X100253800Y-165074600D01*
X93802200Y-165074600D01*
X93802200Y-162610800D01*
X93795855Y-162546381D01*
X93777065Y-162484438D01*
X93746551Y-162427351D01*
X93705487Y-162377313D01*
X93655449Y-162336249D01*
X93598362Y-162305735D01*
X93536419Y-162286945D01*
X93472000Y-162280600D01*
X91948000Y-162280600D01*
X91883581Y-162286945D01*
X91821638Y-162305735D01*
X91764551Y-162336249D01*
X91714513Y-162377313D01*
X91673449Y-162427351D01*
X91642935Y-162484438D01*
X91624145Y-162546381D01*
X91617800Y-162610800D01*
X91617800Y-165074600D01*
X88722200Y-165074600D01*
X88722200Y-162610800D01*
X88715855Y-162546381D01*
X88697065Y-162484438D01*
X88666551Y-162427351D01*
X88625487Y-162377313D01*
X88575449Y-162336249D01*
X88518362Y-162305735D01*
X88456419Y-162286945D01*
X88392000Y-162280600D01*
X84582000Y-162280600D01*
X84517581Y-162286945D01*
X84455638Y-162305735D01*
X84398551Y-162336249D01*
X84348513Y-162377313D01*
X84307449Y-162427351D01*
X84276935Y-162484438D01*
X84258145Y-162546381D01*
X84251800Y-162610800D01*
X84251800Y-168697453D01*
X82855392Y-170573192D01*
X81621874Y-171690842D01*
X80419905Y-172352864D01*
X79341873Y-172554410D01*
X77979787Y-172626099D01*
X74543470Y-172626099D01*
X73653244Y-172526101D01*
X72863764Y-172379989D01*
X72061041Y-172022455D01*
X71355737Y-171519008D01*
X69142262Y-169593813D01*
X69141944Y-169593477D01*
X69126919Y-169580468D01*
X69112565Y-169567983D01*
X69112204Y-169567727D01*
X68089975Y-168682626D01*
X67385288Y-168072409D01*
X66815785Y-167575986D01*
X66805358Y-167566363D01*
X66800756Y-167562885D01*
X66796433Y-167559117D01*
X66784939Y-167550933D01*
X66012478Y-166967185D01*
X64782580Y-166004549D01*
X64781220Y-166003000D01*
X64751109Y-165979917D01*
X64737097Y-165968950D01*
X64735379Y-165967859D01*
X64733745Y-165966606D01*
X64718464Y-165957113D01*
X64686604Y-165936874D01*
X64684690Y-165936133D01*
X63879919Y-165436199D01*
X62251783Y-164408170D01*
X62238940Y-164399654D01*
X62234927Y-164397527D01*
X62231110Y-164395117D01*
X62217421Y-164388249D01*
X60968275Y-163726203D01*
X60967628Y-163725777D01*
X60950433Y-163716746D01*
X60933772Y-163707916D01*
X60933076Y-163707631D01*
X59651964Y-163034800D01*
X59647103Y-163031795D01*
X59634287Y-163025516D01*
X59621750Y-163018932D01*
X59616495Y-163016800D01*
X58253335Y-162348978D01*
X57193421Y-161767654D01*
X57147767Y-161740461D01*
X88876600Y-161740461D01*
X88876600Y-161855539D01*
X88899050Y-161968405D01*
X88943088Y-162074723D01*
X89007022Y-162170406D01*
X89088394Y-162251778D01*
X89184077Y-162315712D01*
X89290395Y-162359750D01*
X89403261Y-162382200D01*
X89518339Y-162382200D01*
X89631205Y-162359750D01*
X89737523Y-162315712D01*
X89833206Y-162251778D01*
X89839800Y-162245184D01*
X89846394Y-162251778D01*
X89942077Y-162315712D01*
X90048395Y-162359750D01*
X90161261Y-162382200D01*
X90276339Y-162382200D01*
X90389205Y-162359750D01*
X90495523Y-162315712D01*
X90591206Y-162251778D01*
X90672578Y-162170406D01*
X90736512Y-162074723D01*
X90780550Y-161968405D01*
X90803000Y-161855539D01*
X90803000Y-161740461D01*
X102592600Y-161740461D01*
X102592600Y-161855539D01*
X102615050Y-161968405D01*
X102659088Y-162074723D01*
X102723022Y-162170406D01*
X102804394Y-162251778D01*
X102900077Y-162315712D01*
X103006395Y-162359750D01*
X103119261Y-162382200D01*
X103234339Y-162382200D01*
X103347205Y-162359750D01*
X103453523Y-162315712D01*
X103549206Y-162251778D01*
X103555800Y-162245184D01*
X103562394Y-162251778D01*
X103658077Y-162315712D01*
X103764395Y-162359750D01*
X103877261Y-162382200D01*
X103992339Y-162382200D01*
X104105205Y-162359750D01*
X104211523Y-162315712D01*
X104307206Y-162251778D01*
X104388578Y-162170406D01*
X104452512Y-162074723D01*
X104496550Y-161968405D01*
X104519000Y-161855539D01*
X104519000Y-161740461D01*
X104496550Y-161627595D01*
X104452512Y-161521277D01*
X104388578Y-161425594D01*
X104307206Y-161344222D01*
X104211523Y-161280288D01*
X104105205Y-161236250D01*
X103992339Y-161213800D01*
X103877261Y-161213800D01*
X103764395Y-161236250D01*
X103658077Y-161280288D01*
X103562394Y-161344222D01*
X103555800Y-161350816D01*
X103549206Y-161344222D01*
X103453523Y-161280288D01*
X103347205Y-161236250D01*
X103234339Y-161213800D01*
X103119261Y-161213800D01*
X103006395Y-161236250D01*
X102900077Y-161280288D01*
X102804394Y-161344222D01*
X102723022Y-161425594D01*
X102659088Y-161521277D01*
X102615050Y-161627595D01*
X102592600Y-161740461D01*
X90803000Y-161740461D01*
X90780550Y-161627595D01*
X90736512Y-161521277D01*
X90672578Y-161425594D01*
X90591206Y-161344222D01*
X90495523Y-161280288D01*
X90389205Y-161236250D01*
X90276339Y-161213800D01*
X90161261Y-161213800D01*
X90048395Y-161236250D01*
X89942077Y-161280288D01*
X89846394Y-161344222D01*
X89839800Y-161350816D01*
X89833206Y-161344222D01*
X89737523Y-161280288D01*
X89631205Y-161236250D01*
X89518339Y-161213800D01*
X89403261Y-161213800D01*
X89290395Y-161236250D01*
X89184077Y-161280288D01*
X89088394Y-161344222D01*
X89007022Y-161425594D01*
X88943088Y-161521277D01*
X88899050Y-161627595D01*
X88876600Y-161740461D01*
X57147767Y-161740461D01*
X54547381Y-160191612D01*
X53103596Y-159124261D01*
X100812600Y-159124261D01*
X100812600Y-159239339D01*
X100835050Y-159352205D01*
X100879088Y-159458523D01*
X100943022Y-159554206D01*
X101024394Y-159635578D01*
X101120077Y-159699512D01*
X101226395Y-159743550D01*
X101339261Y-159766000D01*
X101454339Y-159766000D01*
X101567205Y-159743550D01*
X101673523Y-159699512D01*
X101769206Y-159635578D01*
X101850578Y-159554206D01*
X101914512Y-159458523D01*
X101958550Y-159352205D01*
X101981000Y-159239339D01*
X101981000Y-159124261D01*
X101958550Y-159011395D01*
X101914512Y-158905077D01*
X101850578Y-158809394D01*
X101769206Y-158728022D01*
X101673523Y-158664088D01*
X101567205Y-158620050D01*
X101454339Y-158597600D01*
X101339261Y-158597600D01*
X101226395Y-158620050D01*
X101120077Y-158664088D01*
X101024394Y-158728022D01*
X100943022Y-158809394D01*
X100879088Y-158905077D01*
X100835050Y-159011395D01*
X100812600Y-159124261D01*
X53103596Y-159124261D01*
X53046426Y-159081997D01*
X51497383Y-157574100D01*
X51309621Y-157144378D01*
X51248697Y-156421679D01*
X51473224Y-155760688D01*
X52025172Y-155008032D01*
X53013502Y-154135977D01*
X53141153Y-154044261D01*
X113461800Y-154044261D01*
X113461800Y-154159339D01*
X113484250Y-154272205D01*
X113528288Y-154378523D01*
X113592222Y-154474206D01*
X113673594Y-154555578D01*
X113769277Y-154619512D01*
X113875595Y-154663550D01*
X113988461Y-154686000D01*
X114103539Y-154686000D01*
X114216405Y-154663550D01*
X114322723Y-154619512D01*
X114418406Y-154555578D01*
X114499778Y-154474206D01*
X114563712Y-154378523D01*
X114607750Y-154272205D01*
X114630200Y-154159339D01*
X114630200Y-154044261D01*
X114607750Y-153931395D01*
X114563712Y-153825077D01*
X114499778Y-153729394D01*
X114418406Y-153648022D01*
X114322723Y-153584088D01*
X114216405Y-153540050D01*
X114103539Y-153517600D01*
X113988461Y-153517600D01*
X113875595Y-153540050D01*
X113769277Y-153584088D01*
X113673594Y-153648022D01*
X113592222Y-153729394D01*
X113528288Y-153825077D01*
X113484250Y-153931395D01*
X113461800Y-154044261D01*
X53141153Y-154044261D01*
X55411165Y-152413288D01*
X55423493Y-152404877D01*
X55427262Y-152401723D01*
X55431278Y-152398837D01*
X55442554Y-152388923D01*
X56108046Y-151831921D01*
X107876340Y-151831921D01*
X107876340Y-151946999D01*
X107898790Y-152059865D01*
X107942828Y-152166183D01*
X108006762Y-152261866D01*
X108088134Y-152343238D01*
X108183817Y-152407172D01*
X108290135Y-152451210D01*
X108403001Y-152473660D01*
X108518079Y-152473660D01*
X108630945Y-152451210D01*
X108737263Y-152407172D01*
X108832946Y-152343238D01*
X108914318Y-152261866D01*
X108978252Y-152166183D01*
X109022290Y-152059865D01*
X109044740Y-151946999D01*
X109044740Y-151831921D01*
X109138720Y-151831921D01*
X109138720Y-151946999D01*
X109161170Y-152059865D01*
X109205208Y-152166183D01*
X109269142Y-152261866D01*
X109350514Y-152343238D01*
X109446197Y-152407172D01*
X109552515Y-152451210D01*
X109665381Y-152473660D01*
X109780459Y-152473660D01*
X109893325Y-152451210D01*
X109999643Y-152407172D01*
X110095326Y-152343238D01*
X110176698Y-152261866D01*
X110240632Y-152166183D01*
X110284670Y-152059865D01*
X110307120Y-151946999D01*
X110307120Y-151834461D01*
X110416340Y-151834461D01*
X110416340Y-151949539D01*
X110438790Y-152062405D01*
X110482828Y-152168723D01*
X110546762Y-152264406D01*
X110628134Y-152345778D01*
X110723817Y-152409712D01*
X110830135Y-152453750D01*
X110943001Y-152476200D01*
X111058079Y-152476200D01*
X111170945Y-152453750D01*
X111277263Y-152409712D01*
X111372946Y-152345778D01*
X111454318Y-152264406D01*
X111518252Y-152168723D01*
X111562290Y-152062405D01*
X111584740Y-151949539D01*
X111584740Y-151834461D01*
X111562290Y-151721595D01*
X111518252Y-151615277D01*
X111454318Y-151519594D01*
X111372946Y-151438222D01*
X111277263Y-151374288D01*
X111170945Y-151330250D01*
X111058079Y-151307800D01*
X110943001Y-151307800D01*
X110830135Y-151330250D01*
X110723817Y-151374288D01*
X110628134Y-151438222D01*
X110546762Y-151519594D01*
X110482828Y-151615277D01*
X110438790Y-151721595D01*
X110416340Y-151834461D01*
X110307120Y-151834461D01*
X110307120Y-151831921D01*
X110284670Y-151719055D01*
X110240632Y-151612737D01*
X110176698Y-151517054D01*
X110095326Y-151435682D01*
X109999643Y-151371748D01*
X109893325Y-151327710D01*
X109780459Y-151305260D01*
X109665381Y-151305260D01*
X109552515Y-151327710D01*
X109446197Y-151371748D01*
X109350514Y-151435682D01*
X109269142Y-151517054D01*
X109205208Y-151612737D01*
X109161170Y-151719055D01*
X109138720Y-151831921D01*
X109044740Y-151831921D01*
X109022290Y-151719055D01*
X108978252Y-151612737D01*
X108914318Y-151517054D01*
X108832946Y-151435682D01*
X108737263Y-151371748D01*
X108630945Y-151327710D01*
X108518079Y-151305260D01*
X108403001Y-151305260D01*
X108290135Y-151327710D01*
X108183817Y-151371748D01*
X108088134Y-151435682D01*
X108006762Y-151517054D01*
X107942828Y-151612737D01*
X107898790Y-151719055D01*
X107876340Y-151831921D01*
X56108046Y-151831921D01*
X56714834Y-151324054D01*
X56728485Y-151312871D01*
X56729989Y-151311370D01*
X56731635Y-151309992D01*
X56744111Y-151297273D01*
X57175426Y-150866721D01*
X115031520Y-150866721D01*
X115031520Y-150981799D01*
X115053970Y-151094665D01*
X115098008Y-151200983D01*
X115161942Y-151296666D01*
X115243314Y-151378038D01*
X115338997Y-151441972D01*
X115445315Y-151486010D01*
X115558181Y-151508460D01*
X115673259Y-151508460D01*
X115786125Y-151486010D01*
X115892443Y-151441972D01*
X115988126Y-151378038D01*
X116069498Y-151296666D01*
X116133432Y-151200983D01*
X116177470Y-151094665D01*
X116199920Y-150981799D01*
X116199920Y-150866721D01*
X116177470Y-150753855D01*
X116133432Y-150647537D01*
X116069498Y-150551854D01*
X115988126Y-150470482D01*
X115892443Y-150406548D01*
X115786125Y-150362510D01*
X115673259Y-150340060D01*
X115558181Y-150340060D01*
X115445315Y-150362510D01*
X115338997Y-150406548D01*
X115243314Y-150470482D01*
X115161942Y-150551854D01*
X115098008Y-150647537D01*
X115053970Y-150753855D01*
X115031520Y-150866721D01*
X57175426Y-150866721D01*
X58156776Y-149887109D01*
X58165107Y-149880919D01*
X58184955Y-149858980D01*
X58191754Y-149852193D01*
X58198319Y-149844208D01*
X58205239Y-149836559D01*
X58210943Y-149828854D01*
X58229745Y-149805985D01*
X58234649Y-149796830D01*
X59208311Y-148481533D01*
X59210163Y-148479809D01*
X59231993Y-148449541D01*
X59242380Y-148435510D01*
X59243677Y-148433341D01*
X59256853Y-148415073D01*
X59264115Y-148399175D01*
X59273088Y-148384173D01*
X59280660Y-148362949D01*
X59281706Y-148360660D01*
X59287337Y-148344237D01*
X59299910Y-148308997D01*
X59300280Y-148306485D01*
X59386553Y-148054855D01*
X113640200Y-148054855D01*
X113640200Y-148169145D01*
X113662497Y-148281238D01*
X113706234Y-148386828D01*
X113769729Y-148481856D01*
X113850544Y-148562671D01*
X113945572Y-148626166D01*
X114051162Y-148669903D01*
X114163255Y-148692200D01*
X114277545Y-148692200D01*
X114389638Y-148669903D01*
X114495228Y-148626166D01*
X114590256Y-148562671D01*
X114671071Y-148481856D01*
X114734566Y-148386828D01*
X114778303Y-148281238D01*
X114800600Y-148169145D01*
X114800600Y-148054855D01*
X114778303Y-147942762D01*
X114734566Y-147837172D01*
X114671071Y-147742144D01*
X114590256Y-147661329D01*
X114495228Y-147597834D01*
X114389638Y-147554097D01*
X114277545Y-147531800D01*
X114163255Y-147531800D01*
X114051162Y-147554097D01*
X113945572Y-147597834D01*
X113850544Y-147661329D01*
X113769729Y-147742144D01*
X113706234Y-147837172D01*
X113662497Y-147942762D01*
X113640200Y-148054855D01*
X59386553Y-148054855D01*
X59704436Y-147127698D01*
X59708057Y-147120892D01*
X59717358Y-147090009D01*
X59721335Y-147078410D01*
X59723099Y-147070946D01*
X59725308Y-147063613D01*
X59727674Y-147051597D01*
X59735097Y-147020195D01*
X59735373Y-147012489D01*
X59736165Y-147008461D01*
X96443800Y-147008461D01*
X96443800Y-147123539D01*
X96466250Y-147236405D01*
X96510288Y-147342723D01*
X96574222Y-147438406D01*
X96655594Y-147519778D01*
X96751277Y-147583712D01*
X96857595Y-147627750D01*
X96970461Y-147650200D01*
X97085539Y-147650200D01*
X97198405Y-147627750D01*
X97304723Y-147583712D01*
X97400406Y-147519778D01*
X97481778Y-147438406D01*
X97545712Y-147342723D01*
X97589750Y-147236405D01*
X97612200Y-147123539D01*
X97612200Y-147008461D01*
X97713800Y-147008461D01*
X97713800Y-147123539D01*
X97736250Y-147236405D01*
X97780288Y-147342723D01*
X97844222Y-147438406D01*
X97925594Y-147519778D01*
X98021277Y-147583712D01*
X98127595Y-147627750D01*
X98240461Y-147650200D01*
X98355539Y-147650200D01*
X98468405Y-147627750D01*
X98574723Y-147583712D01*
X98670406Y-147519778D01*
X98751778Y-147438406D01*
X98815712Y-147342723D01*
X98859750Y-147236405D01*
X98882200Y-147123539D01*
X98882200Y-147008461D01*
X98983800Y-147008461D01*
X98983800Y-147123539D01*
X99006250Y-147236405D01*
X99050288Y-147342723D01*
X99114222Y-147438406D01*
X99195594Y-147519778D01*
X99291277Y-147583712D01*
X99397595Y-147627750D01*
X99510461Y-147650200D01*
X99625539Y-147650200D01*
X99738405Y-147627750D01*
X99844723Y-147583712D01*
X99940406Y-147519778D01*
X100021778Y-147438406D01*
X100085712Y-147342723D01*
X100129750Y-147236405D01*
X100152200Y-147123539D01*
X100152200Y-147008461D01*
X100253800Y-147008461D01*
X100253800Y-147123539D01*
X100276250Y-147236405D01*
X100320288Y-147342723D01*
X100384222Y-147438406D01*
X100465594Y-147519778D01*
X100561277Y-147583712D01*
X100667595Y-147627750D01*
X100780461Y-147650200D01*
X100895539Y-147650200D01*
X101008405Y-147627750D01*
X101114723Y-147583712D01*
X101210406Y-147519778D01*
X101291778Y-147438406D01*
X101355712Y-147342723D01*
X101399750Y-147236405D01*
X101422200Y-147123539D01*
X101422200Y-147008461D01*
X101399750Y-146895595D01*
X101362333Y-146805261D01*
X115443000Y-146805261D01*
X115443000Y-146920339D01*
X115465450Y-147033205D01*
X115509488Y-147139523D01*
X115573422Y-147235206D01*
X115654794Y-147316578D01*
X115750477Y-147380512D01*
X115856795Y-147424550D01*
X115969661Y-147447000D01*
X116084739Y-147447000D01*
X116197605Y-147424550D01*
X116303923Y-147380512D01*
X116399606Y-147316578D01*
X116480978Y-147235206D01*
X116544912Y-147139523D01*
X116588950Y-147033205D01*
X116611400Y-146920339D01*
X116611400Y-146805261D01*
X116588950Y-146692395D01*
X116544912Y-146586077D01*
X116480978Y-146490394D01*
X116399606Y-146409022D01*
X116303923Y-146345088D01*
X116197605Y-146301050D01*
X116084739Y-146278600D01*
X115969661Y-146278600D01*
X115856795Y-146301050D01*
X115750477Y-146345088D01*
X115654794Y-146409022D01*
X115573422Y-146490394D01*
X115509488Y-146586077D01*
X115465450Y-146692395D01*
X115443000Y-146805261D01*
X101362333Y-146805261D01*
X101355712Y-146789277D01*
X101291778Y-146693594D01*
X101210406Y-146612222D01*
X101114723Y-146548288D01*
X101008405Y-146504250D01*
X100895539Y-146481800D01*
X100780461Y-146481800D01*
X100667595Y-146504250D01*
X100561277Y-146548288D01*
X100465594Y-146612222D01*
X100384222Y-146693594D01*
X100320288Y-146789277D01*
X100276250Y-146895595D01*
X100253800Y-147008461D01*
X100152200Y-147008461D01*
X100129750Y-146895595D01*
X100085712Y-146789277D01*
X100021778Y-146693594D01*
X99940406Y-146612222D01*
X99844723Y-146548288D01*
X99738405Y-146504250D01*
X99625539Y-146481800D01*
X99510461Y-146481800D01*
X99397595Y-146504250D01*
X99291277Y-146548288D01*
X99195594Y-146612222D01*
X99114222Y-146693594D01*
X99050288Y-146789277D01*
X99006250Y-146895595D01*
X98983800Y-147008461D01*
X98882200Y-147008461D01*
X98859750Y-146895595D01*
X98815712Y-146789277D01*
X98751778Y-146693594D01*
X98670406Y-146612222D01*
X98574723Y-146548288D01*
X98468405Y-146504250D01*
X98355539Y-146481800D01*
X98240461Y-146481800D01*
X98127595Y-146504250D01*
X98021277Y-146548288D01*
X97925594Y-146612222D01*
X97844222Y-146693594D01*
X97780288Y-146789277D01*
X97736250Y-146895595D01*
X97713800Y-147008461D01*
X97612200Y-147008461D01*
X97589750Y-146895595D01*
X97545712Y-146789277D01*
X97481778Y-146693594D01*
X97400406Y-146612222D01*
X97304723Y-146548288D01*
X97198405Y-146504250D01*
X97085539Y-146481800D01*
X96970461Y-146481800D01*
X96857595Y-146504250D01*
X96751277Y-146548288D01*
X96655594Y-146612222D01*
X96574222Y-146693594D01*
X96510288Y-146789277D01*
X96466250Y-146895595D01*
X96443800Y-147008461D01*
X59736165Y-147008461D01*
X59950397Y-145920270D01*
X59952418Y-145912440D01*
X59954232Y-145900787D01*
X59956517Y-145889182D01*
X59957296Y-145881111D01*
X60078374Y-145103461D01*
X111912400Y-145103461D01*
X111912400Y-145218539D01*
X111934850Y-145331405D01*
X111978888Y-145437723D01*
X112042822Y-145533406D01*
X112124194Y-145614778D01*
X112219877Y-145678712D01*
X112326195Y-145722750D01*
X112439061Y-145745200D01*
X112554139Y-145745200D01*
X112667005Y-145722750D01*
X112773323Y-145678712D01*
X112869006Y-145614778D01*
X112950378Y-145533406D01*
X113014312Y-145437723D01*
X113058350Y-145331405D01*
X113068324Y-145281261D01*
X115443000Y-145281261D01*
X115443000Y-145396339D01*
X115465450Y-145509205D01*
X115509488Y-145615523D01*
X115573422Y-145711206D01*
X115654794Y-145792578D01*
X115750477Y-145856512D01*
X115856795Y-145900550D01*
X115969661Y-145923000D01*
X116084739Y-145923000D01*
X116197605Y-145900550D01*
X116303923Y-145856512D01*
X116399606Y-145792578D01*
X116480978Y-145711206D01*
X116544912Y-145615523D01*
X116588950Y-145509205D01*
X116611400Y-145396339D01*
X116611400Y-145281261D01*
X116588950Y-145168395D01*
X116544912Y-145062077D01*
X116480978Y-144966394D01*
X116399606Y-144885022D01*
X116303923Y-144821088D01*
X116197605Y-144777050D01*
X116084739Y-144754600D01*
X115969661Y-144754600D01*
X115856795Y-144777050D01*
X115750477Y-144821088D01*
X115654794Y-144885022D01*
X115573422Y-144966394D01*
X115509488Y-145062077D01*
X115465450Y-145168395D01*
X115443000Y-145281261D01*
X113068324Y-145281261D01*
X113080800Y-145218539D01*
X113080800Y-145103461D01*
X113058350Y-144990595D01*
X113014312Y-144884277D01*
X112950378Y-144788594D01*
X112869006Y-144707222D01*
X112773323Y-144643288D01*
X112667005Y-144599250D01*
X112554139Y-144576800D01*
X112439061Y-144576800D01*
X112326195Y-144599250D01*
X112219877Y-144643288D01*
X112124194Y-144707222D01*
X112042822Y-144788594D01*
X111978888Y-144884277D01*
X111934850Y-144990595D01*
X111912400Y-145103461D01*
X60078374Y-145103461D01*
X60198384Y-144332676D01*
X60321113Y-143881930D01*
X60408009Y-143711917D01*
X60416976Y-143698517D01*
X60426122Y-143676480D01*
X60427885Y-143673030D01*
X60433760Y-143658075D01*
X60439906Y-143643266D01*
X60441031Y-143639568D01*
X60449758Y-143617352D01*
X60452613Y-143601478D01*
X60572849Y-143206081D01*
X111511080Y-143206081D01*
X111511080Y-143321159D01*
X111533530Y-143434025D01*
X111577568Y-143540343D01*
X111641502Y-143636026D01*
X111722874Y-143717398D01*
X111818557Y-143781332D01*
X111924875Y-143825370D01*
X112037741Y-143847820D01*
X112152819Y-143847820D01*
X112265685Y-143825370D01*
X112372003Y-143781332D01*
X112408027Y-143757261D01*
X115443000Y-143757261D01*
X115443000Y-143872339D01*
X115465450Y-143985205D01*
X115509488Y-144091523D01*
X115573422Y-144187206D01*
X115654794Y-144268578D01*
X115750477Y-144332512D01*
X115856795Y-144376550D01*
X115969661Y-144399000D01*
X116084739Y-144399000D01*
X116197605Y-144376550D01*
X116303923Y-144332512D01*
X116399606Y-144268578D01*
X116480978Y-144187206D01*
X116544912Y-144091523D01*
X116588950Y-143985205D01*
X116611400Y-143872339D01*
X116611400Y-143757261D01*
X116588950Y-143644395D01*
X116544912Y-143538077D01*
X116480978Y-143442394D01*
X116399606Y-143361022D01*
X116303923Y-143297088D01*
X116197605Y-143253050D01*
X116084739Y-143230600D01*
X115969661Y-143230600D01*
X115856795Y-143253050D01*
X115750477Y-143297088D01*
X115654794Y-143361022D01*
X115573422Y-143442394D01*
X115509488Y-143538077D01*
X115465450Y-143644395D01*
X115443000Y-143757261D01*
X112408027Y-143757261D01*
X112467686Y-143717398D01*
X112549058Y-143636026D01*
X112612992Y-143540343D01*
X112657030Y-143434025D01*
X112679480Y-143321159D01*
X112679480Y-143206081D01*
X112657030Y-143093215D01*
X112612992Y-142986897D01*
X112549058Y-142891214D01*
X112467686Y-142809842D01*
X112372003Y-142745908D01*
X112265685Y-142701870D01*
X112152819Y-142679420D01*
X112037741Y-142679420D01*
X111924875Y-142701870D01*
X111818557Y-142745908D01*
X111722874Y-142809842D01*
X111641502Y-142891214D01*
X111577568Y-142986897D01*
X111533530Y-143093215D01*
X111511080Y-143206081D01*
X60572849Y-143206081D01*
X60976811Y-141877652D01*
X111633015Y-141877652D01*
X111633015Y-141992730D01*
X111655465Y-142105596D01*
X111699503Y-142211914D01*
X111763437Y-142307597D01*
X111844809Y-142388969D01*
X111940492Y-142452903D01*
X112046810Y-142496941D01*
X112159676Y-142519391D01*
X112274754Y-142519391D01*
X112280043Y-142518339D01*
X112301468Y-142570063D01*
X112365402Y-142665746D01*
X112446774Y-142747118D01*
X112542457Y-142811052D01*
X112648775Y-142855090D01*
X112761641Y-142877540D01*
X112876719Y-142877540D01*
X112989585Y-142855090D01*
X113095903Y-142811052D01*
X113191586Y-142747118D01*
X113272958Y-142665746D01*
X113336892Y-142570063D01*
X113378933Y-142468566D01*
X113443139Y-142468566D01*
X113556005Y-142446116D01*
X113662323Y-142402078D01*
X113758006Y-142338144D01*
X113839378Y-142256772D01*
X113855087Y-142233261D01*
X115443000Y-142233261D01*
X115443000Y-142348339D01*
X115465450Y-142461205D01*
X115509488Y-142567523D01*
X115573422Y-142663206D01*
X115654794Y-142744578D01*
X115750477Y-142808512D01*
X115856795Y-142852550D01*
X115969661Y-142875000D01*
X116084739Y-142875000D01*
X116197605Y-142852550D01*
X116303923Y-142808512D01*
X116399606Y-142744578D01*
X116480978Y-142663206D01*
X116544912Y-142567523D01*
X116588950Y-142461205D01*
X116611400Y-142348339D01*
X116611400Y-142233261D01*
X116588950Y-142120395D01*
X116548377Y-142022441D01*
X117919500Y-142022441D01*
X117919500Y-142137519D01*
X117941950Y-142250385D01*
X117985988Y-142356703D01*
X118049922Y-142452386D01*
X118131294Y-142533758D01*
X118226977Y-142597692D01*
X118333295Y-142641730D01*
X118446161Y-142664180D01*
X118561239Y-142664180D01*
X118674105Y-142641730D01*
X118780423Y-142597692D01*
X118876106Y-142533758D01*
X118957478Y-142452386D01*
X119021412Y-142356703D01*
X119065450Y-142250385D01*
X119087900Y-142137519D01*
X119087900Y-142022441D01*
X119065450Y-141909575D01*
X119021412Y-141803257D01*
X118957478Y-141707574D01*
X118876106Y-141626202D01*
X118780423Y-141562268D01*
X118674105Y-141518230D01*
X118561239Y-141495780D01*
X118446161Y-141495780D01*
X118333295Y-141518230D01*
X118226977Y-141562268D01*
X118131294Y-141626202D01*
X118049922Y-141707574D01*
X117985988Y-141803257D01*
X117941950Y-141909575D01*
X117919500Y-142022441D01*
X116548377Y-142022441D01*
X116544912Y-142014077D01*
X116480978Y-141918394D01*
X116399606Y-141837022D01*
X116303923Y-141773088D01*
X116197605Y-141729050D01*
X116084739Y-141706600D01*
X115969661Y-141706600D01*
X115856795Y-141729050D01*
X115750477Y-141773088D01*
X115654794Y-141837022D01*
X115573422Y-141918394D01*
X115509488Y-142014077D01*
X115465450Y-142120395D01*
X115443000Y-142233261D01*
X113855087Y-142233261D01*
X113903312Y-142161089D01*
X113947350Y-142054771D01*
X113969800Y-141941905D01*
X113969800Y-141826827D01*
X113947350Y-141713961D01*
X113903312Y-141607643D01*
X113839378Y-141511960D01*
X113758006Y-141430588D01*
X113662323Y-141366654D01*
X113556005Y-141322616D01*
X113443139Y-141300166D01*
X113328061Y-141300166D01*
X113215195Y-141322616D01*
X113108877Y-141366654D01*
X113013194Y-141430588D01*
X112931822Y-141511960D01*
X112867888Y-141607643D01*
X112825847Y-141709140D01*
X112761641Y-141709140D01*
X112756352Y-141710192D01*
X112734927Y-141658468D01*
X112670993Y-141562785D01*
X112589621Y-141481413D01*
X112493938Y-141417479D01*
X112387620Y-141373441D01*
X112274754Y-141350991D01*
X112159676Y-141350991D01*
X112046810Y-141373441D01*
X111940492Y-141417479D01*
X111844809Y-141481413D01*
X111763437Y-141562785D01*
X111699503Y-141658468D01*
X111655465Y-141764786D01*
X111633015Y-141877652D01*
X60976811Y-141877652D01*
X61741474Y-139363061D01*
X96443800Y-139363061D01*
X96443800Y-139478139D01*
X96466250Y-139591005D01*
X96510288Y-139697323D01*
X96574222Y-139793006D01*
X96655594Y-139874378D01*
X96751277Y-139938312D01*
X96857595Y-139982350D01*
X96970461Y-140004800D01*
X97085539Y-140004800D01*
X97198405Y-139982350D01*
X97304723Y-139938312D01*
X97400406Y-139874378D01*
X97481778Y-139793006D01*
X97545712Y-139697323D01*
X97589750Y-139591005D01*
X97612200Y-139478139D01*
X97612200Y-139363061D01*
X97589750Y-139250195D01*
X97545712Y-139143877D01*
X97481778Y-139048194D01*
X97400406Y-138966822D01*
X97304723Y-138902888D01*
X97198405Y-138858850D01*
X97085539Y-138836400D01*
X96970461Y-138836400D01*
X96857595Y-138858850D01*
X96751277Y-138902888D01*
X96655594Y-138966822D01*
X96574222Y-139048194D01*
X96510288Y-139143877D01*
X96466250Y-139250195D01*
X96443800Y-139363061D01*
X61741474Y-139363061D01*
X61876565Y-138918817D01*
X61885663Y-138895147D01*
X61891529Y-138861102D01*
X61898296Y-138827205D01*
X61898300Y-138821806D01*
X61899216Y-138816488D01*
X61898327Y-138781939D01*
X61898350Y-138747388D01*
X61897301Y-138742096D01*
X61897162Y-138736697D01*
X61889543Y-138702955D01*
X61882831Y-138669093D01*
X61873148Y-138645671D01*
X61673013Y-138042261D01*
X93903800Y-138042261D01*
X93903800Y-138157339D01*
X93926250Y-138270205D01*
X93970288Y-138376523D01*
X94034222Y-138472206D01*
X94115594Y-138553578D01*
X94211277Y-138617512D01*
X94317595Y-138661550D01*
X94430461Y-138684000D01*
X94545539Y-138684000D01*
X94658405Y-138661550D01*
X94764723Y-138617512D01*
X94860406Y-138553578D01*
X94941778Y-138472206D01*
X95005712Y-138376523D01*
X95049750Y-138270205D01*
X95072200Y-138157339D01*
X95072200Y-138049881D01*
X107845860Y-138049881D01*
X107845860Y-138164959D01*
X107868310Y-138277825D01*
X107912348Y-138384143D01*
X107976282Y-138479826D01*
X108057654Y-138561198D01*
X108153337Y-138625132D01*
X108259655Y-138669170D01*
X108372521Y-138691620D01*
X108487599Y-138691620D01*
X108600465Y-138669170D01*
X108703574Y-138626461D01*
X126111000Y-138626461D01*
X126111000Y-138741539D01*
X126133450Y-138854405D01*
X126177488Y-138960723D01*
X126241422Y-139056406D01*
X126322794Y-139137778D01*
X126418477Y-139201712D01*
X126524795Y-139245750D01*
X126637661Y-139268200D01*
X126752739Y-139268200D01*
X126865605Y-139245750D01*
X126971923Y-139201712D01*
X127067606Y-139137778D01*
X127148978Y-139056406D01*
X127212912Y-138960723D01*
X127256950Y-138854405D01*
X127279400Y-138741539D01*
X127279400Y-138626461D01*
X127256950Y-138513595D01*
X127212912Y-138407277D01*
X127148978Y-138311594D01*
X127067606Y-138230222D01*
X126971923Y-138166288D01*
X126865605Y-138122250D01*
X126752739Y-138099800D01*
X126637661Y-138099800D01*
X126524795Y-138122250D01*
X126418477Y-138166288D01*
X126322794Y-138230222D01*
X126241422Y-138311594D01*
X126177488Y-138407277D01*
X126133450Y-138513595D01*
X126111000Y-138626461D01*
X108703574Y-138626461D01*
X108706783Y-138625132D01*
X108802466Y-138561198D01*
X108883838Y-138479826D01*
X108947772Y-138384143D01*
X108991810Y-138277825D01*
X109014260Y-138164959D01*
X109014260Y-138049881D01*
X108991810Y-137937015D01*
X108947772Y-137830697D01*
X108883838Y-137735014D01*
X108802466Y-137653642D01*
X108706783Y-137589708D01*
X108600465Y-137545670D01*
X108487599Y-137523220D01*
X108372521Y-137523220D01*
X108259655Y-137545670D01*
X108153337Y-137589708D01*
X108057654Y-137653642D01*
X107976282Y-137735014D01*
X107912348Y-137830697D01*
X107868310Y-137937015D01*
X107845860Y-138049881D01*
X95072200Y-138049881D01*
X95072200Y-138042261D01*
X95049750Y-137929395D01*
X95005712Y-137823077D01*
X94941778Y-137727394D01*
X94860406Y-137646022D01*
X94764723Y-137582088D01*
X94658405Y-137538050D01*
X94545539Y-137515600D01*
X94430461Y-137515600D01*
X94317595Y-137538050D01*
X94211277Y-137582088D01*
X94115594Y-137646022D01*
X94034222Y-137727394D01*
X93970288Y-137823077D01*
X93926250Y-137929395D01*
X93903800Y-138042261D01*
X61673013Y-138042261D01*
X61379971Y-137158741D01*
X61370894Y-137102461D01*
X113842800Y-137102461D01*
X113842800Y-137217539D01*
X113865250Y-137330405D01*
X113909288Y-137436723D01*
X113973222Y-137532406D01*
X114054594Y-137613778D01*
X114150277Y-137677712D01*
X114256595Y-137721750D01*
X114369461Y-137744200D01*
X114484539Y-137744200D01*
X114597405Y-137721750D01*
X114703723Y-137677712D01*
X114799406Y-137613778D01*
X114880778Y-137532406D01*
X114944712Y-137436723D01*
X114988750Y-137330405D01*
X115011200Y-137217539D01*
X115011200Y-137102461D01*
X119583200Y-137102461D01*
X119583200Y-137217539D01*
X119605650Y-137330405D01*
X119649688Y-137436723D01*
X119713622Y-137532406D01*
X119794994Y-137613778D01*
X119890677Y-137677712D01*
X119996995Y-137721750D01*
X120109861Y-137744200D01*
X120224939Y-137744200D01*
X120337805Y-137721750D01*
X120444123Y-137677712D01*
X120539806Y-137613778D01*
X120621178Y-137532406D01*
X120685112Y-137436723D01*
X120729150Y-137330405D01*
X120751600Y-137217539D01*
X120751600Y-137102461D01*
X120729150Y-136989595D01*
X120685112Y-136883277D01*
X120621178Y-136787594D01*
X120539806Y-136706222D01*
X120444123Y-136642288D01*
X120337805Y-136598250D01*
X120224939Y-136575800D01*
X120109861Y-136575800D01*
X119996995Y-136598250D01*
X119890677Y-136642288D01*
X119794994Y-136706222D01*
X119713622Y-136787594D01*
X119649688Y-136883277D01*
X119605650Y-136989595D01*
X119583200Y-137102461D01*
X115011200Y-137102461D01*
X114988750Y-136989595D01*
X114944712Y-136883277D01*
X114880778Y-136787594D01*
X114799406Y-136706222D01*
X114703723Y-136642288D01*
X114597405Y-136598250D01*
X114484539Y-136575800D01*
X114369461Y-136575800D01*
X114256595Y-136598250D01*
X114150277Y-136642288D01*
X114054594Y-136706222D01*
X113973222Y-136787594D01*
X113909288Y-136883277D01*
X113865250Y-136989595D01*
X113842800Y-137102461D01*
X61370894Y-137102461D01*
X61111570Y-135494661D01*
X61156168Y-133254841D01*
X61327653Y-131804021D01*
X86278718Y-131804021D01*
X86278718Y-131919099D01*
X86301168Y-132031965D01*
X86345206Y-132138283D01*
X86409140Y-132233966D01*
X86490512Y-132315338D01*
X86586195Y-132379272D01*
X86692513Y-132423310D01*
X86805379Y-132445760D01*
X86920457Y-132445760D01*
X87033323Y-132423310D01*
X87139641Y-132379272D01*
X87235324Y-132315338D01*
X87316696Y-132233966D01*
X87380630Y-132138283D01*
X87424668Y-132031965D01*
X87447118Y-131919099D01*
X87447118Y-131806561D01*
X87523320Y-131806561D01*
X87523320Y-131921639D01*
X87545770Y-132034505D01*
X87589808Y-132140823D01*
X87653742Y-132236506D01*
X87735114Y-132317878D01*
X87830797Y-132381812D01*
X87937115Y-132425850D01*
X88049981Y-132448300D01*
X88165059Y-132448300D01*
X88277925Y-132425850D01*
X88384243Y-132381812D01*
X88479926Y-132317878D01*
X88561298Y-132236506D01*
X88625232Y-132140823D01*
X88669270Y-132034505D01*
X88691720Y-131921639D01*
X88691720Y-131826881D01*
X90035380Y-131826881D01*
X90035380Y-131941959D01*
X90057830Y-132054825D01*
X90101868Y-132161143D01*
X90165802Y-132256826D01*
X90247174Y-132338198D01*
X90342857Y-132402132D01*
X90449175Y-132446170D01*
X90562041Y-132468620D01*
X90677119Y-132468620D01*
X90789985Y-132446170D01*
X90896303Y-132402132D01*
X90991986Y-132338198D01*
X91073358Y-132256826D01*
X91080604Y-132245981D01*
X115895120Y-132245981D01*
X115895120Y-132361059D01*
X115917570Y-132473925D01*
X115961608Y-132580243D01*
X116025542Y-132675926D01*
X116106914Y-132757298D01*
X116202597Y-132821232D01*
X116308915Y-132865270D01*
X116421781Y-132887720D01*
X116536859Y-132887720D01*
X116649725Y-132865270D01*
X116756043Y-132821232D01*
X116851726Y-132757298D01*
X116933098Y-132675926D01*
X116997032Y-132580243D01*
X117041070Y-132473925D01*
X117063520Y-132361059D01*
X117063520Y-132245981D01*
X117041070Y-132133115D01*
X116997032Y-132026797D01*
X116933098Y-131931114D01*
X116851726Y-131849742D01*
X116756043Y-131785808D01*
X116649725Y-131741770D01*
X116536859Y-131719320D01*
X116421781Y-131719320D01*
X116308915Y-131741770D01*
X116202597Y-131785808D01*
X116106914Y-131849742D01*
X116025542Y-131931114D01*
X115961608Y-132026797D01*
X115917570Y-132133115D01*
X115895120Y-132245981D01*
X91080604Y-132245981D01*
X91137292Y-132161143D01*
X91181330Y-132054825D01*
X91203780Y-131941959D01*
X91203780Y-131826881D01*
X91181330Y-131714015D01*
X91137292Y-131607697D01*
X91073358Y-131512014D01*
X90991986Y-131430642D01*
X90896303Y-131366708D01*
X90789985Y-131322670D01*
X90677119Y-131300220D01*
X90562041Y-131300220D01*
X90449175Y-131322670D01*
X90342857Y-131366708D01*
X90247174Y-131430642D01*
X90165802Y-131512014D01*
X90101868Y-131607697D01*
X90057830Y-131714015D01*
X90035380Y-131826881D01*
X88691720Y-131826881D01*
X88691720Y-131806561D01*
X88669270Y-131693695D01*
X88625232Y-131587377D01*
X88561298Y-131491694D01*
X88479926Y-131410322D01*
X88384243Y-131346388D01*
X88277925Y-131302350D01*
X88165059Y-131279900D01*
X88049981Y-131279900D01*
X87937115Y-131302350D01*
X87830797Y-131346388D01*
X87735114Y-131410322D01*
X87653742Y-131491694D01*
X87589808Y-131587377D01*
X87545770Y-131693695D01*
X87523320Y-131806561D01*
X87447118Y-131806561D01*
X87447118Y-131804021D01*
X87424668Y-131691155D01*
X87380630Y-131584837D01*
X87316696Y-131489154D01*
X87235324Y-131407782D01*
X87139641Y-131343848D01*
X87033323Y-131299810D01*
X86920457Y-131277360D01*
X86805379Y-131277360D01*
X86692513Y-131299810D01*
X86586195Y-131343848D01*
X86490512Y-131407782D01*
X86409140Y-131489154D01*
X86345206Y-131584837D01*
X86301168Y-131691155D01*
X86278718Y-131804021D01*
X61327653Y-131804021D01*
X61472936Y-130574886D01*
X61489093Y-130473061D01*
X93878400Y-130473061D01*
X93878400Y-130588139D01*
X93900850Y-130701005D01*
X93944888Y-130807323D01*
X94008822Y-130903006D01*
X94090194Y-130984378D01*
X94185877Y-131048312D01*
X94292195Y-131092350D01*
X94405061Y-131114800D01*
X94520139Y-131114800D01*
X94633005Y-131092350D01*
X94739323Y-131048312D01*
X94835006Y-130984378D01*
X94916378Y-130903006D01*
X94980312Y-130807323D01*
X95024350Y-130701005D01*
X95046800Y-130588139D01*
X95046800Y-130473061D01*
X96418400Y-130473061D01*
X96418400Y-130588139D01*
X96440850Y-130701005D01*
X96484888Y-130807323D01*
X96548822Y-130903006D01*
X96630194Y-130984378D01*
X96725877Y-131048312D01*
X96832195Y-131092350D01*
X96945061Y-131114800D01*
X97060139Y-131114800D01*
X97173005Y-131092350D01*
X97279323Y-131048312D01*
X97375006Y-130984378D01*
X97456378Y-130903006D01*
X97520312Y-130807323D01*
X97564350Y-130701005D01*
X97586800Y-130588139D01*
X97586800Y-130473061D01*
X97564350Y-130360195D01*
X97520312Y-130253877D01*
X97463105Y-130168261D01*
X119700040Y-130168261D01*
X119700040Y-130283339D01*
X119722490Y-130396205D01*
X119766528Y-130502523D01*
X119830462Y-130598206D01*
X119911834Y-130679578D01*
X120007517Y-130743512D01*
X120113835Y-130787550D01*
X120226701Y-130810000D01*
X120341779Y-130810000D01*
X120454645Y-130787550D01*
X120560963Y-130743512D01*
X120656646Y-130679578D01*
X120738018Y-130598206D01*
X120801952Y-130502523D01*
X120845990Y-130396205D01*
X120868440Y-130283339D01*
X120868440Y-130168261D01*
X120845990Y-130055395D01*
X120801952Y-129949077D01*
X120738018Y-129853394D01*
X120656646Y-129772022D01*
X120560963Y-129708088D01*
X120454645Y-129664050D01*
X120341779Y-129641600D01*
X120226701Y-129641600D01*
X120113835Y-129664050D01*
X120007517Y-129708088D01*
X119911834Y-129772022D01*
X119830462Y-129853394D01*
X119766528Y-129949077D01*
X119722490Y-130055395D01*
X119700040Y-130168261D01*
X97463105Y-130168261D01*
X97456378Y-130158194D01*
X97375006Y-130076822D01*
X97279323Y-130012888D01*
X97173005Y-129968850D01*
X97060139Y-129946400D01*
X96945061Y-129946400D01*
X96832195Y-129968850D01*
X96725877Y-130012888D01*
X96630194Y-130076822D01*
X96548822Y-130158194D01*
X96484888Y-130253877D01*
X96440850Y-130360195D01*
X96418400Y-130473061D01*
X95046800Y-130473061D01*
X95024350Y-130360195D01*
X94980312Y-130253877D01*
X94916378Y-130158194D01*
X94835006Y-130076822D01*
X94739323Y-130012888D01*
X94633005Y-129968850D01*
X94520139Y-129946400D01*
X94405061Y-129946400D01*
X94292195Y-129968850D01*
X94185877Y-130012888D01*
X94090194Y-130076822D01*
X94008822Y-130158194D01*
X93944888Y-130253877D01*
X93900850Y-130360195D01*
X93878400Y-130473061D01*
X61489093Y-130473061D01*
X61693437Y-129185281D01*
X110449360Y-129185281D01*
X110449360Y-129300359D01*
X110471810Y-129413225D01*
X110515848Y-129519543D01*
X110579782Y-129615226D01*
X110661154Y-129696598D01*
X110756837Y-129760532D01*
X110863155Y-129804570D01*
X110976021Y-129827020D01*
X111091099Y-129827020D01*
X111203965Y-129804570D01*
X111310283Y-129760532D01*
X111405966Y-129696598D01*
X111487338Y-129615226D01*
X111551272Y-129519543D01*
X111566631Y-129482461D01*
X123545600Y-129482461D01*
X123545600Y-129597539D01*
X123568050Y-129710405D01*
X123612088Y-129816723D01*
X123676022Y-129912406D01*
X123757394Y-129993778D01*
X123853077Y-130057712D01*
X123959395Y-130101750D01*
X124072261Y-130124200D01*
X124187339Y-130124200D01*
X124300205Y-130101750D01*
X124406523Y-130057712D01*
X124502206Y-129993778D01*
X124583578Y-129912406D01*
X124647512Y-129816723D01*
X124691550Y-129710405D01*
X124714000Y-129597539D01*
X124714000Y-129482461D01*
X124691550Y-129369595D01*
X124647512Y-129263277D01*
X124583578Y-129167594D01*
X124502206Y-129086222D01*
X124406523Y-129022288D01*
X124300205Y-128978250D01*
X124187339Y-128955800D01*
X124072261Y-128955800D01*
X123959395Y-128978250D01*
X123853077Y-129022288D01*
X123757394Y-129086222D01*
X123676022Y-129167594D01*
X123612088Y-129263277D01*
X123568050Y-129369595D01*
X123545600Y-129482461D01*
X111566631Y-129482461D01*
X111595310Y-129413225D01*
X111617760Y-129300359D01*
X111617760Y-129185281D01*
X111595310Y-129072415D01*
X111551272Y-128966097D01*
X111487338Y-128870414D01*
X111405966Y-128789042D01*
X111310283Y-128725108D01*
X111203965Y-128681070D01*
X111091099Y-128658620D01*
X110976021Y-128658620D01*
X110863155Y-128681070D01*
X110756837Y-128725108D01*
X110661154Y-128789042D01*
X110579782Y-128870414D01*
X110515848Y-128966097D01*
X110471810Y-129072415D01*
X110449360Y-129185281D01*
X61693437Y-129185281D01*
X61847499Y-128214382D01*
X61896531Y-128014341D01*
X109080300Y-128014341D01*
X109080300Y-128129419D01*
X109102750Y-128242285D01*
X109146788Y-128348603D01*
X109210722Y-128444286D01*
X109292094Y-128525658D01*
X109387777Y-128589592D01*
X109494095Y-128633630D01*
X109606961Y-128656080D01*
X109722039Y-128656080D01*
X109834905Y-128633630D01*
X109941223Y-128589592D01*
X110036906Y-128525658D01*
X110118278Y-128444286D01*
X110182212Y-128348603D01*
X110226250Y-128242285D01*
X110248700Y-128129419D01*
X110248700Y-128014341D01*
X110226250Y-127901475D01*
X110182212Y-127795157D01*
X110118278Y-127699474D01*
X110036906Y-127618102D01*
X110017081Y-127604855D01*
X113640200Y-127604855D01*
X113640200Y-127719145D01*
X113662497Y-127831238D01*
X113706234Y-127936828D01*
X113769729Y-128031856D01*
X113850544Y-128112671D01*
X113945572Y-128176166D01*
X114051162Y-128219903D01*
X114163255Y-128242200D01*
X114277545Y-128242200D01*
X114389638Y-128219903D01*
X114495228Y-128176166D01*
X114590256Y-128112671D01*
X114671071Y-128031856D01*
X114734566Y-127936828D01*
X114778303Y-127831238D01*
X114800600Y-127719145D01*
X114800600Y-127604855D01*
X114778303Y-127492762D01*
X114734566Y-127387172D01*
X114671071Y-127292144D01*
X114590256Y-127211329D01*
X114495228Y-127147834D01*
X114389638Y-127104097D01*
X114277545Y-127081800D01*
X114163255Y-127081800D01*
X114051162Y-127104097D01*
X113945572Y-127147834D01*
X113850544Y-127211329D01*
X113769729Y-127292144D01*
X113706234Y-127387172D01*
X113662497Y-127492762D01*
X113640200Y-127604855D01*
X110017081Y-127604855D01*
X109941223Y-127554168D01*
X109834905Y-127510130D01*
X109722039Y-127487680D01*
X109606961Y-127487680D01*
X109494095Y-127510130D01*
X109387777Y-127554168D01*
X109292094Y-127618102D01*
X109210722Y-127699474D01*
X109146788Y-127795157D01*
X109102750Y-127901475D01*
X109080300Y-128014341D01*
X61896531Y-128014341D01*
X62221521Y-126688461D01*
X87561420Y-126688461D01*
X87561420Y-126803539D01*
X87583870Y-126916405D01*
X87627908Y-127022723D01*
X87691842Y-127118406D01*
X87773214Y-127199778D01*
X87868897Y-127263712D01*
X87975215Y-127307750D01*
X88088081Y-127330200D01*
X88203159Y-127330200D01*
X88316025Y-127307750D01*
X88422343Y-127263712D01*
X88518026Y-127199778D01*
X88599398Y-127118406D01*
X88663332Y-127022723D01*
X88707370Y-126916405D01*
X88729820Y-126803539D01*
X88729820Y-126688461D01*
X88729818Y-126688449D01*
X88823786Y-126688449D01*
X88823786Y-126803527D01*
X88846236Y-126916393D01*
X88890274Y-127022711D01*
X88954208Y-127118394D01*
X89035580Y-127199766D01*
X89131263Y-127263700D01*
X89237581Y-127307738D01*
X89350447Y-127330188D01*
X89465525Y-127330188D01*
X89578391Y-127307738D01*
X89684709Y-127263700D01*
X89780392Y-127199766D01*
X89861764Y-127118394D01*
X89925698Y-127022711D01*
X89969736Y-126916393D01*
X89992186Y-126803527D01*
X89992186Y-126688449D01*
X89969736Y-126575583D01*
X89925698Y-126469265D01*
X89861764Y-126373582D01*
X89780392Y-126292210D01*
X89684709Y-126228276D01*
X89578391Y-126184238D01*
X89465525Y-126161788D01*
X89350447Y-126161788D01*
X89237581Y-126184238D01*
X89131263Y-126228276D01*
X89035580Y-126292210D01*
X88954208Y-126373582D01*
X88890274Y-126469265D01*
X88846236Y-126575583D01*
X88823786Y-126688449D01*
X88729818Y-126688449D01*
X88707370Y-126575595D01*
X88663332Y-126469277D01*
X88599398Y-126373594D01*
X88518026Y-126292222D01*
X88422343Y-126228288D01*
X88316025Y-126184250D01*
X88203159Y-126161800D01*
X88088081Y-126161800D01*
X87975215Y-126184250D01*
X87868897Y-126228288D01*
X87773214Y-126292222D01*
X87691842Y-126373594D01*
X87627908Y-126469277D01*
X87583870Y-126575595D01*
X87561420Y-126688461D01*
X62221521Y-126688461D01*
X62509778Y-125512441D01*
X86372700Y-125512441D01*
X86372700Y-125627519D01*
X86395150Y-125740385D01*
X86439188Y-125846703D01*
X86503122Y-125942386D01*
X86584494Y-126023758D01*
X86680177Y-126087692D01*
X86786495Y-126131730D01*
X86899361Y-126154180D01*
X87014439Y-126154180D01*
X87127305Y-126131730D01*
X87233623Y-126087692D01*
X87329306Y-126023758D01*
X87410678Y-125942386D01*
X87474612Y-125846703D01*
X87518650Y-125740385D01*
X87541100Y-125627519D01*
X87541100Y-125512441D01*
X87522407Y-125418461D01*
X102793800Y-125418461D01*
X102793800Y-125533539D01*
X102816250Y-125646405D01*
X102860288Y-125752723D01*
X102924222Y-125848406D01*
X103005594Y-125929778D01*
X103101277Y-125993712D01*
X103207595Y-126037750D01*
X103320461Y-126060200D01*
X103435539Y-126060200D01*
X103548405Y-126037750D01*
X103654723Y-125993712D01*
X103750406Y-125929778D01*
X103831778Y-125848406D01*
X103895712Y-125752723D01*
X103939750Y-125646405D01*
X103962200Y-125533539D01*
X103962200Y-125418461D01*
X104063800Y-125418461D01*
X104063800Y-125533539D01*
X104086250Y-125646405D01*
X104130288Y-125752723D01*
X104194222Y-125848406D01*
X104275594Y-125929778D01*
X104371277Y-125993712D01*
X104477595Y-126037750D01*
X104590461Y-126060200D01*
X104705539Y-126060200D01*
X104818405Y-126037750D01*
X104924723Y-125993712D01*
X105020406Y-125929778D01*
X105101778Y-125848406D01*
X105165712Y-125752723D01*
X105209750Y-125646405D01*
X105232200Y-125533539D01*
X105232200Y-125418461D01*
X105333800Y-125418461D01*
X105333800Y-125533539D01*
X105356250Y-125646405D01*
X105400288Y-125752723D01*
X105464222Y-125848406D01*
X105545594Y-125929778D01*
X105641277Y-125993712D01*
X105747595Y-126037750D01*
X105860461Y-126060200D01*
X105975539Y-126060200D01*
X106088405Y-126037750D01*
X106194723Y-125993712D01*
X106290406Y-125929778D01*
X106371778Y-125848406D01*
X106435712Y-125752723D01*
X106479750Y-125646405D01*
X106502200Y-125533539D01*
X106502200Y-125418461D01*
X106603800Y-125418461D01*
X106603800Y-125533539D01*
X106626250Y-125646405D01*
X106670288Y-125752723D01*
X106734222Y-125848406D01*
X106815594Y-125929778D01*
X106911277Y-125993712D01*
X107017595Y-126037750D01*
X107130461Y-126060200D01*
X107245539Y-126060200D01*
X107358405Y-126037750D01*
X107464723Y-125993712D01*
X107560406Y-125929778D01*
X107641778Y-125848406D01*
X107705712Y-125752723D01*
X107749750Y-125646405D01*
X107772200Y-125533539D01*
X107772200Y-125418461D01*
X107749750Y-125305595D01*
X107705712Y-125199277D01*
X107641778Y-125103594D01*
X107560406Y-125022222D01*
X107464723Y-124958288D01*
X107358405Y-124914250D01*
X107245539Y-124891800D01*
X107130461Y-124891800D01*
X107017595Y-124914250D01*
X106911277Y-124958288D01*
X106815594Y-125022222D01*
X106734222Y-125103594D01*
X106670288Y-125199277D01*
X106626250Y-125305595D01*
X106603800Y-125418461D01*
X106502200Y-125418461D01*
X106479750Y-125305595D01*
X106435712Y-125199277D01*
X106371778Y-125103594D01*
X106290406Y-125022222D01*
X106194723Y-124958288D01*
X106088405Y-124914250D01*
X105975539Y-124891800D01*
X105860461Y-124891800D01*
X105747595Y-124914250D01*
X105641277Y-124958288D01*
X105545594Y-125022222D01*
X105464222Y-125103594D01*
X105400288Y-125199277D01*
X105356250Y-125305595D01*
X105333800Y-125418461D01*
X105232200Y-125418461D01*
X105209750Y-125305595D01*
X105165712Y-125199277D01*
X105101778Y-125103594D01*
X105020406Y-125022222D01*
X104924723Y-124958288D01*
X104818405Y-124914250D01*
X104705539Y-124891800D01*
X104590461Y-124891800D01*
X104477595Y-124914250D01*
X104371277Y-124958288D01*
X104275594Y-125022222D01*
X104194222Y-125103594D01*
X104130288Y-125199277D01*
X104086250Y-125305595D01*
X104063800Y-125418461D01*
X103962200Y-125418461D01*
X103939750Y-125305595D01*
X103895712Y-125199277D01*
X103831778Y-125103594D01*
X103750406Y-125022222D01*
X103654723Y-124958288D01*
X103548405Y-124914250D01*
X103435539Y-124891800D01*
X103320461Y-124891800D01*
X103207595Y-124914250D01*
X103101277Y-124958288D01*
X103005594Y-125022222D01*
X102924222Y-125103594D01*
X102860288Y-125199277D01*
X102816250Y-125305595D01*
X102793800Y-125418461D01*
X87522407Y-125418461D01*
X87518650Y-125399575D01*
X87474612Y-125293257D01*
X87410678Y-125197574D01*
X87329306Y-125116202D01*
X87233623Y-125052268D01*
X87127305Y-125008230D01*
X87014439Y-124985780D01*
X86899361Y-124985780D01*
X86786495Y-125008230D01*
X86680177Y-125052268D01*
X86584494Y-125116202D01*
X86503122Y-125197574D01*
X86439188Y-125293257D01*
X86395150Y-125399575D01*
X86372700Y-125512441D01*
X62509778Y-125512441D01*
X63081229Y-123181064D01*
X63210972Y-122802261D01*
X89458800Y-122802261D01*
X89458800Y-122917339D01*
X89481250Y-123030205D01*
X89525288Y-123136523D01*
X89589222Y-123232206D01*
X89670594Y-123313578D01*
X89766277Y-123377512D01*
X89872595Y-123421550D01*
X89985461Y-123444000D01*
X90100539Y-123444000D01*
X90213405Y-123421550D01*
X90319723Y-123377512D01*
X90415406Y-123313578D01*
X90496778Y-123232206D01*
X90560712Y-123136523D01*
X90604750Y-123030205D01*
X90627200Y-122917339D01*
X90627200Y-122802261D01*
X90604750Y-122689395D01*
X90560712Y-122583077D01*
X90496778Y-122487394D01*
X90415406Y-122406022D01*
X90319723Y-122342088D01*
X90213405Y-122298050D01*
X90100539Y-122275600D01*
X89985461Y-122275600D01*
X89872595Y-122298050D01*
X89766277Y-122342088D01*
X89670594Y-122406022D01*
X89589222Y-122487394D01*
X89525288Y-122583077D01*
X89481250Y-122689395D01*
X89458800Y-122802261D01*
X63210972Y-122802261D01*
X63628558Y-121583061D01*
X93903800Y-121583061D01*
X93903800Y-121698139D01*
X93926250Y-121811005D01*
X93970288Y-121917323D01*
X94034222Y-122013006D01*
X94115594Y-122094378D01*
X94211277Y-122158312D01*
X94317595Y-122202350D01*
X94430461Y-122224800D01*
X94545539Y-122224800D01*
X94658405Y-122202350D01*
X94764723Y-122158312D01*
X94789343Y-122141861D01*
X109956600Y-122141861D01*
X109956600Y-122256939D01*
X109979050Y-122369805D01*
X110023088Y-122476123D01*
X110087022Y-122571806D01*
X110168394Y-122653178D01*
X110264077Y-122717112D01*
X110370395Y-122761150D01*
X110483261Y-122783600D01*
X110598339Y-122783600D01*
X110711205Y-122761150D01*
X110817523Y-122717112D01*
X110913206Y-122653178D01*
X110994578Y-122571806D01*
X111058512Y-122476123D01*
X111102550Y-122369805D01*
X111125000Y-122256939D01*
X111125000Y-122141861D01*
X111102550Y-122028995D01*
X111058512Y-121922677D01*
X110994578Y-121826994D01*
X110913206Y-121745622D01*
X110817523Y-121681688D01*
X110711205Y-121637650D01*
X110598339Y-121615200D01*
X110483261Y-121615200D01*
X110370395Y-121637650D01*
X110264077Y-121681688D01*
X110168394Y-121745622D01*
X110087022Y-121826994D01*
X110023088Y-121922677D01*
X109979050Y-122028995D01*
X109956600Y-122141861D01*
X94789343Y-122141861D01*
X94860406Y-122094378D01*
X94941778Y-122013006D01*
X95005712Y-121917323D01*
X95049750Y-121811005D01*
X95072200Y-121698139D01*
X95072200Y-121583061D01*
X95049750Y-121470195D01*
X95005712Y-121363877D01*
X94941778Y-121268194D01*
X94860406Y-121186822D01*
X94764723Y-121122888D01*
X94658405Y-121078850D01*
X94545539Y-121056400D01*
X94430461Y-121056400D01*
X94317595Y-121078850D01*
X94211277Y-121122888D01*
X94115594Y-121186822D01*
X94034222Y-121268194D01*
X93970288Y-121363877D01*
X93926250Y-121470195D01*
X93903800Y-121583061D01*
X63628558Y-121583061D01*
X63640769Y-121547410D01*
X64487996Y-119449461D01*
X105181400Y-119449461D01*
X105181400Y-119564539D01*
X105203850Y-119677405D01*
X105247888Y-119783723D01*
X105311822Y-119879406D01*
X105393194Y-119960778D01*
X105488877Y-120024712D01*
X105595195Y-120068750D01*
X105708061Y-120091200D01*
X105823139Y-120091200D01*
X105936005Y-120068750D01*
X106042323Y-120024712D01*
X106138006Y-119960778D01*
X106219378Y-119879406D01*
X106283312Y-119783723D01*
X106327350Y-119677405D01*
X106349800Y-119564539D01*
X106349800Y-119449461D01*
X106327350Y-119336595D01*
X106283312Y-119230277D01*
X106219378Y-119134594D01*
X106138006Y-119053222D01*
X106042323Y-118989288D01*
X105936005Y-118945250D01*
X105823139Y-118922800D01*
X105708061Y-118922800D01*
X105595195Y-118945250D01*
X105488877Y-118989288D01*
X105393194Y-119053222D01*
X105311822Y-119134594D01*
X105247888Y-119230277D01*
X105203850Y-119336595D01*
X105181400Y-119449461D01*
X64487996Y-119449461D01*
X65493195Y-116960335D01*
X103301800Y-116960335D01*
X103301800Y-117075413D01*
X103324250Y-117188279D01*
X103368288Y-117294597D01*
X103432222Y-117390280D01*
X103513594Y-117471652D01*
X103609277Y-117535586D01*
X103715595Y-117579624D01*
X103828461Y-117602074D01*
X103943539Y-117602074D01*
X104056405Y-117579624D01*
X104162723Y-117535586D01*
X104258406Y-117471652D01*
X104339778Y-117390280D01*
X104403712Y-117294597D01*
X104447750Y-117188279D01*
X104470200Y-117075413D01*
X104470200Y-116960335D01*
X104447750Y-116847469D01*
X104403712Y-116741151D01*
X104339778Y-116645468D01*
X104258406Y-116564096D01*
X104162723Y-116500162D01*
X104056405Y-116456124D01*
X103943539Y-116433674D01*
X103828461Y-116433674D01*
X103715595Y-116456124D01*
X103609277Y-116500162D01*
X103513594Y-116564096D01*
X103432222Y-116645468D01*
X103368288Y-116741151D01*
X103324250Y-116847469D01*
X103301800Y-116960335D01*
X65493195Y-116960335D01*
X65552559Y-116813335D01*
X65852674Y-116274461D01*
X106172000Y-116274461D01*
X106172000Y-116389539D01*
X106194450Y-116502405D01*
X106238488Y-116608723D01*
X106302422Y-116704406D01*
X106383794Y-116785778D01*
X106479477Y-116849712D01*
X106585795Y-116893750D01*
X106698661Y-116916200D01*
X106813739Y-116916200D01*
X106926605Y-116893750D01*
X107010200Y-116859124D01*
X107010200Y-116948339D01*
X107032650Y-117061205D01*
X107076688Y-117167523D01*
X107140622Y-117263206D01*
X107221994Y-117344578D01*
X107317677Y-117408512D01*
X107423995Y-117452550D01*
X107536861Y-117475000D01*
X107538771Y-117475000D01*
X107547190Y-117517325D01*
X107591228Y-117623643D01*
X107655162Y-117719326D01*
X107736534Y-117800698D01*
X107832217Y-117864632D01*
X107938535Y-117908670D01*
X108051401Y-117931120D01*
X108166479Y-117931120D01*
X108279345Y-117908670D01*
X108385663Y-117864632D01*
X108481346Y-117800698D01*
X108562718Y-117719326D01*
X108626652Y-117623643D01*
X108670690Y-117517325D01*
X108693140Y-117404459D01*
X108693140Y-117291724D01*
X108745994Y-117344578D01*
X108841677Y-117408512D01*
X108947995Y-117452550D01*
X109060861Y-117475000D01*
X109175939Y-117475000D01*
X109288805Y-117452550D01*
X109395123Y-117408512D01*
X109490806Y-117344578D01*
X109572178Y-117263206D01*
X109636112Y-117167523D01*
X109680150Y-117061205D01*
X109702600Y-116948339D01*
X109702600Y-116833261D01*
X109680150Y-116720395D01*
X109636112Y-116614077D01*
X109572178Y-116518394D01*
X109490806Y-116437022D01*
X109395123Y-116373088D01*
X109288805Y-116329050D01*
X109175939Y-116306600D01*
X109060861Y-116306600D01*
X108947995Y-116329050D01*
X108841677Y-116373088D01*
X108745994Y-116437022D01*
X108664622Y-116518394D01*
X108600688Y-116614077D01*
X108556650Y-116720395D01*
X108534200Y-116833261D01*
X108534200Y-116945996D01*
X108481346Y-116893142D01*
X108385663Y-116829208D01*
X108279345Y-116785170D01*
X108166479Y-116762720D01*
X108164569Y-116762720D01*
X108156150Y-116720395D01*
X108112112Y-116614077D01*
X108048178Y-116518394D01*
X107966806Y-116437022D01*
X107871123Y-116373088D01*
X107764805Y-116329050D01*
X107651939Y-116306600D01*
X107536861Y-116306600D01*
X107423995Y-116329050D01*
X107340400Y-116363676D01*
X107340400Y-116274461D01*
X107317950Y-116161595D01*
X107273912Y-116055277D01*
X107209978Y-115959594D01*
X107128606Y-115878222D01*
X107032923Y-115814288D01*
X106926605Y-115770250D01*
X106813739Y-115747800D01*
X106698661Y-115747800D01*
X106585795Y-115770250D01*
X106479477Y-115814288D01*
X106383794Y-115878222D01*
X106302422Y-115959594D01*
X106238488Y-116055277D01*
X106194450Y-116161595D01*
X106172000Y-116274461D01*
X65852674Y-116274461D01*
X67125818Y-113988461D01*
X107010200Y-113988461D01*
X107010200Y-114103539D01*
X107032650Y-114216405D01*
X107076688Y-114322723D01*
X107140622Y-114418406D01*
X107221994Y-114499778D01*
X107317677Y-114563712D01*
X107423995Y-114607750D01*
X107536861Y-114630200D01*
X107651939Y-114630200D01*
X107764805Y-114607750D01*
X107871123Y-114563712D01*
X107966806Y-114499778D01*
X108048178Y-114418406D01*
X108112112Y-114322723D01*
X108156150Y-114216405D01*
X108159731Y-114198400D01*
X108159939Y-114198400D01*
X108272805Y-114175950D01*
X108379123Y-114131912D01*
X108474806Y-114067978D01*
X108556178Y-113986606D01*
X108620112Y-113890923D01*
X108664150Y-113784605D01*
X108686600Y-113671739D01*
X108686600Y-113556661D01*
X108664150Y-113443795D01*
X108620112Y-113337477D01*
X108556178Y-113241794D01*
X108474806Y-113160422D01*
X108379123Y-113096488D01*
X108272805Y-113052450D01*
X108159939Y-113030000D01*
X108044861Y-113030000D01*
X107931995Y-113052450D01*
X107825677Y-113096488D01*
X107729994Y-113160422D01*
X107648622Y-113241794D01*
X107584688Y-113337477D01*
X107540650Y-113443795D01*
X107537069Y-113461800D01*
X107536861Y-113461800D01*
X107423995Y-113484250D01*
X107317677Y-113528288D01*
X107221994Y-113592222D01*
X107140622Y-113673594D01*
X107076688Y-113769277D01*
X107032650Y-113875595D01*
X107010200Y-113988461D01*
X67125818Y-113988461D01*
X67245454Y-113773649D01*
X68312520Y-112223161D01*
X105448100Y-112223161D01*
X105448100Y-112338239D01*
X105470550Y-112451105D01*
X105514588Y-112557423D01*
X105578522Y-112653106D01*
X105659894Y-112734478D01*
X105755577Y-112798412D01*
X105861895Y-112842450D01*
X105974761Y-112864900D01*
X106089839Y-112864900D01*
X106202705Y-112842450D01*
X106309023Y-112798412D01*
X106404706Y-112734478D01*
X106486078Y-112653106D01*
X106550012Y-112557423D01*
X106594050Y-112451105D01*
X106616500Y-112338239D01*
X106616500Y-112223161D01*
X106594050Y-112110295D01*
X106550012Y-112003977D01*
X106486078Y-111908294D01*
X106404706Y-111826922D01*
X106309023Y-111762988D01*
X106202705Y-111718950D01*
X106089839Y-111696500D01*
X105974761Y-111696500D01*
X105861895Y-111718950D01*
X105755577Y-111762988D01*
X105659894Y-111826922D01*
X105578522Y-111908294D01*
X105514588Y-112003977D01*
X105470550Y-112110295D01*
X105448100Y-112223161D01*
X68312520Y-112223161D01*
X70450098Y-109117178D01*
X71389114Y-107818801D01*
X87536024Y-107818801D01*
X87536024Y-107933879D01*
X87558474Y-108046745D01*
X87602512Y-108153063D01*
X87666446Y-108248746D01*
X87747818Y-108330118D01*
X87843501Y-108394052D01*
X87949819Y-108438090D01*
X88062685Y-108460540D01*
X88177763Y-108460540D01*
X88290629Y-108438090D01*
X88396947Y-108394052D01*
X88492630Y-108330118D01*
X88574002Y-108248746D01*
X88637936Y-108153063D01*
X88681974Y-108046745D01*
X88704424Y-107933879D01*
X88704424Y-107846741D01*
X97670618Y-107846741D01*
X97670618Y-107961819D01*
X97693068Y-108074685D01*
X97737106Y-108181003D01*
X97801040Y-108276686D01*
X97882412Y-108358058D01*
X97978095Y-108421992D01*
X98084413Y-108466030D01*
X98197279Y-108488480D01*
X98312357Y-108488480D01*
X98425223Y-108466030D01*
X98531541Y-108421992D01*
X98627224Y-108358058D01*
X98708596Y-108276686D01*
X98772530Y-108181003D01*
X98816568Y-108074685D01*
X98839018Y-107961819D01*
X98839018Y-107846741D01*
X98816568Y-107733875D01*
X98772530Y-107627557D01*
X98708596Y-107531874D01*
X98627224Y-107450502D01*
X98531541Y-107386568D01*
X98425223Y-107342530D01*
X98312357Y-107320080D01*
X98197279Y-107320080D01*
X98084413Y-107342530D01*
X97978095Y-107386568D01*
X97882412Y-107450502D01*
X97801040Y-107531874D01*
X97737106Y-107627557D01*
X97693068Y-107733875D01*
X97670618Y-107846741D01*
X88704424Y-107846741D01*
X88704424Y-107818801D01*
X88681974Y-107705935D01*
X88637936Y-107599617D01*
X88574002Y-107503934D01*
X88492630Y-107422562D01*
X88396947Y-107358628D01*
X88290629Y-107314590D01*
X88177763Y-107292140D01*
X88062685Y-107292140D01*
X87949819Y-107314590D01*
X87843501Y-107358628D01*
X87747818Y-107422562D01*
X87666446Y-107503934D01*
X87602512Y-107599617D01*
X87558474Y-107705935D01*
X87536024Y-107818801D01*
X71389114Y-107818801D01*
X74115609Y-104048881D01*
X74125471Y-104035719D01*
X74127245Y-104032792D01*
X74129257Y-104030010D01*
X74137567Y-104015762D01*
X76102810Y-100773238D01*
X76106937Y-100767301D01*
X76113107Y-100756249D01*
X76119681Y-100745403D01*
X76122811Y-100738869D01*
X77886953Y-97579059D01*
X77891920Y-97571161D01*
X77896641Y-97561707D01*
X77901799Y-97552469D01*
X77905532Y-97543905D01*
X78775415Y-95802061D01*
X83896200Y-95802061D01*
X83896200Y-95917139D01*
X83918650Y-96030005D01*
X83962688Y-96136323D01*
X84026622Y-96232006D01*
X84107994Y-96313378D01*
X84203677Y-96377312D01*
X84309995Y-96421350D01*
X84422861Y-96443800D01*
X84537939Y-96443800D01*
X84650805Y-96421350D01*
X84757123Y-96377312D01*
X84852806Y-96313378D01*
X84934178Y-96232006D01*
X84998112Y-96136323D01*
X85042150Y-96030005D01*
X85064600Y-95917139D01*
X85064600Y-95802061D01*
X85042150Y-95689195D01*
X84998112Y-95582877D01*
X84934178Y-95487194D01*
X84852806Y-95405822D01*
X84757123Y-95341888D01*
X84650805Y-95297850D01*
X84537939Y-95275400D01*
X84422861Y-95275400D01*
X84309995Y-95297850D01*
X84203677Y-95341888D01*
X84107994Y-95405822D01*
X84026622Y-95487194D01*
X83962688Y-95582877D01*
X83918650Y-95689195D01*
X83896200Y-95802061D01*
X78775415Y-95802061D01*
X78962198Y-95428051D01*
X78968576Y-95416237D01*
X78971071Y-95410284D01*
X78973963Y-95404493D01*
X78978767Y-95391921D01*
X80116264Y-92677861D01*
X84759800Y-92677861D01*
X84759800Y-92792939D01*
X84782250Y-92905805D01*
X84826288Y-93012123D01*
X84890222Y-93107806D01*
X84971594Y-93189178D01*
X85067277Y-93253112D01*
X85173595Y-93297150D01*
X85286461Y-93319600D01*
X85401539Y-93319600D01*
X85514405Y-93297150D01*
X85620723Y-93253112D01*
X85716406Y-93189178D01*
X85797778Y-93107806D01*
X85861712Y-93012123D01*
X85905750Y-92905805D01*
X85928200Y-92792939D01*
X85928200Y-92677861D01*
X85905750Y-92564995D01*
X85861712Y-92458677D01*
X85797778Y-92362994D01*
X85716406Y-92281622D01*
X85620723Y-92217688D01*
X85514405Y-92173650D01*
X85401539Y-92151200D01*
X85286461Y-92151200D01*
X85173595Y-92173650D01*
X85067277Y-92217688D01*
X84971594Y-92281622D01*
X84890222Y-92362994D01*
X84826288Y-92458677D01*
X84782250Y-92564995D01*
X84759800Y-92677861D01*
X80116264Y-92677861D01*
X80522521Y-91708536D01*
X80525462Y-91703911D01*
X80537926Y-91671779D01*
X80543521Y-91658430D01*
X80545125Y-91653222D01*
X80547096Y-91648140D01*
X80550985Y-91634190D01*
X80561125Y-91601259D01*
X80561685Y-91595808D01*
X80936663Y-90250724D01*
X80938654Y-90246556D01*
X80947367Y-90212328D01*
X80951484Y-90197560D01*
X80952278Y-90193037D01*
X80953411Y-90188585D01*
X80955720Y-90173422D01*
X80961823Y-90138641D01*
X80961718Y-90134024D01*
X81227981Y-88385261D01*
X83540600Y-88385261D01*
X83540600Y-88500339D01*
X83563050Y-88613205D01*
X83607088Y-88719523D01*
X83671022Y-88815206D01*
X83752394Y-88896578D01*
X83848077Y-88960512D01*
X83954395Y-89004550D01*
X84067261Y-89027000D01*
X84182339Y-89027000D01*
X84295205Y-89004550D01*
X84401523Y-88960512D01*
X84497206Y-88896578D01*
X84578578Y-88815206D01*
X84642512Y-88719523D01*
X84686550Y-88613205D01*
X84709000Y-88500339D01*
X84709000Y-88385261D01*
X84686550Y-88272395D01*
X84642512Y-88166077D01*
X84578578Y-88070394D01*
X84497206Y-87989022D01*
X84401523Y-87925088D01*
X84295205Y-87881050D01*
X84182339Y-87858600D01*
X84067261Y-87858600D01*
X83954395Y-87881050D01*
X83848077Y-87925088D01*
X83752394Y-87989022D01*
X83671022Y-88070394D01*
X83607088Y-88166077D01*
X83563050Y-88272395D01*
X83540600Y-88385261D01*
X81227981Y-88385261D01*
X81254803Y-88209101D01*
X81256950Y-88198204D01*
X81257797Y-88189439D01*
X81259122Y-88180737D01*
X81259709Y-88169651D01*
X81328467Y-87458161D01*
X91953080Y-87458161D01*
X91953080Y-87573239D01*
X91975530Y-87686105D01*
X92019568Y-87792423D01*
X92083502Y-87888106D01*
X92164874Y-87969478D01*
X92260557Y-88033412D01*
X92366875Y-88077450D01*
X92479741Y-88099900D01*
X92594819Y-88099900D01*
X92707685Y-88077450D01*
X92814003Y-88033412D01*
X92909686Y-87969478D01*
X92991058Y-87888106D01*
X93054992Y-87792423D01*
X93099030Y-87686105D01*
X93121480Y-87573239D01*
X93121480Y-87458161D01*
X93099030Y-87345295D01*
X93054992Y-87238977D01*
X92991058Y-87143294D01*
X92909686Y-87061922D01*
X92814003Y-86997988D01*
X92707685Y-86953950D01*
X92594819Y-86931500D01*
X92479741Y-86931500D01*
X92366875Y-86953950D01*
X92260557Y-86997988D01*
X92164874Y-87061922D01*
X92083502Y-87143294D01*
X92019568Y-87238977D01*
X91975530Y-87345295D01*
X91953080Y-87458161D01*
X81328467Y-87458161D01*
X81599707Y-84651461D01*
X83743800Y-84651461D01*
X83743800Y-84766539D01*
X83766250Y-84879405D01*
X83810288Y-84985723D01*
X83874222Y-85081406D01*
X83955594Y-85162778D01*
X84051277Y-85226712D01*
X84157595Y-85270750D01*
X84270461Y-85293200D01*
X84385539Y-85293200D01*
X84498405Y-85270750D01*
X84604723Y-85226712D01*
X84700406Y-85162778D01*
X84781778Y-85081406D01*
X84845712Y-84985723D01*
X84889750Y-84879405D01*
X84912200Y-84766539D01*
X84912200Y-84651461D01*
X84889750Y-84538595D01*
X84883896Y-84524461D01*
X90525600Y-84524461D01*
X90525600Y-84639539D01*
X90548050Y-84752405D01*
X90592088Y-84858723D01*
X90656022Y-84954406D01*
X90737394Y-85035778D01*
X90833077Y-85099712D01*
X90939395Y-85143750D01*
X91052261Y-85166200D01*
X91167339Y-85166200D01*
X91280205Y-85143750D01*
X91386523Y-85099712D01*
X91482206Y-85035778D01*
X91563578Y-84954406D01*
X91627512Y-84858723D01*
X91671550Y-84752405D01*
X91694000Y-84639539D01*
X91694000Y-84524461D01*
X91671550Y-84411595D01*
X91627512Y-84305277D01*
X91563578Y-84209594D01*
X91482206Y-84128222D01*
X91386523Y-84064288D01*
X91280205Y-84020250D01*
X91167339Y-83997800D01*
X91052261Y-83997800D01*
X90939395Y-84020250D01*
X90833077Y-84064288D01*
X90737394Y-84128222D01*
X90656022Y-84209594D01*
X90592088Y-84305277D01*
X90548050Y-84411595D01*
X90525600Y-84524461D01*
X84883896Y-84524461D01*
X84845712Y-84432277D01*
X84781778Y-84336594D01*
X84700406Y-84255222D01*
X84604723Y-84191288D01*
X84498405Y-84147250D01*
X84385539Y-84124800D01*
X84270461Y-84124800D01*
X84157595Y-84147250D01*
X84051277Y-84191288D01*
X83955594Y-84255222D01*
X83874222Y-84336594D01*
X83810288Y-84432277D01*
X83766250Y-84538595D01*
X83743800Y-84651461D01*
X81599707Y-84651461D01*
X81724606Y-83359047D01*
X92075092Y-83359047D01*
X92075823Y-83373967D01*
X92279023Y-84745567D01*
X92282110Y-84758497D01*
X92536110Y-85520497D01*
X92541055Y-85532053D01*
X92998255Y-86395653D01*
X93006741Y-86408395D01*
X93017313Y-86418948D01*
X93029741Y-86427235D01*
X93791741Y-86833635D01*
X93802662Y-86838404D01*
X93817188Y-86841885D01*
X95290388Y-87045085D01*
X95299148Y-87045782D01*
X95314042Y-87044641D01*
X96177642Y-86892241D01*
X96186453Y-86890139D01*
X96200259Y-86884435D01*
X96962259Y-86478035D01*
X96968734Y-86474158D01*
X96980282Y-86464682D01*
X97793082Y-85651882D01*
X97803958Y-85638161D01*
X97810548Y-85624756D01*
X97962948Y-85218356D01*
X97966957Y-85202904D01*
X98064913Y-84549861D01*
X98526600Y-84549861D01*
X98526600Y-84664939D01*
X98549050Y-84777805D01*
X98593088Y-84884123D01*
X98657022Y-84979806D01*
X98738394Y-85061178D01*
X98834077Y-85125112D01*
X98940395Y-85169150D01*
X99053261Y-85191600D01*
X99168339Y-85191600D01*
X99281205Y-85169150D01*
X99387523Y-85125112D01*
X99483206Y-85061178D01*
X99564578Y-84979806D01*
X99628512Y-84884123D01*
X99672550Y-84777805D01*
X99695000Y-84664939D01*
X99695000Y-84549861D01*
X99672550Y-84436995D01*
X99628512Y-84330677D01*
X99564578Y-84234994D01*
X99483206Y-84153622D01*
X99387523Y-84089688D01*
X99281205Y-84045650D01*
X99168339Y-84023200D01*
X99053261Y-84023200D01*
X98940395Y-84045650D01*
X98834077Y-84089688D01*
X98738394Y-84153622D01*
X98657022Y-84234994D01*
X98593088Y-84330677D01*
X98549050Y-84436995D01*
X98526600Y-84549861D01*
X98064913Y-84549861D01*
X98119357Y-84186904D01*
X98119887Y-84168701D01*
X98101429Y-83965661D01*
X105079800Y-83965661D01*
X105079800Y-84080739D01*
X105102250Y-84193605D01*
X105146288Y-84299923D01*
X105210222Y-84395606D01*
X105291594Y-84476978D01*
X105387277Y-84540912D01*
X105493595Y-84584950D01*
X105606461Y-84607400D01*
X105721539Y-84607400D01*
X105834405Y-84584950D01*
X105940723Y-84540912D01*
X106036406Y-84476978D01*
X106117778Y-84395606D01*
X106181712Y-84299923D01*
X106225750Y-84193605D01*
X106248200Y-84080739D01*
X106248200Y-83965661D01*
X106225750Y-83852795D01*
X106181712Y-83746477D01*
X106117778Y-83650794D01*
X106037737Y-83570753D01*
X107010348Y-83570753D01*
X107061148Y-84383553D01*
X107063275Y-84397281D01*
X107164875Y-84803681D01*
X107168400Y-84814360D01*
X107175442Y-84827534D01*
X107184918Y-84839082D01*
X107591318Y-85245482D01*
X107601262Y-85253857D01*
X107614252Y-85261232D01*
X108071452Y-85464432D01*
X108089873Y-85469963D01*
X109004273Y-85622363D01*
X109016800Y-85623400D01*
X109982000Y-85623400D01*
X109999821Y-85621287D01*
X110013932Y-85616387D01*
X110674332Y-85311587D01*
X110684734Y-85305758D01*
X110696282Y-85296282D01*
X111153482Y-84839082D01*
X111164589Y-84824986D01*
X111171102Y-84811543D01*
X111473384Y-83991061D01*
X112852200Y-83991061D01*
X112852200Y-84106139D01*
X112874650Y-84219005D01*
X112918688Y-84325323D01*
X112982622Y-84421006D01*
X113063994Y-84502378D01*
X113159677Y-84566312D01*
X113265995Y-84610350D01*
X113378861Y-84632800D01*
X113493939Y-84632800D01*
X113606805Y-84610350D01*
X113713123Y-84566312D01*
X113808806Y-84502378D01*
X113890178Y-84421006D01*
X113954112Y-84325323D01*
X113998150Y-84219005D01*
X114020600Y-84106139D01*
X114020600Y-83991061D01*
X113998150Y-83878195D01*
X113954112Y-83771877D01*
X113890178Y-83676194D01*
X113808806Y-83594822D01*
X113713123Y-83530888D01*
X113606805Y-83486850D01*
X113493939Y-83464400D01*
X113378861Y-83464400D01*
X113265995Y-83486850D01*
X113159677Y-83530888D01*
X113063994Y-83594822D01*
X112982622Y-83676194D01*
X112918688Y-83771877D01*
X112874650Y-83878195D01*
X112852200Y-83991061D01*
X111473384Y-83991061D01*
X111526702Y-83846343D01*
X111530701Y-83830296D01*
X111683101Y-82712696D01*
X111682868Y-82690516D01*
X111530468Y-81725316D01*
X111527626Y-81713517D01*
X111521614Y-81699842D01*
X111064414Y-80887042D01*
X111051825Y-80870462D01*
X111040268Y-80860998D01*
X110583068Y-80556198D01*
X110569100Y-80548850D01*
X110061100Y-80345650D01*
X110040382Y-80340578D01*
X109532382Y-80289778D01*
X109515269Y-80289998D01*
X109500703Y-80293310D01*
X108738703Y-80547310D01*
X108724500Y-80553725D01*
X108712384Y-80562462D01*
X107848784Y-81324462D01*
X107839895Y-81333753D01*
X107831700Y-81346243D01*
X107272900Y-82413043D01*
X107266095Y-82431512D01*
X107012095Y-83549112D01*
X107010348Y-83570753D01*
X106037737Y-83570753D01*
X106036406Y-83569422D01*
X105940723Y-83505488D01*
X105834405Y-83461450D01*
X105721539Y-83439000D01*
X105606461Y-83439000D01*
X105493595Y-83461450D01*
X105387277Y-83505488D01*
X105291594Y-83569422D01*
X105210222Y-83650794D01*
X105146288Y-83746477D01*
X105102250Y-83852795D01*
X105079800Y-83965661D01*
X98101429Y-83965661D01*
X98018287Y-83051101D01*
X98016325Y-83039519D01*
X97762325Y-82023519D01*
X97755635Y-82006141D01*
X97349235Y-81244141D01*
X97343273Y-81234700D01*
X97333258Y-81223617D01*
X96774458Y-80715617D01*
X96764759Y-80708131D01*
X96751500Y-80701250D01*
X96243500Y-80498050D01*
X96230066Y-80494064D01*
X96215200Y-80492600D01*
X95351600Y-80492600D01*
X95340824Y-80493366D01*
X94274024Y-80645766D01*
X94260628Y-80648936D01*
X94246994Y-80655040D01*
X92824594Y-81467840D01*
X92807730Y-81480919D01*
X92798425Y-81492604D01*
X92239625Y-82356204D01*
X92232097Y-82371260D01*
X92228332Y-82385716D01*
X92075932Y-83350916D01*
X92075092Y-83359047D01*
X81724606Y-83359047D01*
X81967436Y-80846335D01*
X82006511Y-80460461D01*
X83743800Y-80460461D01*
X83743800Y-80575539D01*
X83766250Y-80688405D01*
X83810288Y-80794723D01*
X83874222Y-80890406D01*
X83955594Y-80971778D01*
X84051277Y-81035712D01*
X84157595Y-81079750D01*
X84270461Y-81102200D01*
X84385539Y-81102200D01*
X84498405Y-81079750D01*
X84604723Y-81035712D01*
X84700406Y-80971778D01*
X84781778Y-80890406D01*
X84845712Y-80794723D01*
X84889750Y-80688405D01*
X84912200Y-80575539D01*
X84912200Y-80460461D01*
X84889750Y-80347595D01*
X84845712Y-80241277D01*
X84781778Y-80145594D01*
X84700406Y-80064222D01*
X84604723Y-80000288D01*
X84498405Y-79956250D01*
X84385539Y-79933800D01*
X84270461Y-79933800D01*
X84157595Y-79956250D01*
X84051277Y-80000288D01*
X83955594Y-80064222D01*
X83874222Y-80145594D01*
X83810288Y-80241277D01*
X83766250Y-80347595D01*
X83743800Y-80460461D01*
X82006511Y-80460461D01*
X82217427Y-78377661D01*
X94411800Y-78377661D01*
X94411800Y-78492739D01*
X94434250Y-78605605D01*
X94478288Y-78711923D01*
X94542222Y-78807606D01*
X94623594Y-78888978D01*
X94719277Y-78952912D01*
X94825595Y-78996950D01*
X94919800Y-79015688D01*
X94919800Y-79127739D01*
X94942250Y-79240605D01*
X94986288Y-79346923D01*
X95050222Y-79442606D01*
X95131594Y-79523978D01*
X95227277Y-79587912D01*
X95333595Y-79631950D01*
X95446461Y-79654400D01*
X95561539Y-79654400D01*
X95674405Y-79631950D01*
X95780723Y-79587912D01*
X95876406Y-79523978D01*
X95957778Y-79442606D01*
X96021712Y-79346923D01*
X96065750Y-79240605D01*
X96088200Y-79127739D01*
X96088200Y-79012661D01*
X96065750Y-78899795D01*
X96021712Y-78793477D01*
X95957778Y-78697794D01*
X95876406Y-78616422D01*
X95780723Y-78552488D01*
X95674405Y-78508450D01*
X95580200Y-78489712D01*
X95580200Y-78377661D01*
X108534200Y-78377661D01*
X108534200Y-78492739D01*
X108556650Y-78605605D01*
X108600688Y-78711923D01*
X108664622Y-78807606D01*
X108745994Y-78888978D01*
X108841677Y-78952912D01*
X108947995Y-78996950D01*
X109042200Y-79015688D01*
X109042200Y-79127739D01*
X109064650Y-79240605D01*
X109108688Y-79346923D01*
X109172622Y-79442606D01*
X109253994Y-79523978D01*
X109349677Y-79587912D01*
X109455995Y-79631950D01*
X109568861Y-79654400D01*
X109683939Y-79654400D01*
X109796805Y-79631950D01*
X109903123Y-79587912D01*
X109998806Y-79523978D01*
X110080178Y-79442606D01*
X110144112Y-79346923D01*
X110188150Y-79240605D01*
X110210600Y-79127739D01*
X110210600Y-79012661D01*
X110188150Y-78899795D01*
X110144112Y-78793477D01*
X110080178Y-78697794D01*
X109998806Y-78616422D01*
X109903123Y-78552488D01*
X109796805Y-78508450D01*
X109702600Y-78489712D01*
X109702600Y-78377661D01*
X109680150Y-78264795D01*
X109636112Y-78158477D01*
X109572178Y-78062794D01*
X109490806Y-77981422D01*
X109395123Y-77917488D01*
X109288805Y-77873450D01*
X109175939Y-77851000D01*
X109060861Y-77851000D01*
X108947995Y-77873450D01*
X108841677Y-77917488D01*
X108745994Y-77981422D01*
X108664622Y-78062794D01*
X108600688Y-78158477D01*
X108556650Y-78264795D01*
X108534200Y-78377661D01*
X95580200Y-78377661D01*
X95557750Y-78264795D01*
X95513712Y-78158477D01*
X95449778Y-78062794D01*
X95368406Y-77981422D01*
X95272723Y-77917488D01*
X95166405Y-77873450D01*
X95053539Y-77851000D01*
X94938461Y-77851000D01*
X94825595Y-77873450D01*
X94719277Y-77917488D01*
X94623594Y-77981422D01*
X94542222Y-78062794D01*
X94478288Y-78158477D01*
X94434250Y-78264795D01*
X94411800Y-78377661D01*
X82217427Y-78377661D01*
X82412911Y-76447261D01*
X83769200Y-76447261D01*
X83769200Y-76562339D01*
X83791650Y-76675205D01*
X83835688Y-76781523D01*
X83899622Y-76877206D01*
X83980994Y-76958578D01*
X84076677Y-77022512D01*
X84182995Y-77066550D01*
X84295861Y-77089000D01*
X84410939Y-77089000D01*
X84523805Y-77066550D01*
X84630123Y-77022512D01*
X84725806Y-76958578D01*
X84807178Y-76877206D01*
X84871112Y-76781523D01*
X84915150Y-76675205D01*
X84937600Y-76562339D01*
X84937600Y-76447261D01*
X84915150Y-76334395D01*
X84871112Y-76228077D01*
X84807178Y-76132394D01*
X84725806Y-76051022D01*
X84630123Y-75987088D01*
X84523805Y-75943050D01*
X84410939Y-75920600D01*
X84295861Y-75920600D01*
X84182995Y-75943050D01*
X84076677Y-75987088D01*
X83980994Y-76051022D01*
X83899622Y-76132394D01*
X83835688Y-76228077D01*
X83791650Y-76334395D01*
X83769200Y-76447261D01*
X82412911Y-76447261D01*
X82596437Y-74634955D01*
X82624092Y-74440661D01*
X94411800Y-74440661D01*
X94411800Y-74555739D01*
X94434250Y-74668605D01*
X94478288Y-74774923D01*
X94542222Y-74870606D01*
X94623594Y-74951978D01*
X94719277Y-75015912D01*
X94825595Y-75059950D01*
X94919800Y-75078688D01*
X94919800Y-75089139D01*
X94942250Y-75202005D01*
X94986288Y-75308323D01*
X95050222Y-75404006D01*
X95131594Y-75485378D01*
X95227277Y-75549312D01*
X95333595Y-75593350D01*
X95430896Y-75612704D01*
X95450250Y-75710005D01*
X95494288Y-75816323D01*
X95558222Y-75912006D01*
X95639594Y-75993378D01*
X95735277Y-76057312D01*
X95841595Y-76101350D01*
X95954461Y-76123800D01*
X96069539Y-76123800D01*
X96182405Y-76101350D01*
X96288723Y-76057312D01*
X96384406Y-75993378D01*
X96465778Y-75912006D01*
X96529712Y-75816323D01*
X96573750Y-75710005D01*
X96596200Y-75597139D01*
X96596200Y-75482061D01*
X96573750Y-75369195D01*
X96529712Y-75262877D01*
X96465778Y-75167194D01*
X96384406Y-75085822D01*
X96288723Y-75021888D01*
X96182405Y-74977850D01*
X96085104Y-74958496D01*
X96065750Y-74861195D01*
X96021712Y-74754877D01*
X95957778Y-74659194D01*
X95876406Y-74577822D01*
X95780723Y-74513888D01*
X95674405Y-74469850D01*
X95580200Y-74451112D01*
X95580200Y-74440661D01*
X108534200Y-74440661D01*
X108534200Y-74555739D01*
X108556650Y-74668605D01*
X108600688Y-74774923D01*
X108664622Y-74870606D01*
X108745994Y-74951978D01*
X108841677Y-75015912D01*
X108947995Y-75059950D01*
X109042200Y-75078688D01*
X109042200Y-75089139D01*
X109064650Y-75202005D01*
X109108688Y-75308323D01*
X109172622Y-75404006D01*
X109253994Y-75485378D01*
X109349677Y-75549312D01*
X109455995Y-75593350D01*
X109553296Y-75612704D01*
X109572650Y-75710005D01*
X109616688Y-75816323D01*
X109680622Y-75912006D01*
X109761994Y-75993378D01*
X109857677Y-76057312D01*
X109963995Y-76101350D01*
X110076861Y-76123800D01*
X110191939Y-76123800D01*
X110304805Y-76101350D01*
X110411123Y-76057312D01*
X110506806Y-75993378D01*
X110588178Y-75912006D01*
X110652112Y-75816323D01*
X110696150Y-75710005D01*
X110718600Y-75597139D01*
X110718600Y-75482061D01*
X110696150Y-75369195D01*
X110652112Y-75262877D01*
X110588178Y-75167194D01*
X110506806Y-75085822D01*
X110411123Y-75021888D01*
X110304805Y-74977850D01*
X110207504Y-74958496D01*
X110188150Y-74861195D01*
X110144112Y-74754877D01*
X110080178Y-74659194D01*
X109998806Y-74577822D01*
X109903123Y-74513888D01*
X109796805Y-74469850D01*
X109702600Y-74451112D01*
X109702600Y-74440661D01*
X109680150Y-74327795D01*
X109636112Y-74221477D01*
X109572178Y-74125794D01*
X109490806Y-74044422D01*
X109395123Y-73980488D01*
X109288805Y-73936450D01*
X109175939Y-73914000D01*
X109060861Y-73914000D01*
X108947995Y-73936450D01*
X108841677Y-73980488D01*
X108745994Y-74044422D01*
X108664622Y-74125794D01*
X108600688Y-74221477D01*
X108556650Y-74327795D01*
X108534200Y-74440661D01*
X95580200Y-74440661D01*
X95557750Y-74327795D01*
X95513712Y-74221477D01*
X95449778Y-74125794D01*
X95368406Y-74044422D01*
X95272723Y-73980488D01*
X95166405Y-73936450D01*
X95053539Y-73914000D01*
X94938461Y-73914000D01*
X94825595Y-73936450D01*
X94719277Y-73980488D01*
X94623594Y-74044422D01*
X94542222Y-74125794D01*
X94478288Y-74221477D01*
X94434250Y-74327795D01*
X94411800Y-74440661D01*
X82624092Y-74440661D01*
X82790534Y-73271301D01*
X83419142Y-70722088D01*
X84388851Y-68605464D01*
X85709681Y-66710469D01*
X87071510Y-65331781D01*
X96495800Y-65331781D01*
X96495800Y-66037019D01*
X96633385Y-66728706D01*
X96903268Y-67380261D01*
X97295077Y-67966644D01*
X97793756Y-68465323D01*
X98380139Y-68857132D01*
X99031694Y-69127015D01*
X99723381Y-69264600D01*
X100428619Y-69264600D01*
X101120306Y-69127015D01*
X101771861Y-68857132D01*
X102358244Y-68465323D01*
X102856923Y-67966644D01*
X103248732Y-67380261D01*
X103518615Y-66728706D01*
X103656200Y-66037019D01*
X103656200Y-65331781D01*
X103518615Y-64640094D01*
X103248732Y-63988539D01*
X102856923Y-63402156D01*
X102358244Y-62903477D01*
X101771861Y-62511668D01*
X101120306Y-62241785D01*
X100428619Y-62104200D01*
X99723381Y-62104200D01*
X99031694Y-62241785D01*
X98380139Y-62511668D01*
X97793756Y-62903477D01*
X97295077Y-63402156D01*
X96903268Y-63988539D01*
X96633385Y-64640094D01*
X96495800Y-65331781D01*
X87071510Y-65331781D01*
X87507491Y-64890403D01*
X89579028Y-63410381D01*
X92038487Y-62185621D01*
X94662448Y-61325062D01*
X96605651Y-60985497D01*
X98512543Y-60840352D01*
X100254333Y-60785295D01*
X103827737Y-60973634D01*
D12*
G36*
X88265000Y-165404800D02*
X88267440Y-165429576D01*
X88274667Y-165453401D01*
X88286403Y-165475357D01*
X88302197Y-165494603D01*
X88321443Y-165510397D01*
X88343399Y-165522133D01*
X88367224Y-165529360D01*
X88392000Y-165531800D01*
X91948000Y-165531800D01*
X91972776Y-165529360D01*
X91996601Y-165522133D01*
X92018557Y-165510397D01*
X92037803Y-165494603D01*
X92053597Y-165475357D01*
X92065333Y-165453401D01*
X92072560Y-165429576D01*
X92075000Y-165404800D01*
X92075000Y-162737800D01*
X93345000Y-162737800D01*
X93345000Y-165404800D01*
X93347440Y-165429576D01*
X93354667Y-165453401D01*
X93366403Y-165475357D01*
X93382197Y-165494603D01*
X93401443Y-165510397D01*
X93423399Y-165522133D01*
X93447224Y-165529360D01*
X93472000Y-165531800D01*
X100584000Y-165531800D01*
X100608776Y-165529360D01*
X100632601Y-165522133D01*
X100654557Y-165510397D01*
X100673803Y-165494603D01*
X100689597Y-165475357D01*
X100701333Y-165453401D01*
X100708560Y-165429576D01*
X100711000Y-165404800D01*
X100711000Y-162737800D01*
X101981000Y-162737800D01*
X101981000Y-165404800D01*
X101983440Y-165429576D01*
X101990667Y-165453401D01*
X102002403Y-165475357D01*
X102018197Y-165494603D01*
X102037443Y-165510397D01*
X102059399Y-165522133D01*
X102083224Y-165529360D01*
X102108000Y-165531800D01*
X105664000Y-165531800D01*
X105688776Y-165529360D01*
X105712601Y-165522133D01*
X105734557Y-165510397D01*
X105753803Y-165494603D01*
X105769597Y-165475357D01*
X105781333Y-165453401D01*
X105788560Y-165429576D01*
X105791000Y-165404800D01*
X105791000Y-162747630D01*
X105791997Y-162745223D01*
X105793474Y-162737800D01*
X109093000Y-162737800D01*
X109093000Y-166420800D01*
X109095440Y-166445576D01*
X109102667Y-166469401D01*
X109114403Y-166491357D01*
X109130197Y-166510603D01*
X109149443Y-166526397D01*
X109160363Y-166532927D01*
X117168983Y-170792507D01*
X117192003Y-170801987D01*
X117216431Y-170806794D01*
X117241328Y-170806743D01*
X117270193Y-170800383D01*
X132928997Y-165375688D01*
X133973309Y-167951868D01*
X132547560Y-168311068D01*
X132538523Y-168312795D01*
X132525825Y-168316543D01*
X132513022Y-168319769D01*
X132504387Y-168322872D01*
X130042415Y-169049645D01*
X130032794Y-169051919D01*
X130020904Y-169055995D01*
X130008899Y-169059539D01*
X129999774Y-169063239D01*
X128064959Y-169726533D01*
X128060426Y-169727703D01*
X128043746Y-169733805D01*
X128026998Y-169739547D01*
X128022754Y-169741486D01*
X120348432Y-172549165D01*
X119719498Y-172729213D01*
X118271122Y-173122514D01*
X117788971Y-173082334D01*
X117334251Y-172945917D01*
X116825388Y-172773637D01*
X116245116Y-172563497D01*
X115871646Y-172360188D01*
X113994728Y-171004498D01*
X112407381Y-169831682D01*
X112395478Y-169822288D01*
X112389357Y-169818365D01*
X112383525Y-169814056D01*
X112370535Y-169806302D01*
X110719301Y-168748012D01*
X110701843Y-168734202D01*
X110681570Y-168723830D01*
X110681361Y-168723696D01*
X110662208Y-168713924D01*
X110641914Y-168703541D01*
X110641670Y-168703445D01*
X110621398Y-168693102D01*
X110599991Y-168687052D01*
X108671166Y-167928415D01*
X108656447Y-167920410D01*
X108629447Y-167912006D01*
X108624105Y-167909905D01*
X108608118Y-167905367D01*
X108592172Y-167900404D01*
X108586523Y-167899238D01*
X108559346Y-167891524D01*
X108542660Y-167890183D01*
X106316541Y-167430630D01*
X106307801Y-167427347D01*
X106272619Y-167421563D01*
X106259759Y-167418908D01*
X106250536Y-167417932D01*
X106241375Y-167416426D01*
X106228258Y-167415575D01*
X106192815Y-167411825D01*
X106183520Y-167412673D01*
X104629621Y-167311866D01*
X104623202Y-167310997D01*
X104607297Y-167310418D01*
X104591392Y-167309386D01*
X104584908Y-167309603D01*
X102805064Y-167244790D01*
X102800522Y-167244267D01*
X102782709Y-167243975D01*
X102764874Y-167243326D01*
X102760303Y-167243609D01*
X99694041Y-167193425D01*
X99691457Y-167193157D01*
X99671665Y-167193058D01*
X99651851Y-167192734D01*
X99649259Y-167192947D01*
X95615887Y-167172829D01*
X95614496Y-167172694D01*
X95593582Y-167172718D01*
X95572500Y-167172613D01*
X95571097Y-167172744D01*
X91211047Y-167177779D01*
X91206876Y-167177450D01*
X91188614Y-167177805D01*
X91170419Y-167177826D01*
X91166271Y-167178239D01*
X90029614Y-167200335D01*
X90028381Y-167200244D01*
X90007284Y-167200769D01*
X89986067Y-167201181D01*
X89984833Y-167201327D01*
X87672824Y-167258814D01*
X87666781Y-167258531D01*
X87650456Y-167259370D01*
X87634098Y-167259777D01*
X87628087Y-167260520D01*
X86120166Y-167338042D01*
X86105170Y-167338326D01*
X86097820Y-167339191D01*
X86090423Y-167339571D01*
X86075584Y-167341807D01*
X85692148Y-167386917D01*
X85688556Y-167386688D01*
X85647594Y-167392158D01*
X85628879Y-167394360D01*
X85625384Y-167395124D01*
X85599522Y-167398578D01*
X85581607Y-167404697D01*
X85563116Y-167408740D01*
X85539210Y-167419177D01*
X85514519Y-167427610D01*
X85498140Y-167437107D01*
X85480795Y-167444680D01*
X85459384Y-167459581D01*
X85456284Y-167461378D01*
X85440976Y-167472391D01*
X85407067Y-167495989D01*
X85404570Y-167498582D01*
X85110067Y-167710455D01*
X85097623Y-167717071D01*
X85073671Y-167736639D01*
X85066859Y-167741540D01*
X85056361Y-167750781D01*
X85045492Y-167759661D01*
X85039524Y-167765602D01*
X85016331Y-167786019D01*
X85007780Y-167797206D01*
X84709000Y-168094665D01*
X84709000Y-162737800D01*
X88265000Y-162737800D01*
X88265000Y-165404800D01*
X88265000Y-165404800D01*
G37*
X88265000Y-165404800D02*
X88267440Y-165429576D01*
X88274667Y-165453401D01*
X88286403Y-165475357D01*
X88302197Y-165494603D01*
X88321443Y-165510397D01*
X88343399Y-165522133D01*
X88367224Y-165529360D01*
X88392000Y-165531800D01*
X91948000Y-165531800D01*
X91972776Y-165529360D01*
X91996601Y-165522133D01*
X92018557Y-165510397D01*
X92037803Y-165494603D01*
X92053597Y-165475357D01*
X92065333Y-165453401D01*
X92072560Y-165429576D01*
X92075000Y-165404800D01*
X92075000Y-162737800D01*
X93345000Y-162737800D01*
X93345000Y-165404800D01*
X93347440Y-165429576D01*
X93354667Y-165453401D01*
X93366403Y-165475357D01*
X93382197Y-165494603D01*
X93401443Y-165510397D01*
X93423399Y-165522133D01*
X93447224Y-165529360D01*
X93472000Y-165531800D01*
X100584000Y-165531800D01*
X100608776Y-165529360D01*
X100632601Y-165522133D01*
X100654557Y-165510397D01*
X100673803Y-165494603D01*
X100689597Y-165475357D01*
X100701333Y-165453401D01*
X100708560Y-165429576D01*
X100711000Y-165404800D01*
X100711000Y-162737800D01*
X101981000Y-162737800D01*
X101981000Y-165404800D01*
X101983440Y-165429576D01*
X101990667Y-165453401D01*
X102002403Y-165475357D01*
X102018197Y-165494603D01*
X102037443Y-165510397D01*
X102059399Y-165522133D01*
X102083224Y-165529360D01*
X102108000Y-165531800D01*
X105664000Y-165531800D01*
X105688776Y-165529360D01*
X105712601Y-165522133D01*
X105734557Y-165510397D01*
X105753803Y-165494603D01*
X105769597Y-165475357D01*
X105781333Y-165453401D01*
X105788560Y-165429576D01*
X105791000Y-165404800D01*
X105791000Y-162747630D01*
X105791997Y-162745223D01*
X105793474Y-162737800D01*
X109093000Y-162737800D01*
X109093000Y-166420800D01*
X109095440Y-166445576D01*
X109102667Y-166469401D01*
X109114403Y-166491357D01*
X109130197Y-166510603D01*
X109149443Y-166526397D01*
X109160363Y-166532927D01*
X117168983Y-170792507D01*
X117192003Y-170801987D01*
X117216431Y-170806794D01*
X117241328Y-170806743D01*
X117270193Y-170800383D01*
X132928997Y-165375688D01*
X133973309Y-167951868D01*
X132547560Y-168311068D01*
X132538523Y-168312795D01*
X132525825Y-168316543D01*
X132513022Y-168319769D01*
X132504387Y-168322872D01*
X130042415Y-169049645D01*
X130032794Y-169051919D01*
X130020904Y-169055995D01*
X130008899Y-169059539D01*
X129999774Y-169063239D01*
X128064959Y-169726533D01*
X128060426Y-169727703D01*
X128043746Y-169733805D01*
X128026998Y-169739547D01*
X128022754Y-169741486D01*
X120348432Y-172549165D01*
X119719498Y-172729213D01*
X118271122Y-173122514D01*
X117788971Y-173082334D01*
X117334251Y-172945917D01*
X116825388Y-172773637D01*
X116245116Y-172563497D01*
X115871646Y-172360188D01*
X113994728Y-171004498D01*
X112407381Y-169831682D01*
X112395478Y-169822288D01*
X112389357Y-169818365D01*
X112383525Y-169814056D01*
X112370535Y-169806302D01*
X110719301Y-168748012D01*
X110701843Y-168734202D01*
X110681570Y-168723830D01*
X110681361Y-168723696D01*
X110662208Y-168713924D01*
X110641914Y-168703541D01*
X110641670Y-168703445D01*
X110621398Y-168693102D01*
X110599991Y-168687052D01*
X108671166Y-167928415D01*
X108656447Y-167920410D01*
X108629447Y-167912006D01*
X108624105Y-167909905D01*
X108608118Y-167905367D01*
X108592172Y-167900404D01*
X108586523Y-167899238D01*
X108559346Y-167891524D01*
X108542660Y-167890183D01*
X106316541Y-167430630D01*
X106307801Y-167427347D01*
X106272619Y-167421563D01*
X106259759Y-167418908D01*
X106250536Y-167417932D01*
X106241375Y-167416426D01*
X106228258Y-167415575D01*
X106192815Y-167411825D01*
X106183520Y-167412673D01*
X104629621Y-167311866D01*
X104623202Y-167310997D01*
X104607297Y-167310418D01*
X104591392Y-167309386D01*
X104584908Y-167309603D01*
X102805064Y-167244790D01*
X102800522Y-167244267D01*
X102782709Y-167243975D01*
X102764874Y-167243326D01*
X102760303Y-167243609D01*
X99694041Y-167193425D01*
X99691457Y-167193157D01*
X99671665Y-167193058D01*
X99651851Y-167192734D01*
X99649259Y-167192947D01*
X95615887Y-167172829D01*
X95614496Y-167172694D01*
X95593582Y-167172718D01*
X95572500Y-167172613D01*
X95571097Y-167172744D01*
X91211047Y-167177779D01*
X91206876Y-167177450D01*
X91188614Y-167177805D01*
X91170419Y-167177826D01*
X91166271Y-167178239D01*
X90029614Y-167200335D01*
X90028381Y-167200244D01*
X90007284Y-167200769D01*
X89986067Y-167201181D01*
X89984833Y-167201327D01*
X87672824Y-167258814D01*
X87666781Y-167258531D01*
X87650456Y-167259370D01*
X87634098Y-167259777D01*
X87628087Y-167260520D01*
X86120166Y-167338042D01*
X86105170Y-167338326D01*
X86097820Y-167339191D01*
X86090423Y-167339571D01*
X86075584Y-167341807D01*
X85692148Y-167386917D01*
X85688556Y-167386688D01*
X85647594Y-167392158D01*
X85628879Y-167394360D01*
X85625384Y-167395124D01*
X85599522Y-167398578D01*
X85581607Y-167404697D01*
X85563116Y-167408740D01*
X85539210Y-167419177D01*
X85514519Y-167427610D01*
X85498140Y-167437107D01*
X85480795Y-167444680D01*
X85459384Y-167459581D01*
X85456284Y-167461378D01*
X85440976Y-167472391D01*
X85407067Y-167495989D01*
X85404570Y-167498582D01*
X85110067Y-167710455D01*
X85097623Y-167717071D01*
X85073671Y-167736639D01*
X85066859Y-167741540D01*
X85056361Y-167750781D01*
X85045492Y-167759661D01*
X85039524Y-167765602D01*
X85016331Y-167786019D01*
X85007780Y-167797206D01*
X84709000Y-168094665D01*
X84709000Y-162737800D01*
X88265000Y-162737800D01*
X88265000Y-165404800D01*
M02*
