G04 #@! TF.GenerationSoftware,KiCad,Pcbnew,(2018-02-05 revision d1a45d147)-makepkg*
G04 #@! TF.CreationDate,2019-11-12T11:54:18-08:00*
G04 #@! TF.ProjectId,lichen-badge,6C696368656E2D62616467652E6B6963,rev?*
G04 #@! TF.SameCoordinates,Original*
G04 #@! TF.FileFunction,Legend,Top*
G04 #@! TF.FilePolarity,Positive*
%FSLAX46Y46*%
G04 Gerber Fmt 4.6, Leading zero omitted, Abs format (unit mm)*
G04 Created by KiCad (PCBNEW (2018-02-05 revision d1a45d147)-makepkg) date 11/12/19 11:54:18*
%MOMM*%
%LPD*%
G01*
G04 APERTURE LIST*
%ADD10C,0.150000*%
%ADD11C,0.120000*%
%ADD12C,0.127000*%
%ADD13C,0.500000*%
%ADD14C,0.125000*%
G04 APERTURE END LIST*
D10*
X103397513Y-152422551D02*
X103730846Y-152422551D01*
X103873703Y-152946360D02*
X103397513Y-152946360D01*
X103397513Y-151946360D01*
X103873703Y-151946360D01*
X104302275Y-152422551D02*
X104635608Y-152422551D01*
X104778465Y-152946360D02*
X104302275Y-152946360D01*
X104302275Y-151946360D01*
X104778465Y-151946360D01*
X105207037Y-152946360D02*
X105207037Y-151946360D01*
X105587989Y-151946360D01*
X105683227Y-151993980D01*
X105730846Y-152041599D01*
X105778465Y-152136837D01*
X105778465Y-152279694D01*
X105730846Y-152374932D01*
X105683227Y-152422551D01*
X105587989Y-152470170D01*
X105207037Y-152470170D01*
D11*
X95198000Y-120070378D02*
X95198000Y-119553222D01*
X93778000Y-120070378D02*
X93778000Y-119553222D01*
X111450120Y-81813400D02*
X111450120Y-82062000D01*
X112801400Y-82062000D02*
X111449400Y-82062000D01*
X107549400Y-81813400D02*
X111449400Y-81812000D01*
X107549400Y-84812000D02*
X111449400Y-84812000D01*
X97099120Y-82372200D02*
X97099120Y-82620800D01*
X98450400Y-82620800D02*
X97098400Y-82620800D01*
X93198400Y-82372200D02*
X97098400Y-82370800D01*
X93198400Y-85370800D02*
X97098400Y-85370800D01*
X110552400Y-76762800D02*
X110552400Y-77262800D01*
X108192400Y-76762800D02*
X108192400Y-77262800D01*
X96430000Y-76762800D02*
X96430000Y-77262800D01*
X94070000Y-76762800D02*
X94070000Y-77262800D01*
X84584000Y-75831579D02*
X86044000Y-75831579D01*
X84584000Y-78991579D02*
X86744000Y-78991579D01*
X84584000Y-78991579D02*
X84584000Y-78061579D01*
X84584000Y-75831579D02*
X84584000Y-76761579D01*
X84584000Y-84068800D02*
X86044000Y-84068800D01*
X84584000Y-87228800D02*
X86744000Y-87228800D01*
X84584000Y-87228800D02*
X84584000Y-86298800D01*
X84584000Y-84068800D02*
X84584000Y-84998800D01*
X84584000Y-91180800D02*
X86044000Y-91180800D01*
X84584000Y-94340800D02*
X86744000Y-94340800D01*
X84584000Y-94340800D02*
X84584000Y-93410800D01*
X84584000Y-91180800D02*
X84584000Y-92110800D01*
X109786360Y-106534120D02*
X109786360Y-101634120D01*
X106286360Y-101634120D02*
X106286360Y-106534120D01*
X107686360Y-101634120D02*
X108386360Y-101634120D01*
X107686360Y-106534120D02*
X108386360Y-106534120D01*
X106286360Y-106534120D02*
X106386360Y-106534120D01*
X109686360Y-106534120D02*
X109786360Y-106534120D01*
X109786360Y-101634120D02*
X109686360Y-101634120D01*
X106286360Y-101634120D02*
X106386360Y-101634120D01*
X99016760Y-106534120D02*
X99016760Y-101634120D01*
X95516760Y-101634120D02*
X95516760Y-106534120D01*
X96916760Y-101634120D02*
X97616760Y-101634120D01*
X96916760Y-106534120D02*
X97616760Y-106534120D01*
X95516760Y-106534120D02*
X95616760Y-106534120D01*
X98916760Y-106534120D02*
X99016760Y-106534120D01*
X99016760Y-101634120D02*
X98916760Y-101634120D01*
X95516760Y-101634120D02*
X95616760Y-101634120D01*
X88856760Y-106534120D02*
X88856760Y-101634120D01*
X85356760Y-101634120D02*
X85356760Y-106534120D01*
X86756760Y-101634120D02*
X87456760Y-101634120D01*
X86756760Y-106534120D02*
X87456760Y-106534120D01*
X85356760Y-106534120D02*
X85456760Y-106534120D01*
X88756760Y-106534120D02*
X88856760Y-106534120D01*
X88856760Y-101634120D02*
X88756760Y-101634120D01*
X85356760Y-101634120D02*
X85456760Y-101634120D01*
X122272520Y-138495920D02*
X122272520Y-139425920D01*
X122272520Y-141655920D02*
X122272520Y-140725920D01*
X122272520Y-141655920D02*
X124432520Y-141655920D01*
X122272520Y-138495920D02*
X123732520Y-138495920D01*
X124482331Y-153831331D02*
X126286541Y-153174653D01*
X126286541Y-153174653D02*
X131078243Y-166339746D01*
X113581897Y-157798765D02*
X113159035Y-157952674D01*
X113159035Y-157952674D02*
X114393728Y-161344965D01*
X130272525Y-169038046D02*
X128101835Y-169828112D01*
X119691586Y-172889192D02*
X121439415Y-172253035D01*
X119691586Y-172889192D02*
X119435244Y-172769658D01*
X114975162Y-162942442D02*
X116582657Y-167358997D01*
X117027283Y-168580598D02*
X117642919Y-170272044D01*
X121517043Y-171852318D02*
X127502885Y-169673650D01*
X121517043Y-171852318D02*
X121568346Y-171993272D01*
X121439415Y-172253035D02*
X121568346Y-171993272D01*
X130272525Y-169038046D02*
X130392060Y-168781703D01*
X130392060Y-168781703D02*
X130636380Y-168692778D01*
X128101835Y-169828112D02*
X127502885Y-169673650D01*
X106668800Y-150749000D02*
G75*
G03X106668800Y-150749000I-700000J0D01*
G01*
X104128800Y-150749000D02*
G75*
G03X104128800Y-150749000I-700000J0D01*
G01*
X129196810Y-133134594D02*
X128785714Y-133317626D01*
X128785714Y-133317626D02*
X128399315Y-132449757D01*
X128399315Y-132449757D02*
X127038132Y-133055795D01*
X126361856Y-126767182D02*
X125950760Y-126950214D01*
X125950760Y-126950214D02*
X126337160Y-127818082D01*
X132412490Y-131702881D02*
X132823585Y-131519850D01*
X132823585Y-131519850D02*
X129988631Y-125152438D01*
X129988631Y-125152438D02*
X129577536Y-125335469D01*
X93169200Y-161046379D02*
X93169200Y-160720821D01*
X92149200Y-161046379D02*
X92149200Y-160720821D01*
X106859800Y-161046379D02*
X106859800Y-160720821D01*
X105839800Y-161046379D02*
X105839800Y-160720821D01*
X88216200Y-161046379D02*
X88216200Y-160720821D01*
X87196200Y-161046379D02*
X87196200Y-160720821D01*
X101906800Y-161046379D02*
X101906800Y-160720821D01*
X100886800Y-161046379D02*
X100886800Y-160720821D01*
X115066578Y-149200800D02*
X114549422Y-149200800D01*
X115066578Y-150620800D02*
X114549422Y-150620800D01*
X68619620Y-128663120D02*
X72619620Y-128663120D01*
X68619620Y-124463120D02*
X72619620Y-124463120D01*
X71478642Y-141319320D02*
X71995798Y-141319320D01*
X71478642Y-139899320D02*
X71995798Y-139899320D01*
X71478642Y-138957120D02*
X71995798Y-138957120D01*
X71478642Y-137537120D02*
X71995798Y-137537120D01*
X69911462Y-123783160D02*
X70428618Y-123783160D01*
X69911462Y-122363160D02*
X70428618Y-122363160D01*
X102328960Y-117817200D02*
X102328960Y-118317200D01*
X99968960Y-117817200D02*
X99968960Y-118317200D01*
X104804380Y-115325080D02*
X104804380Y-115825080D01*
X102444380Y-115325080D02*
X102444380Y-115825080D01*
X107186200Y-117890860D02*
X107186200Y-118390860D01*
X104826200Y-117890860D02*
X104826200Y-118390860D01*
X109538940Y-115182840D02*
X109538940Y-115682840D01*
X107178940Y-115182840D02*
X107178940Y-115682840D01*
D10*
X71967220Y-132152520D02*
X71967220Y-130902520D01*
X68792220Y-132152520D02*
X68792220Y-135502520D01*
X72142220Y-132152520D02*
X72142220Y-135502520D01*
X68792220Y-132152520D02*
X69042220Y-132152520D01*
X68792220Y-135502520D02*
X69042220Y-135502520D01*
X72142220Y-135502520D02*
X71892220Y-135502520D01*
X72142220Y-132152520D02*
X71967220Y-132152520D01*
D11*
X76657400Y-121027000D02*
X72407400Y-121027000D01*
X72407400Y-121027000D02*
X72407400Y-120007000D01*
X72407400Y-120007000D02*
X74007400Y-120007000D01*
X74007400Y-120007000D02*
X74007400Y-118727000D01*
X74007400Y-118727000D02*
X71117400Y-118727000D01*
X76657400Y-112907000D02*
X72407400Y-112907000D01*
X72407400Y-112907000D02*
X72407400Y-113927000D01*
X72407400Y-113927000D02*
X74007400Y-113927000D01*
X74007400Y-113927000D02*
X74007400Y-115207000D01*
X80227400Y-119307000D02*
X80227400Y-114627000D01*
D10*
X86584600Y-158549000D02*
X86584600Y-155649000D01*
X86584600Y-155649000D02*
X86084600Y-155649000D01*
X86084600Y-155649000D02*
X86084600Y-158549000D01*
X86084600Y-158549000D02*
X86584600Y-158549000D01*
X86734600Y-158799000D02*
G75*
G03X86734600Y-158799000I-100000J0D01*
G01*
D12*
X102887780Y-161350960D02*
G75*
G03X102887780Y-161350960I-22860J0D01*
G01*
X102991920Y-161229040D02*
X102991920Y-160233360D01*
X104627680Y-160233360D02*
X104627680Y-161229040D01*
X89171780Y-161376360D02*
G75*
G03X89171780Y-161376360I-22860J0D01*
G01*
X89275920Y-161254440D02*
X89275920Y-160258760D01*
X90911680Y-160258760D02*
X90911680Y-161254440D01*
D11*
X86360000Y-167750800D02*
X86360000Y-167490800D01*
X86360000Y-165210800D02*
X86360000Y-163440800D01*
X86360000Y-163440800D02*
X86740000Y-163440800D01*
X93980000Y-163440800D02*
X93980000Y-165210800D01*
X93980000Y-167490800D02*
X93980000Y-167750800D01*
X93980000Y-163440800D02*
X93600000Y-163440800D01*
X100076000Y-167750800D02*
X100076000Y-167490800D01*
X100076000Y-165210800D02*
X100076000Y-163440800D01*
X100076000Y-163440800D02*
X100456000Y-163440800D01*
X107696000Y-163440800D02*
X107696000Y-165210800D01*
X107696000Y-167490800D02*
X107696000Y-167750800D01*
X107696000Y-163440800D02*
X107316000Y-163440800D01*
D10*
X86106000Y-149098000D02*
X86106000Y-122174000D01*
X86106000Y-122174000D02*
X113030000Y-122174000D01*
X113030000Y-122174000D02*
X113030000Y-149098000D01*
X113030000Y-149098000D02*
X86106000Y-149098000D01*
D13*
X86968000Y-148436000D02*
G75*
G03X86968000Y-148436000I-200000J0D01*
G01*
D10*
X120606220Y-131999320D02*
X120106220Y-131999320D01*
X120606220Y-135249320D02*
X120106220Y-135249320D01*
X117356220Y-135249320D02*
X117856220Y-135249320D01*
X117356220Y-131999320D02*
X117856220Y-131999320D01*
X120606220Y-135249320D02*
X120606220Y-134924320D01*
X117356220Y-135249320D02*
X117356220Y-134924320D01*
X120606220Y-131999320D02*
X120606220Y-132324320D01*
X94895942Y-117184466D02*
X94943561Y-117232085D01*
X94991180Y-117374942D01*
X94991180Y-117470180D01*
X94943561Y-117613038D01*
X94848323Y-117708276D01*
X94753085Y-117755895D01*
X94562609Y-117803514D01*
X94419752Y-117803514D01*
X94229276Y-117755895D01*
X94134038Y-117708276D01*
X94038800Y-117613038D01*
X93991180Y-117470180D01*
X93991180Y-117374942D01*
X94038800Y-117232085D01*
X94086419Y-117184466D01*
X94991180Y-116708276D02*
X94991180Y-116517800D01*
X94943561Y-116422561D01*
X94895942Y-116374942D01*
X94753085Y-116279704D01*
X94562609Y-116232085D01*
X94181657Y-116232085D01*
X94086419Y-116279704D01*
X94038800Y-116327323D01*
X93991180Y-116422561D01*
X93991180Y-116613038D01*
X94038800Y-116708276D01*
X94086419Y-116755895D01*
X94181657Y-116803514D01*
X94419752Y-116803514D01*
X94514990Y-116755895D01*
X94562609Y-116708276D01*
X94610228Y-116613038D01*
X94610228Y-116422561D01*
X94562609Y-116327323D01*
X94514990Y-116279704D01*
X94419752Y-116232085D01*
X108761304Y-81114380D02*
X108761304Y-80114380D01*
X108999400Y-80114380D01*
X109142257Y-80162000D01*
X109237495Y-80257238D01*
X109285114Y-80352476D01*
X109332733Y-80542952D01*
X109332733Y-80685809D01*
X109285114Y-80876285D01*
X109237495Y-80971523D01*
X109142257Y-81066761D01*
X108999400Y-81114380D01*
X108761304Y-81114380D01*
X109713685Y-80209619D02*
X109761304Y-80162000D01*
X109856542Y-80114380D01*
X110094638Y-80114380D01*
X110189876Y-80162000D01*
X110237495Y-80209619D01*
X110285114Y-80304857D01*
X110285114Y-80400095D01*
X110237495Y-80542952D01*
X109666066Y-81114380D01*
X110285114Y-81114380D01*
X94410304Y-81673180D02*
X94410304Y-80673180D01*
X94648400Y-80673180D01*
X94791257Y-80720800D01*
X94886495Y-80816038D01*
X94934114Y-80911276D01*
X94981733Y-81101752D01*
X94981733Y-81244609D01*
X94934114Y-81435085D01*
X94886495Y-81530323D01*
X94791257Y-81625561D01*
X94648400Y-81673180D01*
X94410304Y-81673180D01*
X95934114Y-81673180D02*
X95362685Y-81673180D01*
X95648400Y-81673180D02*
X95648400Y-80673180D01*
X95553161Y-80816038D01*
X95457923Y-80911276D01*
X95362685Y-80958895D01*
X99314095Y-58636780D02*
X99314095Y-57636780D01*
X99314095Y-58112971D02*
X99885523Y-58112971D01*
X99885523Y-58636780D02*
X99885523Y-57636780D01*
X100885523Y-58636780D02*
X100314095Y-58636780D01*
X100599809Y-58636780D02*
X100599809Y-57636780D01*
X100504571Y-57779638D01*
X100409333Y-57874876D01*
X100314095Y-57922495D01*
X107724780Y-77703276D02*
X107248590Y-78036609D01*
X107724780Y-78274704D02*
X106724780Y-78274704D01*
X106724780Y-77893752D01*
X106772400Y-77798514D01*
X106820019Y-77750895D01*
X106915257Y-77703276D01*
X107058114Y-77703276D01*
X107153352Y-77750895D01*
X107200971Y-77798514D01*
X107248590Y-77893752D01*
X107248590Y-78274704D01*
X107724780Y-77274704D02*
X106724780Y-77274704D01*
X107724780Y-76703276D01*
X106724780Y-76703276D01*
X106724780Y-75798514D02*
X106724780Y-75988990D01*
X106772400Y-76084228D01*
X106820019Y-76131847D01*
X106962876Y-76227085D01*
X107153352Y-76274704D01*
X107534304Y-76274704D01*
X107629542Y-76227085D01*
X107677161Y-76179466D01*
X107724780Y-76084228D01*
X107724780Y-75893752D01*
X107677161Y-75798514D01*
X107629542Y-75750895D01*
X107534304Y-75703276D01*
X107296209Y-75703276D01*
X107200971Y-75750895D01*
X107153352Y-75798514D01*
X107105733Y-75893752D01*
X107105733Y-76084228D01*
X107153352Y-76179466D01*
X107200971Y-76227085D01*
X107296209Y-76274704D01*
X93602380Y-77703276D02*
X93126190Y-78036609D01*
X93602380Y-78274704D02*
X92602380Y-78274704D01*
X92602380Y-77893752D01*
X92650000Y-77798514D01*
X92697619Y-77750895D01*
X92792857Y-77703276D01*
X92935714Y-77703276D01*
X93030952Y-77750895D01*
X93078571Y-77798514D01*
X93126190Y-77893752D01*
X93126190Y-78274704D01*
X93602380Y-77274704D02*
X92602380Y-77274704D01*
X93602380Y-76703276D01*
X92602380Y-76703276D01*
X92602380Y-75750895D02*
X92602380Y-76227085D01*
X93078571Y-76274704D01*
X93030952Y-76227085D01*
X92983333Y-76131847D01*
X92983333Y-75893752D01*
X93030952Y-75798514D01*
X93078571Y-75750895D01*
X93173809Y-75703276D01*
X93411904Y-75703276D01*
X93507142Y-75750895D01*
X93554761Y-75798514D01*
X93602380Y-75893752D01*
X93602380Y-76131847D01*
X93554761Y-76227085D01*
X93507142Y-76274704D01*
X88180942Y-82494380D02*
X87847609Y-82018190D01*
X87609514Y-82494380D02*
X87609514Y-81494380D01*
X87990466Y-81494380D01*
X88085704Y-81542000D01*
X88133323Y-81589619D01*
X88180942Y-81684857D01*
X88180942Y-81827714D01*
X88133323Y-81922952D01*
X88085704Y-81970571D01*
X87990466Y-82018190D01*
X87609514Y-82018190D01*
X88561895Y-81589619D02*
X88609514Y-81542000D01*
X88704752Y-81494380D01*
X88942847Y-81494380D01*
X89038085Y-81542000D01*
X89085704Y-81589619D01*
X89133323Y-81684857D01*
X89133323Y-81780095D01*
X89085704Y-81922952D01*
X88514276Y-82494380D01*
X89133323Y-82494380D01*
X89514276Y-81589619D02*
X89561895Y-81542000D01*
X89657133Y-81494380D01*
X89895228Y-81494380D01*
X89990466Y-81542000D01*
X90038085Y-81589619D01*
X90085704Y-81684857D01*
X90085704Y-81780095D01*
X90038085Y-81922952D01*
X89466657Y-82494380D01*
X90085704Y-82494380D01*
X88358742Y-90139780D02*
X88025409Y-89663590D01*
X87787314Y-90139780D02*
X87787314Y-89139780D01*
X88168266Y-89139780D01*
X88263504Y-89187400D01*
X88311123Y-89235019D01*
X88358742Y-89330257D01*
X88358742Y-89473114D01*
X88311123Y-89568352D01*
X88263504Y-89615971D01*
X88168266Y-89663590D01*
X87787314Y-89663590D01*
X88739695Y-89235019D02*
X88787314Y-89187400D01*
X88882552Y-89139780D01*
X89120647Y-89139780D01*
X89215885Y-89187400D01*
X89263504Y-89235019D01*
X89311123Y-89330257D01*
X89311123Y-89425495D01*
X89263504Y-89568352D01*
X88692076Y-90139780D01*
X89311123Y-90139780D01*
X90263504Y-90139780D02*
X89692076Y-90139780D01*
X89977790Y-90139780D02*
X89977790Y-89139780D01*
X89882552Y-89282638D01*
X89787314Y-89377876D01*
X89692076Y-89425495D01*
X88384142Y-97810580D02*
X88050809Y-97334390D01*
X87812714Y-97810580D02*
X87812714Y-96810580D01*
X88193666Y-96810580D01*
X88288904Y-96858200D01*
X88336523Y-96905819D01*
X88384142Y-97001057D01*
X88384142Y-97143914D01*
X88336523Y-97239152D01*
X88288904Y-97286771D01*
X88193666Y-97334390D01*
X87812714Y-97334390D01*
X88765095Y-96905819D02*
X88812714Y-96858200D01*
X88907952Y-96810580D01*
X89146047Y-96810580D01*
X89241285Y-96858200D01*
X89288904Y-96905819D01*
X89336523Y-97001057D01*
X89336523Y-97096295D01*
X89288904Y-97239152D01*
X88717476Y-97810580D01*
X89336523Y-97810580D01*
X89955571Y-96810580D02*
X90050809Y-96810580D01*
X90146047Y-96858200D01*
X90193666Y-96905819D01*
X90241285Y-97001057D01*
X90288904Y-97191533D01*
X90288904Y-97429628D01*
X90241285Y-97620104D01*
X90193666Y-97715342D01*
X90146047Y-97762961D01*
X90050809Y-97810580D01*
X89955571Y-97810580D01*
X89860333Y-97762961D01*
X89812714Y-97715342D01*
X89765095Y-97620104D01*
X89717476Y-97429628D01*
X89717476Y-97191533D01*
X89765095Y-97001057D01*
X89812714Y-96905819D01*
X89860333Y-96858200D01*
X89955571Y-96810580D01*
X88130142Y-80995780D02*
X87796809Y-80519590D01*
X87558714Y-80995780D02*
X87558714Y-79995780D01*
X87939666Y-79995780D01*
X88034904Y-80043400D01*
X88082523Y-80091019D01*
X88130142Y-80186257D01*
X88130142Y-80329114D01*
X88082523Y-80424352D01*
X88034904Y-80471971D01*
X87939666Y-80519590D01*
X87558714Y-80519590D01*
X89082523Y-80995780D02*
X88511095Y-80995780D01*
X88796809Y-80995780D02*
X88796809Y-79995780D01*
X88701571Y-80138638D01*
X88606333Y-80233876D01*
X88511095Y-80281495D01*
X89558714Y-80995780D02*
X89749190Y-80995780D01*
X89844428Y-80948161D01*
X89892047Y-80900542D01*
X89987285Y-80757685D01*
X90034904Y-80567209D01*
X90034904Y-80186257D01*
X89987285Y-80091019D01*
X89939666Y-80043400D01*
X89844428Y-79995780D01*
X89653952Y-79995780D01*
X89558714Y-80043400D01*
X89511095Y-80091019D01*
X89463476Y-80186257D01*
X89463476Y-80424352D01*
X89511095Y-80519590D01*
X89558714Y-80567209D01*
X89653952Y-80614828D01*
X89844428Y-80614828D01*
X89939666Y-80567209D01*
X89987285Y-80519590D01*
X90034904Y-80424352D01*
X88257142Y-88793580D02*
X87923809Y-88317390D01*
X87685714Y-88793580D02*
X87685714Y-87793580D01*
X88066666Y-87793580D01*
X88161904Y-87841200D01*
X88209523Y-87888819D01*
X88257142Y-87984057D01*
X88257142Y-88126914D01*
X88209523Y-88222152D01*
X88161904Y-88269771D01*
X88066666Y-88317390D01*
X87685714Y-88317390D01*
X89209523Y-88793580D02*
X88638095Y-88793580D01*
X88923809Y-88793580D02*
X88923809Y-87793580D01*
X88828571Y-87936438D01*
X88733333Y-88031676D01*
X88638095Y-88079295D01*
X89780952Y-88222152D02*
X89685714Y-88174533D01*
X89638095Y-88126914D01*
X89590476Y-88031676D01*
X89590476Y-87984057D01*
X89638095Y-87888819D01*
X89685714Y-87841200D01*
X89780952Y-87793580D01*
X89971428Y-87793580D01*
X90066666Y-87841200D01*
X90114285Y-87888819D01*
X90161904Y-87984057D01*
X90161904Y-88031676D01*
X90114285Y-88126914D01*
X90066666Y-88174533D01*
X89971428Y-88222152D01*
X89780952Y-88222152D01*
X89685714Y-88269771D01*
X89638095Y-88317390D01*
X89590476Y-88412628D01*
X89590476Y-88603104D01*
X89638095Y-88698342D01*
X89685714Y-88745961D01*
X89780952Y-88793580D01*
X89971428Y-88793580D01*
X90066666Y-88745961D01*
X90114285Y-88698342D01*
X90161904Y-88603104D01*
X90161904Y-88412628D01*
X90114285Y-88317390D01*
X90066666Y-88269771D01*
X89971428Y-88222152D01*
X88333342Y-96261180D02*
X88000009Y-95784990D01*
X87761914Y-96261180D02*
X87761914Y-95261180D01*
X88142866Y-95261180D01*
X88238104Y-95308800D01*
X88285723Y-95356419D01*
X88333342Y-95451657D01*
X88333342Y-95594514D01*
X88285723Y-95689752D01*
X88238104Y-95737371D01*
X88142866Y-95784990D01*
X87761914Y-95784990D01*
X89285723Y-96261180D02*
X88714295Y-96261180D01*
X89000009Y-96261180D02*
X89000009Y-95261180D01*
X88904771Y-95404038D01*
X88809533Y-95499276D01*
X88714295Y-95546895D01*
X89619057Y-95261180D02*
X90285723Y-95261180D01*
X89857152Y-96261180D01*
X88195161Y-77966819D02*
X88099923Y-77919200D01*
X88004685Y-77823961D01*
X87861828Y-77681104D01*
X87766590Y-77633485D01*
X87671352Y-77633485D01*
X87718971Y-77871580D02*
X87623733Y-77823961D01*
X87528495Y-77728723D01*
X87480876Y-77538247D01*
X87480876Y-77204914D01*
X87528495Y-77014438D01*
X87623733Y-76919200D01*
X87718971Y-76871580D01*
X87909447Y-76871580D01*
X88004685Y-76919200D01*
X88099923Y-77014438D01*
X88147542Y-77204914D01*
X88147542Y-77538247D01*
X88099923Y-77728723D01*
X88004685Y-77823961D01*
X87909447Y-77871580D01*
X87718971Y-77871580D01*
X89004685Y-77204914D02*
X89004685Y-77871580D01*
X88766590Y-76823961D02*
X88528495Y-77538247D01*
X89147542Y-77538247D01*
X88423761Y-86221819D02*
X88328523Y-86174200D01*
X88233285Y-86078961D01*
X88090428Y-85936104D01*
X87995190Y-85888485D01*
X87899952Y-85888485D01*
X87947571Y-86126580D02*
X87852333Y-86078961D01*
X87757095Y-85983723D01*
X87709476Y-85793247D01*
X87709476Y-85459914D01*
X87757095Y-85269438D01*
X87852333Y-85174200D01*
X87947571Y-85126580D01*
X88138047Y-85126580D01*
X88233285Y-85174200D01*
X88328523Y-85269438D01*
X88376142Y-85459914D01*
X88376142Y-85793247D01*
X88328523Y-85983723D01*
X88233285Y-86078961D01*
X88138047Y-86126580D01*
X87947571Y-86126580D01*
X88709476Y-85126580D02*
X89328523Y-85126580D01*
X88995190Y-85507533D01*
X89138047Y-85507533D01*
X89233285Y-85555152D01*
X89280904Y-85602771D01*
X89328523Y-85698009D01*
X89328523Y-85936104D01*
X89280904Y-86031342D01*
X89233285Y-86078961D01*
X89138047Y-86126580D01*
X88852333Y-86126580D01*
X88757095Y-86078961D01*
X88709476Y-86031342D01*
X88499961Y-93333819D02*
X88404723Y-93286200D01*
X88309485Y-93190961D01*
X88166628Y-93048104D01*
X88071390Y-93000485D01*
X87976152Y-93000485D01*
X88023771Y-93238580D02*
X87928533Y-93190961D01*
X87833295Y-93095723D01*
X87785676Y-92905247D01*
X87785676Y-92571914D01*
X87833295Y-92381438D01*
X87928533Y-92286200D01*
X88023771Y-92238580D01*
X88214247Y-92238580D01*
X88309485Y-92286200D01*
X88404723Y-92381438D01*
X88452342Y-92571914D01*
X88452342Y-92905247D01*
X88404723Y-93095723D01*
X88309485Y-93190961D01*
X88214247Y-93238580D01*
X88023771Y-93238580D01*
X88833295Y-92333819D02*
X88880914Y-92286200D01*
X88976152Y-92238580D01*
X89214247Y-92238580D01*
X89309485Y-92286200D01*
X89357104Y-92333819D01*
X89404723Y-92429057D01*
X89404723Y-92524295D01*
X89357104Y-92667152D01*
X88785676Y-93238580D01*
X89404723Y-93238580D01*
X105691121Y-105417453D02*
X105738740Y-105274596D01*
X105738740Y-105036500D01*
X105691121Y-104941262D01*
X105643502Y-104893643D01*
X105548264Y-104846024D01*
X105453026Y-104846024D01*
X105357788Y-104893643D01*
X105310169Y-104941262D01*
X105262550Y-105036500D01*
X105214931Y-105226977D01*
X105167312Y-105322215D01*
X105119693Y-105369834D01*
X105024455Y-105417453D01*
X104929217Y-105417453D01*
X104833979Y-105369834D01*
X104786360Y-105322215D01*
X104738740Y-105226977D01*
X104738740Y-104988881D01*
X104786360Y-104846024D01*
X104738740Y-104512691D02*
X105738740Y-104274596D01*
X105024455Y-104084120D01*
X105738740Y-103893643D01*
X104738740Y-103655548D01*
X104738740Y-103369834D02*
X104738740Y-102750786D01*
X105119693Y-103084120D01*
X105119693Y-102941262D01*
X105167312Y-102846024D01*
X105214931Y-102798405D01*
X105310169Y-102750786D01*
X105548264Y-102750786D01*
X105643502Y-102798405D01*
X105691121Y-102846024D01*
X105738740Y-102941262D01*
X105738740Y-103226977D01*
X105691121Y-103322215D01*
X105643502Y-103369834D01*
X94921521Y-105417453D02*
X94969140Y-105274596D01*
X94969140Y-105036500D01*
X94921521Y-104941262D01*
X94873902Y-104893643D01*
X94778664Y-104846024D01*
X94683426Y-104846024D01*
X94588188Y-104893643D01*
X94540569Y-104941262D01*
X94492950Y-105036500D01*
X94445331Y-105226977D01*
X94397712Y-105322215D01*
X94350093Y-105369834D01*
X94254855Y-105417453D01*
X94159617Y-105417453D01*
X94064379Y-105369834D01*
X94016760Y-105322215D01*
X93969140Y-105226977D01*
X93969140Y-104988881D01*
X94016760Y-104846024D01*
X93969140Y-104512691D02*
X94969140Y-104274596D01*
X94254855Y-104084120D01*
X94969140Y-103893643D01*
X93969140Y-103655548D01*
X94064379Y-103322215D02*
X94016760Y-103274596D01*
X93969140Y-103179358D01*
X93969140Y-102941262D01*
X94016760Y-102846024D01*
X94064379Y-102798405D01*
X94159617Y-102750786D01*
X94254855Y-102750786D01*
X94397712Y-102798405D01*
X94969140Y-103369834D01*
X94969140Y-102750786D01*
X84761521Y-105417453D02*
X84809140Y-105274596D01*
X84809140Y-105036500D01*
X84761521Y-104941262D01*
X84713902Y-104893643D01*
X84618664Y-104846024D01*
X84523426Y-104846024D01*
X84428188Y-104893643D01*
X84380569Y-104941262D01*
X84332950Y-105036500D01*
X84285331Y-105226977D01*
X84237712Y-105322215D01*
X84190093Y-105369834D01*
X84094855Y-105417453D01*
X83999617Y-105417453D01*
X83904379Y-105369834D01*
X83856760Y-105322215D01*
X83809140Y-105226977D01*
X83809140Y-104988881D01*
X83856760Y-104846024D01*
X83809140Y-104512691D02*
X84809140Y-104274596D01*
X84094855Y-104084120D01*
X84809140Y-103893643D01*
X83809140Y-103655548D01*
X84809140Y-102750786D02*
X84809140Y-103322215D01*
X84809140Y-103036500D02*
X83809140Y-103036500D01*
X83951998Y-103131739D01*
X84047236Y-103226977D01*
X84094855Y-103322215D01*
X122937281Y-143123539D02*
X122842043Y-143075920D01*
X122746805Y-142980681D01*
X122603948Y-142837824D01*
X122508710Y-142790205D01*
X122413472Y-142790205D01*
X122461091Y-143028300D02*
X122365853Y-142980681D01*
X122270615Y-142885443D01*
X122222996Y-142694967D01*
X122222996Y-142361634D01*
X122270615Y-142171158D01*
X122365853Y-142075920D01*
X122461091Y-142028300D01*
X122651567Y-142028300D01*
X122746805Y-142075920D01*
X122842043Y-142171158D01*
X122889662Y-142361634D01*
X122889662Y-142694967D01*
X122842043Y-142885443D01*
X122746805Y-142980681D01*
X122651567Y-143028300D01*
X122461091Y-143028300D01*
X123842043Y-143028300D02*
X123270615Y-143028300D01*
X123556329Y-143028300D02*
X123556329Y-142028300D01*
X123461091Y-142171158D01*
X123365853Y-142266396D01*
X123270615Y-142314015D01*
X119207042Y-141362360D02*
X118873709Y-140886170D01*
X118635614Y-141362360D02*
X118635614Y-140362360D01*
X119016566Y-140362360D01*
X119111804Y-140409980D01*
X119159423Y-140457599D01*
X119207042Y-140552837D01*
X119207042Y-140695694D01*
X119159423Y-140790932D01*
X119111804Y-140838551D01*
X119016566Y-140886170D01*
X118635614Y-140886170D01*
X120159423Y-141362360D02*
X119587995Y-141362360D01*
X119873709Y-141362360D02*
X119873709Y-140362360D01*
X119778471Y-140505218D01*
X119683233Y-140600456D01*
X119587995Y-140648075D01*
X121016566Y-140362360D02*
X120826090Y-140362360D01*
X120730852Y-140409980D01*
X120683233Y-140457599D01*
X120587995Y-140600456D01*
X120540376Y-140790932D01*
X120540376Y-141171884D01*
X120587995Y-141267122D01*
X120635614Y-141314741D01*
X120730852Y-141362360D01*
X120921328Y-141362360D01*
X121016566Y-141314741D01*
X121064185Y-141267122D01*
X121111804Y-141171884D01*
X121111804Y-140933789D01*
X121064185Y-140838551D01*
X121016566Y-140790932D01*
X120921328Y-140743313D01*
X120730852Y-140743313D01*
X120635614Y-140790932D01*
X120587995Y-140838551D01*
X120540376Y-140933789D01*
X125579902Y-140313340D02*
X125246569Y-139837150D01*
X125008474Y-140313340D02*
X125008474Y-139313340D01*
X125389426Y-139313340D01*
X125484664Y-139360960D01*
X125532283Y-139408579D01*
X125579902Y-139503817D01*
X125579902Y-139646674D01*
X125532283Y-139741912D01*
X125484664Y-139789531D01*
X125389426Y-139837150D01*
X125008474Y-139837150D01*
X126532283Y-140313340D02*
X125960855Y-140313340D01*
X126246569Y-140313340D02*
X126246569Y-139313340D01*
X126151331Y-139456198D01*
X126056093Y-139551436D01*
X125960855Y-139599055D01*
X127437045Y-139313340D02*
X126960855Y-139313340D01*
X126913236Y-139789531D01*
X126960855Y-139741912D01*
X127056093Y-139694293D01*
X127294188Y-139694293D01*
X127389426Y-139741912D01*
X127437045Y-139789531D01*
X127484664Y-139884769D01*
X127484664Y-140122864D01*
X127437045Y-140218102D01*
X127389426Y-140265721D01*
X127294188Y-140313340D01*
X127056093Y-140313340D01*
X126960855Y-140265721D01*
X126913236Y-140218102D01*
X117000993Y-142997180D02*
X116667660Y-142520990D01*
X116429564Y-142997180D02*
X116429564Y-141997180D01*
X116810517Y-141997180D01*
X116905755Y-142044800D01*
X116953374Y-142092419D01*
X117000993Y-142187657D01*
X117000993Y-142330514D01*
X116953374Y-142425752D01*
X116905755Y-142473371D01*
X116810517Y-142520990D01*
X116429564Y-142520990D01*
X117572421Y-142425752D02*
X117477183Y-142378133D01*
X117429564Y-142330514D01*
X117381945Y-142235276D01*
X117381945Y-142187657D01*
X117429564Y-142092419D01*
X117477183Y-142044800D01*
X117572421Y-141997180D01*
X117762898Y-141997180D01*
X117858136Y-142044800D01*
X117905755Y-142092419D01*
X117953374Y-142187657D01*
X117953374Y-142235276D01*
X117905755Y-142330514D01*
X117858136Y-142378133D01*
X117762898Y-142425752D01*
X117572421Y-142425752D01*
X117477183Y-142473371D01*
X117429564Y-142520990D01*
X117381945Y-142616228D01*
X117381945Y-142806704D01*
X117429564Y-142901942D01*
X117477183Y-142949561D01*
X117572421Y-142997180D01*
X117762898Y-142997180D01*
X117858136Y-142949561D01*
X117905755Y-142901942D01*
X117953374Y-142806704D01*
X117953374Y-142616228D01*
X117905755Y-142520990D01*
X117858136Y-142473371D01*
X117762898Y-142425752D01*
X112755151Y-158297258D02*
X112083942Y-158541558D01*
X111933414Y-158545671D01*
X111811346Y-158488750D01*
X111717739Y-158370794D01*
X111685165Y-158281300D01*
X112157479Y-159578971D02*
X111962039Y-159042003D01*
X112059759Y-159310487D02*
X112999451Y-158968467D01*
X112832636Y-158927832D01*
X112710568Y-158870911D01*
X112633248Y-158797703D01*
X125275496Y-130700789D02*
X124622963Y-130991315D01*
X124473088Y-131005918D01*
X124347347Y-130957650D01*
X124245740Y-130846512D01*
X124207003Y-130759508D01*
X125643495Y-131527330D02*
X125566022Y-131353321D01*
X125483783Y-131285685D01*
X125420912Y-131261551D01*
X125251669Y-131232652D01*
X125058292Y-131266624D01*
X124710274Y-131421571D01*
X124642638Y-131503810D01*
X124618505Y-131566681D01*
X124613739Y-131673053D01*
X124691213Y-131847062D01*
X124773452Y-131914698D01*
X124836323Y-131938832D01*
X124942695Y-131943597D01*
X125160206Y-131846755D01*
X125227842Y-131764516D01*
X125251976Y-131701645D01*
X125256741Y-131595273D01*
X125179268Y-131421264D01*
X125097029Y-131353628D01*
X125034158Y-131329494D01*
X124927785Y-131324729D01*
X93337640Y-118040446D02*
X92861450Y-118373780D01*
X93337640Y-118611875D02*
X92337640Y-118611875D01*
X92337640Y-118230922D01*
X92385260Y-118135684D01*
X92432879Y-118088065D01*
X92528117Y-118040446D01*
X92670974Y-118040446D01*
X92766212Y-118088065D01*
X92813831Y-118135684D01*
X92861450Y-118230922D01*
X92861450Y-118611875D01*
X93337640Y-117088065D02*
X93337640Y-117659494D01*
X93337640Y-117373780D02*
X92337640Y-117373780D01*
X92480498Y-117469018D01*
X92575736Y-117564256D01*
X92623355Y-117659494D01*
X94086371Y-161894733D02*
X94086371Y-162228066D01*
X94610180Y-162228066D02*
X93610180Y-162228066D01*
X93610180Y-161751876D01*
X94086371Y-161037590D02*
X94133990Y-160894733D01*
X94181609Y-160847114D01*
X94276847Y-160799495D01*
X94419704Y-160799495D01*
X94514942Y-160847114D01*
X94562561Y-160894733D01*
X94610180Y-160989971D01*
X94610180Y-161370923D01*
X93610180Y-161370923D01*
X93610180Y-161037590D01*
X93657800Y-160942352D01*
X93705419Y-160894733D01*
X93800657Y-160847114D01*
X93895895Y-160847114D01*
X93991133Y-160894733D01*
X94038752Y-160942352D01*
X94086371Y-161037590D01*
X94086371Y-161370923D01*
X93943514Y-159942352D02*
X94610180Y-159942352D01*
X93562561Y-160180447D02*
X94276847Y-160418542D01*
X94276847Y-159799495D01*
X107954771Y-161818533D02*
X107954771Y-162151866D01*
X108478580Y-162151866D02*
X107478580Y-162151866D01*
X107478580Y-161675676D01*
X107954771Y-160961390D02*
X108002390Y-160818533D01*
X108050009Y-160770914D01*
X108145247Y-160723295D01*
X108288104Y-160723295D01*
X108383342Y-160770914D01*
X108430961Y-160818533D01*
X108478580Y-160913771D01*
X108478580Y-161294723D01*
X107478580Y-161294723D01*
X107478580Y-160961390D01*
X107526200Y-160866152D01*
X107573819Y-160818533D01*
X107669057Y-160770914D01*
X107764295Y-160770914D01*
X107859533Y-160818533D01*
X107907152Y-160866152D01*
X107954771Y-160961390D01*
X107954771Y-161294723D01*
X107478580Y-160389961D02*
X107478580Y-159770914D01*
X107859533Y-160104247D01*
X107859533Y-159961390D01*
X107907152Y-159866152D01*
X107954771Y-159818533D01*
X108050009Y-159770914D01*
X108288104Y-159770914D01*
X108383342Y-159818533D01*
X108430961Y-159866152D01*
X108478580Y-159961390D01*
X108478580Y-160247104D01*
X108430961Y-160342342D01*
X108383342Y-160389961D01*
X86204771Y-161716933D02*
X86204771Y-162050266D01*
X86728580Y-162050266D02*
X85728580Y-162050266D01*
X85728580Y-161574076D01*
X86204771Y-160859790D02*
X86252390Y-160716933D01*
X86300009Y-160669314D01*
X86395247Y-160621695D01*
X86538104Y-160621695D01*
X86633342Y-160669314D01*
X86680961Y-160716933D01*
X86728580Y-160812171D01*
X86728580Y-161193123D01*
X85728580Y-161193123D01*
X85728580Y-160859790D01*
X85776200Y-160764552D01*
X85823819Y-160716933D01*
X85919057Y-160669314D01*
X86014295Y-160669314D01*
X86109533Y-160716933D01*
X86157152Y-160764552D01*
X86204771Y-160859790D01*
X86204771Y-161193123D01*
X85823819Y-160240742D02*
X85776200Y-160193123D01*
X85728580Y-160097885D01*
X85728580Y-159859790D01*
X85776200Y-159764552D01*
X85823819Y-159716933D01*
X85919057Y-159669314D01*
X86014295Y-159669314D01*
X86157152Y-159716933D01*
X86728580Y-160288361D01*
X86728580Y-159669314D01*
X99895371Y-161716933D02*
X99895371Y-162050266D01*
X100419180Y-162050266D02*
X99419180Y-162050266D01*
X99419180Y-161574076D01*
X99895371Y-160859790D02*
X99942990Y-160716933D01*
X99990609Y-160669314D01*
X100085847Y-160621695D01*
X100228704Y-160621695D01*
X100323942Y-160669314D01*
X100371561Y-160716933D01*
X100419180Y-160812171D01*
X100419180Y-161193123D01*
X99419180Y-161193123D01*
X99419180Y-160859790D01*
X99466800Y-160764552D01*
X99514419Y-160716933D01*
X99609657Y-160669314D01*
X99704895Y-160669314D01*
X99800133Y-160716933D01*
X99847752Y-160764552D01*
X99895371Y-160859790D01*
X99895371Y-161193123D01*
X100419180Y-159669314D02*
X100419180Y-160240742D01*
X100419180Y-159955028D02*
X99419180Y-159955028D01*
X99562038Y-160050266D01*
X99657276Y-160145504D01*
X99704895Y-160240742D01*
X104965760Y-111195006D02*
X104489570Y-111528340D01*
X104965760Y-111766435D02*
X103965760Y-111766435D01*
X103965760Y-111385482D01*
X104013380Y-111290244D01*
X104060999Y-111242625D01*
X104156237Y-111195006D01*
X104299094Y-111195006D01*
X104394332Y-111242625D01*
X104441951Y-111290244D01*
X104489570Y-111385482D01*
X104489570Y-111766435D01*
X103965760Y-110861673D02*
X103965760Y-110195006D01*
X104965760Y-110623578D01*
X116785093Y-152071342D02*
X116737474Y-152118961D01*
X116594617Y-152166580D01*
X116499379Y-152166580D01*
X116356521Y-152118961D01*
X116261283Y-152023723D01*
X116213664Y-151928485D01*
X116166045Y-151738009D01*
X116166045Y-151595152D01*
X116213664Y-151404676D01*
X116261283Y-151309438D01*
X116356521Y-151214200D01*
X116499379Y-151166580D01*
X116594617Y-151166580D01*
X116737474Y-151214200D01*
X116785093Y-151261819D01*
X117118426Y-151166580D02*
X117785093Y-151166580D01*
X117356521Y-152166580D01*
X116708893Y-150273022D02*
X116661274Y-150320641D01*
X116518417Y-150368260D01*
X116423179Y-150368260D01*
X116280321Y-150320641D01*
X116185083Y-150225403D01*
X116137464Y-150130165D01*
X116089845Y-149939689D01*
X116089845Y-149796832D01*
X116137464Y-149606356D01*
X116185083Y-149511118D01*
X116280321Y-149415880D01*
X116423179Y-149368260D01*
X116518417Y-149368260D01*
X116661274Y-149415880D01*
X116708893Y-149463499D01*
X117566036Y-149368260D02*
X117375560Y-149368260D01*
X117280321Y-149415880D01*
X117232702Y-149463499D01*
X117137464Y-149606356D01*
X117089845Y-149796832D01*
X117089845Y-150177784D01*
X117137464Y-150273022D01*
X117185083Y-150320641D01*
X117280321Y-150368260D01*
X117470798Y-150368260D01*
X117566036Y-150320641D01*
X117613655Y-150273022D01*
X117661274Y-150177784D01*
X117661274Y-149939689D01*
X117613655Y-149844451D01*
X117566036Y-149796832D01*
X117470798Y-149749213D01*
X117280321Y-149749213D01*
X117185083Y-149796832D01*
X117137464Y-149844451D01*
X117089845Y-149939689D01*
X108935780Y-154538917D02*
X108459590Y-154872250D01*
X108935780Y-155110345D02*
X107935780Y-155110345D01*
X107935780Y-154729393D01*
X107983400Y-154634155D01*
X108031019Y-154586536D01*
X108126257Y-154538917D01*
X108269114Y-154538917D01*
X108364352Y-154586536D01*
X108411971Y-154634155D01*
X108459590Y-154729393D01*
X108459590Y-155110345D01*
X108935780Y-153586536D02*
X108935780Y-154157964D01*
X108935780Y-153872250D02*
X107935780Y-153872250D01*
X108078638Y-153967488D01*
X108173876Y-154062726D01*
X108221495Y-154157964D01*
X108269114Y-152729393D02*
X108935780Y-152729393D01*
X107888161Y-152967488D02*
X108602447Y-153205583D01*
X108602447Y-152586536D01*
X110254040Y-154564317D02*
X109777850Y-154897650D01*
X110254040Y-155135745D02*
X109254040Y-155135745D01*
X109254040Y-154754793D01*
X109301660Y-154659555D01*
X109349279Y-154611936D01*
X109444517Y-154564317D01*
X109587374Y-154564317D01*
X109682612Y-154611936D01*
X109730231Y-154659555D01*
X109777850Y-154754793D01*
X109777850Y-155135745D01*
X110254040Y-153611936D02*
X110254040Y-154183364D01*
X110254040Y-153897650D02*
X109254040Y-153897650D01*
X109396898Y-153992888D01*
X109492136Y-154088126D01*
X109539755Y-154183364D01*
X109254040Y-153278602D02*
X109254040Y-152659555D01*
X109634993Y-152992888D01*
X109634993Y-152850031D01*
X109682612Y-152754793D01*
X109730231Y-152707174D01*
X109825469Y-152659555D01*
X110063564Y-152659555D01*
X110158802Y-152707174D01*
X110206421Y-152754793D01*
X110254040Y-152850031D01*
X110254040Y-153135745D01*
X110206421Y-153230983D01*
X110158802Y-153278602D01*
X116941362Y-144361160D02*
X116608029Y-143884970D01*
X116369934Y-144361160D02*
X116369934Y-143361160D01*
X116750886Y-143361160D01*
X116846124Y-143408780D01*
X116893743Y-143456399D01*
X116941362Y-143551637D01*
X116941362Y-143694494D01*
X116893743Y-143789732D01*
X116846124Y-143837351D01*
X116750886Y-143884970D01*
X116369934Y-143884970D01*
X117893743Y-144361160D02*
X117322315Y-144361160D01*
X117608029Y-144361160D02*
X117608029Y-143361160D01*
X117512791Y-143504018D01*
X117417553Y-143599256D01*
X117322315Y-143646875D01*
X118274696Y-143456399D02*
X118322315Y-143408780D01*
X118417553Y-143361160D01*
X118655648Y-143361160D01*
X118750886Y-143408780D01*
X118798505Y-143456399D01*
X118846124Y-143551637D01*
X118846124Y-143646875D01*
X118798505Y-143789732D01*
X118227077Y-144361160D01*
X118846124Y-144361160D01*
X111623100Y-154564317D02*
X111146910Y-154897650D01*
X111623100Y-155135745D02*
X110623100Y-155135745D01*
X110623100Y-154754793D01*
X110670720Y-154659555D01*
X110718339Y-154611936D01*
X110813577Y-154564317D01*
X110956434Y-154564317D01*
X111051672Y-154611936D01*
X111099291Y-154659555D01*
X111146910Y-154754793D01*
X111146910Y-155135745D01*
X111623100Y-153611936D02*
X111623100Y-154183364D01*
X111623100Y-153897650D02*
X110623100Y-153897650D01*
X110765958Y-153992888D01*
X110861196Y-154088126D01*
X110908815Y-154183364D01*
X111623100Y-152659555D02*
X111623100Y-153230983D01*
X111623100Y-152945269D02*
X110623100Y-152945269D01*
X110765958Y-153040507D01*
X110861196Y-153135745D01*
X110908815Y-153230983D01*
X116956602Y-147211040D02*
X116623269Y-146734850D01*
X116385174Y-147211040D02*
X116385174Y-146211040D01*
X116766126Y-146211040D01*
X116861364Y-146258660D01*
X116908983Y-146306279D01*
X116956602Y-146401517D01*
X116956602Y-146544374D01*
X116908983Y-146639612D01*
X116861364Y-146687231D01*
X116766126Y-146734850D01*
X116385174Y-146734850D01*
X117908983Y-147211040D02*
X117337555Y-147211040D01*
X117623269Y-147211040D02*
X117623269Y-146211040D01*
X117528031Y-146353898D01*
X117432793Y-146449136D01*
X117337555Y-146496755D01*
X118528031Y-146211040D02*
X118623269Y-146211040D01*
X118718507Y-146258660D01*
X118766126Y-146306279D01*
X118813745Y-146401517D01*
X118861364Y-146591993D01*
X118861364Y-146830088D01*
X118813745Y-147020564D01*
X118766126Y-147115802D01*
X118718507Y-147163421D01*
X118623269Y-147211040D01*
X118528031Y-147211040D01*
X118432793Y-147163421D01*
X118385174Y-147115802D01*
X118337555Y-147020564D01*
X118289936Y-146830088D01*
X118289936Y-146591993D01*
X118337555Y-146401517D01*
X118385174Y-146306279D01*
X118432793Y-146258660D01*
X118528031Y-146211040D01*
X116970513Y-145786100D02*
X116637180Y-145309910D01*
X116399084Y-145786100D02*
X116399084Y-144786100D01*
X116780037Y-144786100D01*
X116875275Y-144833720D01*
X116922894Y-144881339D01*
X116970513Y-144976577D01*
X116970513Y-145119434D01*
X116922894Y-145214672D01*
X116875275Y-145262291D01*
X116780037Y-145309910D01*
X116399084Y-145309910D01*
X117446703Y-145786100D02*
X117637180Y-145786100D01*
X117732418Y-145738481D01*
X117780037Y-145690862D01*
X117875275Y-145548005D01*
X117922894Y-145357529D01*
X117922894Y-144976577D01*
X117875275Y-144881339D01*
X117827656Y-144833720D01*
X117732418Y-144786100D01*
X117541941Y-144786100D01*
X117446703Y-144833720D01*
X117399084Y-144881339D01*
X117351465Y-144976577D01*
X117351465Y-145214672D01*
X117399084Y-145309910D01*
X117446703Y-145357529D01*
X117541941Y-145405148D01*
X117732418Y-145405148D01*
X117827656Y-145357529D01*
X117875275Y-145309910D01*
X117922894Y-145214672D01*
X67457580Y-140293386D02*
X66981390Y-140626720D01*
X67457580Y-140864815D02*
X66457580Y-140864815D01*
X66457580Y-140483862D01*
X66505200Y-140388624D01*
X66552819Y-140341005D01*
X66648057Y-140293386D01*
X66790914Y-140293386D01*
X66886152Y-140341005D01*
X66933771Y-140388624D01*
X66981390Y-140483862D01*
X66981390Y-140864815D01*
X66790914Y-139436243D02*
X67457580Y-139436243D01*
X66409961Y-139674339D02*
X67124247Y-139912434D01*
X67124247Y-139293386D01*
X68854580Y-140318786D02*
X68378390Y-140652120D01*
X68854580Y-140890215D02*
X67854580Y-140890215D01*
X67854580Y-140509262D01*
X67902200Y-140414024D01*
X67949819Y-140366405D01*
X68045057Y-140318786D01*
X68187914Y-140318786D01*
X68283152Y-140366405D01*
X68330771Y-140414024D01*
X68378390Y-140509262D01*
X68378390Y-140890215D01*
X67854580Y-139985453D02*
X67854580Y-139366405D01*
X68235533Y-139699739D01*
X68235533Y-139556881D01*
X68283152Y-139461643D01*
X68330771Y-139414024D01*
X68426009Y-139366405D01*
X68664104Y-139366405D01*
X68759342Y-139414024D01*
X68806961Y-139461643D01*
X68854580Y-139556881D01*
X68854580Y-139842596D01*
X68806961Y-139937834D01*
X68759342Y-139985453D01*
X72383353Y-130063500D02*
X72050020Y-129587310D01*
X71811924Y-130063500D02*
X71811924Y-129063500D01*
X72192877Y-129063500D01*
X72288115Y-129111120D01*
X72335734Y-129158739D01*
X72383353Y-129253977D01*
X72383353Y-129396834D01*
X72335734Y-129492072D01*
X72288115Y-129539691D01*
X72192877Y-129587310D01*
X71811924Y-129587310D01*
X72764305Y-129158739D02*
X72811924Y-129111120D01*
X72907162Y-129063500D01*
X73145258Y-129063500D01*
X73240496Y-129111120D01*
X73288115Y-129158739D01*
X73335734Y-129253977D01*
X73335734Y-129349215D01*
X73288115Y-129492072D01*
X72716686Y-130063500D01*
X73335734Y-130063500D01*
X73737173Y-126997720D02*
X73260982Y-126997720D01*
X73260982Y-125997720D01*
X74594316Y-126997720D02*
X74022887Y-126997720D01*
X74308601Y-126997720D02*
X74308601Y-125997720D01*
X74213363Y-126140578D01*
X74118125Y-126235816D01*
X74022887Y-126283435D01*
X74415353Y-141042662D02*
X74367734Y-141090281D01*
X74224877Y-141137900D01*
X74129639Y-141137900D01*
X73986781Y-141090281D01*
X73891543Y-140995043D01*
X73843924Y-140899805D01*
X73796305Y-140709329D01*
X73796305Y-140566472D01*
X73843924Y-140375996D01*
X73891543Y-140280758D01*
X73986781Y-140185520D01*
X74129639Y-140137900D01*
X74224877Y-140137900D01*
X74367734Y-140185520D01*
X74415353Y-140233139D01*
X74748686Y-140137900D02*
X75367734Y-140137900D01*
X75034400Y-140518853D01*
X75177258Y-140518853D01*
X75272496Y-140566472D01*
X75320115Y-140614091D01*
X75367734Y-140709329D01*
X75367734Y-140947424D01*
X75320115Y-141042662D01*
X75272496Y-141090281D01*
X75177258Y-141137900D01*
X74891543Y-141137900D01*
X74796305Y-141090281D01*
X74748686Y-141042662D01*
X74389953Y-138731262D02*
X74342334Y-138778881D01*
X74199477Y-138826500D01*
X74104239Y-138826500D01*
X73961381Y-138778881D01*
X73866143Y-138683643D01*
X73818524Y-138588405D01*
X73770905Y-138397929D01*
X73770905Y-138255072D01*
X73818524Y-138064596D01*
X73866143Y-137969358D01*
X73961381Y-137874120D01*
X74104239Y-137826500D01*
X74199477Y-137826500D01*
X74342334Y-137874120D01*
X74389953Y-137921739D01*
X74770905Y-137921739D02*
X74818524Y-137874120D01*
X74913762Y-137826500D01*
X75151858Y-137826500D01*
X75247096Y-137874120D01*
X75294715Y-137921739D01*
X75342334Y-138016977D01*
X75342334Y-138112215D01*
X75294715Y-138255072D01*
X74723286Y-138826500D01*
X75342334Y-138826500D01*
X73104713Y-123506502D02*
X73057094Y-123554121D01*
X72914237Y-123601740D01*
X72818999Y-123601740D01*
X72676141Y-123554121D01*
X72580903Y-123458883D01*
X72533284Y-123363645D01*
X72485665Y-123173169D01*
X72485665Y-123030312D01*
X72533284Y-122839836D01*
X72580903Y-122744598D01*
X72676141Y-122649360D01*
X72818999Y-122601740D01*
X72914237Y-122601740D01*
X73057094Y-122649360D01*
X73104713Y-122696979D01*
X74057094Y-123601740D02*
X73485665Y-123601740D01*
X73771380Y-123601740D02*
X73771380Y-122601740D01*
X73676141Y-122744598D01*
X73580903Y-122839836D01*
X73485665Y-122887455D01*
X118806933Y-138782380D02*
X118473600Y-138306190D01*
X118235504Y-138782380D02*
X118235504Y-137782380D01*
X118616457Y-137782380D01*
X118711695Y-137830000D01*
X118759314Y-137877619D01*
X118806933Y-137972857D01*
X118806933Y-138115714D01*
X118759314Y-138210952D01*
X118711695Y-138258571D01*
X118616457Y-138306190D01*
X118235504Y-138306190D01*
X119664076Y-137782380D02*
X119473600Y-137782380D01*
X119378361Y-137830000D01*
X119330742Y-137877619D01*
X119235504Y-138020476D01*
X119187885Y-138210952D01*
X119187885Y-138591904D01*
X119235504Y-138687142D01*
X119283123Y-138734761D01*
X119378361Y-138782380D01*
X119568838Y-138782380D01*
X119664076Y-138734761D01*
X119711695Y-138687142D01*
X119759314Y-138591904D01*
X119759314Y-138353809D01*
X119711695Y-138258571D01*
X119664076Y-138210952D01*
X119568838Y-138163333D01*
X119378361Y-138163333D01*
X119283123Y-138210952D01*
X119235504Y-138258571D01*
X119187885Y-138353809D01*
X115454133Y-138831580D02*
X115120800Y-138355390D01*
X114882704Y-138831580D02*
X114882704Y-137831580D01*
X115263657Y-137831580D01*
X115358895Y-137879200D01*
X115406514Y-137926819D01*
X115454133Y-138022057D01*
X115454133Y-138164914D01*
X115406514Y-138260152D01*
X115358895Y-138307771D01*
X115263657Y-138355390D01*
X114882704Y-138355390D01*
X116358895Y-137831580D02*
X115882704Y-137831580D01*
X115835085Y-138307771D01*
X115882704Y-138260152D01*
X115977942Y-138212533D01*
X116216038Y-138212533D01*
X116311276Y-138260152D01*
X116358895Y-138307771D01*
X116406514Y-138403009D01*
X116406514Y-138641104D01*
X116358895Y-138736342D01*
X116311276Y-138783961D01*
X116216038Y-138831580D01*
X115977942Y-138831580D01*
X115882704Y-138783961D01*
X115835085Y-138736342D01*
X114793733Y-134648542D02*
X114746114Y-134696161D01*
X114603257Y-134743780D01*
X114508019Y-134743780D01*
X114365161Y-134696161D01*
X114269923Y-134600923D01*
X114222304Y-134505685D01*
X114174685Y-134315209D01*
X114174685Y-134172352D01*
X114222304Y-133981876D01*
X114269923Y-133886638D01*
X114365161Y-133791400D01*
X114508019Y-133743780D01*
X114603257Y-133743780D01*
X114746114Y-133791400D01*
X114793733Y-133839019D01*
X115698495Y-133743780D02*
X115222304Y-133743780D01*
X115174685Y-134219971D01*
X115222304Y-134172352D01*
X115317542Y-134124733D01*
X115555638Y-134124733D01*
X115650876Y-134172352D01*
X115698495Y-134219971D01*
X115746114Y-134315209D01*
X115746114Y-134553304D01*
X115698495Y-134648542D01*
X115650876Y-134696161D01*
X115555638Y-134743780D01*
X115317542Y-134743780D01*
X115222304Y-134696161D01*
X115174685Y-134648542D01*
X118668742Y-129909866D02*
X118716361Y-129957485D01*
X118763980Y-130100342D01*
X118763980Y-130195580D01*
X118716361Y-130338438D01*
X118621123Y-130433676D01*
X118525885Y-130481295D01*
X118335409Y-130528914D01*
X118192552Y-130528914D01*
X118002076Y-130481295D01*
X117906838Y-130433676D01*
X117811600Y-130338438D01*
X117763980Y-130195580D01*
X117763980Y-130100342D01*
X117811600Y-129957485D01*
X117859219Y-129909866D01*
X118097314Y-129052723D02*
X118763980Y-129052723D01*
X117716361Y-129290819D02*
X118430647Y-129528914D01*
X118430647Y-128909866D01*
X99715580Y-119384676D02*
X99239390Y-119718009D01*
X99715580Y-119956104D02*
X98715580Y-119956104D01*
X98715580Y-119575152D01*
X98763200Y-119479914D01*
X98810819Y-119432295D01*
X98906057Y-119384676D01*
X99048914Y-119384676D01*
X99144152Y-119432295D01*
X99191771Y-119479914D01*
X99239390Y-119575152D01*
X99239390Y-119956104D01*
X99715580Y-118956104D02*
X98715580Y-118956104D01*
X99715580Y-118384676D01*
X98715580Y-118384676D01*
X99048914Y-117479914D02*
X99715580Y-117479914D01*
X98667961Y-117718009D02*
X99382247Y-117956104D01*
X99382247Y-117337057D01*
X102052380Y-115600076D02*
X101576190Y-115933409D01*
X102052380Y-116171504D02*
X101052380Y-116171504D01*
X101052380Y-115790552D01*
X101100000Y-115695314D01*
X101147619Y-115647695D01*
X101242857Y-115600076D01*
X101385714Y-115600076D01*
X101480952Y-115647695D01*
X101528571Y-115695314D01*
X101576190Y-115790552D01*
X101576190Y-116171504D01*
X102052380Y-115171504D02*
X101052380Y-115171504D01*
X102052380Y-114600076D01*
X101052380Y-114600076D01*
X101052380Y-114219123D02*
X101052380Y-113600076D01*
X101433333Y-113933409D01*
X101433333Y-113790552D01*
X101480952Y-113695314D01*
X101528571Y-113647695D01*
X101623809Y-113600076D01*
X101861904Y-113600076D01*
X101957142Y-113647695D01*
X102004761Y-113695314D01*
X102052380Y-113790552D01*
X102052380Y-114076266D01*
X102004761Y-114171504D01*
X101957142Y-114219123D01*
X104414580Y-119537076D02*
X103938390Y-119870409D01*
X104414580Y-120108504D02*
X103414580Y-120108504D01*
X103414580Y-119727552D01*
X103462200Y-119632314D01*
X103509819Y-119584695D01*
X103605057Y-119537076D01*
X103747914Y-119537076D01*
X103843152Y-119584695D01*
X103890771Y-119632314D01*
X103938390Y-119727552D01*
X103938390Y-120108504D01*
X104414580Y-119108504D02*
X103414580Y-119108504D01*
X104414580Y-118537076D01*
X103414580Y-118537076D01*
X103509819Y-118108504D02*
X103462200Y-118060885D01*
X103414580Y-117965647D01*
X103414580Y-117727552D01*
X103462200Y-117632314D01*
X103509819Y-117584695D01*
X103605057Y-117537076D01*
X103700295Y-117537076D01*
X103843152Y-117584695D01*
X104414580Y-118156123D01*
X104414580Y-117537076D01*
X106878380Y-115549276D02*
X106402190Y-115882609D01*
X106878380Y-116120704D02*
X105878380Y-116120704D01*
X105878380Y-115739752D01*
X105926000Y-115644514D01*
X105973619Y-115596895D01*
X106068857Y-115549276D01*
X106211714Y-115549276D01*
X106306952Y-115596895D01*
X106354571Y-115644514D01*
X106402190Y-115739752D01*
X106402190Y-116120704D01*
X106878380Y-115120704D02*
X105878380Y-115120704D01*
X106878380Y-114549276D01*
X105878380Y-114549276D01*
X106878380Y-113549276D02*
X106878380Y-114120704D01*
X106878380Y-113834990D02*
X105878380Y-113834990D01*
X106021238Y-113930228D01*
X106116476Y-114025466D01*
X106164095Y-114120704D01*
X72519600Y-134589424D02*
X73329124Y-134589424D01*
X73424362Y-134541805D01*
X73471981Y-134494186D01*
X73519600Y-134398948D01*
X73519600Y-134208472D01*
X73471981Y-134113234D01*
X73424362Y-134065615D01*
X73329124Y-134017996D01*
X72519600Y-134017996D01*
X72852934Y-133113234D02*
X73519600Y-133113234D01*
X72471981Y-133351329D02*
X73186267Y-133589424D01*
X73186267Y-132970377D01*
X69369780Y-117300333D02*
X70084066Y-117300333D01*
X70226923Y-117347952D01*
X70322161Y-117443190D01*
X70369780Y-117586047D01*
X70369780Y-117681285D01*
X69369780Y-116347952D02*
X69369780Y-116824142D01*
X69845971Y-116871761D01*
X69798352Y-116824142D01*
X69750733Y-116728904D01*
X69750733Y-116490809D01*
X69798352Y-116395571D01*
X69845971Y-116347952D01*
X69941209Y-116300333D01*
X70179304Y-116300333D01*
X70274542Y-116347952D01*
X70322161Y-116395571D01*
X70369780Y-116490809D01*
X70369780Y-116728904D01*
X70322161Y-116824142D01*
X70274542Y-116871761D01*
X87045866Y-154658266D02*
X87045866Y-155224933D01*
X87079200Y-155291600D01*
X87112533Y-155324933D01*
X87179200Y-155358266D01*
X87312533Y-155358266D01*
X87379200Y-155324933D01*
X87412533Y-155291600D01*
X87445866Y-155224933D01*
X87445866Y-154658266D01*
X88112533Y-154658266D02*
X87779200Y-154658266D01*
X87745866Y-154991600D01*
X87779200Y-154958266D01*
X87845866Y-154924933D01*
X88012533Y-154924933D01*
X88079200Y-154958266D01*
X88112533Y-154991600D01*
X88145866Y-155058266D01*
X88145866Y-155224933D01*
X88112533Y-155291600D01*
X88079200Y-155324933D01*
X88012533Y-155358266D01*
X87845866Y-155358266D01*
X87779200Y-155324933D01*
X87745866Y-155291600D01*
D12*
X102919590Y-159565219D02*
X102919590Y-158549219D01*
X103983971Y-159468457D02*
X103935590Y-159516838D01*
X103790447Y-159565219D01*
X103693685Y-159565219D01*
X103548542Y-159516838D01*
X103451780Y-159420076D01*
X103403400Y-159323314D01*
X103355019Y-159129790D01*
X103355019Y-158984647D01*
X103403400Y-158791123D01*
X103451780Y-158694361D01*
X103548542Y-158597600D01*
X103693685Y-158549219D01*
X103790447Y-158549219D01*
X103935590Y-158597600D01*
X103983971Y-158645980D01*
X104371019Y-158645980D02*
X104419400Y-158597600D01*
X104516161Y-158549219D01*
X104758066Y-158549219D01*
X104854828Y-158597600D01*
X104903209Y-158645980D01*
X104951590Y-158742742D01*
X104951590Y-158839504D01*
X104903209Y-158984647D01*
X104322638Y-159565219D01*
X104951590Y-159565219D01*
X89051190Y-159768419D02*
X89051190Y-158752419D01*
X90115571Y-159671657D02*
X90067190Y-159720038D01*
X89922047Y-159768419D01*
X89825285Y-159768419D01*
X89680142Y-159720038D01*
X89583380Y-159623276D01*
X89535000Y-159526514D01*
X89486619Y-159332990D01*
X89486619Y-159187847D01*
X89535000Y-158994323D01*
X89583380Y-158897561D01*
X89680142Y-158800800D01*
X89825285Y-158752419D01*
X89922047Y-158752419D01*
X90067190Y-158800800D01*
X90115571Y-158849180D01*
X91083190Y-159768419D02*
X90502619Y-159768419D01*
X90792904Y-159768419D02*
X90792904Y-158752419D01*
X90696142Y-158897561D01*
X90599380Y-158994323D01*
X90502619Y-159042704D01*
D10*
X84274066Y-165644580D02*
X84274066Y-166358866D01*
X84226447Y-166501723D01*
X84131209Y-166596961D01*
X83988352Y-166644580D01*
X83893114Y-166644580D01*
X84702638Y-165739819D02*
X84750257Y-165692200D01*
X84845495Y-165644580D01*
X85083590Y-165644580D01*
X85178828Y-165692200D01*
X85226447Y-165739819D01*
X85274066Y-165835057D01*
X85274066Y-165930295D01*
X85226447Y-166073152D01*
X84655019Y-166644580D01*
X85274066Y-166644580D01*
X109216866Y-166304980D02*
X109216866Y-167019266D01*
X109169247Y-167162123D01*
X109074009Y-167257361D01*
X108931152Y-167304980D01*
X108835914Y-167304980D01*
X109597819Y-166304980D02*
X110216866Y-166304980D01*
X109883533Y-166685933D01*
X110026390Y-166685933D01*
X110121628Y-166733552D01*
X110169247Y-166781171D01*
X110216866Y-166876409D01*
X110216866Y-167114504D01*
X110169247Y-167209742D01*
X110121628Y-167257361D01*
X110026390Y-167304980D01*
X109740676Y-167304980D01*
X109645438Y-167257361D01*
X109597819Y-167209742D01*
X84531295Y-149200620D02*
X84531295Y-150010144D01*
X84578914Y-150105382D01*
X84626533Y-150153001D01*
X84721771Y-150200620D01*
X84912247Y-150200620D01*
X85007485Y-150153001D01*
X85055104Y-150105382D01*
X85102723Y-150010144D01*
X85102723Y-149200620D01*
X86102723Y-150200620D02*
X85531295Y-150200620D01*
X85817009Y-150200620D02*
X85817009Y-149200620D01*
X85721771Y-149343478D01*
X85626533Y-149438716D01*
X85531295Y-149486335D01*
D14*
X115747847Y-130739390D02*
X115747847Y-131144152D01*
X115771657Y-131191771D01*
X115795466Y-131215580D01*
X115843085Y-131239390D01*
X115938323Y-131239390D01*
X115985942Y-131215580D01*
X116009752Y-131191771D01*
X116033561Y-131144152D01*
X116033561Y-130739390D01*
X116247847Y-130787009D02*
X116271657Y-130763200D01*
X116319276Y-130739390D01*
X116438323Y-130739390D01*
X116485942Y-130763200D01*
X116509752Y-130787009D01*
X116533561Y-130834628D01*
X116533561Y-130882247D01*
X116509752Y-130953676D01*
X116224038Y-131239390D01*
X116533561Y-131239390D01*
M02*
